<svg xmlns="http://www.w3.org/2000/svg" xmlns:xlink="http://www.w3.org/1999/xlink" version="1.1" x="0px" y="0px" viewBox="0 0 227.7 273.8" enable-background="new 0 0 227.7 273.8" xml:space="preserve" width="227.6999969482422" height="273.79998779296875">
<g id="Background">
</g>
<g id="Objects">
	<g>
		<g>
			<path fill="#009245" d="M189.3,59.7c2.7,0.2,7.9,1.5,7.7,2.1C164.5,156.3,107.9,236.7,0.2,273C0.1,273.1,142.5,219.3,189.3,59.7z     "/>
			<g>
				<g>
					<g>
						<g>
							<path fill="#20A05D" d="M189.6,59.8c0-0.3-0.1-0.2-0.3,0.7l0,0.6L189.6,59.8z"/>
							<path fill="#20A05D" d="M187.6,65.3c-0.2,1-0.4,2.2-0.1,1.6c0.1-1,0.3-1.2,0.4-2.3c0.2-0.8,0.5-1.4,0.5-1.3         c0-0.3,0.4-1.3,0.5-1.8C188.4,62.6,188,64,187.6,65.3C187.5,65.7,187.6,65.4,187.6,65.3z"/>
							<path fill="#20A05D" d="M151.7,142.6l0.3-0.5C151.9,142.3,151.8,142.4,151.7,142.6z"/>
							<path fill="#20A05D" d="M120,184.8c0.3-0.3,0.4-0.4,0.4-0.5C120.1,184.6,119.9,184.9,120,184.8z"/>
							<path fill="#20A05D" d="M113.8,191.4c0.1-0.1,0.2-0.3,0.4-0.4C114,191.2,113.9,191.3,113.8,191.4z"/>
							<path fill="#20A05D" d="M151.7,142.6l-0.8,1.2C150.9,143.9,151.3,143.2,151.7,142.6z"/>
							<path fill="#20A05D" d="M184.2,76.7c0.1-0.3,0.2-0.5,0.2-0.7C184.4,76.2,184.3,76.4,184.2,76.7         C184.2,76.6,184.2,76.6,184.2,76.7z"/>
							<path fill="#20A05D" d="M163.3,122.4l0.2-0.4c0-0.1,0.1-0.2,0.1-0.3L163.3,122.4z"/>
							<path fill="#20A05D" d="M171.3,106.4c-0.2,0.4-0.1,0.6-0.1,0.7c0-0.2,0.1-0.5,0.3-0.8C171.4,106.2,171.4,106.3,171.3,106.4z"/>
							<path fill="#20A05D" d="M182.4,80.3l0.2-0.5C182.5,79.9,182.4,80.1,182.4,80.3z"/>
							<path fill="#20A05D" d="M157,133.5c0,0-0.1,0.1-0.1,0.1C156.9,133.7,157,133.6,157,133.5z"/>
							<path fill="#20A05D" d="M192.1,73.5C192.1,73.5,192.1,73.5,192.1,73.5C192.2,73.4,192.2,73.3,192.1,73.5z"/>
							<path fill="#20A05D" d="M189.3,59.7l0.3,0c0,0,0.1,0,0.1-0.1L189.3,59.7z"/>
							<path fill="#20A05D" d="M102.1,203.1C102.2,203.1,102.2,203.1,102.1,203.1C102.5,202.7,102.3,202.9,102.1,203.1z"/>
							<path fill="#20A05D" d="M26,263.7c-1.6,0.6,2.5-1.3,0.1-0.4C26.3,263.3,24,264.4,26,263.7z"/>
							<path fill="#20A05D" d="M184.1,77.1c-0.1,0.2-0.2,0.5-0.2,0.7C183.9,77.5,184,77.3,184.1,77.1z"/>
							<path fill="#20A05D" d="M26.1,263.3L26.1,263.3l-0.3,0.1C25.9,263.4,26,263.3,26.1,263.3z"/>
							<path fill="#20A05D" d="M73.6,228.3c0.1,0,0.2-0.1,0.3-0.2C73.9,228.1,73.9,228.1,73.6,228.3z"/>
							<path fill="#20A05D" d="M95.3,210l-0.5,0.5C95,210.3,95.2,210.1,95.3,210z"/>
							<path fill="#20A05D" d="M62,237.3c-0.3,0.2-0.4,0.3-0.8,0.6c0,0,0.1,0,0.1-0.1C61.4,237.7,61.6,237.5,62,237.3z"/>
							<path fill="#20A05D" d="M49.4,246c0.1,0,0.2-0.1,0.3-0.1c0.1-0.1,0.3-0.2,0.4-0.3L49.4,246z"/>
							<path fill="#20A05D" d="M173.9,116.3c0.2-0.3,0.3-0.5,0.4-0.6C174.1,115.9,175.1,113.8,173.9,116.3z"/>
							<path fill="#20A05D" d="M184.2,76.6c0,0.1,0,0.2-0.1,0.5C184.1,76.9,184.2,76.8,184.2,76.6C184.2,76.6,184.2,76.5,184.2,76.6         z"/>
							<path fill="#20A05D" d="M62.1,238.5l-2,1.4C60.7,239.6,61.4,239,62.1,238.5z"/>
							<path fill="#20A05D" d="M110.7,205.5l0.4-0.4C110.9,205.2,110.8,205.4,110.7,205.5z"/>
							<path fill="#20A05D" d="M54.2,244.1c-0.4,0.2-0.8,0.4-1.2,0.7c-0.1,0.1-0.2,0.1-0.2,0.2L54.2,244.1z"/>
							<path fill="#20A05D" d="M174.3,115.7C174.3,115.7,174.3,115.7,174.3,115.7C174.3,115.7,174.3,115.7,174.3,115.7z"/>
							<path fill="#20A05D" d="M180.8,101c-0.9,2.1-0.3,1.1-0.4,1.6c-1.1,2.6-0.6,1.1-1.1,1.9c-0.7,1.6-1.1,2.9-1.6,4         c-0.1,0.1-0.2,0.3-0.1,0c-0.6,1.7-2.3,4.9-3.1,6.9c-0.1,0.1-0.1,0.2-0.2,0.2c0.2-0.3,0.3-0.3,0.4-0.2c-0.5,0.9-0.8,1.8-1,2.1         c0.3-0.6,0.3-0.6,0.4-0.9l-0.4,1c-0.6,0.8,0.6-1.4,0.5-1.4c-0.9,1.9-1.9,4.2-2.6,5.6c-0.3,0.2,1.7-3.4,0.6-1.6l1.2-2.2         c-1.1,1.6,0.7-1.4-0.3,0.1c-1.5,3-1.6,3.4-3.2,6.3c-0.3,0.7,0.2-0.2,0,0.6c-2,4.2-2.1,3.1-3.6,6.2c-0.3,0.8-0.3,1.2-1.6,3.3         l0.2-0.8c-1.6,2.8-0.6,1.8-2.4,4.6c0.2-0.5,1.2-2.2,0.9-1.8c-1.2,1.8-0.7,1.4-1.5,2.8l-0.3,0.2c-0.8,1.5-1.7,3-2.6,4.6         c-0.9,1.6-1.9,3.2-2.9,4.8c0.1-0.2,0.4-0.8-0.1-0.1c-1.2,2-2.6,4.2-4,6.3c-1.4,2.1-2.8,4.2-4.2,6l-0.9,1.5         c-0.2,0.3-0.5,0.6-0.3,0.2c-1.1,1.4,0,0.1-0.4,0.9c-0.6,0.8-0.8,1.1-0.5,0.5c-1.7,2.7-5.1,7.4-7.2,10l0.4-0.5         c-1.6,2-1.6,2.5-3.2,4.3l0.3-0.4c-1.8,2.2-3.6,4.5-5.4,6.7c-1.8,2.1-3.5,4.2-5,5.7c-0.4,0.7-3.8,4.1-3.8,4.6         c-2.3,2.3-1.7,1.5-4.9,4.8c-0.8,0.9-1.1,1.4-2.1,2.5l-0.1-0.1c0,0-0.3,0.4-0.7,0.8c-0.3,0.4-0.7,0.8-0.7,0.8l-0.9,0.6l-1,1         c0.4-0.4,0.9-0.8,0.9-0.7c-0.8,0.8-1.7,1.7-2.5,2.4c-0.8,0.7-1.4,1.2-1.5,1.2c0,0-0.2,0.2-0.6,0.6c-0.3,0.3-0.8,0.8-1.3,1.2         c-0.9,0.9-1.9,1.8-1.9,1.8c0-0.1,0.7-0.7,1.1-1.2c-1.9,2-0.5,0.2-2.2,2c0.3-0.2-0.1,0.2-0.1,0.3c-0.5,0.4-1.3,1.1-2.1,1.8         c-0.9,0.8-1.8,1.6-2.6,2.3l0.2-0.3c-1.5,1.3-3,2.6-4.6,3.9c-1.6,1.3-3.3,2.7-5,4c1.2-0.9,1.1-0.6,0.1,0.2l-0.5,0.2         c-0.6,0.6,1.1-0.8-0.2,0.4c-1.3,1-1,0.5-0.3-0.1l-1.5,1.3c-0.1,0,0.2-0.3,0.3-0.4c-0.6,0.6-2.8,1.9-3.6,2.7l-0.1,0         c-1.7,1.3-3,2.3-4.1,3.1c-1.2,0.8-2.3,1.6-3.7,2.7c0,0.2-1.1,0.9-1.9,1.6c-2.1,1.5-4.6,2.9-7.2,4.6c-1.8,1.3-0.5,0.4-1.3,1.1         c-0.1,0-0.8,0.4-1.3,0.7c-0.5,0.3-0.9,0.5-0.2,0c-3.2,1.9-4.1,2.5-8.1,5c0.5-0.2,1-0.5,0.7-0.3c-0.7,0.5-1.7,0.9-1.6,0.8         l0.2-0.1c-2.3,1.4-5,2.8-7.6,4.1c-2.6,1.3-5.2,2.5-7,3.6l0.2-0.1c0,0-1,0.5-1.9,1.1c-1,0.5-1.9,1-1.9,1         c-1.8,0.8,1.1-0.6-0.3,0c-4.2,2.2-6.7,3.2-10.3,4.8c-1.5,0.4-3.9,1.5-6.5,2.6c-2.6,1-5.3,2.2-7.3,2.8l0.3,0         c-0.9,0.5-1.2,0.4-1.9,0.7c0.1,0,1.1-0.3,0.5-0.1c-2.1,0.8-4.2,1.6-6.4,2.3c-1.1,0.4-2.2,0.8-3.3,1.1l-0.8,0.3l-0.4,0.1         l-0.1,0c0,0,0,0,0,0l0.1,0c0.4-0.3,0.6,2.2,0.4,1.1l0,0l0,0l0.2-0.1l1.6-0.6c4.3-1.7,8.6-3.6,12.7-5.6c3-1.5,1.5-1.2,5.4-3         l-1,0.7c5.9-3.3,12.2-6.6,17.8-10.1c-0.3,0.2-0.3,0.3-0.9,0.6c0.6-0.3,1.7-1,2.7-1.6c0.9-0.6,1.7-1.1,1.7-1.2         c0.9-0.5,0.3,0,0.8-0.3c1.2-0.7,2.9-2,3.6-2.3c0.1-0.1-0.3,0.2-0.5,0.4c0.7-0.5,3.6-2.3,2.8-1.9c2.1-1.3,3.9-2.6,5.6-3.7         c1-0.8,3.6-2.3,3.8-2.8c0,0.3,3.7-2.3,4.9-3.4c-0.4,0.4,1.2-0.7,0.7-0.3c1.4-1.1,2.7-2.1,2.4-2c2.8-1.7,5.2-4.1,6.9-5         c4.1-3.3,7.9-6.5,11.5-9.6c0,0.3-4.1,3.4-3.8,3.4c3.5-2.9,5.3-4.8,8.8-7.7c0.9-0.7-0.4,0.5-0.7,0.8c3.4-3,6.6-5.8,9.5-8.6         c0,0-0.3,0.3-0.6,0.6c0.6-0.5,1.4-1.2,1.2-1.2l-0.5,0.6c-1,0.8,2.1-2.4,2.1-2.6c-0.8,1.1,2.9-2.7,1.6-0.9         c0.4-0.4,0.8-0.9,0.7-0.8c0.6-0.5,0.8-0.7,0.3-0.1c2-2,1.2-1.4,3-3.2c0,0-0.3,0.4-0.5,0.6c0.9-1,1.7-2,3.3-3.5         c-0.1,0.1,0.1,0-0.3,0.4c1.3-1.3,2.4-2.5,3.5-3.8c1.1-1.2,2.2-2.5,3.7-3.9c-0.7,1,1-1,1.3-1l1.5-1.7l-0.7,0.6         c1.3-1.4,2.3-2.8,3.5-4l-0.9,1.1c0,0,0.6-0.7,1.2-1.4c0.6-0.7,1.2-1.4,1.2-1.4l-1.4,1.5c1.2-1.5-0.3,0,1.4-1.9         c-0.3,0.4,1.3-1.5,2-2.2l0,0c0.6-0.8,1.2-1.5,2.1-2.6c0.3-0.2,0,0.4,0.2,0.2c0.5-0.8,2.9-3.5,3.5-4.6         c-0.2,0.3-0.2,0.4-0.1,0.3l0.4-0.7c0.6-0.7,0.7-0.8,0.7-0.6c1.7-2.1-0.7,0.5,1.4-1.9c-0.1,0.2-0.1,0.1-0.4,0.5         c2.1-2.5,3.8-4.9,5.6-7.3c0.7-0.6-1.5,2.1-0.8,1.4c1.3-1.7,2.5-3.5,3.8-5.3c1.3-1.8,2.5-3.6,3.7-5.3l-0.5,0.6         c0.1-0.6,1.9-2.4,2.9-4.2c-0.3,0.4-0.3,0.6-0.2,0.5c1.6-2.3,3.2-4.8,5.4-8.5l-0.2,0.5c0.9-1.4,2.4-3.7,3.3-5.2         c0.2-0.5,0.8-1.4,0.4-0.9c3.2-4.5,5.2-9.2,7.8-13.4c-0.3,0.5-0.6,1.3-0.4,0.8l1.9-3.7c-0.3,0.2-0.3,0.4-0.8,1.2         c0.2-0.5,0.7-1.6,1.2-2.5c-0.8,1.7,0.2,0.1,0.6-0.6c-0.1,0.1,0-0.2-0.1-0.1c1.2-1.8,0-0.4,1.4-3l0,0.2c0.5-1,0.9-2,1.4-3         c0.3-0.4-0.5,1.1-0.4,1.2c0.8-1.5,1.2-3.1,2-4.4c-0.3,0.7-0.7,1.6-1,2.3c0.9-1.4,0.9-1.6,1.5-2.7l-0.1,0.1l1.3-2.5l-0.4,0.6         c0.6-2.1,1.8-3.9,2.7-6.6c-1,2.6-0.1,0.5,0,0.7c0.3-0.6,0.8-1.6,0.8-1.3c0.4-1.3,1-2,1.6-3.8c0.1-0.1,0.6-1.3,0.6-1         c0.7-1.6-0.2,0.3-0.2,0.2c0.5-1.3,1.1-2.7,1.8-4.3c0.7-1.6,1.5-3.3,2-5.2c1.1-3.2,1.2-3.8,2.2-6.7c0.2-0.5,0.2-0.3,0.1,0.1         c-0.1,0.3-0.2,0.8-0.2,0.8c0.6-1.6,1.1-2.8,1.5-4.3c-0.1,0.3,0.1,0,0.3-0.4c0.4-1.2,0.1-0.9,0.8-2.4c0,0.3-0.1,0.7-0.2,1.3         c0.5-1.4,0.8-2.9,1.3-4.4c0.2-0.4-0.2,0.9-0.3,1.5c0.5-1.7,1.4-4.3,1.4-4.9l-0.4,1.1c0.2-0.6,0.2-0.3,0.1,0.2         c-0.4,1.5-0.7,2-0.8,2.1l0.3-1.1c-0.6,1-1.3,4.3-2.1,6.4l0.1-0.9l-0.6,2.2c-0.2,0.4-0.4,0.7-0.1-0.3c-0.6,1.5-0.4,1.4-1,2.6         c-0.1,0.1-0.1,0.1,0-0.1l-0.5,1.5c0.1-0.3-0.2,0.2,0.1-0.7c-1.1,2.6-1.5,4.3-2,5.2l0.1-0.2c-1.3,3.7,0,0.4-0.9,3.2l-1.1,1.7         l0,0.4c-0.2,0.4-0.5,1.1-0.5,0.9c-0.5,1.4,0.2-0.2-0.1,0.6c-0.8,1.8-2,5-2.4,5.3c-0.2,0.7,0.8-1.7,0.1,0.3         c-0.5,0.4-0.9,2.2-1.7,3.8c0.1-0.5,0.8-2.1,0-0.5c-0.2,1.1-1.5,3.1-2.1,4.5c0.1,0.1-0.3,0.8-0.7,1.8c-0.5,1-1.1,2.3-1.6,3.4         c0-0.2-2.1,4.2-3.3,6.2l0-0.1c-0.1,0.5-1.2,2.6-2,4.2c-0.1-0.1,0.1-0.4,0.5-1.3l-0.8,1.4c-0.1,0.4-0.3,0.8-0.8,1.8l0.1-0.4         c-1,1.9-1.9,4-3.4,6.4c0,0.2,1.4-1.8,0,0.9c-0.1,0.1-0.3,0.1,0.1-0.6c-0.1,0.2-0.4,0.8-0.7,1.3l0.5-1.1         c-0.7,1.1-0.2,0.6-0.8,1.5c-0.1-0.1-0.4,0.6-0.4,0.5c0.1-0.2,0.5-0.8,0.6-1.1c-0.6,1-1.3,2.2-1.6,2.5         c0.1-0.1,0.1,0.1-0.3,0.8c-1.1,1.9-0.5,0.6-1.2,1.7c-0.2,0.5-1,1.7-0.9,1.8c-0.3,0.5-0.4,0.6-0.6,0.8c-0.5,1-2.8,4.5-2,3.5         l0.2-0.2c0,0-0.1,0.1-0.1,0.2c0,0,0,0,0,0l0,0c-0.9,1.6-2,3.2-3.1,4.8c-1.1,1.6-2.2,3.2-3.2,4.7l0,0         c-1.2,1.9-2.7,4.1-3.6,5.4c-0.4,0.5-1,1.2-0.9,0.9c-1,1.4-1,1.6-2.5,3.5c0.9-1.4-0.4,0.4,1-1.4c-1.3,1.7-1.7,2.1-3,4.1         c0.4-0.7-1.1,1.2-1.7,2.1l1-1.2c-0.7,0.9-1.3,1.7-2,2.6l0.2-0.5c-2.9,3.4-4.7,6.6-7.1,9c-0.7,1,1.6-1.8,1-0.9         c-1.3,1.6-2.9,3.1-3.3,3.6c-1.9,2.1-1.5,2.2-3.5,4.4c0.3-0.2,0.6-0.4-0.8,1.3c-1.4,1.5-1.9,1.7-1,0.7         c0.3-0.4,0.5-0.5,0.5-0.5c0.4-0.5,1-1.2,0.4-0.6l-0.1,0.2c-0.7,0.7-2.6,2.8-2.2,2.3c-1,1.2-0.4,0.6,0.4-0.3         c-1.8,1.9-2.7,3.1-4.6,5c0.3-0.3,0.6-0.5,0.3-0.2c-2.8,2.9-1.1,1.4-2.9,3.4c-1.1,1,0.2-0.5-1.6,1.5c-1.2,1.2-0.4,0.1,0.1-0.4         c-1.6,1.9-3.3,3.3-4.3,4.3l0.9-1c-0.5,0.6-1,1-1.4,1.5l0.6-0.4c-0.6,0.5-1,1-1,0.9c-0.5,0.6,0.6-0.3-0.5,0.9         c-0.8,0.7-2.2,2.2-2.5,2.4c2.3-2.2-0.4,0.1,1.6-1.8c-0.4,0.4-0.8,0.8-1.4,1.3c-0.1,0.1,0.1-0.1,0.2-0.3         c-2.3,2-0.9,1.1-3.2,3.3c0.2-0.3-0.7,0.4-1,0.8c0.9-0.9,0.5-0.3-0.3,0.5c-1.5,1.4-1.6,1.6-2.4,2.3l0.9-0.8c-0.2,0.3-1,1-2,2         c-0.1,0,0.9-0.9,0.5-0.6c-1.1,1.2-2.7,2.3-4.3,3.8c-0.8,0.6-0.2-0.1-0.9,0.5c-1.8,1.7-2.1,1.7-4,3.4c0.6-0.4,0.7-0.5-0.6,0.8         l3.2-2.9l-2,1.9c1-0.8,2-1.8,2.6-2.3c-0.9,0.9-0.8,0.8-0.3,0.5c-1.5,1-2.6,2.4-4.2,3.6l-0.1-0.3c-2.4,1.9-4.1,3.6-7.2,6.1         l1-0.8c-0.3,0.4-1.9,1.6-2.9,2.4c0-0.2-0.6,0.3-1.1,0.6c0.1,0-2.3,1.8-2.5,2.2l-1.5,1c-2.6,1.9-2.7,2.4-5.2,4.3         c0.7-0.6-0.5,0.1,1.1-1.2c-0.8,0.6-1.6,1.1-1.6,1.2c-0.5,0.3-2.2,1.8-3.1,2.3c-0.3,0.3-0.4,0.5-1.3,1.1c-0.1,0.1,0,0,0,0         c0,0-1.4,1.1-0.6,0.6c-2.8,1.6-7.3,5.1-9.7,6.4c-1.9,1.3-4.1,2.8-5.8,3.9c0.1-0.1,0,0,0.3-0.2c-2.4,1.4-1.3,1.2-4.1,2.8         c-1.5,0.7,1.4-1,0.5-0.5c-0.5,0-3.3,2.1-5.2,3l0.4-0.3c-1.5,0.8-3.4,2.2-5.8,3.5c0,0,0.1-0.1,0-0.1c-1.5,1.1-4.5,2.8-6.8,4.1         c0.6-0.5,1-0.6,0.5-0.5c-1,0.6,0.4,0-1.6,1.1c-0.7,0.3-2.2,1-2.5,1l1.9-1c-1.1,0.4-2.5,1.3-3.5,1.8l0.1-0.1         c-3,1.5-2.9,1.7-6.2,3.3l0.4-0.1c-1.7,1-1.5,0.6-3.3,1.6l-0.6,0.1c-1.2,0.6-4.1,2.1-6.2,3c1.2-0.6,3.6-1.8,5.1-2.6         c-1.2,0.5-4,1.8-4.6,2.1c0.5-0.2,1.1-0.5,1.5-0.7c-0.7,0.4-1.5,0.8-2.5,1.2c-0.5,0.2-1,0.4-1.5,0.7l-0.1,0l0,0l0,0l0,0         c0,0,0,0-0.1,0.1c0.1,0.4,0.2,0.2,0.2,0.2l0,0l0,0l0,0l0,0c-0.1,0,0,0,0.1,0l0.2-0.1c0.1-0.1,0.3-0.1,0.4-0.2         c0.3-0.1,0.6-0.2,0.9-0.3c-0.3,0.5,6.3-2.2,8.2-2.5c2.1-0.9,4.2-1.7,6.4-2.5c1.1-0.4,2.2-0.8,3.4-1.3c1.1-0.5,2.3-1,3.5-1.5         c-1.8,0.5,1.4-0.6,1-0.8c1.1-0.5,1.6-0.7,1.7-0.7l3.5-1.3c0.8-0.3-1,0.5-0.9,0.6c2.5-1.1,1.1-0.4,2.7-1         c-0.4,0.1,0.8-0.5,2.2-1.2l-2,0.8c3.4-1.8,3.1-1.2,6.4-2.9l-1,0.6c1.8-0.8,6.4-3.3,8-4.3c0.3-0.1,0.8-0.3,0,0.2         c2.1-1,4.3-2.4,6.5-3.6c2.1-1.3,4.2-2.4,5.8-3.3L57,248c0.7-0.5,1.2-0.9,2.2-1.4c0,0.1-0.3,0.2,0.1,0         c0.4-0.3,1.9-1.3,2.9-1.9l-0.8,0.6c1-0.6,1.9-1.1,2.6-1.6c0.8-0.5,1.5-1,2.1-1.5c1.4-1,2.6-1.9,4.2-2.9         c0.1,0.1,0.8-0.3,1.8-0.9c0.9-0.6,2.1-1.3,2.8-1.8l0,0.1c2.2-1.5,4-2.8,5.8-4.2c1.7-1.4,3.4-2.7,5.3-4.2         c1.3-0.8,3.3-2.4,5.5-4.2c1.1-0.9,2.2-1.8,3.3-2.7c1.1-0.9,2.1-1.8,3.1-2.6c-0.6,0.5,0-0.2,0.6-0.8c0.9-0.7,2.3-2.2,2.3-1.9         l-0.3,0.3c0.8-0.4,2.5-2.1,3.9-3.3l0-0.4c1.9-1.5,4.2-3.6,6.2-5.7c2-2.1,3.9-3.9,4.9-4.7c0.8-0.9,1.7-1.9,2.5-2.8l0.1,0.1         c1.1-1.2,2-2,2.9-3c0.9-1,1.8-2,3.1-3.5l-0.5,0.7c1.5-1.7,1.6-2.4,3-3.9l0.6-0.3c1.3-1.5,2.6-3,3.9-4.5         c0.6-0.8,1.3-1.5,1.9-2.3c0.6-0.8,1.2-1.6,1.8-2.3c0,0.1,0,0.2-0.4,0.7c1.2-1.4,4.6-5.5,3.9-5.2c0.2,0.1,2.4-3.2,3.6-5         l-0.1,0.3c0.9-1.5,0.9-1.6,2.4-3.7c0.4-0.5,0.4-0.4-0.1,0.3c1.2-1.6,0.8-1.3,2.2-3.2l-0.4,0.8c1.2-1.7,1-1.6,1.6-2.5         c0.3-0.5,0.9-1.3,1.4-2c0.5-0.7,0.9-1.3,1.1-1.3c0.1-0.3,0.6-1.3,1.3-2.2c0.1-0.1-0.1,0.3-0.2,0.5c1.9-2.8,2.7-4.3,4-6.2         c0.1,0,0.2-0.1,0.3-0.3c-1.4,2.3-2.7,4.1-2.5,3.9c0.1,0.1,1.3-1.7,0.5-0.2c0.9-1.5,2.3-4.2,3.5-5.9c0.1-0.1,0.1-0.2,0.2-0.2         L157,149c0.3-0.4,0.5-0.8,0.7-1.1c0.4-0.6,0.6-0.9,1-1.5c0.2-0.1,1.3-2.1,1.9-3c-0.2,0,0.6-1.2-0.2-0.1         c0.1-0.1-0.1,0.2-0.5,0.8c-0.1,0.1-0.2,0.3-0.2,0.4c0,0,0,0,0-0.1c-0.4,0.6-0.8,1.4-1.4,2.3c0.4-0.8,0.8-1.6,1.5-2.6         c0.2-0.5,0.4-1.1,0.6-1.4c0.9-1.2,2.5-3.6,2.8-3.9c1.6-2.9,3.8-6.8,4.6-8.8c0.4-0.8,0.6-0.9,0.8-1.2         c-0.2,0.5-0.5,1.1-0.6,1.3c0.8-1.7,2.6-5,2.6-5.4c1.2-2.1-0.5,1.3,1-1.6l-0.2,0.4c3.2-5.6,4.3-9.5,7.6-15.8         c-0.2,0.4-0.3,0.7-0.4,0.7c1.8-3.6,3.4-7.5,5.1-11.3c1.6-3.9,3.2-7.7,4.8-11.4c0.9-2.1,0.9-2.4,1.3-3.7l0.3-0.4l0.7-2.3         c1.1-3.2,2.4-5.3,3.6-9.4l-0.3,0.5c0.5-1.4,1.6-4.6,1.6-4.3c0-0.2,0.1-0.5,0.3-1.1l0.1,0c0,0,0.3-0.9,0.6-1.8         c0.1-0.5,0.3-0.9,0.4-1.3c0-0.1,0-0.2,0.1-0.3c0-0.1-0.1-0.1-0.1-0.2c-0.1-0.1-0.1-0.1-0.1-0.1c-0.2-0.1-0.3-0.2-0.5-0.3         c-0.1-0.1-0.2-0.1-0.3-0.1c-0.2-0.1-0.3-0.1-0.4-0.2c-0.1-0.1-0.1-0.1-0.1-0.2c0-0.1-0.2-0.3-2.3-0.8         c-0.8-0.2-1.9-0.3-2.8-0.4c-0.9-0.1-1.5,0-1.2,0c0.6,0,1.6,0.3,1.7,0.3c0,0-0.4,0-0.7-0.1c-0.4,0-0.7-0.1-0.7-0.1         c-0.1,0.1-0.5,0.2-0.4,0.3c0.1,0.1,0.7,0.2,2.4,0.6c0,0,0.6,0.1,1.2,0.2c0.6,0.1,1.2,0.2,1.2,0.2l0.7,0.3c0,0-0.5-0.1-1-0.3         c-0.5-0.1-1-0.2-1-0.2c1.1,0.4,1.8,0.5,2.6,0.6c0.1,0.1,0.2,0.1,0.3,0.2c0.1,0,0.2,0.1,0.2,0.1c0,0,0.1,0,0.1,0.1         c0,0,0,0,0,0c0,0,0.3,0,0.2,0.2c-0.1,0.6-0.3,1.2-0.3,1.2c-0.2,0.2,0.2-1.1-0.4,0.4c-0.3,1.1,0.6-1,0,0.8         c-0.5,1.1-0.5,0.7-0.8,2.1c-0.1,0.2-0.1-0.1,0.1-0.7c-0.3,1.2-1.1,3.1-1.2,3.7c-0.5,1.1-1.4,3.9-1.6,3.7         c-0.1,0.4-0.6,2.1-1,3.2c0.5-2-1.5,4-1.6,3.4c-0.3,1.5-1.9,5.2-2.8,7.8c0-0.1,0.1-0.4,0.2-0.7c-0.6,1.4-0.8,1.8-1.3,2.7         c0.1,0.3-0.8,2.5-1.2,3.7c-0.9,1.7,0.2-1.1-0.2-0.7c0.2,0-1.1,3.1-0.7,2.5c-0.7,1.3-0.5,1.1-1,1.7c0.1,0.3-0.5,1.2-0.8,2.4         c-0.9,1.8-0.4,0.4-1.3,2.5C180,102.9,180.8,101,180.8,101z M155.9,149.1L155.9,149.1c0.2-0.4,0.5-0.7,0.6-1         C156.3,148.3,156.2,148.6,155.9,149.1z M153.5,152.9c0.3-0.5,0.7-1.1,1.1-1.7c0.1-0.1,0.1,0.1-0.2,0.5         C154.5,151.5,153.9,152.4,153.5,152.9z M159.4,145.3c-0.3,0.6-0.5,0.8-0.6,0.9c0.2-0.3,0.4-0.6,0.6-1.1c0,0,0-0.1,0-0.1         C159.5,145.1,159.4,145.1,159.4,145.3z"/>
							<path fill="#20A05D" d="M159.9,144.1c0-0.1,0.1-0.1,0.1-0.3c-0.1,0.1-0.2,0.2-0.2,0.4c0,0.1-0.1,0.2-0.1,0.2         C159.8,144.3,159.8,144.2,159.9,144.1z"/>
							<path fill="#20A05D" d="M152.1,142.1L152.1,142.1C152.1,142.1,152.1,142,152.1,142.1C152.1,142,152.1,142,152.1,142.1z"/>
							<polygon fill="#20A05D" points="114.2,201.9 114.2,201.9 114.5,201.6        "/>
							<path fill="#20A05D" d="M165,120.5c0,0,0.1-0.1,0.2-0.3C165.2,120.3,165.1,120.4,165,120.5z"/>
							<path fill="#20A05D" d="M169.9,110.8l0.7-1.4C170.3,110.1,170.1,110.5,169.9,110.8z"/>
							<path fill="#20A05D" d="M173.5,103.3c0-0.1,0-0.1,0-0.2l0,0L173.5,103.3z"/>
							<path fill="#20A05D" d="M96.4,210.3c-0.1,0.1-0.2,0.2-0.2,0.2C95.6,211.1,96,210.7,96.4,210.3z"/>
							<path fill="#20A05D" d="M123.5,181.6c-0.3,0.3-0.5,0.7-0.8,1C123.2,182.1,123.5,181.7,123.5,181.6z"/>
							<path fill="#20A05D" d="M62.4,238.4L62.4,238.4c-0.1,0.1-0.1,0.1-0.2,0.2L62.4,238.4z"/>
							<path fill="#20A05D" d="M121.5,184c0.5-0.5,0.9-1,1.2-1.4C122.3,183,121.9,183.5,121.5,184z"/>
							<path fill="#20A05D" d="M186.6,69.6l0.1-0.4c0,0,0,0,0-0.1L186.6,69.6z"/>
							<path fill="#20A05D" d="M186.8,69.2l0.1-0.4C186.8,68.9,186.8,69.1,186.8,69.2z"/>
							<path fill="#20A05D" d="M187.1,67.8l-0.3,0.9C187,68.4,187.1,68.1,187.1,67.8z"/>
							<path fill="#20A05D" d="M183,80l0,0.1C183,80.1,183,80.1,183,80z"/>
							<path fill="#20A05D" d="M181.8,83.2c0.3-0.7,0.8-1.8,1.2-2.9l0-0.1C182.9,80.7,182,82.5,181.8,83.2z"/>
							<path fill="#20A05D" d="M176.1,96c0,0,0.3-0.6,0.6-1.3c0.3-0.6,0.5-1.3,0.5-1.3c-0.2,0.4-0.5,1-0.1-0.2         C175.6,96.4,177.5,92.6,176.1,96z"/>
							<path fill="#20A05D" d="M172.5,103.9c0.6-1.4-0.1,0-0.1-0.1C172,104.7,172,104.9,172.5,103.9z"/>
							<path fill="#20A05D" d="M141,158.3l0-0.2C140.4,159.1,141.1,158.1,141,158.3z"/>
							<polygon fill="#20A05D" points="134.4,168.4 135.1,167.5 135.4,167        "/>
							<polygon fill="#20A05D" points="129.3,173.4 129.6,173 128.4,174.5        "/>
							<path fill="#20A05D" d="M51.6,244.4l0.4-0.1C52.6,243.8,52.6,243.6,51.6,244.4z"/>
							<path fill="#20A05D" d="M12.2,267.3c-0.5,0.1-1.7,0.7-2.3,1.1C10.8,267.9,11.7,267.5,12.2,267.3z"/>
							<polygon fill="#20A05D" points="106.4,211.2 105.8,211.9 107,210.7        "/>
						</g>
					</g>
				</g>
			</g>
		</g>
		<g>
			<g>
				<g>
					<g>
						<g>
							<path fill="#20A05D" d="M203.1,7.6c0,0.2,0.1,0.1,0.2-0.3l0-0.4C203.3,6.9,203.1,7.6,203.1,7.6z"/>
							<path fill="#20A05D" d="M204.7,5.1c0.2-0.5,0.4-1,0.1-0.8c-0.1,0.5-0.3,0.6-0.4,1.1C204.2,5.7,204,6,204,5.9         c0,0.2-0.3,0.6-0.3,0.8C204,6.3,204.3,5.7,204.7,5.1C204.7,4.9,204.7,5,204.7,5.1z"/>
							<path fill="#20A05D" d="M214,23.1c0,0-0.2-0.1-0.2-0.1C213.8,23,213.9,23.1,214,23.1z"/>
							<path fill="#20A05D" d="M223.7,44.5c-0.1-0.2-0.2-0.2-0.2-0.2C223.6,44.4,223.7,44.5,223.7,44.5z"/>
							<path fill="#20A05D" d="M226.1,48.1c-0.1-0.1-0.1-0.1-0.1-0.2C226,48,226.1,48.1,226.1,48.1z"/>
							<path fill="#20A05D" d="M214,23.1c0,0,0.2,0.1,0.3,0.1c0.1,0.1,0.2,0.1,0.2,0.1C214.6,23.3,214.3,23.2,214,23.1z"/>
							<path fill="#20A05D" d="M208.1,0.3c-0.1,0.1-0.2,0.2-0.3,0.3C207.9,0.5,208,0.4,208.1,0.3C208.1,0.4,208.1,0.3,208.1,0.3z"/>
							<path fill="#20A05D" d="M207.6,22.6l-0.1-0.2c-0.1,0-0.1-0.1-0.2-0.1L207.6,22.6z"/>
							<path fill="#20A05D" d="M209.2,14.1c-0.1,0.2,0,0.3,0.1,0.4c0-0.1,0-0.3,0-0.4C209.3,14,209.2,14,209.2,14.1z"/>
							<path fill="#20A05D" d="M209.9,0.8l-0.1-0.2C209.8,0.7,209.8,0.8,209.9,0.8z"/>
							<path fill="#20A05D" d="M211.6,27.2C211.7,27.3,211.7,27.2,211.6,27.2C211.7,27.2,211.7,27.2,211.6,27.2z"/>
							<path fill="#20A05D" d="M200.6,17.4C200.7,17.4,200.7,17.4,200.6,17.4C200.7,17.3,200.7,17.3,200.6,17.4z"/>
							<path fill="#20A05D" d="M203.5,7.7l0,0.1c0,0,0,0,0.1,0L203.5,7.7z"/>
							<path fill="#20A05D" d="M224.4,49.2C224.4,49.2,224.4,49.2,224.4,49.2C224.6,49.4,224.5,49.3,224.4,49.2z"/>
							<path fill="#20A05D" d="M193.8,58.7c-0.1,0-0.1,0.1-0.1,0.1l0,0c0-0.2,0.1-0.4,0.1-0.5c0,0,0,0,0,0l0,0l0,0l0.2,0.1         c0,0,0,0,0,0.1l-0.2-0.1l0,0l0,0l0,0c0,0.1-0.1,0.3-0.1,0.4l0,0C193.7,58.8,193.7,58.8,193.8,58.7L193.8,58.7l0.3-0.1         c0,0,0,0,0-0.1c-0.1-0.1-0.2-0.2-0.2-0.3c0,0-0.1-0.1-0.1-0.1c0,0,0,0,0,0c0,0.1,0,0.1,0.1,0.3c0,0,0,0,0.1,0.1l0,0l0,0l0,0         l0,0L193.8,58.7L193.8,58.7L193.8,58.7c-0.1,0-0.1,0.1-0.1,0.1l0,0c0-0.1,0-0.2,0.1-0.3l0,0l0,0l0,0l0.1,0l0,0.1         c0,0,0-0.1,0,0C194,58.6,193.9,58.7,193.8,58.7c0.1,0.1,0,0-0.1-0.1l-0.1-0.1l0,0l0,0l0.2-0.2c0,0,0-0.1,0-0.1l-0.2,0.2         C193.4,58.4,194,58.8,193.8,58.7c0.1,0,0.1-0.1,0.2-0.2c0,0,0-0.1,0.1-0.2c0-0.1,0,0,0,0l-0.2-0.1l0,0c0,0,0,0,0,0         c0,0,0,0,0,0c0,0.1-0.1,0.3-0.1,0.6l0,0C193.7,58.8,193.7,58.8,193.8,58.7z"/>
							<path fill="#20A05D" d="M208.3,0.2c0.1-0.1,0.2-0.1,0.4-0.2C208.5,0.1,208.4,0.1,208.3,0.2z"/>
							<path fill="#20A05D" d="M193.9,58.6L193.9,58.6C193.9,58.6,193.9,58.6,193.9,58.6l0,0.1l0,0l0,0l0,0l0,0l-0.1,0l0,0l0,0         c0,0,0,0,0,0c0,0,0,0,0,0l0,0l0,0l0.1,0l0,0l0,0l0,0l0,0L193.9,58.6C193.9,58.6,193.9,58.6,193.9,58.6z"/>
							<path fill="#20A05D" d="M210.3,37.1c0,0,0.1,0.1,0.1,0.2C210.4,37.3,210.4,37.2,210.3,37.1z"/>
							<path fill="#20A05D" d="M220.6,46.3l-0.2-0.2C220.5,46.2,220.6,46.3,220.6,46.3z"/>
							<path fill="#20A05D" d="M203.5,36.4c-0.1,0.2-0.1,0.2-0.1,0.5c0,0,0,0,0-0.1C203.4,36.7,203.4,36.6,203.5,36.4z"/>
							<path fill="#20A05D" d="M201.5,43.5c0,0,0.1-0.1,0.1-0.1c0-0.1,0.1-0.1,0.1-0.2L201.5,43.5z"/>
							<path fill="#20A05D" d="M190.2,23.7c0,0,0-0.2,0.1-0.2c0-0.1,0.1-0.1,0.1-0.2c-0.1,0.1,0-0.3,0-0.3c0,0,0-0.1,0,0         c0,0,0,0.1-0.1,0.2c0,0.1,0,0.1,0,0.2C190.2,23.5,190.2,23.7,190.2,23.7z"/>
							<path fill="#20A05D" d="M208.1,0.4c0-0.1,0.1-0.1,0.2-0.2C208.2,0.3,208.1,0.3,208.1,0.4C208.1,0.4,208.1,0.4,208.1,0.4z"/>
							<path fill="#20A05D" d="M204.5,36.9l-0.3,1.2C204.3,37.7,204.4,37.3,204.5,36.9z"/>
							<path fill="#20A05D" d="M195,33.7l-0.3-0.1C194.8,33.7,194.9,33.7,195,33.7z"/>
							<path fill="#20A05D" d="M203.3,41.5c-0.1,0.2-0.2,0.4-0.3,0.6c0,0.1,0,0.1,0,0.1L203.3,41.5z"/>
							<path fill="#20A05D" d="M190.3,23.3L190.3,23.3L190.3,23.3z"/>
							<path fill="#20A05D" d="M194.7,16.9c-0.7-0.3-0.9-0.2-1-0.1c0,0.1,0.1,0.1-0.1,0.2c-0.4,0-0.7,0.1-0.9,0.2         c-0.2,0.1-0.2,0.1-0.3,0.1c-0.1,0,0-0.1-0.3,0c-0.5,0.4-0.7,1-0.8,1.4c0,0.3-0.1,0.7-0.2,1c0,0-0.1,0.2-0.1,0         c-0.1,0.9-0.7,2.6-0.8,3.6c0,0.1-0.1,0.1-0.1,0.2c0.1-0.2,0.2-0.2,0.3-0.1c-0.1,0.2-0.1,0.4,0,0.5c0,0.1,0.1,0.2,0.1,0.3         c0,0.1-0.1,0.1-0.2,0.1c0.1,0,0.1,0,0.1-0.1c0-0.1-0.1-0.1-0.1-0.2c0,0.1,0,0.1,0.1,0.2c0,0.1-0.1,0.1-0.1,0.1         c-0.3,0,0-0.1,0-0.2c0-0.1-0.1-0.2-0.1-0.2c0,0.1,0,0.1,0.1,0.2c0,0.1-0.2,0.1-0.3,0.2c-0.2,0.1-0.4,0.2-0.6,0.3         c-0.4,0.2-0.8,0.4-1.1,0.5c-0.2-0.1,1.7-0.8,0.6-0.5l1.1-0.4c-0.4,0-0.3,0-0.1-0.1c0.1,0,0.1,0-0.1-0.1         c-1.5,0.6-1.6,0.8-3.1,1.4c-0.3,0.2,0.2,0.1-0.1,0.3c-2,1.1-1.8,0.3-3.3,1.2c-0.4,0.3-0.4,0.5-1.6,0.9l0.3-0.3         c-1.4,0.6-0.7,0.6-2.3,1.2c0.2-0.2,1.1-0.6,0.9-0.5c-1,0.3-0.6,0.4-1.4,0.7l-0.2-0.1c-1.5,0.7-3.2,1.5-4.8,2.3         c0.1-0.1,0.3-0.3-0.1-0.1c-0.8,0.4-1.6,0.8-2.4,1.1c-0.9,0.4-1.9,0.8-2.8,1.2c-0.1,0.4-0.2,0.8-0.3,1.2         c-0.1,0.3-0.2,0.6-0.3,0.9l-0.2,1.4c-0.1,0.3-0.3,0.7-0.2,0.3c-0.1,0.2-0.1,0.4-0.1,0.5c0.7-0.1-0.1-0.1,0.5-0.3         c0.8-0.2,1-0.1,0.4,0c0.9-0.2,2.2-0.5,3.5-0.8c1.1-0.2,2.2-0.5,3-0.5l-0.3,0.1c1.3-0.2,1.3-0.6,2.5-0.7l-0.2,0.1         c2.7-0.5,5.7-1.2,7.8-1.4c0.4-0.3,2.7-0.4,2.8-0.7c1.6-0.2,1.1,0,3.3-0.3c0.1,0,0.1,0,0.1,0c0,0,0.3,0,0.5,0         c0.2,0,0.4,0,0.7,0.1l0,0.2l1,0.1l0.5,0.3l0.7,0.1c-0.3-0.1-0.5-0.2-0.5-0.2c0.4,0.1,0.8,0.2,1.2,0.3         c0.2,0.1,0.3,0.1,0.3,0.1c0,0,0.1,0.1,0.1,0.1c-0.1,0.1-0.1,0.1-0.1,0.1c0,0,0,0,0,0.1c-0.1,0.2-0.1,0.5-0.2,0.8         c-0.1,0.6-0.3,1.2-0.3,1.2c0-0.1,0.1-0.5,0.1-0.8c-0.2,1.3-0.2,0.2-0.4,1.4c0.1-0.2,0.1,0.1,0.1,0.1c-0.3,0.6-0.6,1.9-0.8,3         l-0.1-0.2c-0.1,0.5-0.2,0.9-0.3,1.5c-0.1,0.5-0.1,1.1-0.1,1.6c-0.1,0.9-0.1,1.9-0.2,2.8c0,0,0,0,0.1-0.1         c0-0.1,0.1-0.1,0.1-0.1c0,0,0,0.1,0.1,0.1c0,0,0,0.1,0,0.2c0,0,0,0-0.1,0c0,0-0.1,0-0.1-0.1c0,0.1,0.1,0,0.1,0.1c0,0,0,0,0,0         c0,0,0,0-0.1,0.1c-0.1,0-0.2,0.1-0.3,0.1c-0.1,0-0.1,0-0.1,0s0-0.1,0.1-0.1c0.1,0,0.2-0.1,0.2-0.1c0,0,0,0,0,0         c-0.1,0-0.2,0.1-0.3,0.1c-0.2,0.1-0.4,0.2-0.4,0.2c-0.1,0,0.1-0.1,0.2-0.2c-0.3,0.2-1.6,0.4-2.1,0.8l-0.1,0         c-2,0.7-2.8,1.1-4.4,1.8c0,0.1-0.6,0.4-1.1,0.6c-1.2,0.4-2.5,0.8-4,1.4c-0.2,0.1-0.4,0.2-0.5,0.2c-0.1,0.1-0.2,0.1-0.1,0.1         c0,0,0.1,0-0.2,0.2c0,0-0.1,0-0.2,0c-0.1,0.1-0.1,0.3-0.2,0.5c0,0.1-0.1,0.3-0.1,0.4c-0.1,0.2-0.1,0.3-0.1-0.1         c-0.4,1.6-0.6,2.3-1,3.9c0.4,0,1.1,0,2-0.1c-0.2-0.1-0.7-0.1-0.4-0.1c0.5,0,1,0,0.9,0.1l-0.1,0c2.6-0.2,6,0.3,8,0l-0.1,0         l2.1-0.2c1,0-0.6,0.1,0.1,0.2c0.3,0,0.6-0.1,0.9-0.1c0.1,0,0.2,0,0.3,0c0,0.1,0,0.3,0,0.4c0,0.3,0,0.6,0,1         c0.1,0.6,0.1,1.3,0.5,2c0,0,0,0.1,0,0.1l0,0c0,0,0,0,0,0.1c0,0,0.1,0.2,0.4,0.3l0,0l0,0l0,0c0,0,0.1,0,0.1,0c0,0,0.1,0,0.1,0         l0,0c-0.1,0-0.1,0-0.2-0.1c0.1,0,0.1,0.1,0.2,0.1l0,0l0,0c0.3,0,0.4-0.1,0.5-0.1c0.1,0,0.1-0.1,0.1-0.1         c0.1-0.1,0.1-0.1,0.1-0.1c-0.1,0.1-0.2,0.1-0.3,0.2c0.8-0.3,1.2-0.8,1.6-1.4c0.2-0.3,0.4-0.6,0.6-0.9l0.1-0.2l0,0l0-0.1         c0,0,0.1,0,0.1,0.1c0.2,0.1,0.4,0.2,0.6,0.3c0.4,0.2,0.8,0.5,1.1,0.7l-0.1-0.1c0.5,0.2,0.5,0.4,0.8,0.6         c0-0.1-0.4-0.4-0.1-0.2c1.5,0.8,2.9,1.7,4.4,2.6c0.7,0.5,1.5,0.9,2.2,1.4l1.1,0.7l1.9,1.2c0.4-1.3,0.8-2.7,1.1-4         c0-0.1,0-0.2,0.1-0.3c0-0.1,0-0.2,0.1-0.3c0.1-0.3,0.1-0.5,0.1-0.6c-0.2-0.2-0.4-0.4-0.6-0.5c-0.1-0.1-0.2-0.1-0.3-0.2         c-0.2-0.2-0.5-0.5-0.9-1.1l0.5,0.3c-2.2-2.4-4.3-5.2-6.4-7.6c0.2,0.1,0.2,0.1,0.4,0.3c-0.3-0.6-1.6-1.9-1.7-1.9         c-0.3-0.4,0-0.1-0.2-0.4c0,0,0,0,0-0.1l0-0.1c0-0.1,0.1-0.3,0.1-0.4c0.1-0.3,0.2-0.5,0.3-0.6c0,0,0,0.2-0.1,0.3         c0.1-0.4,0.9-1.9,0.6-1.5c0.3-0.5,0.5-1,0.8-1.6c0.2-0.5,0.4-1,0.5-1.5c0-0.7,0.6-2,0.5-2.2c0.2,0.1,0.7-2,0.8-2.8         c0,0.3,0.2-0.6,0.2-0.3l0.1-0.2l0,0c0,0,0-0.1,0-0.1c0,0,0.1,0,0-0.1c0,0.1,0.5,0.2,0.9,0.3c0.4,0.1,0.8,0.2,1.1,0.2         c0.7,0.1,1.3,0.3,1.7,0.6c0.1,0,0.2,0.1,0.4,0.1l0.2,0l0,0c0,0,0,0,0.1,0l0.2,0.1l0.3,0.3c0.2,0.2,0.4,0.4,0.7,0.5         c0.4,0.4,0.9,0.7,1.3,1c0.8,0.7,1.7,1.4,2.5,2c-0.2,0.1-2-1.7-2-1.4c1.7,1.4,2.8,2.1,4.4,3.5c0.4,0.4-0.3-0.1-0.5-0.2         c1.7,1.4,3.2,2.8,4.8,4c0,0-0.2-0.1-0.4-0.2c0.3,0.2,0.7,0.6,0.7,0.5l-0.3-0.2c-0.4-0.5,1.4,0.8,1.5,0.8         c-0.7-0.2,1.4,1.3,0.4,0.9c0.2,0.2,0.5,0.3,0.5,0.2c0.3,0.3,0.3,0.4,0,0.2c1.1,0.9,0.8,0.5,1.7,1.3c0,0-0.2-0.1-0.4-0.2         c0.3,0.2,0.5,0.3,0.8,0.6c0.1,0.1,0.2,0.1,0.2,0.2c0.1,0.1,0.2,0.2,0.4,0.3c0.2,0.2,0.5,0.4,0.8,0.7c-0.1,0,0.1,0.2-0.3-0.1         c0.2,0.2,0.4,0.3,0.6,0.5c0.1-0.4,0.2-0.8,0.3-1.2c0.1-0.3,0.1-0.7,0.2-1c0-0.2,0.1-0.5,0.1-0.7l0.1-0.4         c0-0.2,0.1-0.3,0.1-0.5c-0.2-0.2-0.3-0.4-0.5-0.7c-0.1-0.2-0.3-0.4-0.5-0.7c0.5,0.3-0.3-0.6-0.3-0.8l-0.7-0.8l0.2,0.4         c-0.6-0.8-1.2-1.4-1.6-2l0.5,0.5l-1.1-1.4l0.5,0.8c-0.6-0.7-0.1,0.2-0.8-0.8c0.2,0.2-0.6-0.8-0.8-1.2l0,0         c-0.3-0.3-0.7-0.7-1-1.3c-0.1-0.2,0.3,0,0.2-0.1c-0.4-0.3-1.3-1.8-1.8-2.1c0.1,0.1,0.2,0.1,0.2,0l-0.3-0.2         c-0.2-0.4-0.2-0.4-0.1-0.4c-0.8-1.1,0.1,0.5-0.8-0.8c0.1,0.1,0.1,0,0.2,0.2c-0.9-1.3-1.9-2.4-2.6-3.6c-0.1-0.5,0.8,1,0.6,0.5         c-0.5-0.7-1.1-1.4-1.7-2.2c-0.3-0.4-0.6-0.7-0.9-1.1l-0.4-0.5c-0.1-0.1-0.2-0.3-0.2-0.4c0.1-0.1,0.1-0.1,0.2-0.2         c0.1-0.1,0.1-0.3,0.2-0.4c0,0-0.2,0.4-0.2,0.4c0-0.4,0.6-1.4,0.7-2.4c0,0.2,0.1,0.4,0,0.3c0.2-0.7,0.4-1.3,0.5-2.1         c0.1-0.4,0.2-0.8,0.2-1.3c0-0.5-0.3-1.1-0.8-1.4c0,0,0.3,0.1,0.3,0.1c-0.2-0.2-0.4-0.4-0.7-0.5c-0.2-0.1-0.3-0.1-0.4-0.1         c-0.2,0-0.3-0.1-0.5-0.1c-0.7,0-1.3,0.4-1.6,0.8c-0.2,0.3-0.3,0.9-0.1,0.5c-0.2,0.5-0.4,1.1-0.5,1.5c-0.1,0.3-0.2,0.6-0.2,1         l-0.4-0.5l-0.2-0.3l-0.3-0.4c-0.4-0.6-0.8-1.2-1.2-1.8c0.2,0.2,0.5,0.5,0.3,0.3l-1.3-1.6c0,0.2,0.1,0.3,0.3,0.7         c-0.2-0.2-0.6-0.6-0.9-1c0.3,0.3,0.3,0.3,0.3,0.2c0-0.1-0.1-0.3-0.2-0.5c0,0,0,0,0-0.1c-0.1,0-0.1,0-0.1,0         c0.5-0.8-0.2-0.2,0.4-1.5l0,0.1c0.1-0.5,0.2-1,0.4-1.6c0.2-0.2-0.1,0.6,0,0.6c0.2-0.8,0.2-1.6,0.6-2.3         c-0.1,0.3-0.2,0.8-0.3,1.2c0.4-0.7,0.4-0.8,0.6-1.4l0,0.1l0.5-1.3l-0.1,0.3c0-1.1,0.6-2,0.8-3.4c-0.2,1.4,0.1,0.3,0.2,0.4         c0.1-0.3,0.4-0.8,0.3-0.7c0.1-0.7,0.4-1,0.5-2c0.1,0,0.2-0.8,0.3-0.6c0.1-0.9-0.1,0.2-0.2,0.1c0.1-1.4,0.4-3.2-0.1-5.1         c-0.2-0.8-0.3-1.3-0.5-1.7c-0.2-0.4-0.3-0.9-0.7-1.6c-0.2-0.5,0.3,0.3,0.3,0.3c-0.1-0.4-0.3-0.8-0.6-1.1         c-0.2-0.1-0.4-0.2-0.6-0.2c-0.2,0-0.4,0.1-0.6,0.2c0.1-0.1,0-0.1-0.3,0c-0.5,0.4-0.3,0.4-0.9,0.9c0.1-0.1,0.1-0.3,0.3-0.6         c-0.6,0.5-1,1.2-1.4,1.8c-0.2,0.1,0.2-0.4,0.3-0.7c-0.6,0.7-1.3,1.8-1.4,2.1l0.4-0.4c-0.2,0.3-0.2,0.1-0.1-0.1         c0.4-0.7,0.7-0.8,0.7-0.8L206,2.9c0.6-0.3,1.3-1.8,2.3-2.4c0,0-0.2,0.4-0.2,0.4s0.2-0.2,0.4-0.4c0.2-0.2,0.5-0.3,0.5-0.3         c0.1,0,0.3,0,0.3,0.1c0,0-0.1,0.1-0.3,0.2c0.4-0.1,0.5-0.1,0.6,0c0.1,0.1,0.3,0.1,0.4,0.4c0,0.1,0,0,0,0c0,0,0.4,0.6,0.4,0.6         c-0.1-0.1-0.1,0.2-0.2-0.3c0.4,1.2,0.7,2.1,0.7,2.6l0-0.1c0.3,1.9,0.2,0.2,0.5,1.6c0,0-0.1,0.2-0.1,0.5         c-0.1,0.2-0.2,0.5-0.2,0.5l0.2,0.2c0,0.2,0,0.6-0.1,0.5c0.1,0.7,0.1-0.1,0.2,0.3c-0.1,0.5-0.1,1.1-0.1,1.7         c0,0.6-0.2,1-0.4,1.1c0,0.4,0.4-0.8,0.1,0.2c-0.3,0.2-0.3,1.1-0.7,1.9c0-0.3,0.3-1.1-0.1-0.3c0.1,0.6-0.6,1.6-0.7,2.3         c0.2,0.1-0.4,1.5-0.7,2.7c0-0.1-0.8,2.2-1.2,3.2l0,0c0,0.1,0,0.3,0,0.6c-0.1,0.3-0.2,0.6-0.3,1c0.2,0.2,0.3,0.5,0.5,0.7         c-0.1,0-0.1,0-0.2-0.1c-0.1,0-0.2-0.2-0.4-0.5l0.6,0.8c0.2,0.1,0.3,0.3,0.7,0.7l-0.2-0.1c0.6,0.9,1.4,1.6,2.1,2.8         c0.1,0-0.3-1.1,0.5,0c0,0.1,0,0.3-0.3,0c0.1,0.1,0.3,0.3,0.5,0.6c0,0-0.4-0.4-0.4-0.4c0.4,0.7,0.3,0.2,0.6,0.7         c0,0.1,0.3,0.5,0.2,0.6c-0.1-0.1-0.3-0.5-0.5-0.7c0.3,0.4,0.5,0.8,0.8,1.2c0.1-0.2,0.2-0.4,0.2-0.5c-0.1,0-0.1-0.2,0.1-0.8         c0.3-1.3,0.2-0.5,0.5-1.2c0-0.3,0.2-0.9,0.1-1c0.1-0.3,0.2-0.3,0.2-0.4c0-0.2,0.4-0.6,0.8-0.8c0.4-0.1,0.7-0.1,0.4-0.2         l-0.1,0c0,0,0.1,0,0.1,0l0,0l0,0c0.4,0,0.9,0.1,1.2,0.4c0.3,0.3,0.5,0.7,0.4,1.2c-0.2,0.8-0.5,1.8-0.7,2.6l0,0         c-0.1,0.5-0.3,1.1-0.4,1.6c-0.1,0.6-0.2,1-0.5,1.4l0,0c0.1,0.3,0.4,0.7,0.2,0.6c0.5,0.7,0.6,0.7,1.3,1.7         c-0.6-0.6,0.1,0.3-0.6-0.6c0.6,0.9,0.7,1.1,1.5,2c-0.3-0.2,0.3,0.7,0.7,1.1l-0.4-0.7c0.4,0.4,0.6,0.9,0.9,1.3l-0.3-0.1         c1.1,1.9,2.6,3,3.3,4.5c0.4,0.4-0.6-1-0.2-0.7c0.6,0.8,1,1.8,1.2,2.1c0.7,1.2,1,0.9,1.8,2.1c-0.1-0.2,0-0.4,0.6,0.4         c0.6,0.8,0.5,1.1,0.1,0.7c-0.1-0.2-0.2-0.3-0.2-0.3c-0.2-0.2-0.5-0.6-0.3-0.2l0.1,0.1c0.2,0.4,1.1,1.5,0.8,1.3         c0.5,0.6,0.3,0.2,0-0.3c0.7,1.1,1.2,1.6,1.9,2.7c-0.1-0.2-0.2-0.4,0-0.2c0.5,0.7,0.7,0.9,0.8,1c0.1,0.1,0.2,0.1,0.4,0.4         c0,0,0,0.1,0,0.2c-0.3,0.6-0.1-0.3-0.4,0.9c-0.3,0.8-0.2,0.1-0.2-0.2c0,0.2-0.1,0.4-0.1,0.5l0,0.2l0,0.1         c0,0.1-0.1,0.2-0.1,0.2c-0.1-0.1-0.1-0.2-0.1-0.2c0,0,0.1,0,0.1,0c0,0,0,0,0,0l0,0l-0.1-0.1c0.1,0.1,0,0.2,0,0.2l0-0.1         c-0.1-0.1-0.1-0.1-0.1-0.1c-0.1-0.1-0.1-0.1-0.1-0.2c-0.3-0.2,0.1,0.3-0.6-0.1c-0.3-0.4-1.2-0.9-1.2-1.2c1.2,1.1,0-0.2,1,0.6         c-0.2-0.2-0.4-0.4-0.7-0.6c0-0.1,0.1,0,0.1,0.1c-1-1.1-0.6-0.3-1.8-1.3c0.2,0.1-0.2-0.4-0.4-0.5c0.5,0.4,0.1,0.3-0.3,0         c-0.7-0.7-0.9-0.7-1.2-1l0.4,0.4c-0.2-0.1-0.6-0.4-1.1-0.8c0-0.1,0.5,0.4,0.3,0.2c-0.7-0.4-1.2-1.3-2.1-1.9         c-0.3-0.4,0.1-0.2-0.2-0.5c-1-0.7-0.9-0.9-1.9-1.7c0.2,0.3,0.3,0.3-0.5-0.1l1.6,1.3l-1.1-0.7c0.5,0.4,1.1,0.8,1.3,1.1         c-0.5-0.3-0.5-0.3-0.3-0.1c-0.5-0.7-1.4-1-2-1.8l0.2-0.2c-1-1.1-2.1-1.6-3.5-2.9l0.4,0.4c-0.3-0.1-0.9-0.8-1.4-1.1         c0.1,0-0.2-0.3-0.3-0.5c0,0-0.1-0.1-0.3-0.2c-0.1-0.1-0.2-0.2-0.3-0.2c-0.1-0.1-0.3-0.2-0.4-0.3c-0.4-0.1-0.5-0.1-0.5,0         l-0.8-0.3c-1.5-0.5-1.8-0.2-3.3-0.6c0.5,0-0.2-0.2,0.9,0c-0.2-0.1-0.5-0.1-0.7-0.2c-0.3-0.1-0.5-0.1-0.5-0.1         c-0.2-0.1-0.4-0.1-0.8-0.2c-0.1,0.3-0.1,0.7-0.2,1.1c-0.1,0.3-0.1,0.5-0.2,0.6c0,0.2,0.1,0.3-0.1,0.9c0,0.1,0,0,0,0         c0,0-0.1,0.9,0.1,0.4c-0.7,1.4-1,4.2-1.8,5.3c-0.4,1-1,2.2-1.4,3.1c0-0.1,0,0,0-0.2c-0.2,0.4-0.3,0.6-0.4,0.8         c-0.1,0.2-0.1,0.4-0.1,0.6c0.2,0.2,0.5,0.5,0.8,0.9c0.4,0.7-0.6-0.6-0.3-0.2c-0.1,0.4,1.2,1.4,1.7,2.4l-0.2-0.2         c0.4,0.7,1.3,1.4,2.2,2.5c0,0-0.1,0,0,0c0.7,0.6,1.8,1.9,2.7,2.8c-0.3-0.2-0.4-0.4-0.4-0.1c0.4,0.4,0.1-0.3,0.8,0.6         c0.2,0.3,0.6,1,0.6,1.2l-0.7-0.8c0.2,0.5,0.9,1.1,1.2,1.5l-0.1,0c0.2,0.2,0.3,0.4,0.4,0.5c0.1,0.1,0.1,0.1,0.2,0.2         c0,0.1,0,0.1,0,0.3c0,0.1,0,0.3-0.1,0.5c-0.1,0.3-0.1,0.7-0.3,1.3l0.1-0.2c0,0.5-0.1,0.7-0.2,0.9c-0.1,0.2-0.1,0.2-0.2,0.7         c0,0-0.1,0-0.1,0l-0.1-0.2c-0.1-0.1-0.3-0.1-1-0.4c-0.6-0.3-1.2-0.6-1.7-0.9c0.3,0.1,0.8,0.3,1.2,0.5         c0.2,0.1,0.5,0.2,0.7,0.3c0.1,0.1,0.2,0.1,0.3,0.2c0,0,0.1,0,0.1,0c-0.2-0.1-0.6-0.4-1-0.6c-0.4-0.2-0.8-0.4-1-0.5         c0.2,0.1,0.5,0.2,0.7,0.4c-0.7-0.3-1.7-0.7-2.7-1.3c0.4-0.2-2.8-1.7-3.4-2.5c-0.6-0.3-1.2-0.6-1.8-1         c-0.7-0.5-1.5-0.9-2.3-1.4c-0.2,0.3-0.4,0.7-0.6,1l-0.2,0.4l-0.2,0.3c-0.2,0.4-0.5,0.8-0.8,1.1c0.4-0.2,0.3-0.1,0.1,0.1         c-0.2,0.2-0.4,0.4-0.3,0.5c-0.1,0.1-0.2,0.2-0.3,0.2l-0.1,0l0,0.1l0,0l0,0l0.1,0.1c0.1,0.1,0.1,0.1,0.1,0.1         c0-0.1,0-0.2,0.1-0.2c0,0,0,0,0,0l-0.1,0l0,0c0,0,0,0,0,0c0,0,0,0,0,0c0,0.1,0,0.2-0.1,0.2l0,0c0,0,0,0,0,0l0.1,0l0,0l0.1,0         l0,0l0,0l0,0l0,0l0,0c0,0,0,0,0,0c0,0,0-0.1,0-0.1c0,0-0.2-0.4-0.2-0.8c0-0.4,0-0.9,0-0.9c0.1-0.4,0.1,0.5,0.2,0.5         c-0.1-1.2,0.1-0.5,0.1-1.4c-0.1,0.1-0.1,0-0.1-0.2c0-0.1,0-0.4,0-0.7c0-0.3,0-0.6,0-1c0,0-0.1,0-0.1,0l0.1,0l-0.2,1.7         c0-0.1,0-0.6,0-0.8c0-0.3,0-0.5,0-0.7c-0.3,0-0.6,0-0.9,0c-0.2,0-0.6,0-0.7-0.1c-0.3,0-0.7-0.1-1.4,0l0.6-0.1         c-1,0.1-3.5,0-4.4,0.3c-0.2,0-0.4-0.1,0-0.1c-1.1,0-2.4,0.1-3.6,0.1c-0.6,0-1.2,0.1-1.7,0.1c-0.3,0-0.5,0-0.8,0l-0.2,0         l-0.1,0c0,0-0.1,0-0.1,0l0.1-0.1c-0.1,0-0.2,0.1-0.3,0.1c0,0,0-0.1,0.1-0.2c0,0,0.1,0,0.1,0c0,0,0,0,0-0.1l0-0.1         c0-0.1,0-0.1,0-0.2c0.1-0.3,0.1-0.7,0.2-0.9l0,0.5c0.1-0.4,0.2-0.8,0.3-1.1c0-0.2,0.1-0.4,0.1-0.5c0-0.1,0-0.1,0-0.1l0-0.1         l0.1-0.1l0.3-0.2l0.7-0.3c0.4-0.2,0.9-0.4,1.4-0.6c0.1,0.2,1.7-0.3,2.6-0.6l0,0c2.4-0.9,4-1.7,6.2-2.7         c0.2-0.1,0.6-0.1,0.9-0.2c0.2-0.1,0.3-0.1,0.5-0.2c0.3-0.1,0.6-0.2,0.9-0.3c0.1-0.9,0.2-2,0.2-3.1c0-0.5,0.1-0.9,0.1-1.4         c0-0.4,0.1-0.8,0.2-1.2c-0.1,0.3-0.2-0.1-0.1-0.5c0.2-0.5,0.2-1.5,0.4-1.4l-0.1,0.2c0.3-0.4,0.5-1.5,0.8-2.3l-0.2-0.2         c0.2-0.4,0.4-0.9,0.5-1.4c0.1-0.3,0.2-0.5,0.2-0.8c0.1-0.4,0.3-0.9,0.4-1.3c-1.1-0.3-2.1-0.5-3.1-0.8         c-0.7-0.2-1.4-0.4-1.7-0.6c-0.1,0-0.3-0.1-0.4-0.1c-0.2,0-0.4-0.1-0.6-0.1c-0.2,0-0.4,0.1-0.6,0.1c-0.1,0-0.3,0.1-0.4,0.1         l0-0.1c-1.5,0.3-2.3,0.4-4.2,0.8l0.4-0.2c-1.1,0.2-1.3,0.7-2.3,0.9l-0.3-0.1c-1.9,0.4-3.8,0.6-5.6,1.1c0,0,0.1-0.1,0.4-0.2         c-0.9,0.2-3.4,0.5-3.1,0.7c-0.1-0.2-1.9,0.4-2.9,0.6l0.1-0.2c-0.8,0.3-0.8,0.4-2,0.7c-0.3,0-0.3-0.1,0.1-0.1         c-0.5,0.1-0.7,0.1-0.9,0.2c-0.2,0.1-0.3,0.1-0.6,0.2c0,0,0.3-0.2,0.3-0.1c-0.2,0-0.3,0.1-0.4,0.1c0-0.1,0-0.1-0.1-0.3         c0-0.1,0-0.2,0.1-0.4c0-0.2,0.1-0.4,0.2-0.6c0.1-0.4,0.3-0.7,0.4-0.8c0,0,0-0.1,0-0.3c0,0,0.1-0.1,0.2-0.1         c0.1-0.1,0.3-0.1,0.4-0.2c0.1,0-0.1,0.1-0.2,0.2c1.5-0.6,2.2-1.1,3.3-1.5c0,0,0.1,0,0.2,0c-1.2,0.5-2.2,1-2.1,0.9         c0.1,0.1,1-0.3,0.3,0.2c0.7-0.4,2-1.2,3-1.6c0.1,0,0.1,0,0.1,0l-0.1,0.1c0.2-0.1,0.4-0.2,0.6-0.3c0.3-0.1,0.5-0.2,0.8-0.3         c0.2,0,1.1-0.4,1.6-0.7c-0.1-0.1,0.5-0.4-0.1-0.2c0.1,0-0.1,0.1-0.4,0.2c-0.1,0-0.2,0.1-0.2,0.1l0,0         c-0.3,0.1-0.7,0.3-1.2,0.5c0.4-0.2,0.7-0.5,1.3-0.6c0.2-0.2,0.4-0.4,0.6-0.5c0.7-0.1,2.1-0.6,2.3-0.6         c1.4-0.7,3.5-1.6,4.3-2.2c0.4-0.2,0.5-0.1,0.7-0.2c-0.2,0.1-0.5,0.3-0.6,0.3c0.8-0.4,2.5-1.1,2.6-1.4         c1.1-0.4-0.5,0.4,0.9-0.3l-0.2,0.1c0.6-0.2,1.1-0.4,1.6-0.6c0.2-0.1,0.5-0.2,0.7-0.4c0.2-0.1,0.7-0.3,1-0.5l-0.1-0.5         c0-0.1,0-0.2,0-0.2l0-0.1c0-0.1,0-0.3,0.1-0.5c0.1-0.4,0.2-0.8,0.2-1.2c0.2-0.8,0.4-1.7,0.8-2.7c-0.1,0.2-0.1,0.3-0.2,0.4         c0.1-0.3,0.2-0.8,0.3-1c0.1-0.3,0.4-0.5,0.7-0.6c0.3-0.1,0.6-0.1,0.9,0c0.4,0.1,0.6,0.2,0.8,0.5c0.2,0.2,0.3,0.6,0.3,0.9         c0,0.3-0.2,0.7-0.2,1.1c-0.2,0.9-0.5,1.8-0.7,2.7c0.6-0.3,1.2-0.5,1.8-0.8l0.8-0.3l0.7-0.3c1-0.4,1.1-0.6,1.7-0.9l0.3,0         l1-0.6c0.2-0.1,0.4-0.2,0.7-0.3c0.1-0.4,0.2-0.7,0.3-1c0.1-0.3,0.2-0.6,0.3-0.9c0.2-0.6,0.4-1.3,0.5-2.2l-0.2,0.2         c0.2-0.7,0.4-2.3,0.5-2.2c0-0.1-0.1-0.3,0.1-0.5l0.1,0l0.3-1.8c0.4-1.4,0.3,0.3,0.7-1.7c0.1-0.8,0.2-2.2,0.1-1.9         c-0.1,0.3-0.2,0.8-0.3,0.8l0.1-0.7c-0.2-0.2-0.3-0.8-0.8,0.9l-0.1,1.2l-0.2,0.4l0.2-1c-0.2,0.5-0.2,0.9-0.2,1.3         c-0.1,0.1-0.2,0.2-0.2,0.5l0,1.2c-0.1,0.1-0.1-0.6-0.3,0.2c0,0.6,0.3-0.5,0.2,0.4c-0.2,0.5-0.3,0.4-0.3,1         c-0.1,0.1-0.1-0.1-0.1-0.3c-0.1,0.6-0.3,1.6-0.3,1.9c-0.3,0.6-0.4,2-0.6,1.9c0,0.2-0.1,1.1-0.2,1.6c0-0.3,0-0.3-0.1-0.1         c0,0.1-0.1,0.2-0.1,0.3c0,0,0,0.1,0,0.1c-0.2,0.1-0.4,0.1-0.5,0.2c-0.2,0.1-0.4,0.1-0.3,0c-0.6,0.5-2.4,1.2-3.6,1.8         c0.1,0,0.2-0.1,0.3-0.2c-0.4,0.2-0.4,0.1-0.4,0.1c0,0-0.1,0-0.1-0.1c-0.1,0.1-0.2,0.2-0.4,0.4c-0.1,0,0-0.2-0.1-0.4         c0.2-0.3,0.2-0.1,0.2-0.1c0,0.1,0.1,0.1,0.2,0c-0.1,0-0.1,0.1-0.1-0.2c0.1-0.4,0.1-0.7,0-0.6c0.1-0.3,0.2-0.5,0.2-0.6         c0-0.1,0.1-0.1,0.2-0.4c-0.1-0.1-0.1-0.3-0.1-0.6c0-0.3-0.1-0.7-0.4-0.9c-0.4-0.6-0.5-0.6-0.5-0.7c0,0-0.1-0.1-0.2-0.1         c-0.1-0.1-0.4-0.1-0.7-0.2c-0.4-0.1-0.2-0.1,0.1-0.1C194.3,16.8,194.7,16.9,194.7,16.9z M174.4,31.1L174.4,31.1         c0.2-0.1,0.4-0.2,0.5-0.2C174.8,30.9,174.7,30.9,174.4,31.1z M172.4,32c0.2-0.1,0.6-0.2,0.9-0.4c0.1,0,0,0.1-0.2,0.2         C173.2,31.7,172.7,31.9,172.4,32z M177.1,30.9c-0.3,0.2-0.4,0.2-0.5,0.2C176.7,31.1,176.9,31,177.1,30.9         c0.1-0.1,0.1-0.1,0.1-0.1C177.1,30.9,177.1,30.9,177.1,30.9z"/>
							<path fill="#20A05D" d="M177.6,30.5c0,0,0.1,0,0.1-0.1C177.6,30.5,177.6,30.5,177.6,30.5c-0.1,0-0.1,0.1-0.2,0.1         C177.5,30.6,177.5,30.5,177.6,30.5z"/>
							<path fill="#20A05D" d="M213.7,23L213.7,23C213.7,23,213.7,23,213.7,23C213.7,23,213.7,23,213.7,23z"/>
							<polygon fill="#20A05D" points="192.6,33.2 192.6,33.1 192.4,33.1        "/>
							<path fill="#20A05D" d="M207.5,21.4C207.6,21.3,207.6,21.3,207.5,21.4C207.6,21.3,207.6,21.3,207.5,21.4z"/>
							<path fill="#20A05D" d="M209.1,16.4l0.3-0.7C209.3,16,209.2,16.3,209.1,16.4z"/>
							<path fill="#20A05D" d="M210.4,12.6C210.4,12.5,210.4,12.5,210.4,12.6L210.4,12.6L210.4,12.6z"/>
							<path fill="#20A05D" d="M220.2,47.2c0,0-0.1-0.1-0.1-0.1C219.8,46.9,220,47.1,220.2,47.2z"/>
							<path fill="#20A05D" d="M222.7,42.3c0.1,0.1,0.3,0.3,0.4,0.5C222.9,42.5,222.8,42.2,222.7,42.3z"/>
							<path fill="#20A05D" d="M204.5,36.8L204.5,36.8c0,0,0,0.1,0,0.1L204.5,36.8z"/>
							<path fill="#20A05D" d="M223.7,43.5c-0.2-0.3-0.4-0.5-0.5-0.7C223.3,43,223.5,43.2,223.7,43.5z"/>
							<path fill="#20A05D" d="M205.5,3.1l-0.1,0.2c0,0,0,0,0,0L205.5,3.1z"/>
							<path fill="#20A05D" d="M205.4,3.3l-0.1,0.2C205.4,3.4,205.4,3.3,205.4,3.3z"/>
							<path fill="#20A05D" d="M205.1,3.9l0.2-0.4C205.2,3.6,205.1,3.7,205.1,3.9z"/>
							<path fill="#20A05D" d="M210.2,0.4L210.2,0.4C210.2,0.4,210.2,0.3,210.2,0.4z"/>
							<path fill="#20A05D" d="M210.9,2c-0.1-0.4-0.2-1-0.6-1.6l-0.1,0C210.6,0.6,210.7,1.6,210.9,2z"/>
							<path fill="#20A05D" d="M210.9,8.8c0,0,0-0.3,0.1-0.7c0-0.3,0-0.7,0-0.7c-0.1,0.2-0.1,0.5-0.1-0.1         C210.6,9.1,211,7.1,210.9,8.8z"/>
							<path fill="#20A05D" d="M209.6,12.8C209.8,12.1,209.5,12.8,209.6,12.8C209.4,13.2,209.4,13.3,209.6,12.8z"/>
							<path fill="#20A05D" d="M213.9,31.1l-0.1,0C214.1,31.6,213.8,31.1,213.9,31.1z"/>
							<polygon fill="#20A05D" points="217.9,35.5 217.6,35 217.4,34.8        "/>
							<polygon fill="#20A05D" points="219.2,38.8 219,38.6 219.6,39.3        "/>
							<path fill="#20A05D" d="M201.8,42.2l0.2-0.1C202.1,41.7,201.9,41.6,201.8,42.2z"/>
							<path fill="#20A05D" d="M208.2,60.7c-0.1,0.2-0.4,0.9-0.3,1c0.1-0.2,0.1-0.3,0.2-0.5C208.1,61,208.2,60.8,208.2,60.7z"/>
							<polygon fill="#20A05D" points="196.6,35.6 196.5,36.1 196.7,35.2        "/>
						</g>
					</g>
				</g>
			</g>
		</g>
	</g>
</g>
</svg>