<svg xmlns="http://www.w3.org/2000/svg" xmlns:xlink="http://www.w3.org/1999/xlink" version="1.1" x="0px" y="0px" viewBox="0 0 34.9 58.4" enable-background="new 0 0 34.9 58.4" xml:space="preserve" width="34.900001525878906" height="58.400001525878906">
<g id="Background">
</g>
<g id="Objects">
	<g>
		<g>
			<g>
				<circle fill="#2E3192" cx="17.4" cy="53.7" r="3.9"/>
				<g>
					<g>
						<g>
							<g>
								<path fill="#484BA0" d="M21,53.7c0,0,0.1,0,0.1,0L21,53.7L21,53.7z"/>
								<path fill="#484BA0" d="M21.3,53.5c-0.1,0-0.2-0.1-0.4,0C21.1,53.5,21,53.5,21.3,53.5c-0.1,0.1-0.1,0.1-0.2,0.1          c0,0,0,0.1,0.1,0.1c0.1,0,0.1-0.1,0-0.2C21.2,53.5,21.3,53.5,21.3,53.5z"/>
								<path fill="#484BA0" d="M19.8,50.3L19.8,50.3C19.8,50.4,19.8,50.3,19.8,50.3z"/>
								<path fill="#484BA0" d="M17.7,49.5C17.7,49.5,17.7,49.5,17.7,49.5C17.7,49.5,17.7,49.5,17.7,49.5z"/>
								<path fill="#484BA0" d="M17.3,49.3C17.3,49.3,17.3,49.3,17.3,49.3C17.3,49.3,17.3,49.3,17.3,49.3z"/>
								<path fill="#484BA0" d="M19.8,50.3L19.8,50.3C19.8,50.3,19.8,50.3,19.8,50.3z"/>
								<path fill="#484BA0" d="M20.8,53.1C20.8,53.1,20.9,53.1,20.8,53.1L20.8,53.1L20.8,53.1z"/>
								<path fill="#484BA0" d="M20.7,50.9L20.7,50.9C20.7,50.9,20.7,50.9,20.7,50.9L20.7,50.9z"/>
								<path fill="#484BA0" d="M21.1,51.6c0,0-0.1,0-0.2,0.1C21,51.6,21,51.6,21.1,51.6C21.1,51.6,21.1,51.6,21.1,51.6z"/>
								<path fill="#484BA0" d="M21.4,52.8L21.4,52.8L21.4,52.8z"/>
								<path fill="#484BA0" d="M20.3,50.5C20.3,50.5,20.3,50.5,20.3,50.5C20.3,50.5,20.3,50.5,20.3,50.5z"/>
								<path fill="#484BA0" d="M20.6,54.4L20.6,54.4C20.6,54.4,20.6,54.4,20.6,54.4z"/>
								<polygon fill="#484BA0" points="21.4,53.7 21.4,53.7 21.4,53.7         "/>
								<path fill="#484BA0" d="M16.5,49.2L16.5,49.2C16.5,49.2,16.5,49.2,16.5,49.2z"/>
								<path fill="#484BA0" d="M13,54.7c0.1-0.1,0.2,0.1,0.3-0.1C13.2,54.6,13.1,54.6,13,54.7z"/>
								<path fill="#484BA0" d="M20.9,53.1C20.9,53,20.8,53,20.9,53.1C20.8,53,20.8,53.1,20.9,53.1z"/>
								<polygon fill="#484BA0" points="13.3,54.6 13.3,54.6 13.3,54.6         "/>
								<path fill="#484BA0" d="M14.9,50C14.9,50,14.9,50,14.9,50C14.9,50,14.9,50,14.9,50z"/>
								<path fill="#484BA0" d="M16.1,49.6L16.1,49.6C16.1,49.6,16.1,49.6,16.1,49.6z"/>
								<path fill="#484BA0" d="M14.4,50.6C14.4,50.6,14.4,50.6,14.4,50.6L14.4,50.6C14.4,50.6,14.4,50.6,14.4,50.6z"/>
								<polygon fill="#484BA0" points="14,51.1 14,51.1 14,51.1         "/>
								<path fill="#484BA0" d="M19.9,55.9c0,0,0.1,0,0.1,0.1C20,55.9,20,55.8,19.9,55.9z"/>
								<path fill="#484BA0" d="M20.9,53.1C20.9,53.1,20.9,53.1,20.9,53.1L20.9,53.1C20.9,53.1,20.9,53.1,20.9,53.1z"/>
								<path fill="#484BA0" d="M15.2,51.4L15.2,51.4C15.1,51.4,15.2,51.4,15.2,51.4z"/>
								<path fill="#484BA0" d="M16.5,56.9L16.5,56.9C16.5,56.9,16.5,56.9,16.5,56.9z"/>
								<path fill="#484BA0" d="M15,51.6c0,0-0.1,0-0.1,0C14.9,51.6,14.9,51.6,15,51.6L15,51.6z"/>
								<path fill="#484BA0" d="M20.1,55.9L20.1,55.9L20.1,55.9z"/>
								<path fill="#484BA0" d="M20.1,55.3c0,0.1,0.1,0.1,0.2,0.2c0,0.1-0.1,0-0.2-0.1c0,0.1,0.1,0.2,0.1,0.2c0,0,0,0-0.1,0          c0.1,0.1-0.1,0.2,0,0.3c0,0,0,0,0,0c0.1,0.1,0.2,0.1,0.2,0.2c0,0,0,0.1-0.1,0.1c0,0,0,0,0-0.1l0,0.1c-0.2-0.1,0-0.1-0.1-0.2          c0,0.1,0,0.3,0,0.3c-0.1-0.1,0.1-0.1-0.1-0.2l0.1,0c-0.2-0.1,0.1,0-0.2-0.2c-0.1,0,0,0.2-0.1,0.2c0,0.1,0.1,0.1,0.1,0.2          c0,0.2-0.4-0.2-0.3,0c0,0.1,0.2,0.3,0,0.2l-0.1-0.2c-0.1,0.1,0.1,0.3-0.1,0.2c0-0.1,0-0.1,0-0.1c-0.1-0.1,0,0.1,0,0.2          l-0.1-0.1c-0.1,0.1-0.1,0.3-0.2,0.4c0,0,0-0.1-0.1-0.1c-0.1,0.2-0.3,0.1-0.5,0.1l0,0.2c0,0,0-0.1,0-0.1c-0.1,0,0,0.1,0,0.2          c0,0-0.1-0.1-0.1-0.1c-0.1,0.1-0.3,0.3-0.4,0.2l0,0c-0.1,0-0.1,0.3-0.2,0.2l0,0c-0.2,0-0.4,0.1-0.6-0.1          c0,0.2-0.2-0.1-0.2,0.2c-0.1-0.2-0.1-0.2-0.2-0.3c0,0-0.1,0.2-0.2,0.2l0-0.2l-0.1,0.1l0-0.2l-0.1,0c0,0,0,0.1,0,0.1          c-0.1,0.1-0.2-0.2-0.1-0.2l-0.2,0.1c0-0.1,0.1-0.1,0.1-0.1c-0.1,0.1,0-0.2-0.1-0.1c0,0,0,0.1-0.1,0.1c0-0.1-0.1-0.1-0.2-0.1          l0.1-0.1c-0.1-0.1-0.3-0.1-0.4-0.2c0,0.1-0.1,0.2-0.1,0.2l0.1-0.1c-0.1,0.1,0,0.1-0.1,0.1c0-0.1,0.1-0.2,0.1-0.2l-0.1,0          c0,0,0.1-0.1,0.1-0.1c-0.1,0.1,0-0.2-0.1-0.1l0,0c-0.1-0.1-0.2-0.1-0.3-0.2c-0.1,0.1-0.1,0-0.2,0.1c0-0.1,0-0.3-0.1-0.3          c-0.1,0-0.1,0.1-0.2,0.1c0.1-0.1,0-0.2,0.1-0.2c-0.1-0.1-0.1-0.1-0.3-0.2c0,0,0,0.1-0.1,0.1c0,0,0-0.1,0.1-0.1l0,0          c-0.3-0.1,0.1-0.5-0.2-0.6l0,0l-0.2-0.1c0-0.1,0.1,0,0.2-0.1c-0.3-0.1,0-0.3-0.2-0.3c0.4-0.2-0.1-0.4,0.1-0.5l-0.1,0          c-0.1,0,0,0,0.1-0.1c-0.1,0-0.1,0-0.1,0c-0.1-0.3,0.1-0.6,0.3-0.9c0-0.1-0.4-0.2-0.2-0.3l0.1,0.1c-0.1-0.3,0.2-0.4,0.1-0.7          c0,0,0.1,0.1,0.1,0.1c0.1,0,0.1-0.1,0-0.2c0,0,0.1,0,0.1,0c0.1,0-0.1-0.2,0-0.1c0,0,0,0,0,0c0-0.1,0.1-0.1,0-0.2          c0.1,0,0-0.2,0.2-0.2c-0.1-0.1,0.2-0.1,0-0.2c0.2,0.2,0.2,0,0.2-0.1c0,0.1,0.1,0,0.1,0.1c0,0,0.1-0.1,0-0.2          c0.3,0.1,0-0.3,0.3-0.1c0.1-0.2,0.2-0.4,0.3-0.5c0.1,0.2-0.2,0.1,0,0.3c0.1-0.2,0.1-0.4,0.3-0.4c0,0,0,0.1,0,0.1          c0.1-0.2,0.3-0.1,0.4-0.3c0,0,0,0,0,0.1c0,0,0.1,0,0-0.1l0,0c-0.1-0.1,0-0.3,0-0.4c0,0.3,0.2,0,0.2,0.4c0,0,0-0.1,0-0.1          c0,0,0,0,0,0.1c0.1-0.1,0-0.2,0.1-0.2c0,0,0,0.1,0,0.1c0-0.1,0.1-0.2,0.1-0.2c0,0,0,0.1,0,0.1c0.1,0,0.2-0.3,0.4-0.2          c0,0.2,0.1,0.1,0.1,0.3l0.1-0.1l0-0.1c0.1,0,0.1-0.1,0.2-0.1l-0.1,0.1l0.1,0l-0.1-0.1c0.1-0.1,0-0.2,0.1-0.2          c0,0,0.1,0,0.1,0.1l0,0c0-0.1,0.1-0.1,0.1-0.1c0,0.1,0,0.2,0,0.2c0.1-0.1,0.2,0,0.3-0.2c0,0,0,0.1,0,0.2l0.1-0.1          c0,0,0,0.1,0,0.1c0.1,0,0-0.2,0.1-0.1c0,0,0,0,0,0c0.1,0.1,0.3,0,0.3,0.1c0,0.2-0.1,0-0.1,0.2c0.2,0,0.4-0.1,0.5,0l0,0          c0.1-0.2,0,0.2,0.2,0.1c0,0-0.1,0.1-0.1,0.1c0.1,0.1,0.2,0.1,0.4,0.1l-0.1,0c0,0.1,0.1,0.1,0.1,0.2c0.1,0,0.1,0,0.1-0.1          c-0.1,0.4,0.5,0.1,0.4,0.5c0,0-0.1,0-0.1,0l0.2,0.1c0.1-0.1,0-0.1,0.1-0.1c0.1,0,0.1,0,0.2,0c-0.1,0-0.1,0.1-0.2,0.2          c0,0,0.1,0,0.1-0.1c-0.1,0.2,0.2-0.1,0.2,0l-0.1,0c0.1,0,0.1,0,0.2,0.1c-0.1,0.1-0.1,0-0.2,0.1c0,0,0.3,0,0.2,0.1          c0,0-0.1,0-0.1,0c-0.1,0.1-0.1,0.1-0.1,0.2l0,0l0,0.1l0,0c0.3-0.1,0.1,0.1,0.4,0.1c-0.2,0-0.1,0-0.3,0.1c0,0,0,0.1-0.1,0.1          c0.1,0-0.1,0.1,0.1,0.1c0,0,0,0-0.1,0.1c0.1,0,0.1,0,0.1-0.1c0.2,0-0.1,0.3,0.2,0.3c0.1,0.1,0.3,0.1,0.4,0.2          c-0.1,0.1-0.2,0-0.2,0c-0.1,0.1,0,0.1,0,0.2c0,0-0.1,0-0.1,0c0,0,0.2,0,0.1,0.1c-0.1,0-0.1,0-0.2,0c0.1,0,0.2,0.1,0.2,0.1          c-0.1,0-0.1,0-0.2,0c0,0.1,0.1,0.2,0.2,0.2l0,0c0,0-0.1,0-0.1,0c-0.1,0,0-0.1,0.1-0.1l0,0c0.3-0.1-0.1-0.2-0.1-0.3l0.2,0          L21.1,53c0,0,0.2-0.1,0.2,0c0.1-0.1-0.1,0,0-0.1c0,0,0,0,0,0l-0.1,0c0,0,0.1,0,0.1,0c0.1-0.1-0.2-0.1-0.1-0.2l0,0          c-0.1-0.1-0.2,0-0.4,0l0.3-0.2l-0.1,0c0,0,0-0.1,0.1-0.1c-0.1,0-0.1,0-0.2,0c0.1-0.1-0.1-0.2,0.1-0.3c-0.1,0,0,0.1-0.2,0.1          c0.2-0.1-0.1-0.1,0-0.2c0.1,0,0.1,0.1,0.2-0.1c-0.2,0.1,0-0.2-0.1-0.2c-0.2,0.1-0.1-0.1-0.2-0.1c0.1,0,0-0.2,0-0.3l0,0          c-0.2,0.1-0.2,0-0.3,0c0.1-0.1,0.1-0.1,0.2-0.1l0-0.1c-0.1,0-0.1,0-0.1,0l0.1-0.1c-0.1-0.1-0.2,0-0.3-0.2          C20.3,50.8,20.2,51,20,51c0-0.1,0.1-0.1,0.2-0.1c0,0-0.1,0-0.1,0l0.1-0.1c0-0.1-0.1,0.1-0.1,0c0.1-0.1,0-0.1,0.1-0.1          c0,0,0,0.1,0,0c0,0,0-0.1,0-0.2c0,0-0.1,0.1-0.1,0.1c-0.1-0.1,0.1-0.1,0-0.2c-0.1,0-0.1-0.1-0.2,0.1c0,0,0-0.1,0-0.1          c-0.1,0-0.2-0.1-0.2,0l0,0l0,0l0,0l0,0c-0.2,0-0.2-0.2-0.4-0.3l0,0c-0.1,0-0.2-0.1-0.3,0c0,0,0-0.1,0-0.2          c-0.1,0-0.1,0-0.2-0.1c0.1-0.1,0-0.1,0.1,0c-0.1-0.1-0.1-0.2-0.2-0.1c0.1-0.1,0-0.2-0.1-0.2l0,0.1c-0.1,0-0.1,0-0.1-0.1          l0.1-0.2c-0.2-0.3-0.4,0.2-0.5-0.1c-0.1,0.1,0.1,0.1,0,0.2c-0.1,0-0.1-0.3-0.2-0.3c-0.1-0.1-0.2,0.2-0.3,0.1          c0,0.1,0,0.2-0.1,0.3c-0.1,0-0.1-0.3,0-0.3c0,0,0,0,0,0c0,0,0.1,0,0-0.1l0,0.1c0-0.1-0.2-0.1-0.1-0.2c-0.1,0.1,0,0.1,0,0.1          c-0.1-0.1-0.2,0-0.3-0.1c0,0,0,0.1,0,0.1c-0.2-0.1-0.1,0.1-0.2,0.1c-0.1-0.1,0-0.2-0.1-0.1c-0.1-0.1,0-0.2,0-0.2          c-0.1,0.1-0.2,0-0.3-0.1l0.1-0.1c0,0-0.1,0-0.1,0l0.1,0.1c0,0-0.1,0-0.1-0.1c0,0.1,0.1,0.2,0,0.3c-0.1-0.1-0.1,0.1-0.2-0.1          c0.2,0,0-0.2,0.1-0.2c0,0-0.1,0-0.1,0c0,0,0,0,0,0c-0.2-0.1,0,0.2-0.2,0.2c0-0.1-0.1-0.2-0.1-0.1c0.1,0,0.1,0.1,0,0.2          c-0.1,0-0.1,0.1-0.1,0.1l0.1,0c0,0.1,0,0.1-0.1,0.1c0-0.1,0-0.1,0-0.1c0,0.2-0.2-0.1-0.3,0c-0.1,0-0.1-0.2-0.1-0.2          c-0.1,0.1-0.2-0.1-0.2,0.1c0.1,0.1,0.1,0.1,0,0.2l0.1-0.2l0,0.2c0.1,0,0.1-0.1,0.1-0.1c0,0.1,0,0.1,0,0.2          c-0.1-0.1-0.1,0.2-0.2,0.1l-0.1-0.3c-0.2-0.1-0.2,0.2-0.3,0.3l0.1,0c0,0.1-0.1,0.1-0.1,0.1c0-0.1-0.1-0.1-0.2-0.1          c0,0.1-0.1,0.1,0,0.2l-0.1-0.1c-0.2,0,0,0.3-0.1,0.4c0-0.1-0.1-0.1-0.1-0.2c0,0-0.1,0,0,0.1c-0.1,0,0,0.2-0.1,0.1          c0,0,0.1,0.1,0,0.2c0,0,0,0,0,0c0,0,0,0.1,0.1,0.1c-0.3-0.1-0.2,0.3-0.5,0.2c0,0.1-0.1,0.2-0.1,0.3c0,0,0,0,0,0          c-0.1,0.1,0.2,0.2,0,0.3c-0.2,0,0-0.1-0.1-0.1c-0.3-0.1-0.1,0.2-0.3,0.2l0,0c-0.1,0,0,0.2,0,0.3c0,0,0,0,0,0          c0.1,0.1,0.1,0.3,0.1,0.4c-0.1-0.1,0-0.1-0.2-0.1c0,0.1,0.2,0.1,0.2,0.2c-0.1,0-0.2,0.1-0.3,0l0-0.1c-0.2,0,0,0.1-0.1,0.2          l-0.1,0c0,0.2,0.2,0.2,0.1,0.4l0.1,0c0.2,0.1-0.1,0,0,0.2l-0.2,0c0,0.1,0.2,0.2,0.2,0.3c-0.1-0.1-0.2-0.2-0.3-0.3          c0,0.1,0,0.2,0.1,0.2c0,0-0.1-0.1,0-0.1c0.1,0.1,0.2,0.2,0.2,0.3c-0.4,0-0.1,0.3-0.4,0.4c0.1,0.2,0,0.4,0,0.7          c0.3-0.1,0,0.1,0.3,0c0,0,0,0.1,0,0.1l-0.1,0.2c-0.1,0.1-0.1,0-0.1,0c0,0.1-0.1,0.1-0.2,0.2c0.1,0,0.2,0,0.1,0.1l0.1-0.1          c0.2,0.1-0.2,0.2,0,0.3l-0.1,0c0.1,0.1,0.1,0.3,0.4,0.3c0,0-0.1,0.1-0.1,0.1c0.1,0.2,0.5,0.3,0.4,0.5l-0.1,0          c0,0,0.2,0,0.1,0.1c0,0-0.1,0-0.1,0c0,0,0.2,0,0.2,0.1l-0.1,0c0.1,0.2,0.4,0.1,0.5,0.2c-0.2,0.1-0.1,0.3-0.1,0.4l0,0          c0.2,0.2,0.4,0.2,0.7,0.2c0,0.3,0.3,0.4,0.5,0.6c0-0.1,0.1-0.2,0.1-0.2c0,0.1,0.2-0.1,0.1,0.1l0,0c0,0.2,0.1,0.2,0.2,0.2          l0.1-0.2c0.1,0.5,0.6,0,0.6,0.4c0.1,0,0.1,0,0.2-0.1l0,0.1c0.1,0.1,0.2,0.1,0.4,0.1l0,0.1c0.1,0,0.2-0.4,0.3-0.4l0,0.2          c0.2,0,0.4,0.2,0.5,0c0,0,0,0.1,0,0.1c0.1,0,0.4,0.1,0.3-0.2c0,0.2,0.2,0,0.3-0.1l0,0.1c0-0.2,0-0.2,0.1-0.3          c0,0,0.1,0.1,0,0.1c0.1,0,0-0.1,0.2-0.1l0,0.1c0.1,0,0.1-0.1,0.1-0.2c0-0.1,0.2,0,0.2,0.1c0-0.1,0-0.2,0.1-0.2          c0,0,0,0.1,0,0.1c0.2,0,0.1-0.2,0.3-0.2c0,0,0,0.1,0.1,0.1c-0.1,0.1-0.2,0.1-0.2,0.1c0,0.1,0.2,0.1,0.1,0.3          c0-0.1,0.1-0.4,0.2-0.4c0,0,0,0,0,0l0,0c0,0,0,0,0,0c0,0,0.1,0,0.1,0c0.1,0.1,0.1,0,0.2,0c-0.1-0.1,0-0.1-0.1-0.2          c0,0,0,0,0,0c0,0,0,0,0,0l0,0c0,0-0.1,0-0.1,0.1c0-0.1,0-0.2,0.1-0.1c0-0.1-0.1-0.2-0.1-0.2c0.2,0.1,0.3,0.2,0.4,0.2          c0.1-0.2,0.3-0.3,0.2-0.5c0-0.1,0.1,0,0.1,0c0,0,0,0.1,0,0.1c0-0.1,0.2-0.2,0.1-0.3c0.1,0,0.1,0.2,0.2,0l0,0.1          c0.4,0,0-0.6,0.4-0.7c0,0,0,0-0.1,0c0.3-0.2,0.2-0.7,0.6-0.9c0.1-0.1,0-0.1-0.1-0.2l0.2,0l-0.1-0.2          c-0.1-0.2,0.4-0.2,0.2-0.4l-0.1,0c0-0.1,0-0.2,0.1-0.2c0,0-0.1,0,0-0.1l0.1,0L21.5,54c0.1-0.1,0.3,0,0.3-0.1          c0-0.1-0.2-0.2-0.3-0.2c0,0-0.1,0.1-0.1,0.1l0-0.1c-0.2,0-0.5,0-0.6,0.1l0.1,0.1l-0.1,0l0-0.1c-0.1,0,0,0.1,0,0.1          c-0.1,0-0.1,0-0.1,0l0.2,0.1c-0.1,0-0.2-0.1-0.2,0c0.1,0.1,0.2,0,0.3,0.1c-0.1,0-0.2,0-0.1,0.1c-0.1,0-0.1,0-0.1,0          c0.1,0.1,0,0.1,0.1,0.2c-0.1,0,0,0.2-0.2,0.1c0,0,0.1,0.1,0.1,0.2c-0.2-0.1-0.1,0.1-0.3,0c0.2,0.1,0,0.2,0.1,0.3          c0,0,0,0,0,0c0,0-0.1,0-0.2,0c0.2,0.1,0.2,0.2,0.3,0.3c-0.2,0-0.2-0.1-0.4-0.2c0.1,0.1,0.1,0.2,0.2,0.2c-0.1,0-0.1,0-0.2,0          c0.2,0.1,0,0.1,0.1,0.2c-0.1,0-0.2-0.1-0.2,0C20.1,55.4,20.1,55.3,20.1,55.3z M19,56.9L19,56.9C19,56.9,19.1,56.8,19,56.9          C19.1,56.8,19,56.9,19,56.9z M18.9,56.9C18.9,56.9,18.9,56.9,18.9,56.9C19,57,19,57,18.9,56.9C19,57,18.9,57,18.9,56.9z           M19.7,57.6C19.7,57.7,19.6,57.6,19.7,57.6C19.6,57.6,19.7,57.6,19.7,57.6L19.7,57.6C19.7,57.6,19.7,57.6,19.7,57.6z"/>
								<path fill="#484BA0" d="M19.6,57.4C19.6,57.4,19.6,57.4,19.6,57.4C19.6,57.4,19.6,57.4,19.6,57.4L19.6,57.4L19.6,57.4z"/>
								<path fill="#484BA0" d="M19.8,50.4L19.8,50.4C19.8,50.4,19.8,50.4,19.8,50.4L19.8,50.4z"/>
								<polygon fill="#484BA0" points="16.7,56.9 16.7,56.9 16.7,56.9         "/>
								<path fill="#484BA0" d="M20.2,51.4C20.2,51.4,20.2,51.4,20.2,51.4C20.2,51.4,20.2,51.4,20.2,51.4z"/>
								<path fill="#484BA0" d="M20.4,51.8L20.4,51.8C20.4,51.8,20.4,51.8,20.4,51.8z"/>
								<path fill="#484BA0" d="M20.5,52.1C20.6,52.1,20.6,52.1,20.5,52.1L20.5,52.1L20.5,52.1z"/>
								<path fill="#484BA0" d="M16.4,50.5L16.4,50.5C16.4,50.5,16.4,50.5,16.4,50.5z"/>
								<path fill="#484BA0" d="M17.8,50C17.8,50.1,17.8,50.1,17.8,50C17.8,50.1,17.8,50.1,17.8,50z"/>
								<polygon fill="#484BA0" points="15.2,51.4 15.2,51.4 15.2,51.4         "/>
								<path fill="#484BA0" d="M17.7,50.1C17.7,50.1,17.8,50.1,17.7,50.1C17.8,50.1,17.7,50.1,17.7,50.1z"/>
								<path fill="#484BA0" d="M20.9,53.3L20.9,53.3C20.9,53.4,20.9,53.4,20.9,53.3L20.9,53.3z"/>
								<path fill="#484BA0" d="M20.9,53.4L20.9,53.4C20.9,53.4,20.9,53.4,20.9,53.4z"/>
								<path fill="#484BA0" d="M20.9,53.4L20.9,53.4C20.9,53.4,20.9,53.4,20.9,53.4z"/>
								<path fill="#484BA0" d="M20.9,52.9L20.9,52.9C20.8,52.9,20.8,52.9,20.9,52.9z"/>
								<path fill="#484BA0" d="M20.8,52.8c0,0-0.1,0.1,0,0.1l0,0C20.7,52.9,20.9,52.8,20.8,52.8z"/>
								<path fill="#484BA0" d="M21.2,52.1l0,0.1c0,0,0.1-0.1,0.1,0C21.5,52,21.3,52.2,21.2,52.1z"/>
								<path fill="#484BA0" d="M21.1,51.7C21.2,51.8,21.2,51.7,21.1,51.7C21.2,51.6,21.2,51.6,21.1,51.7z"/>
								<path fill="#484BA0" d="M19.1,49.8l0.1-0.1C19.1,49.7,19.2,49.8,19.1,49.8z"/>
								<polygon fill="#484BA0" points="18.4,50.3 18.5,50.4 18.5,50.3         "/>
								<polygon fill="#484BA0" points="18.4,49.3 18.4,49.3 18.3,49.3         "/>
								<path fill="#484BA0" d="M14,50.9l0.1,0.1C14.1,50.9,14,50.8,14,50.9z"/>
								<path fill="#484BA0" d="M13.2,52.8c-0.1,0-0.1,0.1-0.1,0.1C13.2,52.9,13.2,52.8,13.2,52.8z"/>
								<polygon fill="#484BA0" points="15.8,58 15.8,58 15.9,58         "/>
							</g>
						</g>
					</g>
				</g>
			</g>
			<g>
				<g>
					<path fill="#BF55D8" d="M34.3,17.6c0-9.3-7.6-17-16.9-17S0.5,8.4,0.5,17.7c0,2.7,0.6,4.9,1.7,7.6L10,38.1l7.6,12.9l7.6-12.8       l7.4-12.8C33.7,22.6,34.3,20.3,34.3,17.6z"/>
					<g>
						<g>
							<g>
								<g>
									<path fill="#C76BDD" d="M34.6,17.6c0-0.1-0.1,0-0.1,0.2l0.2,0.1L34.6,17.6z"/>
									<path fill="#C76BDD" d="M34.3,18.9c0.1,0.2,0.2,0.5,0.3,0.4c-0.1-0.2-0.1-0.3-0.2-0.5c0-0.2,0.1-0.3,0.1-0.3           c0-0.1,0.1-0.3-0.1-0.4c-0.1,0.2-0.2,0.5-0.1,0.9C34.4,19,34.3,18.9,34.3,18.9z"/>
									<path fill="#C76BDD" d="M26.6,35.2L26.6,35.2C26.6,35.1,26.6,35.2,26.6,35.2z"/>
									<path fill="#C76BDD" d="M20.7,44.9c0-0.1,0-0.1,0-0.1C20.8,44.8,20.7,44.9,20.7,44.9z"/>
									<path fill="#C76BDD" d="M19.6,46.5C19.6,46.4,19.7,46.4,19.6,46.5C19.6,46.4,19.6,46.4,19.6,46.5z"/>
									<path fill="#C76BDD" d="M26.6,35.2l-0.2,0.2C26.4,35.5,26.5,35.3,26.6,35.2z"/>
									<path fill="#C76BDD" d="M34.3,21.5c0-0.1,0-0.1,0-0.2L34.3,21.5L34.3,21.5z"/>
									<path fill="#C76BDD" d="M28.9,30.8L28.9,30.8c0-0.1,0-0.1,0-0.2L28.9,30.8z"/>
									<path fill="#C76BDD" d="M30.8,27.5c0,0.1,0.1,0.2,0.1,0.2c0-0.1,0-0.1,0-0.2C30.9,27.5,30.9,27.5,30.8,27.5z"/>
									<path fill="#C76BDD" d="M33.5,22.2l0-0.1C33.5,22.1,33.5,22.1,33.5,22.2z"/>
									<path fill="#C76BDD" d="M27.5,33.2C27.5,33.2,27.5,33.2,27.5,33.2C27.5,33.2,27.5,33.2,27.5,33.2z"/>
									<path fill="#C76BDD" d="M34.4,13.1C34.3,13.1,34.3,13.1,34.4,13.1C34.3,13.1,34.4,13.1,34.4,13.1z"/>
									<path fill="#C76BDD" d="M34.3,17.6L34.3,17.6C34.2,17.6,34.2,17.6,34.3,17.6L34.3,17.6z"/>
									<path fill="#C76BDD" d="M17.7,49.4C17.7,49.4,17.7,49.4,17.7,49.4C17.7,49.3,17.7,49.4,17.7,49.4z"/>
									<path fill="#C76BDD" d="M2.4,24c0,0.4-0.4-0.5-0.3,0.1C2.1,24,2.4,24.4,2.4,24z"/>
									<path fill="#C76BDD" d="M34.2,21.6l0,0.2C34.2,21.7,34.2,21.6,34.2,21.6z"/>
									<path fill="#C76BDD" d="M2.1,24.1L2.1,24.1L2.1,24.1C2.1,24.1,2.1,24.1,2.1,24.1z"/>
									<path fill="#C76BDD" d="M14.6,44.8c0,0,0,0.1,0,0.1C14.6,44.9,14.6,44.9,14.6,44.8z"/>
									<path fill="#C76BDD" d="M17.4,49.8L17.4,49.8C17.3,49.8,17.4,49.8,17.4,49.8z"/>
									<path fill="#C76BDD" d="M12.9,42.2c0-0.1,0-0.1-0.1-0.2c0,0,0,0,0,0C12.8,42.1,12.8,42.1,12.9,42.2z"/>
									<polygon fill="#C76BDD" points="11.2,39.4 11.2,39.4 11.3,39.5          "/>
									<path fill="#C76BDD" d="M29,4.5c0,0.1,0,0.1,0,0.2C29,4.6,29.4,4.9,29,4.5z"/>
									<path fill="#C76BDD" d="M34.2,21.5c0,0,0,0.1,0,0.1L34.2,21.5C34.2,21.4,34.2,21.4,34.2,21.5z"/>
									<path fill="#C76BDD" d="M11.8,42.6l-0.2-0.5C11.7,42.3,11.7,42.5,11.8,42.6z"/>
									<path fill="#C76BDD" d="M6.6,3.9L6.6,3.9C6.7,3.8,6.6,3.8,6.6,3.9z"/>
									<path fill="#C76BDD" d="M10.8,40.9c0-0.1,0-0.2-0.1-0.3c0,0,0,0-0.1,0L10.8,40.9z"/>
									<path fill="#C76BDD" d="M29,4.7L29,4.7L29,4.7z"/>
									<path fill="#C76BDD" d="M31.6,7.1C31.3,6.7,31.3,7,31.2,7c-0.4-0.5-0.1-0.3-0.1-0.5c-0.3-0.3-0.6-0.4-0.8-0.6           c0,0,0-0.1,0.1-0.1c-0.2-0.1-0.4-0.3-0.6-0.5C29.5,5,29.2,4.8,29,4.8c0,0,0-0.1,0-0.1c0,0.1-0.1,0.2-0.1,0.2           c-0.2-0.2-0.4-0.2-0.4-0.3c0.1,0.1,0.1,0.1,0.2,0.1l-0.2-0.1c0-0.3,0.3,0.2,0.4,0.1c-0.4-0.3-0.9-0.5-1.1-0.7           c0-0.2,0.7,0.5,0.4,0.1c0,0,0.4,0.4,0.4,0.4c-0.1-0.5,0.2,0.2,0.1-0.2c-0.5-0.5-0.7-0.4-1.3-0.9c-0.2,0,0,0.1-0.2,0.1           c-1-0.4-0.5-0.8-1.2-1c-0.2,0-0.4,0.1-0.8-0.2L25.4,2c-0.6-0.3-0.5,0.1-1.1-0.4c0.1,0,0.5,0.2,0.4,0.1           c-0.4-0.3-0.3-0.1-0.7-0.2l0-0.2c-0.7-0.2-1.5-0.4-2.3-0.6c0.1,0,0.2-0.1,0-0.2c-0.3,0-0.5-0.1-0.8-0.2           c-0.3,0-0.5-0.1-0.8-0.2C19.6,0.2,19,0.1,18.5,0l-0.4,0.1C18,0.1,17.9,0.1,18,0c-0.4-0.1,0,0.1-0.2,0.1           c-0.2,0-0.3-0.1-0.2-0.1c-0.4,0-0.8,0.2-1.3,0.2c-0.2,0-0.5,0-0.7,0.1c-0.2,0-0.4,0-0.6,0l0.1-0.1c-0.6,0-0.6,0.4-1.1,0.3           l0.1,0c-0.6,0.1-1.2,0.3-1.8,0.4c-0.6,0.2-1.1,0.4-1.6,0.5c-0.1,0.3-1.2,0.5-1.1,0.8C8.8,2.4,9,2.3,8.1,2.7           C7.8,2.8,7.8,3.1,7.6,3.3L7.5,3.2L7.2,3.6l-0.3,0L6.7,3.8C6.8,3.7,7,3.7,7,3.7C6.8,3.9,6.5,4.1,6.3,4.2           C6.1,4.3,6,4.4,5.9,4.3L5.2,5.2c0-0.1,0.1-0.2,0.2-0.3C5,5.4,5.1,4.8,4.9,5.3c0.1,0,0,0.1,0.1,0.1c-0.3,0.1-0.7,0.6-1,1           l0-0.1C3.4,7,2.8,7.8,2.4,8.6c0.2-0.3,0.3-0.1,0.2,0.1l-0.2,0c0,0.2,0.2-0.2,0.1,0.2C2.3,9.2,2.2,9,2.3,8.8L2.1,9.2           C2,9.2,2.1,9.1,2,9.1C2,9.3,1.5,9.7,1.6,10l-0.1,0c-0.4,0.9-0.5,1.3-0.8,2c0.1,0.1,0,0.3,0,0.6c-0.2,0.5-0.5,1.1-0.6,1.8           c0,0.5,0.1,0.2,0.1,0.4c-0.1,0-0.2,0.7-0.3,0.3C0,15.9,0,16.2,0,17.2C0.1,17.1,0.1,17,0.2,17c0,0.2-0.1,0.4-0.1,0.4l0,0           c0.1,1.1-0.3,2.7,0.2,3.6l0,0c0,0,0.1,0.2,0.2,0.5c0.1,0.2,0.2,0.5,0.2,0.5c0.1,0.4-0.2-0.2-0.2,0.1           c0.5,0.9,0.4,1.6,0.9,2.3c0,0.2,0,0.4,0.1,0.7c0,0.1,0.1,0.3,0.1,0.4l0,0.1c0,0,0,0.1,0.1,0.2l0.1,0.2           c0.3,0.5,0.7,1,0.8,1.5l0.1-0.1c0.2,0.1,0.1,0.3,0.2,0.4c0-0.1-0.1-0.2,0.1-0.2c1.1,1.6,1.9,3.4,2.9,5.1           c0.3,0.6,0.6,0.1,0.9,1l-0.3-0.1c0.9,1.1,1.5,2.5,2.4,3.6c-0.1-0.1-0.1,0-0.2-0.1c0.1,0.3,0.6,0.9,0.7,0.9           c0.1,0.2,0,0.1,0,0.2c0.1,0.3,0.5,0.6,0.5,0.8c0,0-0.1-0.1-0.1-0.1c0.1,0.1,0.4,0.8,0.5,0.6c0.2,0.5,0.6,0.8,0.7,1.2           c0.3,0.2,0.4,0.8,0.6,0.8c-0.2,0.1,0.3,0.9,0.6,1.1c-0.1-0.1,0.1,0.3-0.1,0.2c0.2,0.3,0.4,0.6,0.5,0.5           c0.1,0.7,0.9,1.1,0.8,1.6c0.7,0.9,1.3,1.8,1.8,2.6c-0.2,0.1-0.6-1-0.8-0.8c0.6,0.8,1,1.2,1.5,2c0.1,0.2-0.2-0.1-0.2-0.1           c0.3,0.4,0.5,0.8,0.7,1.2c0.2,0.3,0.3,0.5,0.5,0.8c0.2,0.3,0.4,0.6,0.6,0.8c0,0-0.1-0.1-0.2-0.2c0.1,0.2,0.3,0.6,0.3,0.4           l-0.1-0.2c-0.1-0.4,0.1-0.1,0.3,0c0.1-0.3,0.2-0.5,0.2-0.6c-0.1,0.8,0.6-0.9,0.4,0.2c0.1-0.2,0.2-0.4,0.1-0.5           c0.1-0.2,0.2-0.2,0.1,0.1c0.2-0.5,0.3-0.6,0.3-0.7c0-0.1,0-0.2,0.2-0.4c0,0,0,0.1,0,0.2c0.1-0.3,0.1-0.6,0.4-1           c0,0,0.1,0,0,0.1c0.4-0.7,0.5-1.3,1-2c0.1,0.3,0.2-0.2,0.4-0.2l0.2-0.4l-0.2,0.1c0.2-0.4,0.3-0.7,0.5-1l-0.1,0.3l0.4-0.7           l-0.3,0.3c0.1-0.4-0.2-0.1,0.1-0.5c0,0.1,0.2-0.4,0.4-0.5l0,0c0.1-0.2,0.1-0.4,0.3-0.7c0.1,0,0.1,0.2,0.2,0.1           c0-0.3,0.5-0.9,0.4-1.2c0,0.1,0.1,0.1,0.1,0.1l0-0.2c0.1-0.1,0.2-0.2,0.2-0.1c0.3-0.5-0.3,0,0.1-0.5c0,0.1,0,0,0,0.1           c0.4-0.6,0.6-1.2,1-1.7c0.3-0.1-0.2,0.5,0,0.4c0.4-0.8,0.8-1.7,1.2-2.5l-0.1,0.1c-0.2-0.2,0.4-0.5,0.6-0.9           c0,0.1,0.1,0.2,0,0.2c0.3-0.5,0.6-1.1,0.9-1.9l0,0.1c0.2-0.3,0.5-0.8,0.7-1.1c0-0.1,0.1-0.3,0-0.3c0.9-0.8,1-2.1,1.8-2.8           c-0.1,0.1-0.1,0.3,0,0.2l0.4-0.8c-0.1,0-0.1,0.1-0.3,0.2c0-0.1,0.1-0.4,0.2-0.6c-0.1,0.4,0.2,0.1,0.3,0c0,0,0-0.1-0.1-0.1           c0.4-0.3-0.2-0.2,0.3-0.7l0,0.1c0.1-0.2,0.1-0.5,0.3-0.7c0.2,0-0.1,0.3,0,0.3c0.2-0.3,0.1-0.7,0.4-1c0,0.2-0.2,0.3-0.2,0.5           c0.3-0.2,0.3-0.3,0.5-0.5l0,0l0.4-0.5l-0.1,0.1c-0.1-0.6,0.4-0.8,0.5-1.5c-0.1,0.6,0.1,0.1,0.2,0.3           c0.1-0.1,0.3-0.3,0.3-0.2c0-0.3,0.3-0.4,0.4-0.8c0.1,0,0.2-0.3,0.2-0.1c0.2-0.3-0.1,0-0.2,0c0-0.1,0.1-0.3,0.2-0.4           c0.1-0.2,0.2-0.3,0.3-0.5c0.2-0.3,0.4-0.7,0.4-1.1c0.1-0.7,0-0.9,0.1-1.5c0.1-0.2,0.1,0.2,0.1,0.2c0.2-0.3,0.2-0.6,0.3-0.9           c0,0.1,0.1,0,0.2-0.1c0.1-0.3-0.1-0.2,0-0.6c0,0.1,0.1,0.2,0.1,0.3c0-0.3,0-0.7,0-1c0.1-0.1,0.1,0.2,0.1,0.4           c0-0.4,0.1-1,0-1.1l-0.1,0.2c0-0.1,0.1-0.1,0.1,0c0.1,0.3-0.1,0.5-0.2,0.5l0-0.2c-0.3,0.2-0.1,1-0.2,1.4l-0.2-0.2l0.1,0.5           c-0.1,0.1-0.2,0.1-0.2-0.1c-0.2,0.3,0,0.3-0.2,0.6c0,0,0,0,0,0l0,0.3c0-0.1-0.2,0-0.1-0.2c-0.3,0.5-0.1,1-0.4,1.1l0-0.1           c-0.2,0.8,0.1,0.1,0.1,0.8l-0.5,0.3l0.1,0.1c0,0.1-0.1,0.2-0.2,0.2c0,0.3,0.1,0,0.1,0.2c-0.2,0.3-0.5,1-0.7,1           c0,0.2,0.3-0.3,0.1,0.1c-0.3,0-0.2,0.5-0.5,0.7c-0.1-0.2,0.2-0.4-0.1-0.2c0.1,0.3-0.4,0.6-0.5,0.9c0.1,0.1-0.3,0.6-0.5,1.1           c0-0.1-0.6,0.8-0.9,1.2l0,0c0.1,0.2-0.2,0.6-0.3,0.9c-0.1-0.1-0.1-0.1,0-0.3L29,30.7c0,0.1,0,0.2-0.1,0.4L28.8,31           c-0.2,0.4-0.3,0.9-0.7,1.4c0.1,0.1,0.5-0.2,0.3,0.4c-0.1,0-0.2-0.1-0.1-0.2c0,0.1,0,0.2-0.1,0.3l0-0.3           c-0.2,0.2,0,0.2-0.1,0.4c-0.1-0.1-0.1,0.1-0.2,0c0-0.1,0.1-0.1,0.1-0.2c-0.1,0.2-0.3,0.4-0.5,0.5c0.1,0,0.1,0.1,0,0.2           c-0.2,0.4-0.2,0.1-0.4,0.3c0,0.1-0.2,0.4-0.1,0.4c-0.1,0.1-0.1,0.1-0.2,0.1c-0.1,0.2-0.6,1-0.3,0.8l0,0l0,0l0,0l0,0           c-0.3,0.8-0.9,1.4-1.2,2.1l0,0c-0.2,0.4-0.5,0.9-0.6,1.3c-0.1,0.1-0.2,0.2-0.3,0.2c-0.2,0.3-0.1,0.4-0.5,0.8           c0.1-0.4-0.1,0.1,0.1-0.4c-0.3,0.4-0.4,0.4-0.5,0.9c0-0.2-0.3,0.2-0.4,0.4l0.2-0.2c-0.1,0.2-0.2,0.4-0.4,0.6l-0.1-0.2           c-0.7,0.7-0.6,1.7-1.2,2.1c0,0.3,0.3-0.4,0.3-0.1c-0.2,0.4-0.7,0.6-0.8,0.8c-0.4,0.5-0.1,0.6-0.5,1.1c0.1,0,0.3,0,0.1,0.4           c-0.2,0.4-0.5,0.3-0.4,0.1c0-0.1,0.1-0.1,0.1-0.1c0.1-0.1,0.1-0.3,0-0.2l0,0.1c-0.2,0.2-0.5,0.7-0.5,0.5           c-0.1,0.3,0,0.2,0.2,0c-0.4,0.4-0.5,0.8-0.8,1.2c0.1-0.1,0.2-0.1,0.1,0c-0.5,0.7-0.1,0.4-0.4,0.9c-0.2,0.2-0.1-0.2-0.4,0.3           c-0.2,0.3-0.2,0-0.1-0.2c-0.2,0.5-0.6,0.8-0.7,1.1l0.1-0.3c-0.1,0.2-0.1,0.3-0.2,0.4l0.2-0.1c-0.1,0.1-0.2,0.2-0.2,0.2           c0,0.2,0.2,0,0.2,0.3c-0.2,0.1-0.3,0.6-0.4,0.5c0,0,0.1-0.1,0.1-0.2c0,0,0,0,0,0c-0.1,0-0.1,0,0-0.2c0,0.1-0.1,0.3-0.2,0.3           c0,0,0,0,0,0c-0.1,0,0.1,0.2,0,0.4c0-0.2-0.1-0.2-0.1-0.2c0,0,0.1,0.2,0,0.4c-0.1-0.3-0.1-0.1-0.2-0.2l0.1,0.2           c-0.1,0.1-0.1-0.1-0.2-0.2c0-0.1,0.1,0.1,0.1,0c-0.1,0-0.1-0.1-0.2-0.3c-0.1-0.2-0.1-0.4-0.3-0.6c-0.1-0.2,0.1-0.1,0.1-0.3           c-0.4-0.4-0.2-0.6-0.5-1c0,0.2,0,0.2-0.3-0.1l0.5,0.7l-0.4-0.4c0.1,0.2,0.4,0.5,0.4,0.6c-0.2-0.2-0.2-0.2-0.2,0           c0-0.4-0.5-0.6-0.6-1l0.3-0.1c-0.2-0.6-0.7-0.9-1.1-1.7l0.1,0.3c-0.2,0-0.3-0.4-0.5-0.7c0.1,0,0-0.2,0-0.3           c-0.1,0-0.3-0.5-0.5-0.5L14,44c-0.3-0.6-0.6-0.5-0.9-1.1c0.2,0.1,0.1-0.2,0.4,0.2c-0.1-0.2-0.2-0.4-0.3-0.3           c0-0.1-0.4-0.5-0.4-0.7c-0.1-0.1-0.2,0-0.3-0.2c0,0,0,0,0,0c0,0-0.3-0.3-0.2-0.1c-0.1-0.7-1-1.6-1.1-2.3           c-0.3-0.4-0.6-0.9-0.8-1.3c0,0,0,0,0.1,0.1c-0.2-0.6-0.4-0.2-0.7-0.8c0-0.4,0.3,0.3,0.2,0c0.2-0.2-0.5-0.7-0.5-1.2l0.1,0.1           c-0.1-0.4-0.6-0.7-0.8-1.2c0,0,0,0,0,0c-0.3-0.3-0.8-0.9-1.1-1.3c0.2,0.1,0.2,0.2,0.2,0c-0.1-0.2-0.1,0.2-0.4-0.2           c0-0.2-0.2-0.5-0.1-0.6l0.2,0.4c0-0.3-0.3-0.5-0.4-0.7l0.1,0c-0.4-0.6-0.6-0.5-1-1.2l0,0.1c-0.4-0.3-0.1-0.4-0.4-0.6           L6,30.7c-0.2-0.2-0.7-0.7-1-1.1c0.3,0.2,0.6,0.6,0.9,0.9c-0.1-0.2-0.5-0.8-0.7-0.9c0.1,0.1,0.2,0.2,0.2,0.3           c-0.3-0.2-0.6-0.5-0.9-1C5,28.8,3.9,27.6,4,27.1c-0.3-0.4-0.5-0.8-0.8-1.2c-0.1-0.2-0.2-0.4-0.4-0.7L2.8,25l0-0.1           c0-0.1-0.1-0.3-0.2-0.4c-0.1,0.5-0.1-0.3-0.4-0.1c-0.1-0.2-0.1-0.3-0.1-0.4L2,23.3c0-0.2,0.1,0.2,0.2,0.2           c-0.2-0.5,0-0.3,0-0.6c-0.1,0.1-0.2-0.1-0.3-0.5l0,0.5c-0.4-0.7,0-0.7-0.3-1.4l0.2,0.2c-0.2-0.4-0.3-1.4-0.6-1.8           c0-0.1,0.1-0.2,0.1,0c-0.1-0.9-0.4-2.1-0.2-2.9L1.1,17c0-0.2-0.1-0.3,0-0.5c0,0,0.1,0.1,0.1,0c0-0.1-0.1-0.5,0-0.7l0.1,0.2           c0.3-0.9,0-1.5,0.2-2.2c0.2,0.1,0.5-0.6,0.6-1l0,0c0.2-0.5,0.3-1,0.4-1.4c0.1-0.4,0.3-0.9,0.4-1.3C3.3,9.5,4,8.2,4.8,7.5           c-0.1,0.1-0.1-0.1,0-0.3C4.9,7.1,5,6.6,5.2,6.8L5.1,6.8c0.3,0,0.6-0.4,0.8-0.7L5.8,5.9c0.5-0.2,0.9-0.7,1.4-1.1           C7.6,4.5,8,4.1,8.3,4.1c0.2-0.2,0.4-0.3,0.6-0.5L9,3.7c0.6-0.3,0.9-0.5,1.6-0.8L10.5,3c0.4-0.2,0.3-0.7,0.8-0.8l0.2,0.2           c0.4-0.1,0.8-0.2,1.2-0.4c0.4-0.1,0.8-0.2,1.1-0.4c0,0,0,0.1-0.1,0.1c0.4-0.1,1.5-0.1,1.3-0.4c0,0.2,0.8-0.1,1.3-0.2           l-0.1,0.1C16.4,1.1,16.5,1,17,1c0.1,0,0.1,0.1-0.1,0.1c0.4,0.1,0.3-0.2,0.8-0.1l-0.2,0.1c0.4,0,0.4,0,0.6-0.1           C18.5,0.9,19,1,19,1.2c0.1-0.1,0.3-0.1,0.5-0.1c0,0.1-0.1,0.1-0.1,0.1c0.7,0.2,1.1,0,1.5,0.2c0,0,0,0.1,0.1,0.1           c-0.5-0.2-1-0.2-0.9-0.2c0,0.1,0.4,0.2,0,0.3c0.4-0.1,1-0.1,1.4,0.1c0,0,0,0,0,0.1l0,0c0.1,0,0.2,0,0.3,0           c0.1,0.1,0.2,0.1,0.3,0.1c0,0.1,0.5,0.2,0.7,0.3c0-0.1,0.3,0,0.1-0.2c0,0,0,0-0.2,0c0,0-0.1,0-0.1,0l0,0           c-0.1,0-0.3-0.1-0.5-0.2c0.2,0,0.4,0,0.6,0.1c0.1,0,0.3-0.1,0.4-0.1c0.2,0.3,0.7,0.6,0.8,0.7c0.6,0.2,1.5,0.6,2,0.7           C26,3.3,26,3.4,26,3.5c-0.1,0-0.2-0.1-0.3-0.1c0.4,0.1,1,0.6,1.2,0.5c0.3,0.4-0.3,0,0.2,0.4l-0.1,0C27.5,4.8,28,5,28.5,5.3           c0.2,0.2,0.5,0.3,0.7,0.5c0.2,0.2,0.4,0.5,0.6,0.8c-0.1-0.1-0.1-0.1-0.1-0.2c1,1.4,2.3,2.7,2.7,4.4           c0.2,0.4,0.3,0.5,0.5,0.7l-0.1,0.2l0.3,0.4c0.4,0.6,0,1.3,0.5,2.1l0.1-0.1c0.1,0.3,0.2,1,0.1,1c0,0,0.1,0.1,0.1,0.2l-0.1,0           c0,0,0.1,0.2,0.1,0.4c0.1,0.2,0.1,0.4,0.1,0.4c0,0.6-0.3-0.1-0.3,0.8c0,0.3,0.3,0.9,0.3,0.8c0-0.1,0-0.3,0.1-0.4l0.1,0.3           c0.2,0.1,0.5,0.3,0.6-0.5l-0.2-0.5l0.1-0.2l0,0.5c0.1-0.3,0-0.4-0.1-0.6c0.1,0,0.1-0.1,0.1-0.2c0,0-0.3-0.5-0.3-0.5           c0.1-0.1,0.2,0.2,0.2-0.1c-0.1-0.2-0.2,0.3-0.3-0.1c0.1-0.3,0.2-0.2,0-0.5c0.1-0.1,0.1,0,0.1,0.1c-0.1-0.3-0.1-0.7-0.3-0.8           c0.1-0.3-0.3-0.9,0-0.9C34.3,13,34,12.7,34,12.4c0.4,0.4-0.3-0.9,0-0.9c-0.2-0.1-0.3-0.4-0.4-0.7c-0.1-0.3-0.3-0.6-0.5-0.9           c0,0,0.1,0.1,0.1,0.1C33,9.8,33,9.7,33,9.5c-0.2,0-0.5-0.4-0.7-0.6c0-0.4,0.3,0.1,0.4-0.1c-0.1,0.1-0.5-0.5-0.5-0.3           c-0.1-0.3-0.1-0.3,0-0.5c-0.2,0.1-0.2-0.2-0.5-0.3c-0.2-0.4,0.1-0.2-0.2-0.6C31.3,6.8,31.6,7.1,31.6,7.1z M21.7,0.8           L21.7,0.8c0.1,0,0.2,0,0.2,0.1C21.9,0.9,21.8,0.9,21.7,0.8z M20.7,0.6c0.1,0,0.3,0.1,0.4,0.1c0,0.1,0,0.1-0.1,0.1           C21.1,0.7,20.8,0.7,20.7,0.6z M22.4,2.1c-0.1,0-0.2-0.1-0.2-0.1C22.3,2,22.4,2,22.4,2.1L22.4,2.1C22.5,2,22.5,2,22.4,2.1z"/>
									<path fill="#C76BDD" d="M22.7,2C22.8,2,22.8,2,22.7,2C22.8,2,22.8,1.9,22.7,2L22.7,2L22.7,2z"/>
									<path fill="#C76BDD" d="M26.6,35.1L26.6,35.1C26.6,35.1,26.7,35.1,26.6,35.1C26.7,35.1,26.7,35.1,26.6,35.1z"/>
									<polygon fill="#C76BDD" points="7.5,3.1 7.5,3.2 7.5,3.1          "/>
									<path fill="#C76BDD" d="M29.7,30.7C29.8,30.7,29.8,30.7,29.7,30.7C29.8,30.7,29.8,30.7,29.7,30.7z"/>
									<path fill="#C76BDD" d="M30.9,28.7l0.2-0.3C31,28.6,31,28.6,30.9,28.7z"/>
									<path fill="#C76BDD" d="M31.9,27.2C31.9,27.2,31.9,27.2,31.9,27.2L31.9,27.2L31.9,27.2z"/>
									<path fill="#C76BDD" d="M17.1,51.2L17.1,51.2C16.8,50.9,16.9,51,17.1,51.2z"/>
									<path fill="#C76BDD" d="M21.7,44.3c0,0.1,0,0.2-0.1,0.3C21.7,44.4,21.8,44.3,21.7,44.3z"/>
									<polygon fill="#C76BDD" points="11.9,42.7 11.9,42.7 11.8,42.6          "/>
									<path fill="#C76BDD" d="M21.4,44.9c0.1-0.1,0.2-0.2,0.2-0.3C21.6,44.7,21.5,44.8,21.4,44.9z"/>
									<path fill="#C76BDD" d="M34.6,19.9L34.6,19.9C34.6,19.8,34.6,19.8,34.6,19.9L34.6,19.9z"/>
									<path fill="#C76BDD" d="M34.6,19.8L34.6,19.8C34.6,19.7,34.6,19.8,34.6,19.8z"/>
									<path fill="#C76BDD" d="M34.6,19.5l0,0.2C34.6,19.6,34.6,19.5,34.6,19.5z"/>
									<path fill="#C76BDD" d="M34,22.2L34,22.2C34.1,22.2,34.1,22.2,34,22.2z"/>
									<path fill="#C76BDD" d="M33.8,22.9c0.1-0.2,0.2-0.4,0.3-0.6l0,0C34.1,22.4,33.8,22.7,33.8,22.9z"/>
									<path fill="#C76BDD" d="M32.2,25.5c0,0,0.1-0.1,0.2-0.2c0.1-0.1,0.1-0.2,0.1-0.2c-0.1,0.1-0.2,0.2-0.1-0.1           C31.9,25.4,32.6,24.8,32.2,25.5z"/>
									<path fill="#C76BDD" d="M31.2,27C31.3,26.7,31.1,27,31.2,27C31,27.2,31,27.2,31.2,27z"/>
									<path fill="#C76BDD" d="M24.4,38.7L24.4,38.7C24.2,38.8,24.4,38.6,24.4,38.7z"/>
									<polygon fill="#C76BDD" points="23.7,41.2 23.9,41 23.8,40.9          "/>
									<polygon fill="#C76BDD" points="22.1,42.1 22.2,42 22,42.3          "/>
									<path fill="#C76BDD" d="M11.6,39.8L11.5,40C11.6,40.1,11.8,40,11.6,39.8z"/>
									<path fill="#C76BDD" d="M6.4,31.5c0-0.1-0.1-0.4-0.2-0.5C6.3,31.2,6.4,31.4,6.4,31.5z"/>
									<polygon fill="#C76BDD" points="6.3,5.8 6.2,5.9 6.4,5.6          "/>
								</g>
							</g>
						</g>
					</g>
				</g>
				<g>
					<circle fill-rule="evenodd" clip-rule="evenodd" fill="#F2F2F2" cx="17.4" cy="17.8" r="12.7"/>
					<g>
						<g>
							<g>
								<g>
									<path fill="#C76BDD" d="M29.7,17.8c0,0,0.1,0,0.1-0.1l-0.2-0.1L29.7,17.8z"/>
									<path fill="#C76BDD" d="M30,17.1c-0.1-0.1-0.2-0.3-0.4-0.2c0.2,0.1,0.1,0.2,0.3,0.3c0,0.1,0,0.2-0.1,0.2c0,0,0,0.2,0.1,0.2           c0.1-0.2,0.1-0.3,0-0.5C29.9,17,30,17.1,30,17.1z"/>
									<path fill="#C76BDD" d="M24.9,7.4L24.9,7.4C24.9,7.4,24.9,7.4,24.9,7.4z"/>
									<path fill="#C76BDD" d="M18.3,4.9C18.3,4.9,18.3,4.9,18.3,4.9C18.3,4.9,18.2,4.9,18.3,4.9z"/>
									<path fill="#C76BDD" d="M17,4.7C17.1,4.7,17.1,4.7,17,4.7C17.1,4.7,17.1,4.7,17,4.7z"/>
									<path fill="#C76BDD" d="M24.9,7.4l-0.1-0.2C24.7,7.2,24.8,7.3,24.9,7.4z"/>
									<path fill="#C76BDD" d="M29.4,15.6C29.4,15.6,29.4,15.7,29.4,15.6L29.4,15.6L29.4,15.6z"/>
									<path fill="#C76BDD" d="M27.3,9.4L27.3,9.4c0.1,0,0.1,0,0.1,0L27.3,9.4z"/>
									<path fill="#C76BDD" d="M28.7,11.3c0-0.1-0.2,0-0.2,0C28.5,11.4,28.6,11.4,28.7,11.3C28.6,11.4,28.7,11.4,28.7,11.3z"/>
									<path fill="#C76BDD" d="M29.9,15L29.9,15C29.9,15,29.9,15,29.9,15z"/>
									<path fill="#C76BDD" d="M26.1,8.1C26.1,8.1,26.1,8.1,26.1,8.1C26.1,8.1,26.1,8.1,26.1,8.1z"/>
									<path fill="#C76BDD" d="M29.1,20.4C29.1,20.4,29.1,20.4,29.1,20.4C29.1,20.4,29.1,20.4,29.1,20.4z"/>
									<path fill="#C76BDD" d="M30.1,17.8L30.1,17.8C30.1,17.9,30.1,17.9,30.1,17.8L30.1,17.8z"/>
									<path fill="#C76BDD" d="M14.7,4.8C14.8,4.8,14.8,4.8,14.7,4.8C14.8,4.8,14.8,4.8,14.7,4.8z"/>
									<path fill="#C76BDD" d="M4.5,20.6c0.1-0.3,0.3,0.3,0.3,0C4.7,20.7,4.5,20.3,4.5,20.6z"/>
									<path fill="#C76BDD" d="M29.4,15.5L29.4,15.5C29.4,15.5,29.4,15.5,29.4,15.5z"/>
									<path fill="#C76BDD" d="M4.8,20.6L4.8,20.6L4.8,20.6C4.8,20.6,4.8,20.6,4.8,20.6z"/>
									<path fill="#C76BDD" d="M9.9,6.9C10,6.9,10,6.9,9.9,6.9C10,6.9,10,6.9,9.9,6.9z"/>
									<path fill="#C76BDD" d="M13.5,5.4L13.5,5.4C13.5,5.4,13.5,5.4,13.5,5.4z"/>
									<path fill="#C76BDD" d="M8.5,8.3c0,0-0.1,0-0.1,0.1L8.5,8.3C8.4,8.4,8.4,8.3,8.5,8.3z"/>
									<polygon fill="#C76BDD" points="7.1,9.9 7.1,9.8 7.2,9.8          "/>
									<path fill="#C76BDD" d="M26.6,25.6c0.1,0,0.1,0,0.2,0C26.7,25.6,26.8,25.4,26.6,25.6z"/>
									<path fill="#C76BDD" d="M29.5,15.6C29.5,15.6,29.4,15.6,29.5,15.6L29.5,15.6C29.5,15.6,29.5,15.6,29.5,15.6z"/>
									<path fill="#C76BDD" d="M9.2,9.2L9,9.4C9,9.3,9.1,9.3,9.2,9.2z"/>
									<path fill="#C76BDD" d="M14.1,29.4L14.1,29.4C14.1,29.4,14.1,29.4,14.1,29.4z"/>
									<path fill="#C76BDD" d="M8.4,10.1c-0.1,0-0.1,0-0.2,0.1c0,0,0,0,0,0L8.4,10.1z"/>
									<path fill="#C76BDD" d="M26.8,25.7L26.8,25.7L26.8,25.7z"/>
									<path fill="#C76BDD" d="M27.6,23.8c-0.2,0.2,0.1,0.2,0.1,0.3c-0.1,0.3-0.2,0.1-0.3,0.1c-0.1,0.2,0,0.4-0.1,0.6           c0,0-0.1,0-0.1,0c0,0.3-0.4,0.6-0.4,0.9c0,0,0,0-0.1,0c0.1,0,0.2,0.1,0.2,0.1c-0.1,0.1-0.1,0.3-0.2,0.2           c0.1-0.1,0-0.1,0-0.1L26.7,26c-0.2,0,0.1-0.2,0-0.3c-0.1,0.2-0.2,0.6-0.4,0.7c-0.2-0.1,0.3-0.4,0-0.3l0.3-0.2           c-0.4,0,0.1-0.1-0.2-0.2c-0.3,0.3-0.2,0.4-0.6,0.7c0,0.1,0.1,0.1,0.1,0.2c-0.3,0.5-0.6,0-0.8,0.5c0,0.2,0.1,0.4-0.2,0.5           l0-0.2c-0.3,0.2,0,0.4-0.4,0.5c0-0.1,0.2-0.2,0.2-0.2c-0.3,0-0.1,0.2-0.3,0.3l-0.1-0.1c-0.4,0.2-0.7,0.6-1.1,0.9           c0-0.1,0-0.1-0.1-0.1c-0.3,0.2-0.5,0.3-0.8,0.4c-0.3,0.1-0.6,0.1-0.9,0.2L21,29.4c0,0-0.1,0-0.1-0.1c-0.2,0,0,0.1-0.1,0.2           c-0.1,0-0.2,0-0.1-0.1c-0.3,0.2-1,0.6-1.5,0.4l0.1-0.1c-0.3,0-0.3,0.4-0.6,0.3l0.1,0c-0.7,0-1.5,0.2-2.1-0.1           c-0.1,0.2-0.7-0.1-0.8,0.1c-0.4-0.2-0.3-0.2-0.8-0.4c-0.1,0-0.3,0.1-0.5,0.1l0-0.2l-0.3,0.1l-0.1-0.2l-0.2,0           c0.1,0,0.1,0.1,0.1,0.1c-0.3,0-0.6-0.3-0.6-0.4L13,29.1c0-0.1,0.1,0,0.2,0c-0.4,0,0-0.2-0.4-0.1c0,0-0.1,0.1-0.1,0.1           c-0.1-0.1-0.4-0.3-0.7-0.4l0.1-0.1c-0.4-0.2-0.9-0.4-1.4-0.7c0.1,0.1,0,0.3-0.1,0.2l0-0.2c-0.1,0,0.1,0.1-0.1,0.1           c-0.2-0.1,0-0.2,0.1-0.2l-0.2-0.1c0,0,0.1,0,0.1-0.1c-0.1,0-0.2-0.4-0.5-0.3l0,0c-0.4-0.3-0.6-0.5-1-0.7           c-0.1,0.1-0.2,0-0.4-0.1c-0.2-0.3-0.4-0.6-0.6-0.9c-0.2-0.2-0.1,0-0.3,0c0.1-0.1-0.2-0.4,0-0.3c-0.3-0.4-0.4-0.4-0.8-0.9           c0,0.1,0,0.2,0,0.2C7,24.4,7,24.2,7,24.2l0,0c-0.5-0.5-0.4-1.5-0.8-1.9l0,0l-0.3-0.5c-0.1-0.2,0.1,0.1,0.2-0.1           c-0.4-0.5-0.2-0.9-0.5-1.3c0.1-0.2,0.1-0.6,0-0.9c-0.1-0.3-0.2-0.7,0-1l-0.1,0c-0.1-0.1,0-0.2,0.1-0.3           c-0.1,0-0.1,0.1-0.1,0.1c-0.2-1.1,0.2-2.3,0.5-3.4c0.1-0.4-0.4-0.3,0-0.8L6,14.4c0-0.4,0.2-0.8,0.3-1.2           c0.2-0.4,0.4-0.8,0.5-1.2c0,0.1,0,0.1,0,0.2c0.2-0.1,0.3-0.5,0.3-0.6c0.1-0.1,0.1,0,0.2,0c0.2-0.1,0.1-0.5,0.3-0.5           c0,0,0,0.1,0,0.1c0-0.1,0.3-0.4,0.2-0.4c0.2-0.2,0.3-0.5,0.5-0.7c0-0.2,0.4-0.3,0.3-0.5C8.6,9.8,9,9.3,9,9.1           C9,9.2,9.2,9,9.2,9.2C9.4,9,9.5,8.8,9.4,8.8c0.5-0.1,0.5-0.7,0.9-0.6C10.5,8,10.8,7.7,11,7.5c0.3-0.2,0.5-0.4,0.8-0.6           c0.1,0.2-0.6,0.3-0.4,0.5c0.4-0.4,0.7-0.7,1.2-0.9c0.1,0,0,0.1-0.1,0.2c0.5-0.3,1-0.4,1.5-0.7c0,0,0,0.1-0.1,0.1           c0.1,0,0.2,0,0.2-0.1L14,6.2c-0.2-0.1,0.3-0.4,0.3-0.5c-0.1,0.3,0.5-0.1,0.3,0.4c0.1,0,0.1-0.1,0.1-0.2           c0.1,0,0.1,0,0.1,0.1c0.3-0.1,0.2-0.2,0.5-0.3c0,0-0.1,0.1-0.1,0.1c0.1-0.1,0.3-0.2,0.6-0.2c0,0,0,0.1-0.1,0.1           c0.5-0.1,0.8-0.3,1.3-0.3c-0.1,0.2,0.2,0.1,0.2,0.2c0,0,0.3-0.1,0.3-0.1l-0.1-0.1c0.2,0,0.5-0.1,0.7,0l-0.2,0.1l0.5,0           l-0.3-0.1c0.3-0.1,0-0.2,0.3-0.2c-0.1,0,0.3,0,0.4,0.1l0,0c0.1,0,0.3-0.1,0.4,0c0,0.1-0.1,0.2,0,0.2c0.1-0.1,0.6,0,0.8-0.1           c-0.1,0-0.1,0.1-0.1,0.1l0.1-0.1c0.1,0.1,0.1,0.1,0.1,0.2c0.3,0.1-0.1-0.3,0.3-0.1c0,0,0,0-0.1,0c0.4,0.2,0.8,0.1,1.1,0.3           c0,0.2-0.3-0.1-0.3,0.1c0.5,0.1,1.1,0.2,1.6,0.5l-0.1-0.1C23,6.5,23.1,7,23.4,7c-0.1,0-0.1,0.1-0.1,0.1           c0.3,0.2,0.7,0.3,1.2,0.6l-0.1,0c0.1,0.2,0.4,0.4,0.6,0.5c0.1,0,0.2,0.1,0.2-0.1c0.3,0.7,1.2,0.7,1.4,1.4           c-0.1-0.1-0.2-0.1-0.1,0l0.4,0.4c0.1-0.1,0-0.1,0-0.2c0.1,0,0.2,0.1,0.3,0.2C26.9,9.7,27,9.9,27,10c0,0,0.1,0,0.1-0.1           c0,0.4,0.2-0.1,0.3,0.3l-0.1,0c0.1,0.1,0.3,0.2,0.3,0.3c-0.1,0.1-0.1-0.1-0.2,0c0.1,0.2,0.5,0.2,0.5,0.5           c-0.1-0.1-0.1-0.2-0.2-0.2c0,0.3,0,0.3,0.1,0.4l0,0l0.1,0.4l0-0.1c0.4,0.1,0.4,0.4,0.7,0.7c-0.3-0.2-0.1,0-0.3,0           c0,0.1,0,0.3,0,0.2c0.2,0.1,0,0.3,0.3,0.4c0,0,0.1,0.2-0.1,0.2c0.1,0.2,0.1-0.1,0.1-0.1c0.3,0.3,0.1,0.8,0.5,1.2           c0.2,0.4,0.4,0.4,0.6,0.8c0,0.2-0.2-0.1-0.2-0.1c0,0.2,0,0.4,0.1,0.6c0,0-0.1,0-0.1,0.1c0,0.2,0.2,0.1,0.2,0.3           c-0.1,0-0.2-0.1-0.2-0.1c0.1,0.2,0.2,0.4,0.3,0.6c-0.1,0.1-0.1-0.1-0.2-0.2c0.1,0.2,0.2,0.6,0.3,0.6l0-0.2           c0,0.1-0.1,0.1-0.1,0c-0.1-0.2,0-0.3,0.1-0.3l0.1,0.1c0.3-0.2-0.1-0.6-0.2-0.9l0.2,0.1l-0.2-0.3c0-0.1,0.1-0.1,0.2,0           c0.1-0.2-0.1-0.2,0-0.4c0,0,0,0,0,0l-0.1-0.2c0.1,0,0.1-0.1,0.1,0.1c0-0.4-0.3-0.5-0.2-0.7l0,0c-0.2-0.5-0.2,0-0.5-0.3           l0.3-0.4l-0.2,0c0-0.1,0-0.2,0-0.2c-0.2-0.2-0.1,0.1-0.2,0c0.1-0.3-0.3-0.6-0.1-0.8c-0.1,0,0,0.3-0.2,0           c0.2-0.2-0.2-0.3-0.2-0.5c0.2,0,0.2,0.2,0.2,0c-0.3,0-0.2-0.4-0.3-0.6c-0.2,0.1-0.3-0.3-0.5-0.6c0.1,0-0.3-0.6-0.4-0.9l0,0           c-0.2,0.1-0.3-0.2-0.5-0.4c0.1-0.1,0.2-0.1,0.3,0c0,0-0.1-0.2-0.1-0.2c-0.1,0-0.2,0-0.3-0.1l0.1,0C27,9,26.7,8.9,26.5,8.6           c-0.1,0.1,0,0.5-0.4,0.3c0-0.1,0.1-0.2,0.2-0.1c0,0-0.1,0-0.2-0.1l0.2,0c-0.1-0.2-0.1,0-0.2-0.1c0.1-0.1,0-0.1,0-0.2           c0,0,0.1,0.1,0.1,0.1c-0.1-0.1-0.2-0.3-0.2-0.4c0,0.1-0.1,0.1-0.2,0c-0.2-0.2,0-0.2-0.1-0.3c-0.1,0-0.2-0.2-0.3-0.1           c-0.1-0.1,0-0.1,0-0.2c-0.2,0-0.6-0.4-0.5-0.2l0,0l0,0l0,0l0,0c-0.5-0.2-0.8-0.6-1.3-0.8l0,0c-0.3-0.1-0.6-0.3-0.8-0.3           c-0.1,0-0.1-0.2-0.1-0.2c-0.2-0.1-0.3,0-0.5-0.2c0.2,0,0-0.1,0.2,0c-0.3-0.1-0.3-0.2-0.6-0.2c0.1-0.1-0.2-0.2-0.3-0.2           l0.2,0.2c-0.2,0-0.3-0.1-0.4-0.2l0.1-0.1c-0.5-0.4-1.1,0-1.5-0.4C19.7,5,20.2,5.1,20,5.2c-0.3-0.1-0.5-0.3-0.6-0.4           C19,4.7,19,5,18.6,4.9c0,0.1,0.1,0.2-0.2,0.3c-0.3,0-0.3-0.3-0.1-0.3c0.1,0,0.1,0,0.1,0c0.1,0,0.2,0,0.1-0.1l0,0.1           c-0.1-0.1-0.5-0.1-0.4-0.2c-0.2,0-0.1,0.1,0.1,0.1c-0.4-0.1-0.6-0.1-0.9-0.1c0.1,0,0.1,0.1,0.1,0.1c-0.5,0-0.2,0.1-0.6,0.2           c-0.2-0.1,0.1-0.2-0.3-0.1c-0.2,0-0.1-0.2,0-0.2c-0.3,0.1-0.6,0-0.8,0l0.2-0.1c-0.1,0-0.2,0.1-0.3,0.1l0.1,0.1           c-0.1,0-0.2,0-0.2,0c-0.1,0.1,0.1,0.2-0.1,0.3c-0.1,0-0.4,0.1-0.5,0c0.4,0-0.1-0.2,0.3-0.2c-0.1,0-0.2,0-0.3,0c0,0,0,0,0,0           c-0.4,0-0.2,0.2-0.6,0.3C14.2,5,14,5,14,5c0.2,0,0.1,0.1,0,0.2c-0.3,0-0.3,0.1-0.4,0.2l0.2,0c0,0.1-0.2,0.1-0.3,0.2           c0-0.1,0.1-0.1,0.1-0.1c-0.2,0.2-0.5,0-0.8,0.2c-0.2,0-0.1-0.2-0.2-0.1c-0.3,0.2-0.4,0-0.7,0.3c0.1,0.1,0.1,0,0,0.2           l0.5-0.3L12,6.1c0.2-0.1,0.3-0.2,0.4-0.2c-0.1,0.2-0.1,0.1,0,0.2c-0.3-0.1-0.4,0.3-0.7,0.3L11.6,6           c-0.4,0.1-0.6,0.5-1.1,0.7l0.2,0c0,0.1-0.3,0.2-0.4,0.3c0-0.1-0.2-0.1-0.3-0.1c0,0.1-0.3,0.2-0.2,0.4l-0.3,0           C9.1,7.6,9.3,7.9,8.9,8.1c0-0.2-0.2-0.1,0-0.3C8.8,7.9,8.7,8,8.8,8C8.7,8,8.6,8.4,8.4,8.4c0,0.1,0,0.2-0.1,0.3c0,0,0,0,0,0           c0,0-0.1,0.2,0,0.2c-0.5,0.1-0.8,0.9-1.2,1c-0.2,0.3-0.4,0.6-0.5,0.8c0,0,0,0,0-0.1c-0.3,0.3,0.1,0.4-0.2,0.7           c-0.3,0.1,0-0.2-0.1-0.2c-0.3-0.1-0.2,0.5-0.5,0.6l0-0.1c-0.2,0.2-0.1,0.6-0.3,0.9c0,0,0,0,0,0c0,0.3-0.1,0.8-0.1,1.1           c-0.1-0.1,0-0.2-0.2-0.2c0,0.2,0.2,0,0.1,0.3C5.2,13.8,5.1,14,4.9,14c0,0,0.1-0.3,0.1-0.3c-0.2,0.1-0.1,0.4-0.2,0.5l-0.1,0           c-0.1,0.5,0.1,0.5,0,1l0.1,0c0.1,0.3-0.1,0.2,0,0.5l-0.2,0c0,0.2,0.1,0.6,0.1,0.9c-0.1-0.2-0.1-0.6-0.2-0.8           c0,0.2-0.1,0.6,0,0.7c0-0.1,0-0.2,0-0.2c0.1,0.2,0.2,0.5,0.2,0.9c-0.4-0.1-0.2,0.9-0.4,1.2c0.1,0.3,0.1,0.6,0.1,0.9           c0,0.3,0,0.7,0.1,1c0.3-0.3,0,0.2,0.3,0.1c0,0.2,0.1,0.2,0,0.2l-0.1,0.5C4.7,21.3,4.6,21,4.6,21c0.1,0.4-0.1,0.2-0.1,0.4           c0.1-0.1,0.2,0.1,0.2,0.3l0.1-0.3c0.3,0.5-0.1,0.5,0.2,1l-0.1-0.1c0.1,0.2,0.3,1,0.7,1.1c0,0.1-0.1,0.2-0.1,0.1           c0.2,0.6,0.9,1.1,1,1.6l-0.1,0c0.1,0.1,0.2,0.1,0.3,0.3c0,0-0.1,0-0.1,0.1c0.1,0,0.3,0.2,0.4,0.3l-0.1-0.1           c0.3,0.6,0.7,0.6,1.1,1c-0.2,0.1,0.1,0.6,0.3,0.8l0,0c0.5,0.5,1,0.7,1.6,1c0.2,0.5,1.1,0.9,1.7,1.3           c-0.1-0.1,0.1-0.1,0.2-0.1c0.1,0.1,0.5,0.1,0.3,0.2l0,0c0,0.2,0.3,0.3,0.6,0.4l0.1-0.2c0.2,0.3,0.7,0.4,1.1,0.5           c0.4,0.1,0.7,0.1,0.9,0.3c0.2,0,0.4,0,0.5,0l0,0.1c0.4,0.1,0.7,0.2,1.2,0.2l-0.1,0.1c0.3,0,0.4-0.4,0.7-0.4l0.1,0.2           c0.5,0,1.1,0.2,1.6,0c0,0,0,0.1-0.1,0.1c0.3,0,1,0,0.9-0.2c0,0.2,0.6-0.1,0.8-0.2l0,0.1c0.2-0.2,0.2-0.3,0.5-0.4           c0.1,0,0.1,0.1,0,0.1c0.3,0,0.2-0.2,0.5-0.2L21,30.4c0.3-0.1,0.2-0.1,0.3-0.2c0.1-0.1,0.5-0.1,0.6,0c0-0.1,0.1-0.2,0.3-0.3           c0,0,0,0.1,0,0.1c0.5-0.1,0.6-0.4,0.9-0.4c0,0,0.1,0.1,0.1,0.1c-0.3,0.2-0.6,0.3-0.6,0.3c0,0.1,0.3,0,0.2,0.3           c0.2-0.2,0.5-0.6,0.7-0.6c0,0,0,0,0.1,0l0,0c0.1,0,0.1-0.1,0.2-0.1c0.1,0,0.1,0,0.2-0.1c0.1,0.1,0.3-0.1,0.5-0.2           c-0.1-0.1,0.1-0.2-0.1-0.2c0,0,0,0-0.1,0.1c0,0,0,0,0,0c0,0,0,0,0,0c-0.1,0.1-0.2,0.1-0.3,0.2c0.1-0.1,0.1-0.2,0.3-0.3           c0-0.1,0-0.2,0.1-0.3c0.3,0.1,0.7-0.1,0.8,0c0.3-0.3,0.8-0.7,0.9-1.1c0.1-0.1,0.2,0,0.2,0c0,0.1-0.1,0.1-0.1,0.2           c0.1-0.2,0.5-0.5,0.5-0.7c0.3-0.2,0,0.2,0.3-0.1l0,0.1c0.4-0.2,0.6-0.6,0.7-0.9c0.1-0.4,0.3-0.7,0.7-1           c-0.1,0-0.1,0.1-0.1,0.1c0.8-0.8,1-2,1.6-2.9c0.2-0.3,0.1-0.3,0-0.5l0.2,0l-0.1-0.4c0-0.5,0.6-0.7,0.4-1.3l-0.1,0.1           c0.1-0.2,0-0.7,0.1-0.6c0,0-0.1-0.1,0-0.2l0.1,0c0,0-0.1-0.5-0.1-0.5c0.1-0.4,0.3,0.1,0.4-0.5c0-0.2-0.2-0.6-0.3-0.5           c0,0.1-0.1,0.2-0.1,0.2l0-0.2c-0.2,0-0.5-0.2-0.6,0.3l0.1,0.3l-0.1,0.1l0-0.3c-0.1,0.1,0,0.2,0,0.4c-0.1,0-0.1,0.1-0.1,0.1           l0.2,0.3c-0.1,0-0.2-0.2-0.2,0c0.1,0.2,0.2-0.1,0.3,0.1c-0.1,0.1-0.2,0.1-0.1,0.3c-0.1,0-0.1,0-0.1-0.1           c0,0.2,0,0.4,0.1,0.5c-0.1,0.1-0.1,0.5-0.3,0.5c0,0.1,0.1,0.3,0.1,0.4c-0.2-0.3-0.1,0.5-0.4,0.4c0.2,0.3-0.1,0.7-0.1,1.1           c0,0,0-0.1,0-0.1c-0.1,0.2-0.2,0.2-0.3,0.3c0.2,0.1,0.1,0.4,0.1,0.6c-0.3,0.1-0.1-0.2-0.3-0.2c0.1,0.1,0,0.4,0.1,0.4           c-0.2,0.1-0.1,0.1-0.3,0.1c0.2,0.1,0,0.2,0,0.4c-0.2,0.2-0.2-0.1-0.3,0.2C27.6,24.1,27.6,23.8,27.6,23.8z M23,28.7L23,28.7           c0.1,0,0.1-0.1,0.1-0.1C23.1,28.7,23.1,28.7,23,28.7z M22.5,29c0.1,0,0.1-0.1,0.2-0.1c0,0,0,0.1,0,0.1           C22.7,29,22.6,29,22.5,29z M24.1,29.3c-0.1,0.1-0.1,0.1-0.1,0C24,29.3,24,29.3,24.1,29.3L24.1,29.3           C24.1,29.2,24.1,29.2,24.1,29.3z"/>
									<path fill="#C76BDD" d="M24.2,29C24.2,29,24.2,29,24.2,29C24.2,29,24.1,29,24.2,29L24.2,29L24.2,29z"/>
									<path fill="#C76BDD" d="M24.9,7.4L24.9,7.4C24.9,7.4,24.9,7.4,24.9,7.4C24.9,7.4,24.9,7.4,24.9,7.4z"/>
									<polygon fill="#C76BDD" points="14.7,29.5 14.7,29.6 14.7,29.6          "/>
									<path fill="#C76BDD" d="M27,10C27,10,27,10.1,27,10C27,10.1,27,10.1,27,10z"/>
									<path fill="#C76BDD" d="M27.8,11.2l0.1,0.2C27.8,11.3,27.8,11.2,27.8,11.2z"/>
									<path fill="#C76BDD" d="M28.3,12.1C28.3,12.1,28.3,12.1,28.3,12.1L28.3,12.1L28.3,12.1z"/>
									<path fill="#C76BDD" d="M13.9,6.3L13.9,6.3C13.7,6.3,13.8,6.3,13.9,6.3z"/>
									<path fill="#C76BDD" d="M18.8,5.5c-0.1,0-0.1,0-0.2,0C18.8,5.6,18.8,5.6,18.8,5.5z"/>
									<polygon fill="#C76BDD" points="9.2,9.2 9.2,9.2 9.2,9.2          "/>
									<path fill="#C76BDD" d="M18.4,5.5c0.1,0,0.2,0,0.2,0C18.6,5.5,18.5,5.5,18.4,5.5z"/>
									<path fill="#C76BDD" d="M29.5,16.5L29.5,16.5C29.6,16.6,29.6,16.6,29.5,16.5L29.5,16.5z"/>
									<path fill="#C76BDD" d="M29.6,16.6L29.6,16.6C29.6,16.6,29.6,16.6,29.6,16.6z"/>
									<path fill="#C76BDD" d="M29.6,16.8l0-0.1C29.6,16.7,29.6,16.7,29.6,16.8z"/>
									<path fill="#C76BDD" d="M29.4,15.1L29.4,15.1C29.3,15.1,29.3,15.2,29.4,15.1z"/>
									<path fill="#C76BDD" d="M29.2,14.7c0,0.1,0,0.3,0,0.4l0,0C29.2,15.1,29.4,14.8,29.2,14.7z"/>
									<path fill="#C76BDD" d="M29.3,12.8c0,0,0.1,0.4,0.1,0.4c0-0.1,0.1-0.2,0.1,0C29.5,12.6,29.4,13.3,29.3,12.8z"/>
									<path fill="#C76BDD" d="M28.8,11.7c0.1,0.2,0.1,0,0.1,0C28.8,11.6,28.8,11.5,28.8,11.7z"/>
									<path fill="#C76BDD" d="M22.7,6l0.1-0.1C22.6,5.8,22.7,5.9,22.7,6z"/>
									<path fill="#C76BDD" d="M21,6.1l0.1,0.1l0.1-0.1C21.2,6.1,21,6.1,21,6.1z"/>
									<polygon fill="#C76BDD" points="20.3,4.9 20.4,4.9 20.1,4.9          "/>
									<path fill="#C76BDD" d="M7.2,9.5l0.2,0.1C7.4,9.4,7.3,9.3,7.2,9.5z"/>
									<path fill="#C76BDD" d="M4.7,15.1c-0.1,0-0.2,0.2-0.1,0.3C4.6,15.3,4.7,15.2,4.7,15.1z"/>
									<polygon fill="#C76BDD" points="12.8,30.3 12.7,30.3 12.9,30.3          "/>
								</g>
							</g>
						</g>
					</g>
				</g>
			</g>
		</g>
		<g>
			<g>
				<g>
					<g>
						<g>
							<g>
								<path fill="#C76BDD" d="M23.2,13.4c0,0-0.1,0.1-0.1,0.1L23.2,13.4L23.2,13.4z"/>
								<path fill="#C76BDD" d="M23.2,13.9c0.1,0,0.3,0,0.4-0.1C23.4,13.8,23.4,13.8,23.2,13.9c0-0.1,0-0.2,0.1-0.2          c0,0,0-0.1-0.1-0.1c-0.1,0.1,0,0.2,0.1,0.3C23.2,13.9,23.2,13.9,23.2,13.9z"/>
								<path fill="#C76BDD" d="M21.7,19.1L21.7,19.1C21.7,19,21.7,19.1,21.7,19.1z"/>
								<path fill="#C76BDD" d="M19.5,21.7C19.5,21.7,19.5,21.7,19.5,21.7C19.5,21.7,19.5,21.7,19.5,21.7z"/>
								<path fill="#C76BDD" d="M18.9,22C18.9,22,19,22,18.9,22C18.9,22,18.9,22,18.9,22z"/>
								<path fill="#C76BDD" d="M21.7,19.1L21.7,19.1C21.7,19.1,21.7,19.1,21.7,19.1z"/>
								<path fill="#C76BDD" d="M23.8,14.6C23.8,14.5,23.8,14.5,23.8,14.6L23.8,14.6L23.8,14.6z"/>
								<path fill="#C76BDD" d="M22.4,17.7L22.4,17.7C22.4,17.6,22.3,17.6,22.4,17.7L22.4,17.7z"/>
								<path fill="#C76BDD" d="M22.8,16.6c0,0,0.1,0.1,0.2,0.1C22.9,16.7,22.9,16.7,22.8,16.6C22.9,16.6,22.8,16.6,22.8,16.6z"/>
								<path fill="#C76BDD" d="M23.3,14.9L23.3,14.9L23.3,14.9z"/>
								<path fill="#C76BDD" d="M21.9,18.4C21.9,18.4,21.9,18.4,21.9,18.4C21.9,18.4,21.9,18.4,21.9,18.4z"/>
								<path fill="#C76BDD" d="M22.3,12L22.3,12C22.3,12,22.3,12,22.3,12z"/>
								<polygon fill="#C76BDD" points="22.9,13.6 22.9,13.6 22.8,13.6         "/>
								<path fill="#C76BDD" d="M18,22.7L18,22.7C18.1,22.7,18.1,22.7,18,22.7z"/>
								<path fill="#C76BDD" d="M12.5,17.4c-0.1,0.2-0.2-0.1-0.3,0.1C12.3,17.5,12.5,17.5,12.5,17.4z"/>
								<path fill="#C76BDD" d="M23.8,14.6C23.8,14.6,23.8,14.6,23.8,14.6C23.8,14.6,23.8,14.6,23.8,14.6z"/>
								<polygon fill="#C76BDD" points="12.2,17.5 12.2,17.5 12.2,17.5         "/>
								<path fill="#C76BDD" d="M17.1,23.1C17.1,23.1,17.1,23.2,17.1,23.1C17.1,23.2,17.1,23.2,17.1,23.1z"/>
								<path fill="#C76BDD" d="M17.8,23.3L17.8,23.3C17.8,23.3,17.8,23.3,17.8,23.3z"/>
								<path fill="#C76BDD" d="M16.3,22.6C16.2,22.6,16.2,22.5,16.3,22.6L16.3,22.6C16.2,22.5,16.2,22.6,16.3,22.6z"/>
								<polygon fill="#C76BDD" points="15.6,21.9 15.5,21.9 15.6,21.9         "/>
								<path fill="#C76BDD" d="M18.7,12.6c0,0,0.1,0,0.1,0.1C18.8,12.6,18.9,12.5,18.7,12.6z"/>
								<path fill="#C76BDD" d="M23.7,14.6C23.8,14.6,23.8,14.6,23.7,14.6L23.7,14.6C23.8,14.6,23.7,14.6,23.7,14.6z"/>
								<path fill="#C76BDD" d="M15.4,23.3l-0.1-0.1C15.4,23.2,15.4,23.3,15.4,23.3z"/>
								<path fill="#C76BDD" d="M14,11.7L14,11.7C14.1,11.7,14,11.7,14,11.7z"/>
								<path fill="#C76BDD" d="M15,22.9c0-0.1,0-0.1,0-0.1c0,0,0,0,0,0L15,22.9z"/>
								<path fill="#C76BDD" d="M18.9,12.7L18.9,12.7L18.9,12.7z"/>
								<path fill="#C76BDD" d="M19.7,11.7c-0.2,0.1,0,0.2,0,0.3c-0.2,0.1-0.1-0.1-0.3-0.1c-0.1,0.1-0.1,0.3-0.2,0.4c0,0,0,0,0-0.1          c0,0.2-0.3,0.2-0.3,0.5c0,0,0,0,0,0c0.1,0.1,0.1,0.1,0.2,0.2C19,12.9,19,13,18.9,13c0,0,0-0.1,0-0.1l0,0.1          c-0.2-0.1,0-0.1,0-0.2c-0.1,0.1-0.1,0.4-0.2,0.4c-0.1-0.1,0.2-0.2-0.1-0.2l0.2-0.1c-0.3-0.1,0.1-0.1-0.2-0.2          c-0.2,0.1-0.2,0.2-0.3,0.4c0,0.1,0.1,0.1,0.1,0.2c-0.1,0.4-0.5-0.1-0.5,0.2c0,0.1,0.2,0.3,0,0.3l-0.1-0.2          c-0.1,0.1,0.1,0.3-0.1,0.3c0,0,0-0.1,0-0.1c0,0,0-0.1,0,0c-0.2,0,0.1,0.1,0,0.2l-0.1-0.1c0,0.1,0,0.3-0.1,0.4          c0-0.1,0-0.2,0-0.2c0,0,0,0.1,0,0.1c0-0.1-0.1-0.3-0.1-0.4c0,0-0.1,0.1-0.1,0.1c0,0,0-0.1,0.1-0.1c0-0.1-0.1,0.1-0.1,0.1          c0,0,0-0.1,0.1-0.1c0,0.1-0.2,0-0.3-0.2c-0.1-0.1-0.2-0.2-0.2-0.4l0.1,0c-0.1-0.2-0.4,0.1-0.4-0.2l0,0          c-0.2-0.3-0.7-0.5-0.8-0.9c-0.2,0.1-0.3-0.3-0.5-0.1c-0.2-0.2,0-0.3-0.4-0.5c-0.1,0-0.2,0.1-0.3,0.1l0-0.2          c0,0-0.2,0.1-0.2,0.1l-0.1-0.2l-0.1,0c0,0,0.1,0.1,0.1,0.1c-0.2,0-0.4-0.1-0.5-0.2c0,0-0.1,0.1-0.2,0.1          c-0.1,0.1-0.2,0.1-0.2,0.1c0-0.1,0.1-0.1,0.1-0.1c-0.2,0.2-0.1-0.2-0.3,0c0,0,0,0.1,0,0.1c-0.1,0-0.4,0.1-0.5,0.2l0-0.1          c-0.3,0.1-0.5,0.4-0.8,0.7c0.1-0.1,0.2,0.1,0.2,0.2l-0.1-0.1c0,0.1,0.1,0,0.1,0.1c-0.1,0.1-0.2-0.1-0.2-0.2l-0.1,0.2          c0,0,0-0.1-0.1-0.1c0,0.1-0.3,0.1-0.2,0.3l0,0c-0.2,0.2-0.3,0.5-0.4,0.7c0.1,0.1,0.1,0.2,0.1,0.3c-0.1,0.2-0.3,0.4-0.3,0.6          c0,0.2,0.1,0.1,0.2,0.2c-0.1,0-0.1,0.2-0.2,0.1c0,0.3,0,0.4,0.1,0.7c0,0,0.1-0.1,0.1-0.1c0,0.1,0,0.1-0.1,0.1l0,0          c0.2,0.4-0.2,1,0.1,1.2l0,0c0,0,0.1,0.1,0.1,0.1c0.1,0.1,0.1,0.1,0.1,0.1c0,0.1-0.1,0-0.2,0.1c0.3,0.2,0.2,0.5,0.4,0.7          c-0.2,0.4,0.4,0.7,0.3,1l0.1-0.1c0.1,0,0,0.1,0,0.2c0.1,0,0-0.1,0.1-0.1c0.4,0.5,0.6,1.1,0.9,1.7c0.1,0.2,0.4-0.2,0.5,0.2          l-0.2,0c0.4,0.2,0.6,0.7,1,1c0,0-0.1,0-0.1,0c0,0.2,0.2,0.3,0.3,0.2c0,0.1-0.1,0.1-0.1,0.1c0,0.1,0.3,0.1,0.2,0.2          c0,0,0,0-0.1,0c0.1,0,0.2,0.2,0.2,0.1c0.1,0.2,0.3,0.2,0.3,0.3c0.2,0,0.1,0.3,0.3,0.1c-0.2,0.1,0.1,0.3,0.2,0.3          c-0.1,0,0,0.1-0.1,0.2c0.1,0.1,0.2,0.1,0.3,0c0,0.4,0.5,0.2,0.3,0.5c0.2,0.1,0.3,0.2,0.5,0.3c0.2,0.1,0.4,0.3,0.6,0.4          c-0.1,0.2-0.4-0.3-0.5-0.1c0.3,0.2,0.6,0.2,0.8,0.4c0.1-0.1,0.2-0.2,0.2-0.2c0.1,0,0,0.2-0.1,0.2c0.2-0.2,0.4-0.4,0.5-0.5          c0.2-0.2,0.3-0.3,0.3-0.4c0,0,0,0.1,0,0.1c0,0,0.1-0.1,0-0.1l0,0.1c-0.2,0-0.1-0.4-0.1-0.4c0.1,0.3,0.2-0.1,0.4,0.2          c0,0,0-0.1,0-0.1c0.1,0,0.1,0,0.1,0.1c0.1-0.2,0-0.2,0.1-0.3c0,0,0,0.1,0.1,0.1c0-0.1,0-0.3,0.1-0.3c0,0,0.1,0,0,0.1          c0.2-0.2,0.1-0.5,0.4-0.6c0.1,0.2,0.1,0,0.3,0.1l0.1-0.1l-0.1,0c0.1-0.1,0.1-0.3,0.2-0.3l0,0.1l0.1-0.2l-0.1,0.1          c0-0.2-0.2-0.1,0-0.2c0,0,0.1-0.1,0.2-0.1l0,0c0-0.1,0-0.2,0.1-0.2c0.1,0,0.1,0.2,0.2,0.2c-0.1-0.1,0.2-0.3,0.1-0.4          c0,0,0.1,0.1,0.1,0.1l-0.1-0.1c0.1,0,0.1,0,0.1,0c0.1-0.1-0.2-0.1,0-0.2c0,0,0,0,0,0.1c0.2-0.1,0.2-0.4,0.4-0.5          c0.2,0.1-0.1,0.2,0.1,0.2c0.2-0.2,0.2-0.6,0.4-0.8l0,0c-0.2-0.2,0.2-0.1,0.2-0.3c0,0,0.1,0.1,0.1,0.1          c0.1-0.1,0.2-0.4,0.3-0.6l0,0.1c0.1-0.1,0.2-0.2,0.3-0.3c0-0.1,0-0.1-0.1-0.1c0.5-0.1,0.2-0.7,0.6-0.8c0,0,0,0.1,0,0.1          L23,18c-0.1,0-0.1,0-0.2,0c0-0.1-0.1-0.2,0-0.2c0,0.1,0.2,0.1,0.3,0.1c0,0-0.1,0-0.1-0.1c0.3,0-0.2-0.1,0-0.2l0.1,0          c0-0.1,0-0.2,0-0.2c0.1,0,0,0.1,0.1,0.1c0-0.1-0.1-0.3,0-0.4c0,0.1,0,0.1,0,0.2c0.2,0,0.2-0.1,0.2-0.1l0,0l0.1-0.2l-0.1,0          c-0.3-0.3,0-0.3-0.1-0.6c0.2,0.2,0.1,0.1,0.3,0.1c0.1,0,0.1-0.1,0.2-0.1c-0.1-0.1,0.1-0.1,0-0.3c0,0,0-0.1,0.1-0.1          c0-0.1-0.1,0-0.1,0c-0.1-0.2,0.3-0.4,0.1-0.7c-0.1-0.2-0.2-0.3-0.4-0.5c0.1-0.1,0.2,0,0.2,0c0.1-0.1,0-0.2,0-0.3          c0,0,0.1,0,0.1-0.1c0-0.1-0.2,0-0.1-0.2c0.1,0,0.1,0,0.2,0c-0.1-0.1-0.2-0.2-0.3-0.3c0.1-0.1,0.1,0,0.2,0.1          c-0.1-0.1-0.2-0.3-0.3-0.3l0,0.1c0,0,0.1-0.1,0.1,0c0.1,0.1,0,0.2,0,0.2l-0.1-0.1c-0.2,0.2,0.1,0.3,0.2,0.4l-0.2,0          c0,0,0.2,0.1,0.2,0.1c0,0-0.2,0.1-0.2,0c-0.1,0.1,0.1,0.1,0,0.2c0,0,0,0,0,0l0.1,0.1c0,0-0.1,0-0.1,0          c-0.1,0.2,0.2,0.3,0,0.4l0,0c0.1,0.3,0.2,0,0.3,0.2l-0.4,0.1l0.1,0c0,0,0,0.1-0.1,0.1c0.1,0.1,0.1,0,0.2,0.1          c-0.1,0.1,0,0.4-0.2,0.3c0.1,0.1,0.1-0.1,0.2,0.1c-0.3,0,0,0.2-0.1,0.2c-0.1-0.1,0-0.2-0.2-0.1c0.2,0.1-0.1,0.2-0.1,0.3          c0.2,0.1,0,0.2,0,0.4c0,0-0.2,0.2-0.3,0.4l0,0c0.2,0.1,0.1,0.2,0,0.4c-0.1-0.1-0.1-0.1-0.1-0.2l0,0.1c0,0,0.1,0.1,0,0.2          l-0.1-0.1c-0.1,0.1,0,0.3-0.2,0.4c0.1,0.1,0.4,0,0.4,0.3c-0.1,0-0.2-0.1-0.2-0.1c0,0,0,0.1,0,0.1l-0.1-0.1          c-0.1,0,0.1,0.1,0,0.1c-0.1-0.1-0.1,0-0.1,0c0,0,0.1,0,0-0.1c-0.1,0.1-0.1,0.1-0.2,0.1c0.1,0,0.1,0.1,0.1,0.1          c-0.1,0.1-0.1,0-0.2,0c0,0.1-0.1,0.1,0.1,0.2c0,0-0.1,0-0.1,0c0,0.1-0.2,0.3,0,0.3l0,0l0,0l0,0l0,0c0,0.3-0.4,0.4-0.4,0.6          l0,0c0,0.2-0.2,0.3-0.1,0.4c0,0-0.1,0-0.2,0c0,0.1,0,0.2-0.2,0.2c0-0.1-0.1,0,0-0.1c-0.1,0.1-0.2,0.1-0.2,0.3          c-0.1-0.1-0.2,0-0.2,0.1l0.1,0c0,0.1-0.1,0.1-0.1,0.2l-0.1-0.1c-0.3,0.1-0.1,0.6-0.5,0.6c0,0.1,0.2-0.1,0.2,0.1          c-0.1,0.1-0.4,0-0.4,0.1c-0.2,0.1,0.1,0.3-0.1,0.4c0.1,0,0.2,0.1,0.1,0.3c-0.1,0.1-0.3,0-0.3-0.1c0,0,0,0,0.1,0          c0,0,0-0.1-0.1-0.1l0,0.1c-0.1,0-0.2,0.1-0.3,0.1c0,0.1,0,0.1,0.1,0.1c-0.2,0.1-0.2,0.2-0.4,0.3c0,0,0.1,0,0.1,0.1          c-0.2,0.1,0,0.2-0.1,0.3c-0.1,0-0.1-0.2-0.2,0c-0.1,0-0.1-0.1-0.1-0.2c0,0.2-0.3,0.2-0.3,0.2l0-0.1c0,0.1,0,0.1-0.1,0.1          l0.1,0c-0.1,0-0.1,0.1-0.1,0c0,0.1,0.2,0.1,0.2,0.3c-0.1,0-0.1,0.2-0.2,0.1c0.2-0.1-0.1-0.1,0-0.2c0,0,0,0.1-0.1,0.1          c0,0,0,0,0,0c-0.2,0,0.1,0.2-0.1,0.3c0-0.1-0.2-0.1-0.2-0.1c0.1-0.1,0.1,0.1,0.1,0.2c-0.1,0-0.1,0.1-0.1,0.2l0.1,0          c0,0.1,0,0.1-0.1,0.2c-0.1,0,0-0.1,0-0.1c0,0.2-0.2,0-0.2,0.1c0,0-0.1-0.2-0.1-0.2c0,0.2-0.1-0.1-0.1,0c0,0.1,0,0.1,0,0.2          c0,0,0,0,0,0l0,0c0-0.1,0.1-0.1,0.1-0.2c0,0,0,0.3,0,0.3c0,0,0.1-0.2,0.1-0.2c0,0.1,0,0.1,0,0.2c-0.1-0.1-0.1,0.1-0.1,0.1          c0,0,0,0-0.1-0.1l0-0.4c0-0.2-0.1,0.1-0.2-0.1l0,0.1c-0.1,0.1-0.1-0.1-0.2-0.1c0.1-0.1,0.1-0.1,0.1-0.2c0,0.1-0.1-0.1-0.3,0          l0-0.2c-0.1-0.2-0.4,0-0.5-0.1c0.1,0,0.1-0.1,0.3-0.1c0,0-0.1-0.1-0.1-0.1c0-0.1-0.2,0-0.2-0.1c-0.1,0-0.1,0.1-0.2,0          c0,0,0,0,0,0c0,0-0.1,0-0.2,0.1c0.1-0.4-0.4-0.4-0.4-0.7c-0.1-0.1-0.3-0.2-0.4-0.3c0,0,0,0,0,0c-0.1-0.2-0.3,0.1-0.4-0.1          c0-0.2,0.1,0,0.1-0.1c0.2-0.2-0.2-0.2-0.2-0.4l0,0c0-0.2-0.3-0.1-0.4-0.3c0,0,0,0,0,0c-0.2,0-0.4-0.1-0.5-0.2          c0.1,0,0.1,0,0.2-0.1c-0.1,0-0.1,0.1-0.3,0c0-0.1,0-0.2,0.1-0.3l0.1,0.1c0.1-0.2-0.1-0.1-0.1-0.2l0.1,0          c-0.2-0.2-0.3,0-0.4-0.2l0,0.1c-0.2,0,0-0.2-0.2-0.2l0.1-0.1c-0.1,0-0.3-0.1-0.4-0.2c0.2,0,0.3,0.1,0.5,0.1          c0-0.1-0.2-0.2-0.3-0.2c0,0,0.1,0,0.1,0.1c-0.2,0-0.3-0.1-0.4-0.2c0.3-0.2-0.2-0.4,0-0.7c-0.3-0.2-0.2-0.5-0.4-0.8          c-0.2,0.2-0.1-0.1-0.3,0.1c-0.1-0.1-0.1-0.1,0-0.1l0.1-0.3c0.1-0.1,0.1,0,0.2,0c0-0.2,0.1-0.1,0.1-0.2          c-0.1,0.1-0.2,0-0.2-0.1L12.3,17c-0.2-0.2,0.2-0.3-0.1-0.4l0.1,0c-0.1-0.1-0.1-0.4-0.4-0.5c0,0,0.1-0.1,0.1,0          c0-0.3-0.4-0.6-0.2-0.8l0.1,0c0,0-0.1-0.1-0.1-0.1c0,0,0.1,0,0.1,0c0,0-0.1-0.1-0.1-0.2l0.1,0.1c0.1-0.2-0.2-0.4-0.2-0.6          c0.2,0.1,0.3-0.1,0.4-0.2l0,0c0.1-0.2,0.1-0.5,0.2-0.8c0.2,0,0.3-0.1,0.4-0.2c0.1-0.1,0.2-0.2,0.4-0.2          c-0.1,0-0.1-0.2-0.1-0.2c0.1,0,0.1-0.2,0.2,0l0,0c0.1,0.2,0.2,0.1,0.3,0l-0.1-0.3c0.2,0.2,0.3,0.1,0.4,0.1          c0.1,0,0.3-0.1,0.3,0.1c0.1,0,0.1,0,0.2-0.1L14.4,13c0.1,0.1,0.2,0.2,0.4,0.2l-0.1,0.1c0.1,0.1,0.3-0.3,0.5-0.2l-0.1,0.2          c0.2,0.1,0.2,0.4,0.5,0.4c0,0-0.1,0.1-0.1,0c0.1,0.1,0.2,0.4,0.4,0.2c-0.1,0.1,0.2,0.2,0.3,0.3l-0.1,0.1          c0.2,0,0.3-0.1,0.4,0c0,0-0.1,0.1-0.1,0c0,0.1,0.2,0,0.2,0.2l-0.1,0c0.1,0.2,0.1,0.1,0.3,0.1c0.1,0,0.2,0.3,0.1,0.5          c0-0.1,0.1-0.1,0.2,0c0,0.1,0,0.1-0.1,0.1c0.1,0.4,0.3,0.2,0.3,0.5c0,0,0,0,0,0c0,0.1,0,0.1,0,0.1c0,0,0,0.1-0.1,0.1          c-0.1-0.2-0.2-0.3-0.2-0.3c0,0.2,0.1,0.5,0,0.6c0.1,0,0.1,0,0.2,0c0.1-0.3,0.2-0.5,0.2-0.5c0,0,0,0,0,0l0,0          c0,0,0.1-0.1,0.1-0.2c0,0,0.1-0.1,0.1-0.1c0.1,0.1,0.2-0.2,0.3-0.3C18,15.1,18.1,15,18,15c0,0,0,0,0,0.1c0,0,0,0,0,0.1l0,0          c0,0.1-0.1,0.2-0.1,0.3c0-0.2,0-0.3,0.1-0.3c0-0.1,0-0.3,0-0.4c0.2,0.1,0.4-0.1,0.5,0c0.1-0.2,0.1-0.3,0.2-0.4          c0-0.1,0.1-0.2,0-0.4c0-0.1,0.1,0,0.1,0c0,0,0,0.1,0,0.1c0-0.1,0.2-0.3,0.1-0.4c0.2-0.1,0.1,0.2,0.2,0l0,0.1          c0.5,0,0.2-0.8,0.8-0.8c0,0-0.1,0-0.1,0c0.3,0,0.5-0.2,0.7-0.3c0.1-0.1,0.2-0.1,0.4-0.1c0.1,0,0.2,0,0.3,0.1          c0.1,0.1,0.1,0,0.2-0.1l0,0.1c0,0,0.2-0.1,0.2-0.1c0.3,0,0.1,0.4,0.4,0.4l0-0.1c0.1,0.1,0.3,0.1,0.2,0.2c0,0,0.1-0.1,0.1,0          l-0.1,0.1l0.3,0.1c0.1,0.2-0.3,0.2-0.1,0.4c0.1,0,0.4,0.1,0.4,0c0,0,0-0.1,0-0.2l0.1,0c0.2-0.1,0.5-0.2,0.4-0.5L23.1,13          l0-0.1l0.1,0.1c0-0.1-0.1-0.1-0.2-0.1c0-0.1,0.1-0.1,0-0.1l-0.3,0c0.1-0.1,0.2-0.1,0.1-0.2c-0.1,0-0.1,0.2-0.2,0.1          c0-0.1,0.1-0.2-0.1-0.2c0-0.1,0.1-0.1,0.1-0.1c-0.1,0-0.2-0.1-0.3-0.1c0-0.2-0.3-0.2-0.1-0.4c-0.1,0-0.3,0.1-0.3,0          c0.3-0.2-0.3-0.2-0.2-0.4c-0.2,0.2-0.5,0-0.8,0.1c0,0,0-0.1,0.1,0c-0.1,0-0.2-0.1-0.3-0.1c0,0.2-0.2,0.3-0.3,0.4          c-0.2-0.2,0.1-0.2,0-0.4c0,0.2-0.3,0.2-0.2,0.3c-0.1-0.1-0.1,0-0.2-0.2C20.2,12,20,11.8,20,12c-0.2-0.1-0.1-0.2-0.3-0.1          C19.6,11.9,19.7,11.7,19.7,11.7z M17.5,14.4L17.5,14.4C17.5,14.4,17.5,14.3,17.5,14.4C17.5,14.3,17.5,14.4,17.5,14.4z           M17.4,14.5C17.4,14.5,17.4,14.5,17.4,14.5L17.4,14.5c0,0.1,0,0.2,0,0.2c0,0,0,0,0-0.1C17.4,14.6,17.4,14.5,17.4,14.5z           M17.9,15.4C17.9,15.6,17.9,15.5,17.9,15.4C17.9,15.5,17.9,15.4,17.9,15.4l0-0.1C17.9,15.4,17.9,15.4,17.9,15.4z"/>
								<path fill="#C76BDD" d="M17.9,15.1C17.9,15.1,17.9,15.1,17.9,15.1C17.9,15.1,17.9,15.1,17.9,15.1L17.9,15.1L17.9,15.1z"/>
								<path fill="#C76BDD" d="M21.8,19L21.8,19C21.8,19,21.8,19,21.8,19L21.8,19z"/>
								<polygon fill="#C76BDD" points="14.5,11.7 14.5,11.7 14.5,11.7         "/>
								<path fill="#C76BDD" d="M23,17.8C23,17.8,23,17.8,23,17.8C23,17.8,23,17.8,23,17.8z"/>
								<path fill="#C76BDD" d="M23.3,17.2L23.3,17.2C23.4,17.1,23.4,17.1,23.3,17.2z"/>
								<path fill="#C76BDD" d="M23.6,16.6C23.6,16.6,23.6,16.6,23.6,16.6L23.6,16.6L23.6,16.6z"/>
								<path fill="#C76BDD" d="M18.5,24L18.5,24C18.4,24.1,18.4,24,18.5,24z"/>
								<path fill="#C76BDD" d="M20.1,21.9c0,0,0,0.1,0,0.1C20.1,21.9,20.1,21.9,20.1,21.9z"/>
								<polygon fill="#C76BDD" points="15.4,23.4 15.4,23.4 15.4,23.3         "/>
								<path fill="#C76BDD" d="M20,22.1C20,22,20.1,22,20,22.1C20,22,20,22,20,22.1z"/>
								<path fill="#C76BDD" d="M23.7,14L23.7,14C23.6,14,23.6,14,23.7,14L23.7,14z"/>
								<path fill="#C76BDD" d="M23.6,14L23.6,14C23.6,14,23.6,14,23.6,14z"/>
								<path fill="#C76BDD" d="M23.5,13.9L23.5,13.9C23.6,13.9,23.6,13.9,23.5,13.9z"/>
								<path fill="#C76BDD" d="M23.8,14.8L23.8,14.8C23.8,14.8,23.8,14.8,23.8,14.8z"/>
								<path fill="#C76BDD" d="M23.8,15.1c0-0.1,0.1-0.2,0.1-0.2l0,0C23.9,14.9,23.7,15,23.8,15.1z"/>
								<path fill="#C76BDD" d="M23.1,16l0.1-0.2c-0.1,0-0.1,0.1-0.1,0C22.9,16,23.2,15.7,23.1,16z"/>
								<path fill="#C76BDD" d="M22.9,16.5c0-0.1-0.1,0-0.1,0C22.8,16.5,22.8,16.5,22.9,16.5z"/>
								<path fill="#C76BDD" d="M20.9,20L20.9,20C20.8,20,20.9,20,20.9,20z"/>
								<polygon fill="#C76BDD" points="20.9,21.1 21,21.1 21,21         "/>
								<polygon fill="#C76BDD" points="19.9,20.8 19.9,20.8 19.9,20.9         "/>
								<path fill="#C76BDD" d="M15.8,21.9L15.7,22C15.7,22,15.9,21.9,15.8,21.9z"/>
								<path fill="#C76BDD" d="M13.7,19.7c0-0.1,0-0.2-0.1-0.2C13.7,19.6,13.7,19.7,13.7,19.7z"/>
								<polygon fill="#C76BDD" points="13.7,12.9 13.6,13 13.7,12.9         "/>
							</g>
						</g>
					</g>
				</g>
			</g>
			<path fill="#BF55D8" d="M17.2,16c-0.2,0.2-0.4,0.3-0.5,0.5c-0.2,0.2-0.4,0.4-0.6,0.5c-0.4,0.3-0.7,0.5-1.1,0.8     c-0.1,0.1-0.3,0.2-0.4,0.3c-0.2,0.1-0.7,0.5-0.2,0c0.8-0.9,1.8-1.6,2.6-2.4c0,0,0.1-0.1,0.1-0.1c0.1-0.1,0-0.2-0.1-0.1     c0,0-0.1,0-0.1,0.1c-1.1,0.6-2,1.4-3,2c1-0.6,2-1.6,2.8-2.4c0,0,0,0,0,0c0.1,0,0-0.1-0.1-0.1c0,0,0,0,0,0     c-1.1,0.4-1.8,1.2-2.7,1.7c-0.2,0.1-0.7,0.5-0.1,0c0.3-0.2,0.5-0.5,0.8-0.7c0.6-0.5,1.2-1,1.8-1.5c0,0,0.1-0.1,0.1-0.1     c0.1,0,0-0.1-0.1-0.1c0,0-0.1,0-0.1,0.1c-0.6,0.2-1.1,0.5-1.5,0.8c-0.5,0.3-1.2,0.7-1.6,1.1c0.9-0.8,2.2-1.4,2.8-2.4     c0,0,0,0,0-0.1c0-0.1,0-0.1-0.1-0.1c0,0,0,0,0,0c-1,0.6-2.2,1.4-3,2c1-0.7,2-1.4,2.7-2.4c0,0,0,0,0,0c0-0.1,0-0.1-0.1-0.1     c0,0,0,0,0,0c-1,0.4-1.7,1.3-2.7,1.8c0.4-0.2,0.8-0.7,1.1-0.9c0.4-0.3,0.7-0.7,1-1.1c0,0,0,0,0,0c0-0.1,0-0.1-0.1-0.1     c0,0,0,0,0,0c-0.7,0.4-1.3,0.8-1.9,1.3c-0.1,0.1-0.2,0.2-0.4,0.3c-0.1,0.1,0,0.2,0.1,0.1c0.1-0.1,0.1-0.1,0.2-0.2     c0.3-0.2,0.6-0.5,0.9-0.7c0.5-0.4,1.4-0.9,0.5,0c-0.4,0.5-1,0.8-1.4,1.2c-0.1,0.1-0.2,0.2-0.2,0.2c-0.1,0.1,0,0.1,0.1,0.1     c0.1,0,0.1,0,0.2-0.1c0.9-0.4,1.5-1.1,2.3-1.6c0.7-0.4-0.5,0.7-0.7,0.8c-0.5,0.4-1,0.8-1.5,1.2c-0.1,0.1-0.2,0.1-0.3,0.2     c-0.1,0.1,0,0.2,0.1,0.1c0.1,0,0.2-0.1,0.3-0.1c0.5-0.3,1-0.5,1.5-0.9c0.3-0.2,0.6-0.4,0.8-0.5c0.3-0.2,1-0.8,0.3,0     c-0.7,0.8-1.7,1.3-2.5,1.9c-0.1,0.1-0.2,0.2-0.3,0.3c-0.1,0.1,0,0.1,0.1,0.1c0.1,0,0.2-0.1,0.3-0.2c1-0.5,1.9-1.2,2.9-1.8     c0.7-0.3-0.2,0.3-0.3,0.3c-0.3,0.2-0.6,0.4-0.8,0.7c-0.5,0.4-1,0.8-1.5,1.3c0,0-0.1,0.1-0.1,0.1c-0.1,0,0,0.1,0.1,0.1     c0,0,0.1,0,0.1,0c1-0.4,1.7-1.1,2.6-1.7c0.1-0.1,0.7-0.5,0.2,0c-0.3,0.2-0.5,0.5-0.8,0.7c-0.6,0.5-1.2,1-1.8,1.6c0,0,0,0,0,0     c-0.1,0.1,0,0.1,0.1,0.1c0,0,0,0,0,0c0.6-0.3,1.1-0.6,1.6-1c0.5-0.3,1.2-0.7,1.6-1.1c-0.9,0.9-1.9,1.7-2.8,2.6     c0,0.1-0.1,0.1-0.1,0.2c0,0,0,0.1,0.1,0.1c0.1,0,0.1,0,0.2-0.1c0.2-0.1,0.3-0.1,0.4-0.2c-0.1,0.1-0.2,0.3-0.3,0.4     c0,0.1-0.1,0.1-0.2,0.2C13.9,19,14,19,14.1,19c0.1,0,0.1-0.1,0.2-0.1c0.6-0.2,1.1-0.5,1.6-0.8c-0.4,0.3-0.9,0.7-1.2,1.1     c-0.1,0.1,0,0.2,0.1,0.1c1.3-0.9,2.7-1.5,4.1-2.3c0,0,0,0,0.1,0c0,0,0,0-0.1,0.1c-1.2,1.1-2.8,1.7-4,2.8c0,0,0,0,0,0     c0,0,0,0,0,0.1c0,0,0.1,0,0.1,0c1.4-0.6,2.6-1.3,3.9-2.1c-0.1,0.1-0.2,0.1-0.2,0.2c-1.2,0.8-2.3,1.7-3.4,2.6c0,0-0.1,0.1-0.1,0.1     c-0.1,0.1,0,0.1,0.1,0.1c0,0,0.1,0,0.1,0c1.4-0.6,2.6-1.3,3.9-2c0.4-0.2,0.8-0.4,1.2-0.7c-1.6,1.1-3.4,1.8-4.8,3     c-0.1,0.1-0.1,0.1-0.2,0.2c-0.1,0,0,0.1,0.1,0.1c0.1,0,0.2-0.1,0.3-0.1c1.8-0.5,3.3-1.7,4.8-2.9c0,0,0,0,0,0     c-0.5,0.5-1.2,1-1.8,1.4c-0.9,0.6-1.8,1.2-2.8,1.9c-0.1,0-0.1,0.1-0.2,0.1c-0.1,0.1,0,0.2,0.1,0.1c0.1,0,0.1-0.1,0.2-0.1     c0.5-0.2,1.1-0.5,1.6-0.8c-0.5,0.4-0.9,0.7-1.4,1.1c0,0-0.1,0-0.1,0.1c-0.1,0,0,0.2,0.1,0.1c0,0,0.1,0,0.1,0     c1.2-0.7,2.4-1.5,3.5-2.3c0.1-0.1,0.3-0.2,0.4-0.3c-0.2,0.1-0.3,0.2-0.5,0.4c-1.1,0.9-2.2,1.8-3.2,2.7c-0.1,0.1-0.2,0.2-0.3,0.3     c-0.1,0.1,0,0.1,0.1,0.1c0.1-0.1,0.2-0.1,0.3-0.2c0.9-0.5,1.5-1.3,2.3-1.9c0,0,0,0,0.1,0c0,0,0,0-0.1,0.1c-0.8,0.5-1.3,1.6-2,2.3     c-0.1,0.1-0.1,0.1-0.2,0.2c-0.1,0.1,0,0.2,0.1,0.1c0,0,0.1-0.1,0.1-0.1c0.3-0.3,0.5-0.5,0.8-0.8c0.5-0.6,1-1.2,1.5-1.8     c0.1-0.1,0-0.2-0.1-0.1c0,0,0,0,0,0c-0.1,0.1-0.2,0.1-0.3,0.2c0.2-0.1,0.3-0.3,0.5-0.4c0.4-0.3,0.8-0.7,1.1-1.1     c0.1-0.1-0.1-0.1-0.1-0.1c-0.1,0.1-0.2,0.2-0.3,0.2c-0.7,0.6-1.4,1.1-2.2,1.5c-0.2,0.1-0.4,0.2-0.5,0.3c0.5-0.4,0.9-0.7,1.4-1.1     c0.5-0.4,1-0.8,1.5-1.2c0.2-0.2,0.4-0.3,0.6-0.5c0.1-0.1,0-0.2-0.1-0.1c0,0-0.1,0.1-0.1,0.1c0,0-0.1,0-0.1,0.1c0,0-0.1,0-0.1,0.1     c-0.5,0.4-1.1,0.9-1.6,1.3c-0.5,0.4-1.1,0.7-1.7,1c-0.4,0.2-0.7,0.4-1.1,0.5c0.3-0.1,0.8-0.4,1.1-0.6c1.4-0.9,2.8-1.8,3.9-3     c0.1-0.1,0.1-0.1,0.2-0.2c0,0,0-0.1,0-0.1c0,0-0.1,0-0.1,0c-1,0.7-2,1.5-3,2.2c-0.5,0.3-1,0.6-1.6,0.9c0,0-1,0.4-0.9,0.3     c0.3-0.2,0.6-0.5,0.9-0.7c1.6-1.1,3.4-1.8,4.9-3.1c0.2-0.2,0.4-0.4,0.6-0.6c0.1-0.1,0-0.2-0.1-0.1c-0.1,0.1-0.2,0.2-0.3,0.3     c-0.8,0.7-1.8,1.2-2.8,1.7c-0.6,0.3-1.2,0.7-1.8,1c-0.5,0.3-1.2,0.5-1.5,0.8c1.1-0.9,2.2-1.8,3.4-2.6c1.1-0.7,2.2-1.6,3.3-2.4     c0.1,0,0.1-0.1,0.2-0.1c0.1-0.1,0-0.2-0.1-0.1c0,0,0,0,0,0C21,15.9,20,17,18.8,17.7c-0.8,0.4-1.5,0.9-2.3,1.3     c-0.3,0.2-0.7,0.3-1,0.5c-0.8,0.4,0-0.1,0.2-0.2c1.2-0.9,2.5-1.6,3.7-2.6c0.1-0.1,0.3-0.2,0.4-0.3c0.8-0.5,1.5-1.1,2.3-1.6     c0.1,0,0.2-0.1,0.2-0.1c0.1,0,0.1-0.1,0.2-0.1c0,0,0.1,0.4,0.1,0.4c0.1,0,0,0.3-0.1,0.3c0,0,0,0,0,0c-0.9,0-1.6,0.5-2.4,1.1     c-0.9,0.6-1.8,1-2.8,1.5c-0.7,0.3-1.3,0.6-1.9,1c0.2-0.2,0.4-0.4,0.7-0.6c2.1-1.6,4.6-2.8,6.2-4.9c0,0,0.1-0.1,0.1-0.1     c0.1-0.1-0.1-0.1-0.1-0.1c0,0,0,0-0.1,0c-1.4,1.1-2.7,2.2-4.1,3.3c-0.8,0.6-1.6,1.2-2.5,1.7c-0.4,0.2-0.8,0.4-1.2,0.6     c0.2-0.1,0.5-0.6,0.8-0.7c0,0,0.1,0,0.1-0.1c0.4-0.3,0.7-0.5,1.1-0.8c0.9-0.7,1.9-1.3,2.9-1.9c1-0.6,2-1.3,2.5-2.3c0,0,0,0,0,0     c0,0,0,0,0-0.1c0.1-0.1,0-0.1-0.1-0.1c0,0,0,0-0.1,0c-0.4-0.1-0.9,0-1.4,0.3c-0.5,0.3-1,0.8-1.4,1.2c-0.3,0.3-0.5,0.5-0.6,0.7     c0,0.1,0,0.1,0.1,0.1c0,0,0,0,0,0c0.6-0.4,1.2-0.7,1.8-1.1c-0.3,0.3-0.6,0.6-1,0.8c-0.4,0.2-0.7,0.4-1,0.7     c-0.2,0.1-0.4,0.3-0.5,0.4c0,0-0.1,0.1-0.1,0.1C17.3,16,17.2,16,17.2,16z M17.9,21.7c-0.3,0.3-0.7,0.6-1.1,0.9     c-0.1,0.1-0.1,0.1-0.2,0.1c-0.1,0-0.1,0,0,0c0.1-0.1,0.4-0.3,0.5-0.4C17.4,22.1,17.7,21.9,17.9,21.7     C17.9,21.7,17.9,21.7,17.9,21.7z M21.9,13.4c-1,1.3-2.4,2.2-3.8,3.1c0.7-0.5,1.4-1.1,2-1.6C20.7,14.4,21.5,13.9,21.9,13.4z      M18.2,14.9c0.1-0.2,0.3-0.3,0.4-0.4c0.6-0.6,1.2-1.1,2-1.5c0.1,0,0.5-0.2,0.7-0.2c-0.2,0.2-0.5,0.3-0.7,0.5     c-0.5,0.4-1.1,0.7-1.6,1C18.7,14.6,18.4,14.7,18.2,14.9z M19.1,14.8c0.5-0.3,0.9-0.5,1.3-0.9c0.2-0.2,0.5-0.5,0.8-0.7     c0.1-0.1,0.2-0.1,0.3-0.2c0,0.1,0,0.2-0.1,0.3c-0.2,0.3-0.4,0.5-0.7,0.8c-0.5,0.4-1,0.8-1.6,1.1c-0.4,0.3-0.9,0.5-1.3,0.8     c-0.1,0.1-0.2,0.1-0.3,0.2c-0.1,0-0.1,0.1-0.2,0.1c0,0,0.1-0.1,0.1-0.1c0.2-0.1,0.3-0.3,0.5-0.4C18.2,15.4,18.6,15.1,19.1,14.8z"/>
		</g>
	</g>
</g>
</svg>