<svg xmlns="http://www.w3.org/2000/svg" xmlns:xlink="http://www.w3.org/1999/xlink" style="width:308px;height:308px;" version="1.1" id="图形" x="0px" y="0px" width="1024px" height="1024px" viewBox="0 0 1024 1024" enable-background="new 0 0 1024 1024" xml:space="preserve">
  <path class="svgpath" data-index="path_0" fill="#AD0011" d="M515.584 992c-266.638222 0-483.555556-216.917333-483.555556-483.555556s216.917333-483.555556 483.555556-483.555556 483.555556 216.917333 483.555556 483.555556S782.222222 992 515.584 992zM515.584 81.777778c-235.264 0-426.666667 191.402667-426.666667 426.666667s191.402667 426.666667 426.666667 426.666667 426.666667-191.402667 426.666667-426.666667S750.848 81.777778 515.584 81.777778z"/>
<path class="svgpath" data-index="path_1" fill="#AD0011" d="M444.529778 453.12c-11.776 0-21.333333-9.557333-21.333333-21.333333 0-50.972444-34.531556-92.444444-76.942222-92.444444s-76.942222 41.472-76.942222 92.444444c0 11.776-9.557333 21.333333-21.333333 21.333333s-21.333333-9.557333-21.333333-21.333333c0-74.496 53.674667-135.111111 119.608889-135.111111s119.608889 60.615111 119.608889 135.111111C465.863111 443.562667 456.305778 453.12 444.529778 453.12z"/>
<path class="svgpath" data-index="path_2" fill="#AD0011" d="M784.554667 453.12c-11.776 0-21.333333-9.557333-21.333333-21.333333 0-50.972444-34.531556-92.444444-76.942222-92.444444-42.439111 0-76.970667 41.472-76.970667 92.444444 0 11.776-9.557333 21.333333-21.333333 21.333333s-21.333333-9.557333-21.333333-21.333333c0-74.496 53.674667-135.111111 119.637333-135.111111 65.934222 0 119.608889 60.615111 119.608889 135.111111C805.888 443.562667 796.330667 453.12 784.554667 453.12z"/>
<path class="svgpath" data-index="path_3" fill="#AD0011" d="M627.655111 580.864l0 68.039111-79.331556 0 0-68.039111L497.493333 580.864l0 108.088889-79.331556 0 0-108.088889L233.073778 580.864c0 119.409778 126.492444 216.177778 282.510222 216.177778s282.510222-96.796444 282.510222-216.177778L627.655111 580.864z"/>

</svg>