<svg xmlns="http://www.w3.org/2000/svg" xmlns:xlink="http://www.w3.org/1999/xlink" version="1.1" x="0px" y="0px" viewBox="0 0 36.2 59.5" enable-background="new 0 0 36.2 59.5" xml:space="preserve" width="36.20000076293945" height="59.5">
<g id="Background">
</g>
<g id="Objects">
	<g>
		<g>
			<g>
				<circle fill="#2E3192" cx="18" cy="54.4" r="3.9"/>
				<g>
					<g>
						<g>
							<g>
								<path fill="#484BA0" d="M21.5,54.4c0.1,0,0.2,0,0.2,0L21.5,54.4L21.5,54.4z"/>
								<path fill="#484BA0" d="M21.9,54.2c-0.1,0-0.3-0.1-0.6,0c0.2,0,0.1,0,0.4,0.1c0,0-0.1,0.1-0.2,0.1c0.1,0-0.1,0.1,0.1,0.1          c0.2,0,0.2-0.1,0-0.2C21.8,54.2,21.9,54.2,21.9,54.2z"/>
								<path fill="#484BA0" d="M20.5,50.9L20.5,50.9C20.5,51,20.5,51,20.5,50.9z"/>
								<path fill="#484BA0" d="M18.3,50C18.4,50,18.4,50,18.3,50C18.4,50,18.3,50,18.3,50z"/>
								<path fill="#484BA0" d="M17.9,49.7C17.9,49.8,17.9,49.8,17.9,49.7C17.9,49.7,17.9,49.7,17.9,49.7z"/>
								<path fill="#484BA0" d="M20.5,50.9l0-0.1C20.5,50.9,20.5,50.9,20.5,50.9z"/>
								<path fill="#484BA0" d="M21.3,53.8C21.3,53.8,21.3,53.8,21.3,53.8C21.3,53.8,21.3,53.8,21.3,53.8L21.3,53.8z"/>
								<path fill="#484BA0" d="M21.4,51.5L21.4,51.5c0,0,0.1,0,0.1,0L21.4,51.5z"/>
								<path fill="#484BA0" d="M22,52.2c0,0-0.2,0.1-0.3,0.1c0.1,0,0.1,0,0.1,0C21.9,52.2,21.9,52.2,22,52.2z"/>
								<path fill="#484BA0" d="M22.1,53.5L22.1,53.5L22.1,53.5z"/>
								<path fill="#484BA0" d="M21.1,51.1C21.1,51,21.1,51,21.1,51.1C21.1,51,21.1,51,21.1,51.1z"/>
								<path fill="#484BA0" d="M20.9,55.1C20.9,55.1,20.9,55.1,20.9,55.1C20.9,55.1,20.9,55.1,20.9,55.1z"/>
								<polygon fill="#484BA0" points="22,54.4 22,54.4 22.2,54.4         "/>
								<path fill="#484BA0" d="M17.1,49.6L17.1,49.6C17.1,49.5,17.1,49.5,17.1,49.6z"/>
								<path fill="#484BA0" d="M13.3,55.4c0.2-0.1,0.3,0.1,0.4-0.1C13.7,55.4,13.4,55.3,13.3,55.4z"/>
								<path fill="#484BA0" d="M21.3,53.8C21.3,53.8,21.3,53.8,21.3,53.8C21.3,53.8,21.3,53.8,21.3,53.8z"/>
								<polygon fill="#484BA0" points="13.8,55.4 13.8,55.4 13.8,55.3         "/>
								<path fill="#484BA0" d="M15.3,50.4C15.3,50.5,15.4,50.5,15.3,50.4C15.4,50.5,15.4,50.5,15.3,50.4z"/>
								<path fill="#484BA0" d="M16.7,50.1L16.7,50.1C16.7,50.1,16.7,50.1,16.7,50.1z"/>
								<path fill="#484BA0" d="M15,51.1C14.9,51.1,14.9,51.1,15,51.1C14.9,51.1,14.9,51.2,15,51.1C14.9,51.1,14.9,51.1,15,51.1z"/>
								<path fill="#484BA0" d="M14.5,51.7C14.5,51.7,14.5,51.7,14.5,51.7L14.5,51.7L14.5,51.7z"/>
								<path fill="#484BA0" d="M20.4,56.4c0.1,0,0.1,0.1,0.2,0.1C20.4,56.4,20.4,56.3,20.4,56.4z"/>
								<path fill="#484BA0" d="M21.4,53.8C21.3,53.8,21.3,53.8,21.4,53.8L21.4,53.8C21.3,53.8,21.4,53.8,21.4,53.8z"/>
								<path fill="#484BA0" d="M16.1,52.4L16.1,52.4C16,52.4,16.1,52.4,16.1,52.4z"/>
								<path fill="#484BA0" d="M17.2,57.4L17.2,57.4C17.2,57.3,17.2,57.3,17.2,57.4z"/>
								<path fill="#484BA0" d="M15.9,52.6c-0.1,0-0.1-0.1-0.1-0.1c0,0,0,0,0,0L15.9,52.6z"/>
								<path fill="#484BA0" d="M20.5,56.5L20.5,56.5L20.5,56.5z"/>
								<path fill="#484BA0" d="M20.4,55.8c0,0.1,0.2,0.2,0.3,0.3c0,0.1-0.2-0.1-0.3-0.1c0,0.1,0.2,0.3,0.2,0.3c0,0-0.1,0-0.1-0.1          c0.1,0.2-0.1,0.1,0.1,0.4c0,0,0,0-0.1,0c0.1,0.1,0.2,0.2,0.3,0.2c0,0,0.1,0.2-0.1,0.1c0,0,0-0.1-0.1-0.1l0,0.1          c-0.2-0.1,0-0.1-0.2-0.2c0,0.1,0.1,0.3,0,0.3c-0.2-0.2,0-0.2-0.2-0.3l0.1,0c-0.3-0.2,0.1,0-0.3-0.3c-0.1,0,0,0.2-0.1,0.2          c0.1,0.1,0.2,0.1,0.2,0.3c0.1,0.3-0.5-0.4-0.4-0.1c0.1,0.1,0.3,0.4,0.1,0.3l-0.2-0.2c-0.1,0,0.2,0.4,0,0.3          c0-0.1,0-0.1,0-0.1c-0.2-0.1,0.1,0.2,0,0.2l-0.2-0.2c-0.1,0.1-0.1,0.3-0.2,0.4c0-0.1,0-0.2-0.1-0.2c-0.1,0.2-0.3,0.1-0.5,0          l0,0.2c0,0-0.1-0.1-0.1-0.1c-0.1-0.1,0,0.1,0,0.2c0,0-0.1-0.1-0.1-0.2c0,0.2-0.2,0.5-0.3,0.2l0-0.1c-0.1-0.1,0,0.5-0.1,0.3          l0,0c-0.2-0.1-0.4,0.1-0.5-0.2c-0.1,0.3-0.2-0.1-0.2,0.3c-0.1-0.2,0-0.3-0.2-0.5c0,0-0.1,0.3-0.2,0.3l0.1-0.2l-0.1,0.2          l0-0.3l-0.1,0c0,0,0,0.1,0,0.2c-0.1,0.1-0.1-0.2-0.1-0.3l-0.2,0.1c0-0.1,0.1-0.1,0.1-0.2c-0.2,0.2,0.1-0.2-0.1-0.1          c0,0.1-0.1,0.1-0.1,0.2c0-0.1-0.1-0.2-0.1-0.2l0.1-0.1c-0.1-0.1-0.2,0-0.4-0.1c0,0.1-0.2,0.3-0.2,0.3l0.1-0.2          c-0.1,0.1,0,0.1-0.2,0.2c0-0.1,0.1-0.3,0.2-0.3l-0.1,0c0-0.1,0.1-0.1,0.1-0.2c-0.1,0.1,0.1-0.3-0.1-0.1l0-0.1          c-0.1-0.1-0.2-0.1-0.3-0.1c-0.1,0.2-0.1,0.1-0.3,0.2c0-0.1,0.1-0.3,0-0.4c-0.1,0-0.2,0.1-0.3,0.2c0.1-0.1,0.1-0.2,0.2-0.2          c-0.1-0.1-0.1-0.1-0.3-0.1c-0.1,0.1-0.1,0.1-0.1,0.1c0,0,0-0.1,0.1-0.1l0,0c-0.4,0,0.3-0.6-0.1-0.5l0,0L15,55.5          c0-0.1,0.2,0,0.2-0.1c-0.4,0,0-0.2-0.3-0.3c0.5-0.2-0.1-0.3,0.3-0.5l-0.1,0c-0.1,0,0.1,0,0.1-0.1c-0.1,0-0.1,0-0.2,0          c-0.2-0.3,0.2-0.6,0.4-0.8c0.1-0.1-0.7-0.2-0.3-0.3l0.2,0.1c-0.2-0.3,0.1-0.4,0-0.7c0,0,0.1,0.1,0.1,0.1          c0.2,0.1,0.1-0.1,0-0.2c0,0,0.1,0.1,0.2,0.1c0.1,0-0.1-0.2,0-0.1c0,0,0,0,0,0.1c-0.1-0.1,0.1-0.1-0.1-0.2          c0.1,0,0-0.2,0.2-0.1c-0.1-0.2,0.2,0-0.1-0.3c0.3,0.2,0.3,0.1,0.2-0.1c0.1,0.1,0.1,0,0.2,0.2c0,0,0-0.1-0.1-0.2          c0.3,0.2,0-0.4,0.3,0c0-0.3,0.1-0.4,0.2-0.6c0.2,0.3-0.1,0.1,0,0.4c0-0.2,0-0.5,0.2-0.5c0.1,0,0,0.1,0.1,0.2          c0.1-0.2,0.3-0.1,0.3-0.3c0,0,0,0.1,0,0.1c0,0,0.1,0,0-0.1l0,0c-0.1-0.2,0-0.5,0-0.6c0.1,0.4,0.2,0.1,0.2,0.6          c0,0,0-0.1,0-0.2c0,0,0.1,0.1,0.1,0.2c0.1-0.1,0-0.3,0.1-0.3c0,0.1,0,0.1,0,0.2c0-0.2,0-0.3,0.1-0.3c0,0,0,0.1,0,0.1          c0.1,0,0.2-0.4,0.3-0.3c0,0.3,0.1,0.1,0.1,0.4l0.1-0.1l0-0.1c0.1,0,0.1-0.2,0.2-0.1l-0.1,0.1l0.1,0l-0.1-0.1          c0.1-0.1,0-0.4,0.1-0.3c0,0,0.1,0,0.1,0.2l0,0c0-0.1,0.1-0.2,0.1-0.1c0,0.1-0.1,0.3-0.1,0.4c0.1-0.2,0.2,0,0.3-0.3          c0,0.1-0.1,0.2-0.1,0.2l0.1-0.2c0,0.1,0,0.1,0,0.2c0.1,0.1,0.1-0.4,0.1-0.2c0,0,0,0,0,0.1c0.1,0.1,0.3-0.1,0.3,0.1          c-0.1,0.3-0.1,0-0.2,0.3c0.1,0,0.4-0.2,0.5-0.1l0,0c0.2-0.4,0,0.2,0.2,0.1c0,0-0.1,0.2-0.1,0.1c0.1,0.1,0.2,0,0.4,0L20,51.5          c0,0.1,0.1,0.1,0.1,0.2c0.1-0.1,0.1,0,0.2-0.2c-0.2,0.6,0.5,0,0.3,0.5c0,0-0.1,0-0.1,0l0.2,0c0.1-0.1,0.1-0.1,0.1-0.2          c0.1-0.1,0.2-0.1,0.2,0c-0.1,0-0.2,0.2-0.3,0.3c0,0,0.1-0.1,0.1-0.1c-0.2,0.3,0.3-0.2,0.2,0L21,52.2c0.1,0,0.2,0,0.2,0          c-0.2,0.1-0.1,0-0.2,0.1c0,0,0.4-0.1,0.3,0.1c-0.1,0-0.1,0-0.1,0c-0.2,0.2-0.1,0.2-0.1,0.2l0,0l0,0.1l0-0.1          c0.5-0.2,0.2,0.1,0.5,0c-0.3,0.1-0.2,0.1-0.4,0.2c0,0.1-0.1,0.1-0.2,0.1c0.2,0-0.1,0.1,0.2,0.1c-0.1,0,0,0-0.2,0.1          c0.1,0,0.1-0.1,0.2-0.1c0.3,0-0.2,0.3,0.2,0.3c0.2,0.1,0.4,0,0.6,0.1c-0.1,0.1-0.3,0-0.3,0c-0.1,0.1-0.1,0.1,0,0.2          c-0.1,0-0.1,0-0.2,0.1c0,0,0.3,0,0.2,0.1c-0.1,0-0.2,0-0.3,0c0.1,0,0.2,0.1,0.3,0.1c-0.1,0-0.2,0-0.3,0          c0.1,0.1,0.1,0.1,0.3,0.1l0.1-0.1c0,0-0.2,0-0.2,0c-0.2,0,0.1-0.1,0.1-0.1l0.1,0c0.4-0.1-0.1-0.2-0.1-0.2l0.3,0l-0.3,0          c0.1,0,0.2-0.1,0.3,0c0.1-0.1-0.1,0,0-0.1c0,0,0,0,0.1,0l-0.1,0c0.1,0,0.2-0.1,0.2,0c0.1-0.2-0.3-0.1-0.1-0.2l0,0          c-0.2-0.1-0.2,0-0.5,0l0.5-0.3L21.9,53c0,0,0-0.1,0.1-0.1c-0.2,0-0.1,0-0.2,0.1c0.2-0.2-0.2-0.2,0.2-0.3          c-0.2,0-0.1,0.1-0.2,0.1c0.3-0.2-0.1-0.1,0-0.2c0.2-0.1,0.1,0,0.3-0.1c-0.3,0.1,0-0.2-0.1-0.2c-0.2,0.1-0.2-0.1-0.3-0.1          c0.1,0,0-0.3,0-0.4l0,0c-0.2,0.2-0.3,0-0.3,0c0.1-0.1,0.2-0.1,0.3-0.2l-0.1-0.1c-0.1,0-0.1,0.1-0.2,0l0.2-0.1          c-0.1-0.1-0.3,0-0.3-0.2c-0.1,0.1-0.3,0.4-0.5,0.5c0.1-0.1,0.2-0.2,0.2-0.2c0,0-0.1,0-0.1,0l0.2-0.1c0-0.1-0.1,0.1-0.1,0          c0.1-0.1,0-0.1,0.1-0.2c0,0,0,0.1,0,0c0-0.1,0-0.2,0.1-0.3c-0.1,0.1-0.1,0.2-0.2,0.1C20.8,51.1,21,51,21,50.9          c-0.1,0.1-0.1-0.1-0.2,0.1c0,0,0-0.1,0.1-0.2c-0.1,0-0.2-0.1-0.3,0.1l0,0c0,0,0,0,0,0l0,0l0,0c-0.3,0.1-0.2-0.3-0.4-0.3          l0-0.1c-0.1,0-0.2-0.1-0.4,0.1c0,0,0-0.2,0-0.2c-0.1,0-0.1,0.1-0.2-0.1c0.1-0.1,0-0.1,0.1-0.1c-0.1-0.1-0.1-0.2-0.2-0.1          c0.1-0.2,0-0.3-0.1-0.2l0,0.2c-0.1,0-0.1,0-0.1-0.1l0.1-0.2c-0.1-0.4-0.5,0.4-0.5-0.1c-0.1,0.2,0.1,0.1,0,0.3          c-0.1,0-0.1-0.4-0.2-0.4c-0.1-0.2-0.2,0.3-0.3,0.2c0,0.1,0,0.3-0.1,0.4c-0.1,0-0.1-0.4,0-0.5c0,0,0,0,0,0.1          c0,0,0.1-0.1,0-0.2l0,0.1c0-0.1-0.2-0.1-0.1-0.2c-0.1,0.1,0,0.1,0,0.2c-0.1-0.1-0.2,0-0.3-0.1c0,0,0,0.2,0,0.2          c-0.2-0.1-0.1,0.2-0.2,0.2c-0.1-0.1,0-0.3-0.1-0.2c-0.1-0.1,0-0.2,0-0.3c-0.1,0.2-0.2-0.1-0.3-0.1l0.1-0.1          c0,0-0.1,0.1-0.1,0.1l0.1,0.2c0,0-0.1,0-0.1-0.1c0,0.1,0.1,0.3,0,0.5c-0.1-0.1-0.1,0.1-0.2-0.1c0.2,0.1-0.1-0.2,0.1-0.3          c0,0-0.1,0-0.1,0c0,0,0-0.1,0-0.1c-0.2-0.2,0,0.3-0.2,0.3c0-0.1-0.1-0.2-0.1-0.2c0.1,0,0.1,0.2,0.1,0.3          c-0.1-0.1-0.1,0.1-0.1,0.1l0.1,0c0,0.1,0,0.1-0.1,0.2c0-0.1,0-0.1,0-0.1c0,0.2-0.2-0.2-0.3,0c-0.1-0.1-0.1-0.2-0.2-0.3          c0,0.2-0.2-0.1-0.3,0.1c0.1,0.1,0.1,0.1,0.1,0.3l0.1-0.2l0,0.3c0.1,0,0.1-0.2,0.1-0.1c0,0.2,0,0.1,0.1,0.2          c-0.2-0.2-0.1,0.2-0.2,0.1L16,50.2c-0.2-0.1-0.1,0.3-0.3,0.3l0.1,0c0.1,0.2-0.1,0.1-0.1,0.2c-0.1-0.1-0.1-0.2-0.2-0.2          c0.1,0.1-0.1,0.1,0,0.3l-0.2-0.1c-0.2,0,0.1,0.4,0,0.5C15.2,51.1,15,51,15,50.9c0,0-0.1,0,0,0.1c-0.1,0,0,0.2-0.1,0.2          c0,0.1,0.1,0.2,0.1,0.2c0,0-0.1-0.1-0.1-0.1c0.1,0.1,0,0.1,0.2,0.2c-0.4-0.2-0.2,0.3-0.6,0.2c0,0.1-0.1,0.2-0.1,0.3          c0,0-0.1,0,0,0c-0.2,0,0.3,0.3,0.1,0.3c-0.2-0.1-0.1-0.1-0.2-0.1c-0.4-0.2,0,0.2-0.3,0.1l0,0c-0.2,0,0.1,0.3,0,0.4          c0,0,0,0-0.1,0c0.2,0.2,0.2,0.4,0.2,0.5C14,53,14.1,53,13.9,52.9c0,0.1,0.3,0.1,0.3,0.2c-0.1,0-0.2,0-0.4,0l0-0.1          c-0.3,0,0,0.1-0.1,0.2l-0.1,0c0,0.2,0.3,0.2,0.2,0.4l0.1,0c0.3,0.1-0.2,0,0,0.2l-0.3,0c0.1,0.1,0.3,0.2,0.3,0.4          c-0.2-0.1-0.3-0.2-0.4-0.3c0,0.1,0,0.2,0.1,0.3c0,0-0.1-0.1,0-0.1c0.2,0.1,0.3,0.2,0.3,0.3c-0.6,0-0.2,0.3-0.6,0.4          c0.2,0.2-0.1,0.4,0,0.7c0.4-0.2,0,0.1,0.5,0c0,0,0,0.1,0,0.1l-0.2,0.2c-0.1,0.1-0.1,0-0.2,0c0,0.1-0.2,0.1-0.3,0.2          c0.2-0.1,0.2,0,0.2,0.1l0.2-0.2c0.3,0.1-0.3,0.3,0,0.4l-0.2,0c0.1,0.1,0.1,0.4,0.5,0.3c0,0-0.1,0.1-0.2,0.1          c0.1,0.3,0.6,0.3,0.5,0.5l-0.1,0c0.1,0,0.2-0.1,0.2,0.1c0,0-0.1,0-0.1,0.1c0,0,0.2,0,0.2,0.1l-0.1,0c0,0.3,0.5,0.1,0.6,0.2          c-0.2,0.2-0.2,0.4-0.2,0.5l0,0c0.2,0.2,0.5,0.1,0.8,0.1c-0.1,0.4,0.3,0.4,0.5,0.7c0-0.1,0.1-0.2,0.2-0.2          c0,0.1,0.2-0.1,0.1,0.1l0,0C16,59,16.1,59,16.2,59l0.2-0.4c0,0.6,0.6,0,0.6,0.5c0.1-0.1,0.1-0.1,0.2-0.2l0,0.2          c0.2,0.1,0.2,0.1,0.4,0.1l-0.1,0.2c0.1,0,0.2-0.6,0.3-0.6l0,0.3c0.2,0,0.4,0.3,0.6,0c0,0,0,0.1,0,0.2c0.1,0,0.4,0.2,0.3-0.3          c0,0.3,0.2,0,0.3-0.1l0,0.2c0-0.3,0-0.4,0.1-0.5c0,0,0.1,0.2,0,0.1c0.1,0.1,0-0.2,0.2-0.1l0,0.1c0.1,0,0.1-0.1,0.1-0.2          c0-0.1,0.2,0,0.3,0.2c0-0.1,0-0.3,0-0.2c0,0.1,0,0.1,0,0.1c0.2,0.1,0.1-0.3,0.3-0.2c0,0.1,0.1,0.1,0.1,0.1          c-0.1,0.1-0.2,0.1-0.2,0.1c0.1,0.2,0.2,0.2,0.2,0.4c0-0.2,0-0.5,0.2-0.5c0,0,0,0,0,0.1l0,0c0,0,0,0,0-0.1c0,0,0.1,0,0.1,0          c0.1,0.1,0.2,0,0.2,0c-0.1-0.2,0-0.2-0.2-0.3c0,0,0,0,0,0.1c0,0,0,0,0,0l0,0c0,0-0.1,0-0.1,0.1c0-0.1,0-0.2,0.1-0.1          c0-0.1-0.1-0.3-0.1-0.3c0.2,0.2,0.4,0.3,0.5,0.4c0.1-0.2,0.3-0.3,0.1-0.7c0-0.1,0.1,0.1,0.2,0.1c0,0,0,0.1,0,0.1          c0-0.1,0.2-0.2,0-0.4c0.2,0,0.1,0.2,0.2,0.1l0,0.1c0.6,0.1-0.2-0.8,0.4-0.7c0,0-0.1,0-0.1,0c0.4-0.2,0.2-0.7,0.7-0.9          c0.1-0.1-0.1-0.1-0.2-0.2l0.2,0l-0.2-0.2c-0.2-0.2,0.6-0.1,0.3-0.4l-0.2,0c0-0.1-0.1-0.2,0.1-0.2c0,0-0.2,0-0.1-0.1l0.1,0          l-0.2-0.2c0.1-0.1,0.5,0.1,0.5-0.1c0-0.1-0.3-0.2-0.4-0.2c0,0-0.1,0.1-0.2,0.1L22,54.4c-0.4,0-0.7,0-1,0.1l0.2,0.1l-0.2,0          l0-0.1c-0.2,0,0,0.1,0.1,0.1c-0.1,0-0.2,0-0.2,0l0.3,0.1c-0.1,0-0.3-0.1-0.4,0c0.1,0.1,0.3,0,0.4,0.1c-0.2,0-0.3,0-0.2,0.1          c-0.1,0-0.1,0-0.2,0c0.1,0.1,0,0.1,0.2,0.2c-0.2,0,0,0.1-0.3,0.1c0.1,0,0.2,0.1,0.2,0.2c-0.4-0.2-0.1,0.1-0.5,0          c0.3,0.2,0.1,0.2,0.3,0.4c0,0-0.1,0-0.1,0c0,0-0.1,0-0.2,0c0.3,0.1,0.3,0.2,0.4,0.3c-0.3-0.1-0.3-0.2-0.6-0.3          c0.2,0.1,0.2,0.2,0.4,0.3c-0.2,0-0.1,0-0.3-0.1c0.3,0.2,0,0.1,0.2,0.2c-0.2,0-0.3-0.2-0.3,0C20.5,55.9,20.4,55.8,20.4,55.8z           M19.6,57.4L19.6,57.4C19.6,57.4,19.6,57.4,19.6,57.4C19.6,57.4,19.6,57.4,19.6,57.4z M19.4,57.5          C19.5,57.5,19.5,57.5,19.4,57.5c0.1,0,0.1,0.1,0.1,0.1C19.5,57.6,19.5,57.5,19.4,57.5z M20.5,58.6          C20.5,58.6,20.4,58.6,20.5,58.6C20.4,58.6,20.4,58.6,20.5,58.6L20.5,58.6C20.5,58.5,20.5,58.6,20.5,58.6z"/>
								<path fill="#484BA0" d="M20.4,58.3C20.4,58.3,20.4,58.3,20.4,58.3C20.4,58.3,20.4,58.3,20.4,58.3L20.4,58.3L20.4,58.3z"/>
								<path fill="#484BA0" d="M20.5,51L20.5,51C20.5,51,20.5,51,20.5,51C20.5,51,20.5,51,20.5,51z"/>
								<polygon fill="#484BA0" points="17.4,57.3 17.4,57.4 17.4,57.3         "/>
								<path fill="#484BA0" d="M20.8,52.2C20.8,52.2,20.7,52.2,20.8,52.2C20.7,52.3,20.8,52.2,20.8,52.2z"/>
								<path fill="#484BA0" d="M21,52.6L21,52.6C20.9,52.6,21,52.6,21,52.6z"/>
								<path fill="#484BA0" d="M21,52.9C21.1,52.9,21.1,52.8,21,52.9L21,52.9L21,52.9z"/>
								<path fill="#484BA0" d="M17.1,51.5C17.1,51.5,17.1,51.5,17.1,51.5C17.1,51.5,17.1,51.5,17.1,51.5z"/>
								<path fill="#484BA0" d="M18.5,50.9C18.4,50.9,18.4,50.9,18.5,50.9C18.4,51,18.4,51,18.5,50.9z"/>
								<polygon fill="#484BA0" points="16.1,52.4 16.1,52.4 16.1,52.4         "/>
								<path fill="#484BA0" d="M18.3,50.9C18.4,51,18.4,51,18.3,50.9C18.4,50.9,18.4,50.9,18.3,50.9z"/>
								<path fill="#484BA0" d="M21.3,54.1L21.3,54.1C21.3,54.1,21.3,54.1,21.3,54.1L21.3,54.1z"/>
								<path fill="#484BA0" d="M21.3,54.1L21.3,54.1C21.3,54.1,21.3,54.1,21.3,54.1z"/>
								<path fill="#484BA0" d="M21.4,54.1L21.4,54.1C21.3,54.1,21.3,54.1,21.4,54.1z"/>
								<path fill="#484BA0" d="M21.3,53.7L21.3,53.7C21.3,53.7,21.3,53.7,21.3,53.7z"/>
								<path fill="#484BA0" d="M21.3,53.6c0,0-0.1,0.1-0.1,0.1l0.1,0C21.1,53.7,21.4,53.6,21.3,53.6z"/>
								<path fill="#484BA0" d="M22,52.7l0,0.1c0.1-0.1,0.2-0.1,0.2-0.1C22.4,52.6,22,52.9,22,52.7z"/>
								<path fill="#484BA0" d="M21.9,52.3c0.1,0,0.1-0.1,0.1-0.1C22,52.3,22,52.3,21.9,52.3z"/>
								<path fill="#484BA0" d="M19.8,50.4l0.1-0.2C19.9,50.2,19.9,50.3,19.8,50.4z"/>
								<polygon fill="#484BA0" points="19,51.2 19,51.3 19.1,51.1         "/>
								<polygon fill="#484BA0" points="19.1,49.8 19.1,49.7 19,49.8         "/>
								<path fill="#484BA0" d="M14.4,51.4l0.2,0.1C14.6,51.5,14.4,51.3,14.4,51.4z"/>
								<path fill="#484BA0" d="M13.7,53.5c-0.1,0-0.2,0-0.1,0.1C13.6,53.6,13.7,53.5,13.7,53.5z"/>
								<polygon fill="#484BA0" points="16.4,59 16.3,59.1 16.4,59         "/>
							</g>
						</g>
					</g>
				</g>
			</g>
			<g>
				<g>
					<path fill="#29ABE2" d="M35,18.4c0-9.3-7.6-17-16.9-17c-9.3,0-16.9,7.7-16.9,17c0,2.7,0.6,4.9,1.7,7.6l7.7,12.8l7.6,12.9       l7.6-12.8L33.2,26C34.3,23.3,35,21,35,18.4z"/>
					<g>
						<g>
							<g>
								<g>
									<path fill="#44ABF1" d="M35.6,18.4c-0.1-0.1-0.3,0-0.2,0.2l0.3,0.1L35.6,18.4z"/>
									<path fill="#44ABF1" d="M35,19.6c0.1,0.2,0.4,0.5,0.7,0.4c-0.3-0.3-0.2-0.3-0.5-0.6c0-0.2,0.1-0.3,0.2-0.3           c-0.1-0.1,0.1-0.3-0.1-0.4C35,19,35,19.3,35.2,19.6C35.1,19.7,35,19.6,35,19.6z"/>
									<path fill="#44ABF1" d="M27,35.8L27,35.8C27.1,35.7,27,35.8,27,35.8z"/>
									<path fill="#44ABF1" d="M21.1,45.4c0-0.1,0-0.1,0-0.1C21.1,45.4,21.1,45.4,21.1,45.4z"/>
									<path fill="#44ABF1" d="M19.8,46.9C19.8,46.9,19.9,46.9,19.8,46.9C19.8,46.8,19.8,46.9,19.8,46.9z"/>
									<path fill="#44ABF1" d="M27,35.8L26.8,36C26.8,36.1,26.9,35.9,27,35.8z"/>
									<path fill="#44ABF1" d="M35.4,22.3c0-0.1,0-0.1,0-0.2L35.4,22.3L35.4,22.3z"/>
									<path fill="#44ABF1" d="M29.3,31.4L29.3,31.4c0-0.1,0-0.2,0-0.2L29.3,31.4z"/>
									<path fill="#44ABF1" d="M31.1,28c-0.1,0.1,0.2,0.2,0.3,0.3c-0.1-0.1-0.1-0.2-0.1-0.3C31.3,28.1,31.2,28,31.1,28z"/>
									<path fill="#44ABF1" d="M34,22.8l0-0.1C34,22.8,34,22.8,34,22.8z"/>
									<path fill="#44ABF1" d="M27.8,33.7c0,0-0.1,0-0.1,0C27.8,33.7,27.8,33.7,27.8,33.7z"/>
									<path fill="#44ABF1" d="M35.7,13.6C35.6,13.6,35.6,13.6,35.7,13.6C35.6,13.7,35.7,13.7,35.7,13.6z"/>
									<path fill="#44ABF1" d="M34.9,18.4L34.9,18.4c-0.1-0.1-0.1-0.1-0.2-0.1L34.9,18.4z"/>
									<path fill="#44ABF1" d="M18.3,48.7L18.3,48.7C18.3,48.7,18.3,48.7,18.3,48.7z"/>
									<path fill="#44ABF1" d="M3.6,24.5C3.4,24.9,3,24.1,3,24.7C3.1,24.6,3.6,25,3.6,24.5z"/>
									<path fill="#44ABF1" d="M35.3,22.4c0,0.1,0,0.1,0,0.2C35.3,22.5,35.3,22.4,35.3,22.4z"/>
									<path fill="#44ABF1" d="M3,24.7L3,24.7L3,24.7C3,24.7,3,24.7,3,24.7z"/>
									<path fill="#44ABF1" d="M15.8,45.2c0,0-0.1,0.1-0.1,0.1C15.8,45.3,15.8,45.3,15.8,45.2z"/>
									<path fill="#44ABF1" d="M18,49.7l0-0.1C18,49.7,18,49.7,18,49.7z"/>
									<path fill="#44ABF1" d="M13.9,42.7c0-0.1,0-0.1-0.1-0.2c0,0,0,0,0,0C13.8,42.6,13.9,42.6,13.9,42.7z"/>
									<path fill="#44ABF1" d="M12.2,39.9C12.2,39.9,12.2,39.9,12.2,39.9l0,0.2L12.2,39.9z"/>
									<path fill="#44ABF1" d="M30,4.7C30,4.8,30,4.9,30,5C30.1,4.8,30.5,5.1,30,4.7z"/>
									<path fill="#44ABF1" d="M35.2,22.3c0.1,0,0.1,0.1,0.1,0.1c0,0,0-0.1,0-0.1C35.3,22.2,35.2,22.2,35.2,22.3z"/>
									<path fill="#44ABF1" d="M11.9,43.7l-0.2-0.5C11.7,43.4,11.8,43.6,11.9,43.7z"/>
									<path fill="#44ABF1" d="M6.9,4.1L7,4C6.9,4,6.9,4.1,6.9,4.1z"/>
									<path fill="#44ABF1" d="M10.8,41.9c0-0.1,0-0.2,0-0.4c0,0-0.1,0-0.1,0L10.8,41.9z"/>
									<path fill="#44ABF1" d="M30,5L30,5L30,5z"/>
									<path fill="#44ABF1" d="M32.9,7.3c-0.3-0.4-0.4,0-0.7,0.1c-0.5-0.4,0-0.4,0.1-0.7c-0.3-0.2-0.8-0.2-1-0.5           c0-0.1,0-0.1,0.1-0.1C31.2,6,31,5.8,30.7,5.6c-0.2-0.2-0.5-0.4-0.8-0.4c0,0,0-0.1,0-0.1c-0.1,0.2-0.2,0.3-0.3,0.4           c-0.2-0.2-0.5-0.1-0.4-0.3c0.1,0.1,0.2,0,0.3,0l-0.2-0.1c0.1-0.4,0.3,0.1,0.5-0.1c-0.4-0.3-1-0.4-1.3-0.6           c0.1-0.3,0.7,0.4,0.6-0.1c0,0,0.4,0.4,0.4,0.5c0-0.7,0.2,0.3,0.3-0.5c-0.5-0.6-0.8-0.4-1.3-0.9c-0.2,0.1-0.1,0.3-0.4,0.3           c-1.1-0.3-0.2-1.2-1.2-1.2c-0.3,0.1-0.6,0.4-0.9,0l0.3-0.3c-0.6-0.4-0.6,0.3-1.2-0.2c0.2-0.1,0.6,0.1,0.5,0           c-0.3-0.5-0.4,0-0.7-0.1l0.1-0.3c-0.8-0.2-1.6-0.3-2.5-0.4c0.1-0.1,0.2-0.2,0.1-0.3c-0.3,0-0.6-0.1-0.8-0.1           c-0.3,0-0.6-0.1-0.8-0.2c-0.6-0.2-1.1-0.3-1.6-0.4l-0.4,0.3c-0.1,0-0.2-0.1-0.1-0.2c-0.4-0.1,0,0.2-0.2,0.3           c-0.2,0-0.3-0.2-0.2-0.3c-0.4,0.1-0.9,0.3-1.4,0.4c-0.3,0-0.5,0.1-0.8,0.1c-0.2,0-0.5,0-0.7,0l0.1-0.1           c-0.6,0-0.6,0.7-1.1,0.5l0.1-0.1c-0.6,0.1-1.3,0.3-1.9,0.4c-0.6,0.2-1.2,0.4-1.7,0.3c0,0.5-1.2,0.4-1,1           C9.2,2.6,9.4,2.5,8.4,2.9C8.1,3,8.2,3.4,8,3.6L7.8,3.4L7.6,3.9L7.2,3.8L7,4C7.1,4,7.3,4,7.3,4.1C7.2,4.3,6.9,4.4,6.6,4.5           C6.4,4.6,6.2,4.6,6.1,4.5l-0.7,1c-0.1-0.1,0-0.3,0.1-0.4C5.3,5.8,5.2,4.9,5,5.6c0.1,0,0.1,0.2,0.1,0.2           c-0.3,0.1-0.8,0.6-1,1L4,6.6C3.4,7.2,2.9,8.1,2.4,9C2.7,8.7,3,9,2.9,9.2L2.5,9.2C2.6,9.4,2.8,9,2.8,9.4           c-0.2,0.3-0.5,0-0.4-0.2L2.2,9.6C2.1,9.6,2.1,9.5,2,9.4c0.1,0.2-0.7,0.5-0.5,0.9l-0.1,0C1,11.3,1,11.7,0.8,12.5           C1,12.6,0.8,12.9,1,13.2c-0.2,0.5-0.6,1.1-0.7,1.8c0.1,0.5,0.2,0.2,0.3,0.4c-0.3,0-0.3,0.7-0.5,0.3C0,16.6,0,16.8,0.2,17.9           c0.1-0.1,0.2-0.2,0.2-0.2c0,0.2-0.1,0.4-0.3,0.4l0-0.1c0.2,0.6,0,1.3-0.1,2c-0.1,0.7-0.1,1.4,0.2,1.8l0,0           c0,0,0.1,0.2,0.2,0.5c0.1,0.2,0.3,0.4,0.3,0.4c0.1,0.5-0.3-0.2-0.3,0.2c0.7,0.9,0.4,1.6,1,2.4c-0.1,0.2-0.1,0.5-0.1,0.7           c0,0.1,0.1,0.3,0.1,0.4c0,0.1,0.3,0.5,0.3,0.6c0.4,0.5,0.7,1,0.8,1.5l0.1-0.1c0.3,0.1,0.1,0.3,0.1,0.4           c0.1-0.1,0-0.3,0.2-0.2C4.1,30,4.8,32,5.7,33.8c0.3,0.6,1-0.1,1.1,0.9l-0.4,0c1.1,1,1.5,2.5,2.5,3.6c-0.1,0-0.2,0-0.3-0.1           c-0.1,0.4,0.6,0.9,0.7,0.9c0.1,0.2-0.1,0.1-0.1,0.3c0,0.3,0.7,0.5,0.5,0.7c0,0-0.1,0-0.2-0.1c0.2,0.1,0.4,0.8,0.6,0.5           c0.2,0.5,0.6,0.8,0.7,1.3c0.4,0.1,0.3,0.9,0.8,0.7c-0.4,0.2,0.2,1,0.5,1.2c-0.2,0,0,0.3-0.2,0.3c0.2,0.3,0.4,0.6,0.6,0.4           c-0.1,0.9,1.1,1,0.7,1.7c0.8,0.9,1.5,1.7,2.1,2.5c-0.4,0.2-0.6-0.9-1-0.7c0.7,0.7,1.3,1,1.7,1.9c0.1,0.2-0.2,0-0.4-0.1           c0.1,0.1,0.2,0.2,0.2,0.3c0.1,0.2,0.2,0.3,0.3,0.5c0.2,0.3,0.4,0.7,0.6,1c0.4,0.6,0.8,1.3,1.1,1.7c0,0.1-0.1,0-0.2,0           c0.1,0.2,0.3,0.7,0.3,0.3l-0.1-0.1c-0.1-0.5,0.1-0.5,0.3-0.5c0.1-0.4,0.2-0.7,0.2-0.8c-0.1,1.4,0.6-0.7,0.4,1           c0.1-0.2,0.2-0.6,0.1-0.7c0.1-0.2,0.2-0.1,0.1,0.3c0.5-1,0.2-1,0.6-1.7c0.1,0.1,0,0.3,0,0.5c0.1-0.6,0.2-1.1,0.6-1.6           c0,0.1,0.1,0,0,0.2c0.4-0.8,0.3-1.5,0.9-2.1c0.2,0.4,0.3-0.2,0.6,0l0.1-0.5l-0.3,0.1c0.2-0.4,0.2-0.8,0.5-1l0,0.3l0.3-0.7           l-0.3,0.3c0-0.5-0.4-0.2-0.1-0.6c0,0.1,0.2-0.4,0.5-0.4l0,0c0-0.2,0-0.5,0.2-0.7c0.1,0,0.3,0.3,0.4,0.3           c-0.2-0.3,0.4-0.9,0.3-1.3c0,0.1,0.2,0.2,0.2,0.2l-0.1-0.3c0.2-0.1,0.2-0.1,0.3,0c0.3-0.5-0.5-0.1,0-0.6c0,0.1,0,0.1,0,0.2           c0.4-0.5,0.5-1.2,1-1.7c0.4,0-0.2,0.5,0.2,0.5c0.4-0.8,0.6-1.8,1.1-2.6l-0.1,0.1c-0.4-0.4,0.6-0.4,0.6-0.9           c0,0.1,0.2,0.3,0.1,0.2c0.4-0.5,0.5-1.1,0.8-2l0.1,0.2c0.3-0.2,0.5-0.8,0.8-1.1c-0.1-0.2,0.1-0.3-0.2-0.3           c1.3-0.6,0.8-2.2,1.9-2.7c-0.1,0.1,0,0.3,0,0.2l0.3-0.8c-0.2-0.1-0.2,0-0.4,0.1c-0.1-0.2,0-0.4,0.1-0.6           c-0.1,0.4,0.3,0.2,0.5,0.1c-0.1,0-0.1-0.1-0.2-0.1c0.6-0.2-0.4-0.3,0.2-0.7l0.1,0.1c0.1-0.2,0-0.5,0.2-0.7           c0.3,0,0,0.3,0.2,0.4c0.2-0.3-0.1-0.9,0.3-1c0,0.2-0.1,0.4-0.1,0.5c0.5-0.1,0.4-0.2,0.6-0.4l0,0l0.4-0.5l-0.2,0.1           c-0.4-0.7,0.3-0.9,0.3-1.6c0.1,0.7,0.2,0.2,0.4,0.4c0.2-0.1,0.4-0.2,0.4-0.1c-0.1-0.4,0.4-0.3,0.3-0.9           c0.1,0,0.2-0.3,0.3-0.1c0.1-0.4-0.2,0-0.3-0.1c0-0.2,0.1-0.3,0.2-0.4c0.1-0.1,0.1-0.2,0.2-0.3C33.9,26,34,26,34,25.9           c0.2-0.3,0.4-0.7,0.4-1.2c0.1-0.8-0.2-1-0.2-1.7c0.2-0.2,0.3,0.3,0.3,0.3c0.2-0.3,0.3-0.6,0.3-1c0.1,0.1,0.2,0,0.3,0           c0-0.3-0.3-0.3-0.1-0.6c0.1,0.1,0.2,0.2,0.3,0.4c0-0.3-0.1-0.7-0.2-1.1c0.2-0.1,0.2,0.2,0.3,0.4c0-0.4,0-1-0.3-1.2           l-0.1,0.2c0-0.1,0.2,0,0.3,0.1c0.2,0.4-0.2,0.5-0.3,0.5l0-0.2c-0.6,0.2-0.1,1-0.2,1.4l-0.4-0.3l0.2,0.6           c-0.1,0.1-0.4,0.1-0.4-0.2c-0.3,0.3,0.1,0.3-0.2,0.6c0,0-0.1,0-0.1,0l0,0.4c-0.1-0.1-0.3,0-0.2-0.2c-0.4,0.5,0,1-0.4,1.1           l0-0.1c-0.1,0.8,0.3,0.2,0.4,0.9L33,25.1l0.3,0.2c0,0.1-0.1,0.2-0.2,0.2c0.1,0.4,0.1,0,0.3,0.2c-0.4,0.3-0.4,1.1-0.9,0.9           c0.1,0.2,0.4-0.3,0.3,0.2c-0.5-0.2-0.2,0.5-0.6,0.7c-0.2-0.2,0.1-0.5-0.3-0.3c0.3,0.4-0.5,0.6-0.5,0.9           c0.3,0.2-0.2,0.7-0.4,1.2c-0.1-0.1-0.7,0.8-1,1.1l0,0c0.3,0.3,0,0.7-0.2,1c-0.2-0.1-0.2-0.2-0.2-0.5l-0.2,0.3           c0.1,0.1,0.1,0.3,0,0.5l-0.2-0.2c-0.2,0.4-0.2,1-0.7,1.4c0.2,0.2,0.9-0.1,0.7,0.6c-0.1-0.1-0.4-0.2-0.3-0.3           c0,0.1,0,0.2-0.1,0.3l-0.1-0.3c-0.2,0.2,0.1,0.2,0,0.4c-0.2-0.1-0.2,0.1-0.3,0c0-0.1,0.2-0.1,0.1-0.2           c-0.2,0.2-0.4,0.4-0.6,0.4c0.1,0,0.2,0.1,0.2,0.3c-0.2,0.4-0.3,0-0.5,0.2c0.1,0.2-0.2,0.4,0,0.5c-0.1,0.1-0.2,0.1-0.3,0.1           c0,0.3-0.5,1-0.1,0.9l0,0c0,0,0,0,0,0l0,0l0,0c-0.1,0.8-1,1.3-1.3,2.1l-0.1-0.1c-0.1,0.5-0.5,0.9-0.5,1.3           c-0.1,0.1-0.3,0.2-0.4,0.1c-0.1,0.3,0,0.4-0.4,0.8c0-0.4-0.2,0,0.1-0.4c-0.3,0.4-0.5,0.4-0.5,0.9c-0.1-0.3-0.5,0.1-0.5,0.4           l0.3-0.2c-0.1,0.2-0.2,0.4-0.4,0.6L23.3,41c-0.8,0.6-0.3,1.8-1.2,2.1c0.1,0.3,0.4-0.4,0.5,0c-0.3,0.4-0.9,0.5-1,0.6           c-0.5,0.4,0.1,0.7-0.3,1.2c0.1,0,0.5,0.1,0.3,0.6c-0.3,0.4-0.7,0.2-0.7-0.1c0-0.1,0.1-0.1,0.1-0.1c0-0.1,0.1-0.3-0.1-0.2           l0.1,0.1c-0.2,0.1-0.5,0.7-0.6,0.4c-0.1,0.3,0.1,0.2,0.3,0c-0.4,0.4-0.5,0.8-0.8,1.2c0.1,0,0.3,0,0.2,0           c-0.6,0.7,0,0.4-0.2,1c-0.3,0.2-0.3-0.3-0.5,0.3c-0.3,0.2-0.3-0.1-0.3-0.3c0,0.3-0.2,0.5-0.4,0.6c-0.1,0.1-0.2,0.2-0.2,0.2           c0,0-0.1,0-0.1,0l-0.1-0.1c0,0,0,0.1,0,0.1c0,0,0.2,0.2,0.2,0.1c-0.1,0-0.1,0-0.1-0.1c0.1,0.2,0.3,0.3,0.4,0.6           c-0.1,0-0.1,0.5-0.3,0.1c0.2-0.1-0.1-0.4-0.1-0.6c0,0.1,0,0.1,0,0.1c0,0,0-0.1,0-0.1c-0.1-0.3,0.1,0.5,0,0.8           c0-0.3-0.1-0.6-0.1-0.5c0,0,0.1,0.5,0,0.9c-0.1-0.4-0.1,0-0.2-0.1l0.1,0.2c-0.1,0.3-0.1,0.1-0.2,0c0-0.2,0.1,0,0.1-0.1           c-0.1,0.1-0.1-0.1-0.2-0.3c0-0.2,0-0.4-0.1-0.4c0-0.2,0.2-0.3,0.2-0.4c-0.2,0.1,0.1-0.4-0.4-0.7c-0.1,0.3-0.1,0.3-0.5,0           l0.6,0.7c0,0-0.6-0.3-0.6-0.3c0.1,0.2,0.5,0.5,0.4,0.5c-0.2,0-0.2-0.1-0.3,0.1c0.1-0.5-0.6-0.5-0.6-1l0.5-0.3           c-0.1-0.7-0.9-0.8-1.2-1.7l0,0.3c-0.3,0-0.3-0.4-0.5-0.6c0.2-0.1,0.2-0.3,0.2-0.4c-0.1,0.1-0.3-0.5-0.7-0.4l0-0.5           c-0.3-0.6-0.9-0.4-1.2-1c0.3,0.1,0.3-0.3,0.6,0c-0.1-0.2-0.2-0.4-0.3-0.3c0-0.2-0.5-0.4-0.5-0.7c-0.1,0-0.3,0-0.4-0.2           c0,0,0.1,0,0.1,0c-0.1,0-0.3-0.3-0.4,0c0.2-0.9-1-1.6-0.8-2.4c-0.3-0.4-0.7-0.8-0.9-1.2c0.1,0,0.1,0,0.1,0           c-0.1-0.6-0.7,0-0.9-0.7c0.1-0.5,0.3,0.2,0.3,0c0.5-0.4-0.5-0.7-0.4-1.3l0.1,0.1c0-0.4-0.7-0.6-0.9-1.1c0,0,0.1,0,0.1,0           c-0.5-0.2-1-0.7-1.3-1.2c0.3,0,0.2,0.1,0.4-0.1c-0.2-0.2-0.3,0.3-0.6-0.1c0-0.2,0-0.6,0.2-0.8l0.3,0.4           c0.2-0.4-0.3-0.5-0.4-0.8l0.2-0.1c-0.4-0.6-0.8-0.4-1.1-1.1l-0.1,0.1c-0.6-0.2,0-0.4-0.5-0.6L7,31.3           c-0.2-0.2-0.8-0.6-1.2-1C6.2,30.3,6.6,30.8,7,31c-0.1-0.2-0.5-0.8-0.8-0.8c0.1,0.1,0.2,0.1,0.3,0.3C6,30.3,5.7,30,5.4,29.5           c0.7-0.3-0.6-1.3-0.3-2c-0.4-0.3-0.6-0.8-0.8-1.2c-0.1-0.2-0.2-0.5-0.3-0.7c-0.1-0.2-0.1-0.1-0.1-0.2           c0-0.1-0.1-0.3-0.1-0.4c-0.4,0.6-0.1-0.3-0.7,0C3,24.8,2.9,24.7,3,24.7l0.1-0.9c0.1-0.2,0.2,0.2,0.3,0.1           c-0.1-0.5,0.2-0.3,0.2-0.7c-0.2,0.1-0.4-0.1-0.4-0.4l-0.1,0.5c-0.5-0.6,0.3-0.8-0.2-1.4l0.2,0.2c-0.2-0.3-0.3-1.4-0.8-1.7           c0.1-0.1,0.2-0.2,0.3,0c-0.1-0.9-0.7-2-0.3-2.8l0.1,0.1c0-0.2-0.3-0.3-0.1-0.5c0.1,0,0.1,0.1,0.2,0c0-0.1-0.3-0.5-0.1-0.7           l0.1,0.2c0.3-0.9-0.2-1.4-0.1-2.2c0.4,0.1,0.7-0.5,0.9-0.9l0.1,0c0.2-0.5,0.3-0.9,0.3-1.4c0.1-0.4,0.1-0.9,0.3-1.4           c0.7-0.3,1.2-1.7,2-2.3C5.8,8.7,5.7,8.4,5.8,8.2C6,8.1,6,7.6,6.2,7.9L6.2,7.9C6.6,8,6.8,7.6,7.1,7.4L6.7,7           c0.6,0,1-0.5,1.4-1c0.4-0.4,0.8-0.8,1.2-0.7c0.1-0.2,0.4-0.4,0.5-0.6L10,5c0.6-0.3,0.9-0.4,1.5-0.8l-0.1,0.3           c0.4-0.2,0.1-1,0.5-1.2l0.3,0.4c0.4-0.1,0.8-0.2,1.1-0.3c0.4-0.1,0.8-0.2,1.1-0.4c0,0.1,0,0.2-0.1,0.2           c0.4-0.1,1.4,0,1.2-0.5c0.1,0.4,0.8-0.1,1.2-0.3l0,0.3c0.3-0.4,0.3-0.5,0.8-0.6c0.1,0,0.1,0.2-0.1,0.2           C18,2.3,17.9,1.8,18.4,2l-0.2,0.2c0.4,0,0.4-0.1,0.6-0.3c0.3-0.1,0.8,0.1,0.8,0.4C19.7,2.1,20,2,20.2,2.1           c0,0.1-0.1,0.1-0.1,0.2c0.6,0.3,1.1-0.2,1.5,0.2c0,0.1,0,0.1,0,0.2c-0.5-0.2-1-0.2-0.9-0.2c0,0.3,0.4,0.4,0,0.7           c0.4-0.2,1-0.4,1.4-0.2c0,0,0,0.1,0,0.1l0,0c0.1,0,0.2,0,0.3,0c0.1,0.1,0.2,0.1,0.3,0.2c0,0.2,0.4,0.3,0.6,0.4           c0.1-0.3,0.3-0.1,0.2-0.4c0,0-0.1,0-0.2,0c0,0-0.1,0-0.1,0l0,0C23,3,22.9,3,22.7,2.9c0.2-0.1,0.4-0.1,0.6,0.1           c0.2-0.1,0.3-0.3,0.4-0.3c0.2,0.5,0.6,0.9,0.6,1.1c0.7,0.1,1.4,0.6,2.1,0.4c0.2,0,0.1,0.2,0.1,0.4c-0.1,0-0.2-0.1-0.3-0.1           c0.4,0.1,1,0.5,1.3,0.3c0.3,0.4-0.4,0.1,0.2,0.5l-0.1,0c0.3,0.6,0.9,0.7,1.4,1c0.3,0.1,0.6,0.2,0.8,0.4           c0.2,0.2,0.4,0.5,0.5,0.9c0-0.1-0.1-0.2,0-0.2c0.5,0.7,1,1.4,1.5,2c0.2,0.4,0.5,0.7,0.7,1.1c0.2,0.4,0.3,0.8,0.4,1.2           c0.1,0.5,0.3,0.4,0.6,0.6l-0.3,0.2l0.5,0.3c0.5,0.6-0.4,1.4,0.3,2.1l0.2-0.2c0.1,0.3,0.3,1,0.1,1c0,0,0.2,0.1,0.1,0.2           l-0.2,0c0,0,0.1,0.2,0.2,0.4c0.1,0.2,0.2,0.4,0.2,0.4c-0.1,0.6-0.6,0-0.6,0.8c0.1,0.3,0.5,0.9,0.6,0.8           c0-0.1,0.1-0.3,0.2-0.4l0.1,0.3c0.5,0,1,0.3,1.3-0.5l-0.3-0.5l0.2-0.2l0,0.5c0.2-0.3,0-0.4-0.1-0.6           c0.1-0.1,0.2-0.1,0.2-0.3c0,0-0.5-0.5-0.5-0.5c0.2-0.1,0.4,0.2,0.4-0.2c-0.2-0.2-0.4,0.3-0.6-0.1c0.2-0.3,0.4-0.2,0.1-0.5           c0.1-0.1,0.2,0,0.3,0.1c-0.2-0.3-0.2-0.7-0.5-0.8c0.2-0.3-0.3-0.9,0.1-1c-0.1-0.1-0.5-0.4-0.5-0.6c0.7,0.3-0.3-0.9,0.3-1           c-0.3-0.1-0.4-0.4-0.6-0.7c-0.2-0.3-0.3-0.7-0.6-0.9c0,0,0.1,0,0.1,0.1c-0.1-0.3,0-0.5,0-0.7c-0.4,0.1-0.7-0.3-1.1-0.4           c0.1-0.6,0.5,0,0.8-0.3c-0.3,0.2-0.7-0.5-0.8-0.2c0-0.4,0-0.3,0.1-0.6c-0.4,0.2-0.2-0.2-0.6-0.3c-0.1-0.5,0.3-0.4-0.1-0.7           C32.5,7,32.9,7.3,32.9,7.3z M22.4,1.2L22.4,1.2c0.1,0,0.2,0,0.2,0C22.6,1.2,22.5,1.2,22.4,1.2z M21.4,0.9           C21.5,1,21.7,1,21.9,1c0,0.1,0,0.2-0.1,0.2C21.8,1.2,21.6,1,21.4,0.9z M22.9,3.4c-0.1,0-0.2-0.1-0.2-0.1           C22.8,3.2,22.9,3.3,22.9,3.4L23,3.2C23,3.3,22.9,3.3,22.9,3.4z"/>
									<path fill="#44ABF1" d="M23.3,3.1C23.3,3.1,23.3,3.1,23.3,3.1C23.3,3.1,23.3,3,23.3,3.1L23.3,3.1L23.3,3.1z"/>
									<path fill="#44ABF1" d="M27.1,35.7L27.1,35.7C27.1,35.7,27.1,35.7,27.1,35.7C27.1,35.7,27.1,35.7,27.1,35.7z"/>
									<polygon fill="#44ABF1" points="7.7,3.3 7.8,3.4 7.8,3.3          "/>
									<path fill="#44ABF1" d="M30.6,31.6C30.7,31.6,30.7,31.6,30.6,31.6C30.7,31.5,30.7,31.5,30.6,31.6z"/>
									<path fill="#44ABF1" d="M31.9,29.6l0.3-0.2C32,29.4,31.9,29.5,31.9,29.6z"/>
									<path fill="#44ABF1" d="M32.9,28.1C32.8,28.1,32.8,28,32.9,28.1L32.9,28.1L32.9,28.1z"/>
									<path fill="#44ABF1" d="M17.7,53C17.7,52.9,17.7,52.9,17.7,53C17.5,52.7,17.6,52.9,17.7,53z"/>
									<path fill="#44ABF1" d="M22.6,45.1c0,0.1,0,0.2,0,0.3C22.6,45.3,22.7,45.2,22.6,45.1z"/>
									<polygon fill="#44ABF1" points="11.9,43.8 11.9,43.8 11.9,43.7          "/>
									<path fill="#44ABF1" d="M22.3,45.8c0.1-0.1,0.2-0.2,0.2-0.3C22.5,45.5,22.4,45.6,22.3,45.8z"/>
									<path fill="#44ABF1" d="M35.7,20.7L35.7,20.7c0-0.1,0-0.1,0-0.1L35.7,20.7z"/>
									<path fill="#44ABF1" d="M35.7,20.5l0-0.1C35.6,20.5,35.6,20.5,35.7,20.5z"/>
									<path fill="#44ABF1" d="M35.6,20.2l0,0.2C35.7,20.4,35.7,20.3,35.6,20.2z"/>
									<path fill="#44ABF1" d="M35.1,23L35.1,23C35.1,23.1,35.1,23.1,35.1,23z"/>
									<path fill="#44ABF1" d="M34.9,23.8c0.1-0.2,0.3-0.4,0.3-0.6l-0.1,0C35.3,23.3,34.8,23.5,34.9,23.8z"/>
									<path fill="#44ABF1" d="M32.6,26.1c0,0,0.1-0.1,0.2-0.2c0.1-0.1,0.1-0.2,0.1-0.2c-0.1,0.1-0.3,0.1-0.3-0.1           C32.1,25.9,33,25.5,32.6,26.1z"/>
									<path fill="#44ABF1" d="M31.5,27.6c0.1-0.3-0.1-0.1-0.2-0.1C31.3,27.7,31.3,27.7,31.5,27.6z"/>
									<path fill="#44ABF1" d="M24.8,39.2l-0.2-0.2C24.5,39.3,24.7,39.1,24.8,39.2z"/>
									<polygon fill="#44ABF1" points="24.6,42.1 24.9,42 24.8,41.8          "/>
									<polygon fill="#44ABF1" points="22.3,42.5 22.3,42.4 22.2,42.8          "/>
									<path fill="#44ABF1" d="M12.7,40.2l-0.2,0.2C12.6,40.6,12.9,40.4,12.7,40.2z"/>
									<path fill="#44ABF1" d="M7.4,32.1c0.1-0.2,0-0.5-0.2-0.5C7.3,31.7,7.3,32,7.4,32.1z"/>
									<polygon fill="#44ABF1" points="7.4,6.9 7.3,7.1 7.5,6.8          "/>
								</g>
							</g>
						</g>
					</g>
				</g>
				<g>
					<circle fill-rule="evenodd" clip-rule="evenodd" fill="#F2F2F2" cx="18" cy="18.6" r="12.7"/>
					<g>
						<g>
							<g>
								<g>
									<path fill="#44ABF1" d="M30,18.6c0.1,0,0.3,0,0.2-0.1l-0.3-0.1L30,18.6z"/>
									<path fill="#44ABF1" d="M30.6,17.8c-0.2-0.1-0.5-0.3-0.8-0.1c0.3,0.1,0.2,0.1,0.6,0.3c0,0.1-0.1,0.2-0.2,0.2           c0.1,0-0.1,0.2,0.1,0.2c0.3-0.2,0.3-0.3,0-0.5C30.5,17.7,30.5,17.8,30.6,17.8z"/>
									<path fill="#44ABF1" d="M25.6,7.9L25.6,7.9C25.7,7.9,25.7,7.9,25.6,7.9z"/>
									<path fill="#44ABF1" d="M18.9,5.3C19,5.3,19,5.3,18.9,5.3C19,5.3,18.9,5.3,18.9,5.3z"/>
									<path fill="#44ABF1" d="M17.7,4.9C17.7,4.9,17.7,4.9,17.7,4.9C17.7,4.9,17.7,4.9,17.7,4.9z"/>
									<path fill="#44ABF1" d="M25.6,7.9l-0.1-0.2C25.5,7.8,25.6,7.8,25.6,7.9z"/>
									<path fill="#44ABF1" d="M29.6,16.4c0,0,0.1,0.1,0.1,0.1C29.7,16.5,29.7,16.4,29.6,16.4L29.6,16.4z"/>
									<path fill="#44ABF1" d="M28.2,9.8L28.2,9.8c0.1,0,0.1,0,0.2,0L28.2,9.8z"/>
									<path fill="#44ABF1" d="M29.7,11.9c0-0.1-0.3,0.1-0.4,0.1c0.1,0,0.2,0,0.2,0C29.6,12,29.6,11.9,29.7,11.9z"/>
									<path fill="#44ABF1" d="M30.7,15.7L30.7,15.7C30.7,15.7,30.7,15.7,30.7,15.7z"/>
									<path fill="#44ABF1" d="M27,8.5C27,8.5,27,8.5,27,8.5C27,8.5,27,8.5,27,8.5z"/>
									<path fill="#44ABF1" d="M29.1,21C29.1,21,29.1,21,29.1,21C29.1,21,29.1,21,29.1,21z"/>
									<polygon fill="#44ABF1" points="30.8,18.6 30.8,18.6 30.9,18.6          "/>
									<path fill="#44ABF1" d="M15.3,4.8C15.3,4.8,15.3,4.8,15.3,4.8C15.3,4.8,15.3,4.8,15.3,4.8z"/>
									<path fill="#44ABF1" d="M4.5,21.5c0.2-0.3,0.4,0.3,0.6-0.1C5,21.4,4.6,21.2,4.5,21.5z"/>
									<path fill="#44ABF1" d="M29.7,16.3C29.6,16.3,29.6,16.3,29.7,16.3C29.6,16.3,29.6,16.3,29.7,16.3z"/>
									<path fill="#44ABF1" d="M5.1,21.4L5.1,21.4L5.1,21.4C5.1,21.4,5.1,21.4,5.1,21.4z"/>
									<path fill="#44ABF1" d="M10.2,7.1c0,0,0.1,0.1,0.1,0.1C10.3,7.1,10.3,7.1,10.2,7.1z"/>
									<path fill="#44ABF1" d="M14,5.7l-0.1,0C14,5.7,14,5.7,14,5.7z"/>
									<path fill="#44ABF1" d="M8.9,8.7c-0.1,0-0.1,0-0.1,0.1C8.8,8.8,8.8,8.8,8.9,8.7C8.8,8.8,8.8,8.7,8.9,8.7z"/>
									<path fill="#44ABF1" d="M7.4,10.3C7.4,10.3,7.5,10.3,7.4,10.3L7.4,10.3L7.4,10.3z"/>
									<path fill="#44ABF1" d="M26.8,26c0.1,0,0.2,0.1,0.3,0.1C26.9,26,27,25.7,26.8,26z"/>
									<path fill="#44ABF1" d="M29.8,16.4c-0.1,0-0.1,0-0.1,0c0,0,0,0,0,0.1C29.7,16.4,29.8,16.4,29.8,16.4z"/>
									<path fill="#44ABF1" d="M10.3,10.4l-0.2,0.2C10.2,10.5,10.3,10.5,10.3,10.4z"/>
									<path fill="#44ABF1" d="M14.9,29.6L14.9,29.6C14.9,29.6,14.9,29.6,14.9,29.6z"/>
									<path fill="#44ABF1" d="M9.6,11.2c-0.1,0-0.2,0-0.3,0c0,0,0,0,0,0.1L9.6,11.2z"/>
									<path fill="#44ABF1" d="M27,26.1L27,26.1L27,26.1z"/>
									<path fill="#44ABF1" d="M27.6,24.1c-0.1,0.2,0.2,0.3,0.4,0.5c-0.1,0.3-0.3,0-0.5,0c0,0.2,0.2,0.6,0.1,0.7           c-0.1,0-0.1,0-0.1-0.1c0.1,0.3-0.4,0.5-0.2,1c0,0-0.1,0-0.1,0c0.2,0.1,0.3,0.2,0.4,0.3c-0.1,0.1,0,0.3-0.2,0.2           c0.1-0.1,0-0.1,0-0.2l0,0.2c-0.3-0.1,0-0.2-0.2-0.4c-0.1,0.3-0.1,0.7-0.3,0.8c-0.3-0.2,0.2-0.4-0.2-0.4l0.3-0.1           c-0.6-0.2,0.2-0.1-0.4-0.3c-0.3,0.2-0.2,0.5-0.5,0.7c0.1,0.2,0.2,0.2,0.3,0.4c-0.2,0.6-0.9-0.3-0.9,0.3           c0.1,0.2,0.3,0.6-0.1,0.6l-0.2-0.4c-0.3,0.2,0.2,0.6-0.3,0.6c0-0.2,0.2-0.3,0.1-0.3c-0.4-0.1,0,0.3-0.2,0.4l-0.2-0.3           c-0.3,0.2-0.6,0.7-1,1c0-0.1,0-0.2-0.1-0.3c-0.2,0.2-0.5,0.3-0.8,0.4c-0.3,0-0.6,0.1-0.9,0.1l-0.1,0.4c0,0-0.1-0.1-0.1-0.2           c-0.2-0.1,0,0.2,0,0.3c-0.1,0.1-0.2-0.1-0.2-0.2c-0.3,0.3-0.9,0.8-1.4,0.5l0.1-0.1c-0.3-0.1-0.3,0.7-0.6,0.4l0.1-0.1           c-0.7-0.1-1.5,0.2-2-0.3c-0.1,0.4-0.7-0.2-0.8,0.3c-0.4-0.4-0.2-0.4-0.7-0.7c-0.1,0-0.3,0.3-0.5,0.3l0.1-0.3l-0.3,0.3           l0-0.4l-0.2,0c0.1,0,0.1,0.2,0.1,0.3c-0.3,0.1-0.6-0.4-0.5-0.5l-0.7,0c0.1-0.1,0.2-0.1,0.3-0.2c-0.4,0.2,0.1-0.3-0.3-0.2           c0,0.1-0.1,0.2-0.1,0.2c-0.1-0.2-0.4-0.4-0.6-0.4l0.1-0.2c-0.4-0.2-0.9-0.4-1.3-0.6c0.1,0.2-0.1,0.5-0.3,0.4l0.1-0.3           c-0.2,0.1,0.1,0.2-0.2,0.3c-0.1-0.1,0.1-0.4,0.3-0.4l-0.3,0c0-0.1,0.1-0.1,0.2-0.2c-0.2,0.1-0.1-0.5-0.4-0.3l0-0.1           c-0.4-0.3-0.6-0.4-1-0.6c-0.2,0.2-0.3,0-0.5,0.1c-0.1-0.3-0.2-0.7-0.5-1C9,25.8,9,26,8.8,26C9,25.8,8.8,25.5,9,25.6           c-0.3-0.3-0.4-0.4-0.9-0.8C8.1,24.9,8.1,25,8,25c-0.1-0.1,0-0.3,0.1-0.3l0,0c-0.3-0.2-0.4-0.6-0.4-1c0-0.4,0-0.7-0.3-0.9           l0,0L7,22.4c0-0.2,0.2,0.1,0.3-0.1c-0.6-0.4-0.2-0.9-0.6-1.2c0.3-0.3,0.3-0.6,0.2-0.9c-0.1-0.3-0.2-0.7,0-0.9l-0.2,0           c-0.2-0.1,0.1-0.2,0.1-0.2c-0.1,0-0.2,0.1-0.3,0.1C6.3,18,6.9,16.9,7.4,16c0.1-0.4-0.8-0.5-0.3-0.8l0.3,0.2           c-0.1-0.4,0.1-0.8,0.2-1.2C7.7,13.8,7.9,13.5,8,13c0,0.1,0.1,0.1,0.1,0.2c0.3,0,0.3-0.5,0.2-0.6c0.1-0.1,0.2,0.1,0.3,0.1           c0.2-0.1-0.1-0.5,0.2-0.5c0,0,0,0.1,0,0.1c0-0.2,0.3-0.4,0-0.5c0.3-0.2,0.2-0.5,0.5-0.6c-0.1-0.3,0.5-0.3,0.2-0.6           c0.3,0.3,0.6-0.1,0.6-0.4c0,0.1,0.2,0,0.3,0.2c0.2-0.1,0.2-0.3,0.1-0.5c0.6,0.1,0.3-0.8,0.9-0.4c0.2-0.3,0.4-0.6,0.6-0.8           c0.2-0.2,0.4-0.5,0.7-0.6c0.2,0.4-0.5,0.4-0.3,0.8c0.3-0.5,0.5-0.9,1-1.1c0.2,0,0,0.2,0,0.3c0.4-0.4,1-0.3,1.4-0.7           c0,0,0,0.1-0.1,0.1c0.1,0,0.2,0,0.2-0.2l-0.1,0.1C14.5,7.1,15,6.7,15,6.5c0,0.6,0.5,0,0.4,0.8c0.1-0.1,0.1-0.2,0.1-0.3           c0.1,0,0.1,0.1,0.1,0.3c0.3-0.2,0.2-0.4,0.5-0.4C16,7,16,7,16,7.2c0.1-0.2,0.3-0.4,0.5-0.4c0,0.1,0,0.1,0,0.1           c0.4-0.1,0.7-0.6,1.3-0.4c-0.1,0.4,0.2,0.1,0.2,0.5c0,0,0.3-0.1,0.3-0.1l-0.1-0.2c0.2,0,0.5-0.2,0.7-0.1l-0.2,0.1l0.5,0           l-0.2-0.2c0.3-0.2,0-0.5,0.3-0.4c-0.1,0,0.3,0,0.4,0.3l0,0c0.1-0.1,0.3-0.2,0.4-0.1c0,0.1-0.1,0.4-0.1,0.5           c0.2-0.3,0.6,0,0.8-0.3c-0.1,0.1-0.1,0.3-0.1,0.3l0.2-0.2c0.1,0.1,0.1,0.2,0,0.3c0.3,0.1,0-0.5,0.3-0.2c0,0,0,0.1-0.1,0.1           c0.4,0.2,0.8,0,1.1,0.3c0,0.4-0.3,0-0.3,0.3c0.5,0.1,1.2-0.1,1.6,0.3l-0.1-0.1c0.3-0.4,0.2,0.4,0.6,0.3           c-0.1,0-0.2,0.2-0.2,0.2c0.3,0.3,0.7,0.2,1.2,0.4l-0.1,0.1c0.1,0.2,0.4,0.4,0.5,0.6c0.1-0.1,0.2,0,0.3-0.2           c0,0.5,0.3,0.7,0.7,0.8c0.3,0.1,0.6,0.3,0.6,0.7c-0.1-0.1-0.2,0-0.2,0l0.4,0.3c0.1-0.2,0.1-0.1,0.1-0.3           c0.1,0,0.3,0,0.4,0.1c-0.3-0.1-0.3,0.2-0.3,0.4c0-0.1,0.1-0.1,0.2-0.1C27.4,11.3,28,10.5,28,11l-0.1,0.1           c0.1,0.1,0.3,0.1,0.4,0.2c-0.2,0.2-0.2-0.1-0.4,0.1c0.1,0.2,0.7,0,0.6,0.4c-0.1,0-0.2-0.2-0.3-0.2c-0.1,0.3-0.1,0.3,0,0.5           l0,0l0.1,0.4l0-0.1c0.7-0.1,0.4,0.4,1,0.5c-0.5-0.1-0.2,0.1-0.5,0.2c0,0.1-0.1,0.3-0.2,0.3c0.3,0-0.1,0.3,0.4,0.4           c-0.1,0,0.1,0.2-0.2,0.2c0.2,0.2,0.1-0.1,0.3-0.1c0.5,0.2-0.1,0.9,0.5,1.2c0.3,0.3,0.6,0.3,0.9,0.7c-0.1,0.2-0.4,0-0.4,0           c-0.1,0.2,0,0.4,0.1,0.6c-0.1,0-0.2,0-0.3,0.1c0,0.2,0.4,0,0.3,0.3c-0.1,0-0.3,0-0.4-0.1c0.1,0.2,0.3,0.3,0.4,0.5           c-0.2,0.1-0.3-0.1-0.4-0.1c0.1,0.2,0.2,0.5,0.5,0.6l0.1-0.2c0,0.1-0.2,0.1-0.3,0c-0.2-0.2,0.1-0.3,0.1-0.3l0.1,0.1           c0.6-0.2-0.2-0.6-0.2-0.8l0.4,0l-0.4-0.2c0.1-0.1,0.3-0.2,0.4,0c0.2-0.3-0.2-0.2,0-0.4c0,0,0.1,0,0.1,0l-0.2-0.2           c0.1,0,0.3-0.1,0.3,0c0.1-0.4-0.5-0.5-0.2-0.7l0,0c-0.3-0.5-0.3,0-0.8-0.2l0.6-0.5l-0.3,0.1c0-0.1,0-0.2,0.1-0.2           c-0.3-0.1-0.1,0.1-0.3,0c0.2-0.4-0.4-0.6,0-0.9c-0.3,0-0.1,0.3-0.3,0.1c0.4-0.3-0.2-0.2-0.1-0.6c0.3-0.1,0.2,0.2,0.4-0.1           c-0.5,0.1-0.1-0.5-0.3-0.6c-0.3,0.2-0.4-0.3-0.6-0.5c0.1-0.1-0.2-0.6-0.3-1l0.1,0c-0.3,0.2-0.5-0.1-0.7-0.3           c0.2-0.1,0.3-0.2,0.4-0.1c0,0-0.2-0.2-0.2-0.2c-0.1,0-0.2,0-0.4-0.1l0.2-0.1c-0.2-0.2-0.6-0.2-0.8-0.6           c-0.2,0.2-0.3,0.7-0.7,0.6c0.1-0.1,0.2-0.3,0.4-0.3c0,0-0.2,0-0.2-0.1l0.3-0.1c-0.1-0.2-0.2,0.1-0.3,0C27,9,26.8,9,27,8.9           c0,0,0,0.1,0.1,0.1C27,8.9,26.9,8.7,27,8.5c-0.1,0.1-0.2,0.2-0.3,0.1c-0.2-0.2,0.1-0.3,0-0.4c-0.1,0.1-0.2-0.2-0.4,0.1           c-0.1-0.1,0-0.2,0-0.3c-0.2,0-0.6-0.4-0.7,0l0,0c0,0,0,0,0,0l0,0l0,0c-0.6-0.1-0.8-0.7-1.3-0.9l0-0.1           c-0.3-0.1-0.6-0.2-0.9-0.1c-0.1,0-0.1-0.3,0-0.3c-0.2,0-0.3,0-0.6-0.2c0.3-0.1,0-0.2,0.3,0C23,6.1,23,5.9,22.6,6.1           c0.2-0.2-0.1-0.4-0.3-0.4L22.4,6c-0.2,0-0.3-0.1-0.4-0.2l0.2-0.3c-0.5-0.6-1.3,0.4-1.6-0.4c-0.2,0.2,0.3,0.2,0.1,0.5           C20.4,5.5,20.2,5,20.1,5c-0.4-0.2-0.4,0.4-0.8,0.3c0,0.1,0.1,0.4-0.2,0.5c-0.3-0.1-0.3-0.5-0.1-0.6c0.1,0,0.1,0,0.1,0.1           c0.1,0,0.2-0.1,0.1-0.2l0,0.1C19,5,18.5,5,18.7,4.8c-0.2,0.1-0.1,0.2,0.1,0.3c-0.4-0.2-0.6-0.1-1-0.1           c0.1,0.1,0.1,0.2,0.1,0.2c-0.6-0.1-0.2,0.2-0.6,0.3c-0.2-0.2,0-0.4-0.3-0.3c-0.2-0.1-0.1-0.3,0-0.4C16.5,5,16.2,4.7,16,4.7           l0.2-0.1c-0.1,0.1-0.2,0.1-0.3,0.1L16,4.9c-0.1,0-0.2,0-0.2-0.1c-0.1,0.2,0.1,0.4,0,0.6c-0.2-0.1-0.4,0.2-0.5-0.1           c0.5,0-0.1-0.3,0.3-0.4c-0.1,0-0.2,0.1-0.3,0c0,0,0-0.1,0-0.1c-0.5-0.2-0.1,0.4-0.6,0.5c0-0.2-0.2-0.3-0.3-0.2           c0.2,0,0.2,0.3,0,0.4c-0.3-0.1-0.3,0.2-0.4,0.2l0.2,0c0,0.2-0.1,0.2-0.3,0.3c-0.1-0.1,0.1-0.2,0.1-0.2           c-0.1,0.4-0.6-0.1-0.8,0.2C13,6,13,5.7,12.9,5.7c-0.2,0.3-0.5-0.1-0.7,0.3c0.2,0.2,0.2,0.1,0.1,0.4L12.7,6l-0.2,0.5           c0.2-0.1,0.3-0.3,0.4-0.3c-0.1,0.2-0.1,0.2,0.1,0.3c-0.4-0.2-0.3,0.4-0.7,0.3L12,6.2c-0.5-0.1-0.5,0.6-1.1,0.8l0.2,0           c0.1,0.2-0.3,0.2-0.4,0.4c-0.1-0.2-0.2-0.2-0.4-0.2c0.1,0.1-0.3,0.2-0.1,0.6L9.8,7.7c-0.4,0.2-0.1,0.7-0.4,1           c0-0.3-0.3-0.2-0.2-0.5C9.2,8.2,9,8.3,9.1,8.4C9,8.4,9,8.9,8.8,8.8c0,0.1,0.1,0.3,0,0.4c0,0-0.1-0.1-0.1-0.1           c0.1,0.1-0.1,0.3,0.2,0.3c-0.7-0.1-0.8,0.9-1.4,0.9C7.3,10.6,7.2,11,7,11.2c0,0-0.1-0.1,0-0.1c-0.4,0.2,0.4,0.5,0,0.8           c-0.4,0,0-0.3-0.2-0.2c-0.6-0.3-0.2,0.5-0.7,0.6l0-0.1c-0.3,0.1,0,0.6-0.2,0.9c0,0,0,0-0.1,0c0.2,0.4,0.1,0.9,0.1,1.2           c-0.2-0.2-0.1-0.2-0.3-0.2c0,0.2,0.4,0.1,0.4,0.4c-0.2,0.1-0.4,0.2-0.6,0.2c0,0,0.1-0.3,0.1-0.3c-0.4,0-0.1,0.4-0.2,0.5           L5,14.8c-0.1,0.5,0.3,0.6,0.2,1.1l0.1,0c0.3,0.3-0.3,0.2,0,0.5l-0.4,0c0.1,0.2,0.3,0.7,0.3,1c-0.3-0.2-0.4-0.6-0.5-0.9           c0,0.2-0.1,0.6,0.1,0.7c0-0.1-0.1-0.2,0-0.2c0.3,0.3,0.4,0.5,0.4,0.9c-0.8-0.1-0.3,0.9-0.8,1.2c0.2,0.3,0.1,0.6,0.1,1           c0,0.3,0,0.7,0,1.1c0.6-0.4,0.1,0.2,0.7,0.1c0.1,0.2,0.1,0.2,0,0.2L4.9,22c-0.1,0.2-0.2-0.1-0.3-0.1           c0.1,0.4-0.2,0.2-0.3,0.5c0.2-0.1,0.3,0,0.3,0.3l0.2-0.4c0.4,0.4-0.4,0.6,0.1,1l-0.2-0.1c0.2,0.2,0.4,1,1,1           c0,0.1-0.2,0.2-0.3,0.1c0.2,0.7,1.2,1.1,1.2,1.7l-0.2,0c0.1,0.1,0.3,0,0.3,0.2c-0.1,0-0.2,0-0.1,0.1c0.1,0,0.4,0.1,0.4,0.3           l-0.2,0c0.2,0.7,0.9,0.5,1.4,0.9c-0.3,0.3-0.1,0.8,0.1,1l-0.1,0c0.5,0.6,1.2,0.6,1.9,0.9c0.1,0.7,1.1,1,1.6,1.5           c-0.1-0.1,0.2-0.3,0.3-0.3c0.1,0.2,0.5-0.1,0.3,0.3l0,0c-0.1,0.4,0.3,0.5,0.6,0.6l0.2-0.5c0.2,0.5,0.6,0.6,1.1,0.6           c0.4,0,0.8,0,0.9,0.4c0.2-0.1,0.4-0.1,0.6-0.2l-0.1,0.3c0.5,0.1,0.7,0.2,1.3,0.2l-0.1,0.2c0.3,0,0.5-0.8,0.8-0.8l0.1,0.4           c0.6,0,1.2,0.4,1.7-0.1c0,0.1,0,0.2-0.1,0.2c0.3,0,1.1,0.2,0.9-0.4c0.1,0.4,0.6,0,0.8-0.3l0,0.3c0.2-0.4,0.2-0.5,0.5-0.7           c0.1,0,0.1,0.2,0,0.2c0.3,0.1,0.1-0.3,0.5-0.2l-0.1,0.2c0.3-0.1,0.2-0.1,0.3-0.4c0.1-0.2,0.5-0.1,0.6,0.1           c0-0.2,0.1-0.4,0.2-0.4c0.1,0.1,0,0.2,0,0.2c0.5,0,0.5-0.6,0.9-0.5c0,0.1,0.1,0.1,0.1,0.1c-0.3,0.2-0.6,0.3-0.6,0.2           c0.1,0.2,0.4,0.1,0.3,0.6c0.2-0.3,0.4-0.9,0.7-0.9c0,0,0,0,0.1,0.1l0,0c0.1,0,0.1-0.1,0.2-0.1c0.1,0,0.2,0,0.3-0.1           c0.1,0.2,0.4-0.1,0.5-0.2c-0.2-0.2,0-0.3-0.2-0.4c0,0,0,0-0.1,0.1c0,0,0,0,0,0.1l0,0c-0.1,0.1-0.2,0.1-0.3,0.2           c0-0.2,0.1-0.4,0.3-0.3c0-0.2-0.1-0.4-0.1-0.5c0.4,0.2,0.8,0.2,1,0.4c0.3-0.4,0.9-0.7,0.7-1.4c0.1-0.1,0.2,0,0.3,0           c0,0.1-0.1,0.1-0.1,0.2c0.1-0.3,0.5-0.6,0.3-0.9c0.4-0.1,0.1,0.4,0.4,0l0,0.1c0.5-0.1,0.6-0.6,0.7-1c0.1-0.4,0.1-0.8,0.7-1           c-0.1,0-0.1,0-0.2,0c0.9-0.8,0.9-2.1,1.8-2.9c0.2-0.3,0-0.4-0.1-0.6l0.3,0l-0.3-0.4c-0.2-0.5,1-0.6,0.6-1.3l-0.2,0           c0.1-0.2,0-0.7,0.2-0.6c0,0-0.2-0.1-0.1-0.2l0.2,0c0,0-0.1-0.1-0.1-0.3C31,19.7,31,19.6,31,19.6c0.1-0.4,0.6,0.1,0.7-0.5           c-0.1-0.2-0.4-0.6-0.5-0.6c0,0.1-0.1,0.2-0.3,0.2l-0.1-0.2c-0.5,0-0.9-0.2-1.3,0.3l0.3,0.3l-0.2,0.1l0-0.3           c-0.2,0.1,0,0.2,0.1,0.3c-0.1,0-0.2,0.1-0.3,0.1l0.4,0.3c-0.2,0-0.3-0.2-0.5,0c0.2,0.2,0.4-0.1,0.5,0.2           c-0.2,0.1-0.4,0.1-0.2,0.2c-0.1,0-0.2,0-0.2-0.1c0.1,0.2,0,0.4,0.2,0.5c-0.3,0.1,0,0.5-0.5,0.4c0.1,0.1,0.3,0.3,0.3,0.5           c-0.5-0.4-0.2,0.5-0.7,0.3c0.4,0.3,0,0.7,0.1,1.1c0,0-0.1-0.1-0.1-0.1c-0.1,0.2-0.3,0.2-0.4,0.2c0.4,0.2,0.3,0.5,0.5,0.7           c-0.4,0-0.4-0.3-0.7-0.4c0.3,0.1,0.1,0.5,0.4,0.5c-0.3,0.1-0.2,0.1-0.5,0c0.4,0.3,0,0.2,0.2,0.5c-0.3,0.1-0.4-0.2-0.4,0.1           C27.6,24.4,27.6,24.1,27.6,24.1z M23.5,29.1L23.5,29.1c0,0,0.1-0.1,0.1-0.1C23.6,29.1,23.6,29.1,23.5,29.1z M23,29.4           c0.1,0,0.1-0.1,0.2-0.1c0.1,0.1,0.1,0.2,0,0.2C23.3,29.4,23.1,29.4,23,29.4z M25.1,30.5c-0.1,0.1-0.1,0.1-0.2,0           c0,0,0.1-0.1,0.1-0.1l0,0C25,30.4,25.1,30.5,25.1,30.5z"/>
									<path fill="#44ABF1" d="M25,30.1C25,30.1,25,30.1,25,30.1C25,30.1,25,30,25,30.1L25,30.1L25,30.1z"/>
									<path fill="#44ABF1" d="M25.7,8L25.7,8C25.7,8,25.7,8,25.7,8C25.7,8,25.7,8,25.7,8z"/>
									<polygon fill="#44ABF1" points="15.5,29.6 15.5,29.7 15.5,29.6          "/>
									<path fill="#44ABF1" d="M27.4,10.9C27.4,10.9,27.4,11,27.4,10.9C27.4,11,27.4,11,27.4,10.9z"/>
									<path fill="#44ABF1" d="M28.2,12.1l0,0.2C28.2,12.2,28.2,12.1,28.2,12.1z"/>
									<path fill="#44ABF1" d="M28.6,13c0,0,0.1,0,0.1,0l0,0L28.6,13z"/>
									<path fill="#44ABF1" d="M14.7,7.5C14.7,7.5,14.7,7.5,14.7,7.5C14.6,7.6,14.6,7.6,14.7,7.5z"/>
									<path fill="#44ABF1" d="M19.5,6.4c-0.1,0-0.1,0.1-0.2,0.1C19.4,6.6,19.4,6.6,19.5,6.4z"/>
									<polygon fill="#44ABF1" points="10.4,10.4 10.4,10.4 10.3,10.4          "/>
									<path fill="#44ABF1" d="M19.1,6.5c0.1,0.1,0.2,0.1,0.2,0C19.2,6.5,19.1,6.5,19.1,6.5z"/>
									<path fill="#44ABF1" d="M29.7,17.3L29.7,17.3C29.8,17.4,29.8,17.4,29.7,17.3L29.7,17.3z"/>
									<path fill="#44ABF1" d="M29.8,17.4L29.8,17.4C29.8,17.4,29.8,17.4,29.8,17.4z"/>
									<path fill="#44ABF1" d="M29.9,17.5l-0.1-0.1C29.8,17.5,29.8,17.5,29.9,17.5z"/>
									<path fill="#44ABF1" d="M29.6,15.9l-0.1,0C29.6,16,29.6,16,29.6,15.9z"/>
									<path fill="#44ABF1" d="M29.5,15.6c0,0.1-0.2,0.3-0.1,0.4l0.1,0C29.4,15.9,29.7,15.6,29.5,15.6z"/>
									<path fill="#44ABF1" d="M30.1,13.4l0.1,0.4c0.1-0.1,0.2-0.2,0.3-0.1C30.6,13.1,30.3,13.9,30.1,13.4z"/>
									<path fill="#44ABF1" d="M29.8,12.3c0.1,0.2,0.1-0.1,0.2-0.1C29.8,12.1,29.8,12.1,29.8,12.3z"/>
									<path fill="#44ABF1" d="M23.5,6.4l0.1-0.2C23.4,6.2,23.6,6.3,23.5,6.4z"/>
									<path fill="#44ABF1" d="M21.5,7.1l0.1,0.2l0.1-0.2C21.7,7.1,21.5,7.1,21.5,7.1z"/>
									<polygon fill="#44ABF1" points="21.1,5.1 21.1,5.1 20.8,5.1          "/>
									<path fill="#44ABF1" d="M7.4,9.9L7.7,10C7.8,9.9,7.5,9.7,7.4,9.9z"/>
									<path fill="#44ABF1" d="M5,15.8c-0.2,0-0.3,0.2-0.2,0.3C4.8,15.9,5,15.8,5,15.8z"/>
									<polygon fill="#44ABF1" points="13.2,31.6 13.1,31.7 13.3,31.7          "/>
								</g>
							</g>
						</g>
					</g>
				</g>
			</g>
		</g>
		<g>
			<g>
				<g>
					<g>
						<g>
							<g>
								<path fill="#44B6E6" d="M23.8,14.1c0,0-0.1,0.1-0.1,0.1L23.8,14.1L23.8,14.1z"/>
								<path fill="#44B6E6" d="M23.8,14.6c0.1,0,0.3,0,0.4-0.1C24,14.6,24,14.5,23.8,14.6c0-0.1,0-0.2,0.1-0.2c0,0,0-0.1-0.1-0.1          c-0.1,0.1,0,0.2,0.1,0.3C23.9,14.6,23.8,14.6,23.8,14.6z"/>
								<path fill="#44B6E6" d="M22.3,19.8L22.3,19.8C22.4,19.8,22.4,19.8,22.3,19.8z"/>
								<path fill="#44B6E6" d="M20.1,22.5C20.1,22.5,20.1,22.4,20.1,22.5C20.1,22.5,20.1,22.5,20.1,22.5z"/>
								<path fill="#44B6E6" d="M19.6,22.8C19.6,22.8,19.6,22.8,19.6,22.8C19.6,22.8,19.6,22.8,19.6,22.8z"/>
								<path fill="#44B6E6" d="M22.3,19.8L22.3,19.8C22.3,19.9,22.3,19.8,22.3,19.8z"/>
								<path fill="#44B6E6" d="M24.4,15.3C24.4,15.3,24.4,15.3,24.4,15.3L24.4,15.3L24.4,15.3z"/>
								<path fill="#44B6E6" d="M23,18.4L23,18.4C23,18.4,23,18.4,23,18.4L23,18.4z"/>
								<path fill="#44B6E6" d="M23.4,17.4c0,0,0.1,0.1,0.2,0.1C23.5,17.5,23.5,17.4,23.4,17.4C23.5,17.4,23.5,17.4,23.4,17.4z"/>
								<path fill="#44B6E6" d="M23.9,15.7L23.9,15.7L23.9,15.7z"/>
								<path fill="#44B6E6" d="M22.6,19.2C22.6,19.1,22.5,19.1,22.6,19.2C22.5,19.1,22.6,19.1,22.6,19.2z"/>
								<path fill="#44B6E6" d="M22.9,12.8L22.9,12.8C22.9,12.8,22.9,12.8,22.9,12.8z"/>
								<polygon fill="#44B6E6" points="23.5,14.3 23.5,14.3 23.4,14.4         "/>
								<path fill="#44B6E6" d="M18.7,23.4L18.7,23.4C18.7,23.4,18.7,23.4,18.7,23.4z"/>
								<path fill="#44B6E6" d="M13.2,18.1c-0.1,0.2-0.2-0.1-0.3,0.1C12.9,18.2,13.1,18.3,13.2,18.1z"/>
								<path fill="#44B6E6" d="M24.4,15.3C24.4,15.4,24.4,15.4,24.4,15.3C24.4,15.4,24.4,15.4,24.4,15.3z"/>
								<polygon fill="#44B6E6" points="12.9,18.3 12.9,18.3 12.9,18.3         "/>
								<path fill="#44B6E6" d="M17.7,23.9C17.7,23.9,17.7,23.9,17.7,23.9C17.7,23.9,17.7,23.9,17.7,23.9z"/>
								<path fill="#44B6E6" d="M18.4,24.1L18.4,24.1C18.4,24.1,18.4,24.1,18.4,24.1z"/>
								<path fill="#44B6E6" d="M16.9,23.3C16.9,23.3,16.9,23.3,16.9,23.3L16.9,23.3C16.9,23.3,16.9,23.3,16.9,23.3z"/>
								<polygon fill="#44B6E6" points="16.2,22.6 16.2,22.6 16.2,22.7         "/>
								<path fill="#44B6E6" d="M19.4,13.4c0,0,0.1,0,0.1,0.1C19.4,13.4,19.5,13.2,19.4,13.4z"/>
								<path fill="#44B6E6" d="M24.4,15.3C24.4,15.3,24.4,15.3,24.4,15.3L24.4,15.3C24.4,15.3,24.4,15.3,24.4,15.3z"/>
								<path fill="#44B6E6" d="M16.1,24.1L16,24C16,24,16,24,16.1,24.1z"/>
								<path fill="#44B6E6" d="M14.7,12.5L14.7,12.5C14.7,12.4,14.7,12.4,14.7,12.5z"/>
								<path fill="#44B6E6" d="M15.6,23.6c0-0.1,0-0.1,0-0.1c0,0,0,0,0,0L15.6,23.6z"/>
								<path fill="#44B6E6" d="M19.5,13.4L19.5,13.4L19.5,13.4z"/>
								<path fill="#44B6E6" d="M20.4,12.5c-0.2,0.1,0,0.2,0,0.3c-0.2,0.1-0.1-0.1-0.3-0.1C20,12.8,20,13,19.9,13c0,0,0,0,0-0.1          c0,0.2-0.3,0.2-0.3,0.5c0,0,0,0,0,0c0.1,0.1,0.1,0.1,0.2,0.2c-0.1,0.1,0,0.2-0.1,0.1c0,0,0-0.1,0-0.1l0,0.1          c-0.2-0.1,0-0.1,0-0.2c-0.1,0.1-0.1,0.4-0.2,0.4c-0.1-0.1,0.2-0.2-0.1-0.2l0.2-0.1c-0.3-0.1,0.1-0.1-0.2-0.2          c-0.2,0.1-0.2,0.2-0.3,0.4c0,0.1,0.1,0.1,0.1,0.2c-0.1,0.4-0.5-0.1-0.5,0.2c0,0.1,0.2,0.3,0,0.3l-0.1-0.2          c-0.1,0.1,0.1,0.3-0.1,0.3c0,0,0-0.1,0-0.1c0,0,0-0.1,0,0c-0.2,0,0.1,0.1,0,0.2l-0.1-0.1c0,0.1,0,0.3-0.1,0.4          c0-0.1,0-0.2,0-0.2c0,0,0,0.1,0,0.1c0-0.1-0.1-0.3-0.1-0.4c0,0-0.1,0.1-0.1,0.1c0,0,0-0.1,0.1-0.1c0-0.1-0.1,0.1-0.1,0.1          c0,0,0-0.1,0.1-0.1c0,0.1-0.2,0-0.3-0.2c-0.1-0.1-0.2-0.2-0.2-0.4l0.1,0c-0.1-0.2-0.4,0.1-0.4-0.2l0,0          c-0.2-0.3-0.7-0.5-0.8-0.9c-0.2,0.1-0.3-0.3-0.5-0.1c-0.2-0.2,0-0.3-0.4-0.5c-0.1,0-0.2,0.1-0.3,0.1l0-0.2          c0,0-0.2,0.1-0.2,0.1l-0.1-0.2l-0.1,0c0,0,0.1,0.1,0.1,0.1c-0.2,0-0.4-0.1-0.5-0.2c0,0-0.1,0.1-0.2,0.1          c-0.1,0.1-0.2,0.1-0.2,0.1c0-0.1,0.1-0.1,0.1-0.1c-0.2,0.2-0.1-0.2-0.3,0c0,0,0,0.1,0,0.1c-0.1,0-0.4,0.1-0.5,0.2l0-0.1          c-0.3,0.1-0.5,0.4-0.8,0.7c0.1-0.1,0.2,0.1,0.2,0.2l-0.1-0.1c0,0.1,0.1,0,0.1,0.1c-0.1,0.1-0.2-0.1-0.2-0.2l-0.1,0.2          c0,0,0-0.1-0.1-0.1c0,0.1-0.3,0.1-0.2,0.3l0,0c-0.2,0.2-0.3,0.5-0.4,0.7c0.1,0.1,0.1,0.2,0.1,0.3c-0.1,0.2-0.3,0.4-0.3,0.6          c0,0.2,0.1,0.1,0.2,0.2c-0.1,0-0.1,0.2-0.2,0.1c0,0.3,0,0.4,0.1,0.7c0,0,0.1-0.1,0.1-0.1c0,0.1,0,0.1-0.1,0.1l0,0          c0.2,0.4-0.2,1,0.1,1.2l0,0c0,0,0.1,0.1,0.1,0.1c0.1,0.1,0.1,0.1,0.1,0.1c0,0.1-0.1,0-0.2,0.1c0.3,0.2,0.2,0.5,0.4,0.7          c-0.2,0.4,0.4,0.7,0.3,1l0.1-0.1c0.1,0,0,0.1,0,0.2c0.1,0,0-0.1,0.1-0.1c0.4,0.5,0.6,1.1,0.9,1.7c0.1,0.2,0.4-0.2,0.5,0.2          l-0.2,0c0.4,0.2,0.6,0.7,1,1c0,0-0.1,0-0.1,0c0,0.2,0.2,0.3,0.3,0.2c0,0.1-0.1,0.1-0.1,0.1c0,0.1,0.3,0.1,0.2,0.2          c0,0,0,0-0.1,0c0.1,0,0.2,0.2,0.2,0.1c0.1,0.2,0.3,0.2,0.3,0.3c0.2,0,0.1,0.3,0.3,0.1C15.8,23.8,16,24,16.2,24          c-0.1,0,0,0.1-0.1,0.2c0.1,0.1,0.2,0.1,0.3,0c0,0.4,0.5,0.2,0.3,0.5c0.2,0.1,0.3,0.1,0.5,0.3c0.2,0.1,0.4,0.3,0.6,0.4          c-0.1,0.2-0.4-0.3-0.5-0.1c0.3,0.2,0.6,0.2,0.8,0.4c0.1-0.1,0.2-0.2,0.2-0.2c0.1,0,0,0.2-0.1,0.2c0.2-0.2,0.4-0.4,0.5-0.5          c0.2-0.2,0.3-0.3,0.3-0.4c0,0,0,0.1,0,0.1c0,0,0.1-0.1,0-0.1l0,0.1c-0.2,0-0.1-0.4-0.1-0.4c0.1,0.3,0.2-0.1,0.4,0.2          c0,0,0-0.1,0-0.1c0.1,0,0.1,0,0.1,0.1c0.1-0.2,0-0.2,0.1-0.3c0,0,0,0.1,0.1,0.1c0-0.1,0-0.3,0.1-0.3c0,0,0.1,0,0,0.1          c0.2-0.2,0.1-0.5,0.4-0.6c0.1,0.2,0.1,0,0.3,0.1l0.1-0.1l-0.1,0c0.1-0.1,0.1-0.3,0.2-0.3l0,0.1l0.1-0.2l-0.1,0.1          c0-0.2-0.2-0.1,0-0.2c0,0,0.1-0.1,0.2-0.1l0,0c0-0.1,0-0.2,0.1-0.2c0.1,0,0.1,0.2,0.2,0.2c-0.1-0.1,0.2-0.3,0.1-0.4          c0,0,0.1,0.1,0.1,0.1l-0.1-0.1c0.1,0,0.1,0,0.1,0c0.1-0.1-0.2-0.1,0-0.2c0,0,0,0,0,0.1c0.2-0.1,0.2-0.4,0.4-0.5          c0.2,0.1-0.1,0.2,0.1,0.2c0.2-0.2,0.2-0.6,0.4-0.8l0,0c-0.2-0.2,0.2-0.1,0.2-0.3c0,0,0.1,0.1,0.1,0.1          c0.1-0.1,0.2-0.4,0.3-0.6l0,0.1c0.1-0.1,0.2-0.2,0.3-0.3c0-0.1,0-0.1-0.1-0.1c0.5-0.1,0.2-0.7,0.6-0.8c0,0,0,0.1,0,0.1          l0.1-0.3c-0.1,0-0.1,0-0.2,0c0-0.1-0.1-0.2,0-0.2c0,0.1,0.2,0.1,0.3,0.1c0,0-0.1,0-0.1-0.1c0.3,0-0.2-0.1,0-0.2l0.1,0          c0-0.1,0-0.2,0-0.2c0.1,0,0,0.1,0.1,0.1c0-0.1-0.1-0.3,0-0.4c0,0.1,0,0.1,0,0.2c0.2,0,0.2-0.1,0.2-0.1l0,0l0.1-0.2l-0.1,0          c-0.3-0.3,0-0.3-0.1-0.6c0.2,0.2,0.1,0.1,0.3,0.1c0.1,0,0.1-0.1,0.2-0.1c-0.1-0.1,0.1-0.1,0-0.3c0,0,0-0.1,0.1-0.1          c0-0.1-0.1,0-0.1,0c-0.1-0.2,0.3-0.4,0.1-0.7c-0.1-0.2-0.2-0.3-0.4-0.5c0.1-0.1,0.2,0,0.2,0c0.1-0.1,0-0.2,0-0.3          c0,0,0.1,0,0.1-0.1c0-0.1-0.2,0-0.1-0.2c0.1,0,0.1,0,0.2,0c-0.1-0.1-0.2-0.2-0.3-0.3c0.1-0.1,0.1,0,0.2,0.1          c-0.1-0.1-0.2-0.3-0.3-0.3l0,0.1c0,0,0.1-0.1,0.1,0c0.1,0.1,0,0.2,0,0.2L24,14.9c-0.2,0.2,0.1,0.3,0.2,0.4l-0.2,0          c0,0,0.2,0.1,0.2,0.1c0,0-0.2,0.1-0.2,0c-0.1,0.1,0.1,0.1,0,0.2c0,0,0,0,0,0l0.1,0.1c0,0-0.1,0-0.1,0          c-0.1,0.2,0.2,0.3,0,0.4l0,0c0.1,0.3,0.2,0,0.3,0.2l-0.4,0.1l0.1,0c0,0,0,0.1-0.1,0.1c0.1,0.1,0.1,0,0.2,0.1          c-0.1,0.1,0,0.4-0.2,0.3c0.1,0.1,0.1-0.1,0.2,0.1c-0.3,0,0,0.2-0.1,0.2c-0.1-0.1,0-0.2-0.2-0.1c0.2,0.1-0.1,0.2-0.1,0.3          c0.2,0.1,0,0.2,0,0.4c0,0-0.2,0.2-0.3,0.4l0,0c0.2,0.1,0.1,0.2,0,0.4c-0.1-0.1-0.1-0.1-0.1-0.2l0,0.1c0,0,0.1,0.1,0,0.2          l-0.1-0.1c-0.1,0.1,0,0.3-0.2,0.4c0.1,0.1,0.4,0,0.4,0.3c-0.1,0-0.2-0.1-0.2-0.1c0,0,0,0.1,0,0.1L22.9,19          c-0.1,0,0.1,0.1,0,0.1c-0.1-0.1-0.1,0-0.1,0c0,0,0.1,0,0-0.1c-0.1,0.1-0.1,0.1-0.2,0.1c0.1,0,0.1,0.1,0.1,0.1          c-0.1,0.1-0.1,0-0.2,0c0,0.1-0.1,0.1,0.1,0.2c0,0-0.1,0-0.1,0c0,0.1-0.2,0.3,0,0.3l0,0l0,0l0,0l0,0c0,0.3-0.4,0.4-0.4,0.6          l0,0c0,0.2-0.2,0.3-0.1,0.4c0,0-0.1,0-0.2,0c0,0.1,0,0.2-0.2,0.2c0-0.1-0.1,0,0-0.1c-0.1,0.1-0.2,0.1-0.2,0.3          c-0.1-0.1-0.2,0-0.2,0.1l0.1,0c0,0.1-0.1,0.1-0.1,0.2L21,21.2c-0.3,0.1-0.1,0.6-0.5,0.6c0,0.1,0.2-0.1,0.2,0.1          c-0.1,0.1-0.4,0-0.4,0.1c-0.2,0.1,0.1,0.3-0.1,0.4c0.1,0,0.2,0.1,0.1,0.3c-0.1,0.1-0.3,0-0.3-0.1c0,0,0,0,0.1,0          c0,0,0-0.1-0.1-0.1l0,0.1c-0.1,0-0.2,0.1-0.3,0.1c0,0.1,0,0.1,0.1,0.1c-0.2,0.1-0.2,0.2-0.4,0.3c0,0,0.1,0,0.1,0.1          c-0.2,0.1,0,0.2-0.1,0.3c-0.1,0-0.1-0.2-0.2,0c-0.1,0-0.1-0.1-0.1-0.2c0,0.2-0.3,0.2-0.3,0.2l0-0.1c0,0.1,0,0.1-0.1,0.1          l0.1,0c-0.1,0-0.1,0.1-0.1,0c0,0.1,0.2,0.1,0.2,0.3c-0.1,0-0.1,0.2-0.2,0.1c0.2-0.1-0.1-0.1,0-0.2c0,0,0,0.1-0.1,0.1          c0,0,0,0,0,0c-0.2,0,0.1,0.2-0.1,0.3c0-0.1-0.2-0.1-0.2-0.1c0.1-0.1,0.1,0.1,0.1,0.2c-0.1,0-0.1,0.1-0.1,0.2l0.1,0          c0,0.1,0,0.1-0.1,0.2c-0.1,0,0-0.1,0-0.1c0,0.2-0.2,0-0.2,0.1c0,0-0.1-0.2-0.1-0.2c0,0.2-0.1-0.1-0.1,0c0,0.1,0,0.1,0,0.2          c0,0,0,0,0,0l0,0c0-0.1,0.1-0.1,0.1-0.2c0,0,0,0.3,0,0.3c0,0,0.1-0.2,0.1-0.2c0,0.1,0,0.1,0,0.2c-0.1-0.1-0.1,0.1-0.1,0.1          c0,0,0,0-0.1-0.1l0-0.4c0-0.2-0.1,0.1-0.2-0.1l0,0.1c-0.1,0.1-0.1-0.1-0.2-0.1c0.1-0.1,0.1-0.1,0.1-0.2c0,0.1-0.1-0.1-0.3,0          l0-0.2c-0.1-0.2-0.4,0-0.5-0.1c0.1,0,0.1-0.1,0.3-0.1c0,0-0.1-0.1-0.1-0.1c0-0.1-0.2,0-0.2-0.1c-0.1,0-0.1,0.1-0.2,0          c0,0,0,0,0,0c0,0-0.1,0-0.2,0.1c0.1-0.4-0.4-0.4-0.4-0.7c-0.1-0.1-0.3-0.2-0.4-0.3c0,0,0,0,0,0c-0.1-0.2-0.3,0.1-0.4-0.1          c0-0.2,0.1,0,0.1-0.1c0.2-0.2-0.2-0.2-0.2-0.4l0,0c0-0.2-0.3-0.1-0.4-0.3c0,0,0,0,0,0c-0.2,0-0.4-0.1-0.5-0.2          c0.1,0,0.1,0,0.2-0.1c-0.1,0-0.1,0.1-0.3,0c0-0.1,0-0.2,0.1-0.3l0.1,0.1c0.1-0.2-0.1-0.1-0.1-0.2l0.1,0          c-0.2-0.2-0.3,0-0.4-0.2l0,0.1c-0.2,0,0-0.2-0.2-0.2l0.1-0.1c-0.1,0-0.3-0.1-0.4-0.2c0.2,0,0.3,0.1,0.5,0.1          c0-0.1-0.2-0.2-0.3-0.2c0,0,0.1,0,0.1,0.1c-0.2,0-0.3-0.1-0.4-0.2c0.3-0.2-0.2-0.4,0-0.7c-0.3-0.2-0.2-0.5-0.4-0.8          c-0.2,0.2-0.1-0.1-0.3,0.1c-0.1-0.1-0.1-0.1,0-0.1l0.1-0.3c0.1-0.1,0.1,0,0.2,0c0-0.2,0.1-0.1,0.1-0.2          c-0.1,0.1-0.2,0-0.2-0.1L13,17.8c-0.2-0.2,0.2-0.3-0.1-0.4l0.1,0c-0.1-0.1-0.1-0.4-0.4-0.5c0,0,0.1-0.1,0.1,0          c0-0.3-0.4-0.6-0.2-0.8l0.1,0c0,0-0.1-0.1-0.1-0.1c0,0,0.1,0,0.1,0c0,0-0.1-0.1-0.1-0.2l0.1,0.1c0.1-0.2-0.2-0.4-0.2-0.6          c0.2,0.1,0.3-0.1,0.4-0.2l0,0c0.1-0.2,0.1-0.5,0.2-0.8c0.2,0,0.3-0.1,0.4-0.2c0.1-0.1,0.2-0.2,0.4-0.2          c-0.1,0-0.1-0.2-0.1-0.2c0.1,0,0.1-0.2,0.2,0l0,0c0.1,0.2,0.2,0.1,0.3,0l-0.1-0.3c0.2,0.2,0.3,0.1,0.4,0.1          c0.1,0,0.3-0.1,0.3,0.1c0.1,0,0.1,0,0.2-0.1L15,13.8c0.1,0.1,0.2,0.2,0.4,0.2L15.4,14c0.1,0.1,0.3-0.3,0.5-0.2L15.7,14          c0.2,0.1,0.2,0.4,0.5,0.4c0,0-0.1,0.1-0.1,0c0.1,0.1,0.2,0.4,0.4,0.2c-0.1,0.1,0.2,0.2,0.3,0.3L16.7,15c0.2,0,0.3-0.1,0.4,0          c0,0-0.1,0.1-0.1,0c0,0.1,0.2,0,0.2,0.2l-0.1,0c0.1,0.2,0.1,0.1,0.3,0.1c0.1,0,0.2,0.3,0.1,0.5c0-0.1,0.1-0.1,0.2,0          c0,0.1,0,0.1-0.1,0.1c0.1,0.4,0.3,0.2,0.3,0.5c0,0,0,0,0,0c0,0.1,0,0.1,0,0.1c0,0,0,0.1-0.1,0.1c-0.1-0.2-0.2-0.3-0.2-0.3          c0,0.2,0.1,0.5,0,0.6c0.1,0,0.1,0,0.2,0c0.1-0.3,0.2-0.5,0.2-0.5c0,0,0,0,0,0l0,0c0,0,0.1-0.1,0.1-0.2c0,0,0.1-0.1,0.1-0.1          c0.1,0.1,0.2-0.2,0.3-0.3c-0.1-0.1,0-0.3-0.1-0.3c0,0,0,0,0,0.1c0,0,0,0,0,0.1l0,0c0,0.1-0.1,0.2-0.1,0.3          c0-0.2,0-0.3,0.1-0.3c0-0.1,0-0.3,0-0.4c0.2,0.1,0.4-0.1,0.5,0c0.1-0.2,0.1-0.3,0.2-0.4c0-0.1,0.1-0.2,0-0.4          c0-0.1,0.1,0,0.1,0c0,0,0,0.1,0,0.1c0-0.1,0.2-0.3,0.1-0.4c0.2-0.1,0.1,0.2,0.2,0l0,0.1c0.5,0,0.2-0.8,0.8-0.8          c0,0-0.1,0-0.1,0c0.3,0,0.5-0.2,0.7-0.3c0.1-0.1,0.2-0.1,0.4-0.1c0.1,0,0.2,0,0.3,0.1c0.1,0.1,0.1,0,0.2-0.1l0,0.1          c0,0,0.2-0.1,0.2-0.1c0.3,0,0.1,0.4,0.4,0.4l0-0.1c0.1,0.1,0.3,0.1,0.2,0.2c0,0,0.1-0.1,0.1,0l-0.1,0.1l0.3,0.1          c0.1,0.2-0.3,0.2-0.1,0.4c0.1,0,0.4,0.1,0.4,0c0,0,0-0.1,0-0.2l0.1,0c0.2-0.1,0.5-0.2,0.4-0.5l-0.2-0.1l0-0.1l0.1,0.1          c0-0.1-0.1-0.1-0.2-0.1c0-0.1,0.1-0.1,0-0.1l-0.3,0c0.1-0.1,0.2-0.1,0.1-0.2c-0.1,0-0.1,0.2-0.2,0.1c0-0.1,0.1-0.2-0.1-0.2          c0-0.1,0.1-0.1,0.1-0.1c-0.1,0-0.2-0.1-0.3-0.1c0-0.2-0.3-0.2-0.1-0.4c-0.1,0-0.3,0.1-0.3,0c0.3-0.2-0.3-0.2-0.2-0.4          c-0.2,0.2-0.5,0-0.8,0.1c0,0,0-0.1,0.1,0c-0.1,0-0.2-0.1-0.3-0.1c0,0.2-0.2,0.3-0.3,0.4c-0.2-0.2,0.1-0.2,0-0.4          c0,0.2-0.3,0.2-0.2,0.3c-0.1-0.1-0.1,0-0.2-0.2c0.1,0.2-0.1,0.1-0.1,0.2c-0.2-0.1-0.1-0.2-0.3-0.1          C20.2,12.6,20.4,12.5,20.4,12.5z M18.1,15.1L18.1,15.1C18.1,15.1,18.1,15.1,18.1,15.1C18.1,15.1,18.1,15.1,18.1,15.1z           M18,15.2C18,15.2,18,15.2,18,15.2L18,15.2c0,0.1,0,0.2,0,0.2c0,0,0,0,0-0.1C18,15.3,18,15.3,18,15.2z M18.6,16.2          C18.5,16.3,18.5,16.3,18.6,16.2C18.5,16.2,18.5,16.2,18.6,16.2l0-0.1C18.6,16.1,18.6,16.2,18.6,16.2z"/>
								<path fill="#44B6E6" d="M18.6,15.9C18.6,15.8,18.6,15.8,18.6,15.9C18.6,15.8,18.5,15.8,18.6,15.9L18.6,15.9L18.6,15.9z"/>
								<path fill="#44B6E6" d="M22.4,19.8L22.4,19.8C22.4,19.8,22.4,19.8,22.4,19.8L22.4,19.8z"/>
								<polygon fill="#44B6E6" points="15.1,12.4 15.1,12.5 15.1,12.5         "/>
								<path fill="#44B6E6" d="M23.6,18.6C23.7,18.6,23.7,18.6,23.6,18.6C23.7,18.6,23.7,18.6,23.6,18.6z"/>
								<path fill="#44B6E6" d="M24,17.9L24,17.9C24,17.9,24,17.9,24,17.9z"/>
								<path fill="#44B6E6" d="M24.2,17.4C24.2,17.4,24.2,17.4,24.2,17.4L24.2,17.4L24.2,17.4z"/>
								<path fill="#44B6E6" d="M19.1,24.7L19.1,24.7C19.1,24.8,19.1,24.8,19.1,24.7z"/>
								<path fill="#44B6E6" d="M20.7,22.6c0,0,0,0.1,0,0.1C20.7,22.7,20.8,22.7,20.7,22.6z"/>
								<polygon fill="#44B6E6" points="16.1,24.1 16.1,24.1 16.1,24.1         "/>
								<path fill="#44B6E6" d="M20.6,22.8C20.7,22.8,20.7,22.8,20.6,22.8C20.7,22.7,20.6,22.8,20.6,22.8z"/>
								<path fill="#44B6E6" d="M24.3,14.8L24.3,14.8C24.3,14.7,24.3,14.7,24.3,14.8L24.3,14.8z"/>
								<path fill="#44B6E6" d="M24.3,14.7L24.3,14.7C24.2,14.7,24.2,14.7,24.3,14.7z"/>
								<path fill="#44B6E6" d="M24.2,14.6L24.2,14.6C24.2,14.7,24.2,14.6,24.2,14.6z"/>
								<path fill="#44B6E6" d="M24.4,15.6L24.4,15.6C24.5,15.6,24.4,15.6,24.4,15.6z"/>
								<path fill="#44B6E6" d="M24.5,15.8c0-0.1,0.1-0.2,0.1-0.2l0,0C24.5,15.6,24.4,15.8,24.5,15.8z"/>
								<path fill="#44B6E6" d="M23.7,16.7l0.1-0.2c-0.1,0-0.1,0.1-0.1,0C23.5,16.7,23.8,16.5,23.7,16.7z"/>
								<path fill="#44B6E6" d="M23.5,17.2c0-0.1-0.1,0-0.1,0C23.5,17.3,23.5,17.3,23.5,17.2z"/>
								<path fill="#44B6E6" d="M21.5,20.8L21.5,20.8C21.4,20.8,21.5,20.7,21.5,20.8z"/>
								<polygon fill="#44B6E6" points="21.6,21.8 21.7,21.8 21.6,21.7         "/>
								<polygon fill="#44B6E6" points="20.6,21.6 20.6,21.6 20.5,21.7         "/>
								<path fill="#44B6E6" d="M16.4,22.7l-0.1,0.1C16.4,22.8,16.5,22.7,16.4,22.7z"/>
								<path fill="#44B6E6" d="M14.3,20.5c0-0.1,0-0.2-0.1-0.2C14.3,20.4,14.3,20.5,14.3,20.5z"/>
								<polygon fill="#44B6E6" points="14.3,13.7 14.3,13.7 14.3,13.7         "/>
							</g>
						</g>
					</g>
				</g>
			</g>
			<path fill="#29ABE2" d="M17.8,16.8c-0.2,0.2-0.4,0.3-0.5,0.5c-0.2,0.2-0.4,0.4-0.6,0.5c-0.4,0.3-0.7,0.5-1.1,0.8     c-0.1,0.1-0.3,0.2-0.4,0.3c-0.2,0.1-0.7,0.5-0.2,0c0.8-0.9,1.8-1.6,2.6-2.4c0,0,0.1-0.1,0.1-0.1c0.1-0.1,0-0.1-0.1-0.1     c0,0-0.1,0-0.1,0.1c-1.1,0.6-2,1.4-3,2c1-0.6,1.9-1.6,2.8-2.4c0,0,0,0,0,0c0.1,0,0-0.1-0.1-0.1c0,0,0,0,0,0     c-1.1,0.4-1.8,1.2-2.7,1.7c-0.2,0.1-0.7,0.5-0.1,0c0.3-0.2,0.5-0.5,0.8-0.7c0.6-0.5,1.2-1,1.8-1.5c0,0,0.1-0.1,0.1-0.1     c0.1,0,0-0.1-0.1-0.1c0,0-0.1,0-0.1,0.1c-0.6,0.2-1.1,0.5-1.5,0.8c-0.5,0.3-1.2,0.7-1.6,1.1c0.9-0.8,2.2-1.4,2.8-2.4     c0,0,0,0,0.1-0.1c0-0.1,0-0.1-0.1-0.1c0,0,0,0,0,0c-1,0.6-2.2,1.4-3,2c1-0.7,2-1.4,2.7-2.4c0,0,0,0,0,0c0-0.1,0-0.1-0.1-0.1     c0,0,0,0,0,0c-1,0.4-1.7,1.3-2.7,1.8c0.4-0.2,0.8-0.7,1.1-0.9c0.4-0.3,0.7-0.7,1-1.1c0,0,0,0,0,0c0-0.1,0-0.1-0.1-0.1     c0,0,0,0,0,0c-0.7,0.4-1.3,0.8-1.9,1.3C13.1,15,13,15,12.9,15.1c-0.1,0.1,0,0.2,0.1,0.1c0.1-0.1,0.1-0.1,0.2-0.2     c0.3-0.2,0.6-0.5,0.9-0.7c0.5-0.4,1.4-0.9,0.5,0c-0.4,0.5-1,0.8-1.4,1.2c-0.1,0.1-0.2,0.2-0.2,0.2c-0.1,0.1,0,0.1,0.1,0.1     c0.1,0,0.1,0,0.2-0.1c0.9-0.4,1.5-1.1,2.3-1.6c0.7-0.4-0.5,0.7-0.7,0.8c-0.5,0.4-1,0.8-1.5,1.2c-0.1,0.1-0.2,0.1-0.3,0.2     c-0.1,0.1,0,0.2,0.1,0.1c0.1,0,0.2-0.1,0.3-0.1c0.5-0.3,1-0.5,1.5-0.9c0.3-0.2,0.5-0.4,0.8-0.5c0.3-0.2,1-0.8,0.3,0     c-0.7,0.8-1.7,1.3-2.5,1.9c-0.1,0.1-0.2,0.2-0.3,0.3c-0.1,0.1,0,0.1,0.1,0.1c0.1,0,0.2-0.1,0.3-0.2c1-0.5,1.9-1.2,2.9-1.8     c0.7-0.3-0.2,0.3-0.3,0.3c-0.3,0.2-0.6,0.4-0.8,0.7c-0.5,0.4-1,0.8-1.5,1.3c0,0-0.1,0.1-0.1,0.1c-0.1,0,0,0.1,0.1,0.1     c0,0,0.1,0,0.1,0c1-0.4,1.7-1.1,2.6-1.7c0.1-0.1,0.7-0.5,0.2,0c-0.2,0.2-0.5,0.5-0.8,0.7c-0.6,0.5-1.2,1.1-1.8,1.6c0,0,0,0,0,0     c-0.1,0.1,0,0.1,0.1,0.1c0,0,0,0,0,0c0.6-0.3,1.1-0.6,1.6-1c0.5-0.3,1.2-0.7,1.6-1.1c-0.9,0.9-1.9,1.7-2.8,2.6     c0,0.1-0.1,0.1-0.1,0.2c0,0,0,0.1,0.1,0.1c0.1,0,0.1,0,0.2-0.1c0.2-0.1,0.3-0.1,0.4-0.2c-0.1,0.1-0.2,0.3-0.3,0.4     c0,0.1-0.1,0.1-0.2,0.2c-0.1,0.1,0,0.1,0.1,0.1c0.1,0,0.1-0.1,0.2-0.1c0.6-0.2,1.1-0.5,1.6-0.8c-0.4,0.3-0.9,0.7-1.2,1.1     c-0.1,0.1,0,0.2,0.1,0.1c1.3-0.9,2.7-1.5,4.1-2.3c0,0,0,0,0.1,0c0,0,0,0-0.1,0.1c-1.2,1.1-2.8,1.7-4,2.8c0,0,0,0,0,0     c0,0,0,0,0,0.1c0,0,0.1,0,0.1,0c1.4-0.6,2.6-1.4,3.9-2.1c-0.1,0.1-0.2,0.1-0.2,0.2c-1.2,0.8-2.3,1.7-3.4,2.6c0,0-0.1,0.1-0.1,0.1     c-0.1,0.1,0,0.1,0.1,0.1c0,0,0.1,0,0.1,0c1.4-0.6,2.6-1.3,3.9-2c0.4-0.2,0.8-0.4,1.2-0.7c-1.6,1.1-3.4,1.8-4.8,3     c-0.1,0.1-0.1,0.1-0.2,0.2c-0.1,0.1,0,0.1,0.1,0.1c0.1,0,0.2-0.1,0.3-0.1c1.8-0.5,3.3-1.7,4.8-2.9c0,0,0,0,0,0     c-0.5,0.5-1.2,1-1.8,1.4c-0.9,0.6-1.8,1.2-2.8,1.9c-0.1,0-0.1,0.1-0.2,0.1c-0.1,0.1,0,0.2,0.1,0.1c0.1,0,0.1-0.1,0.2-0.1     c0.5-0.2,1.1-0.5,1.6-0.8c-0.5,0.4-0.9,0.7-1.4,1.1c0,0-0.1,0-0.1,0.1c-0.1,0,0,0.2,0.1,0.1c0,0,0.1,0,0.1,0     c1.2-0.7,2.4-1.5,3.5-2.3c0.1-0.1,0.3-0.2,0.4-0.3c-0.2,0.1-0.3,0.2-0.5,0.4c-1.1,0.9-2.2,1.8-3.2,2.7c-0.1,0.1-0.2,0.2-0.3,0.3     c-0.1,0.1,0,0.1,0.1,0.1c0.1-0.1,0.2-0.1,0.3-0.2c0.9-0.5,1.5-1.3,2.3-1.9c0,0,0,0,0.1,0c0,0,0,0-0.1,0.1c-0.8,0.5-1.3,1.6-2,2.3     c-0.1,0.1-0.1,0.1-0.2,0.2c-0.1,0.1,0,0.2,0.1,0.1c0,0,0.1-0.1,0.1-0.1c0.3-0.3,0.5-0.5,0.8-0.8c0.5-0.6,1-1.2,1.5-1.8     c0.1-0.1,0-0.2-0.1-0.1c0,0,0,0,0,0c-0.1,0.1-0.2,0.1-0.3,0.2c0.2-0.1,0.3-0.3,0.5-0.4c0.4-0.3,0.8-0.7,1.1-1.1     C21.2,20,21.1,20,21,20c-0.1,0.1-0.2,0.2-0.3,0.2c-0.7,0.6-1.4,1.1-2.2,1.5c-0.2,0.1-0.4,0.2-0.5,0.3c0.5-0.4,1-0.7,1.4-1.1     c0.5-0.4,1-0.8,1.5-1.2c0.2-0.2,0.4-0.3,0.6-0.5c0.1-0.1,0-0.2-0.1-0.1c0,0-0.1,0.1-0.1,0.1c0,0-0.1,0-0.1,0.1c0,0-0.1,0-0.1,0.1     c-0.5,0.4-1.1,0.9-1.6,1.3c-0.5,0.4-1.1,0.7-1.7,1c-0.4,0.2-0.7,0.4-1.1,0.5c0.3-0.1,0.8-0.4,1.1-0.6c1.4-0.9,2.8-1.8,3.9-3     c0.1-0.1,0.1-0.1,0.2-0.2c0,0,0-0.1,0-0.1c0,0-0.1,0-0.1,0c-1,0.7-2,1.5-3,2.2c-0.5,0.3-1,0.6-1.6,0.9c0,0-1,0.4-0.9,0.3     c0.3-0.2,0.6-0.5,0.9-0.7c1.6-1.1,3.4-1.8,4.9-3.1c0.2-0.2,0.4-0.4,0.6-0.6c0.1-0.1,0-0.2-0.1-0.1c-0.1,0.1-0.2,0.2-0.3,0.3     c-0.8,0.7-1.8,1.2-2.8,1.7c-0.6,0.3-1.2,0.7-1.8,1c-0.5,0.3-1.2,0.5-1.5,0.8c1.1-0.9,2.2-1.8,3.4-2.6c1.1-0.7,2.2-1.6,3.3-2.4     c0.1,0,0.1-0.1,0.2-0.1c0.1-0.1,0-0.2-0.1-0.1c0,0,0,0,0,0c-1.3,0.6-2.3,1.7-3.5,2.4c-0.8,0.4-1.5,0.9-2.3,1.3     c-0.3,0.2-0.7,0.3-1,0.5c-0.8,0.4,0-0.1,0.2-0.2c1.2-0.9,2.5-1.6,3.7-2.6c0.1-0.1,0.3-0.2,0.4-0.3c0.8-0.5,1.5-1.1,2.3-1.6     c0.1,0,0.2-0.1,0.2-0.1c0.1,0,0.1-0.1,0.2-0.1c0,0,0.1-0.1,0.1-0.1c0.1,0,0-0.1-0.1-0.1c0,0,0,0,0,0c-0.9,0-1.6,1-2.4,1.6     c-0.9,0.6-1.8,1.2-2.8,1.7c-0.7,0.3-1.3,0.7-1.9,1.1c0.2-0.2,0.4-0.4,0.7-0.6c2.1-1.6,4.6-2.7,6.2-4.8c0,0,0-0.1,0.1-0.1     c0.1-0.1-0.1-0.1-0.1-0.1c0,0,0,0-0.1,0c-1.4,1.1-2.7,2.2-4.1,3.3c-0.8,0.6-1.6,1.2-2.5,1.7c-0.4,0.2-0.8,0.4-1.2,0.6     c0.2-0.1,0.5-0.6,0.8-0.7c0,0,0.1,0,0.1-0.1c0.4-0.3,0.7-0.5,1.1-0.8c0.9-0.7,1.9-1.3,2.9-1.9c1-0.6,2-1.3,2.5-2.3c0,0,0,0,0,0     c0,0,0,0,0-0.1c0.1-0.1,0-0.1-0.1-0.1c0,0,0,0-0.1,0c-0.4-0.1-0.9,0-1.4,0.3c-0.5,0.3-1,0.8-1.4,1.2c-0.3,0.3-0.5,0.5-0.6,0.7     c0,0.1,0,0.1,0.1,0.1c0,0,0,0,0,0c0.6-0.4,1.2-0.7,1.8-1.1c-0.3,0.3-0.6,0.6-1,0.8c-0.4,0.2-0.7,0.4-1,0.7     c-0.2,0.1-0.4,0.3-0.5,0.4c0,0-0.1,0.1-0.1,0.1C17.9,16.7,17.9,16.7,17.8,16.8z M18.5,22.5c-0.3,0.3-0.7,0.6-1.1,0.9     c-0.1,0.1-0.1,0.1-0.2,0.1c-0.1,0-0.1,0,0,0c0.1-0.1,0.4-0.3,0.5-0.4C18,22.9,18.3,22.7,18.5,22.5C18.6,22.5,18.6,22.5,18.5,22.5     z M22.6,14.1c-1,1.3-2.4,2.2-3.8,3.1c0.7-0.5,1.4-1.1,2-1.6C21.4,15.2,22.2,14.7,22.6,14.1z M18.9,15.7c0.1-0.2,0.3-0.3,0.4-0.4     c0.6-0.6,1.2-1.1,2-1.5c0.1,0,0.5-0.2,0.7-0.2c-0.3,0.2-0.5,0.3-0.7,0.5c-0.5,0.4-1.1,0.7-1.6,1C19.3,15.3,19.1,15.4,18.9,15.7z      M19.7,15.6c0.5-0.3,0.9-0.5,1.3-0.9c0.2-0.2,0.5-0.5,0.8-0.7c0.1-0.1,0.2-0.1,0.3-0.2c0,0.1,0,0.2-0.1,0.3     c-0.2,0.3-0.4,0.5-0.7,0.8c-0.5,0.4-1,0.8-1.6,1.1c-0.4,0.3-0.9,0.5-1.3,0.8c-0.1,0.1-0.2,0.1-0.3,0.2c-0.1,0-0.1,0.1-0.2,0.1     c0.1,0,0.1-0.1,0.1-0.1c0.2-0.1,0.3-0.3,0.5-0.4C18.8,16.1,19.3,15.8,19.7,15.6z"/>
		</g>
	</g>
</g>
</svg>