<svg xmlns="http://www.w3.org/2000/svg" xmlns:xlink="http://www.w3.org/1999/xlink" version="1.1" x="0px" y="0px" viewBox="0 0 299.1 221.8" enable-background="new 0 0 299.1 221.8" xml:space="preserve" width="299.1000061035156" height="221.8000030517578">
<g id="Background">
</g>
<g id="Objects">
	<g>
		<g>
			<path fill="#29ABE2" d="M39.6,167.8c-2.6-0.8-7.3-3.4-7-3.9C87.4,80.3,163.2,5.2,298.5,0.6C298.6,0.6,127.6,16,39.6,167.8z"/>
			<g>
				<g>
					<g>
						<g>
							<path fill="#44ABF1" d="M39.3,167.6c-0.1,0.3,0,0.2,0.5-0.6l0.2-0.7L39.3,167.6z"/>
							<path fill="#44ABF1" d="M42.9,162.3c0.5-1,1-2.2,0.5-1.6c-0.4,1-0.6,1.2-1.1,2.3c-0.5,0.8-0.9,1.4-0.9,1.2         c-0.1,0.3-0.8,1.2-1,1.7c0.7-1,1.5-2.3,2.3-3.8C43,161.9,42.9,162.2,42.9,162.3z"/>
							<path fill="#44ABF1" d="M101.7,91.2l-0.5,0.4C101.4,91.5,101.5,91.3,101.7,91.2z"/>
							<path fill="#44ABF1" d="M147.3,56.5c-0.4,0.2-0.5,0.4-0.5,0.4C147.1,56.6,147.3,56.4,147.3,56.5z"/>
							<path fill="#44ABF1" d="M155.7,51.5c-0.2,0.1-0.3,0.2-0.5,0.3C155.4,51.7,155.6,51.6,155.7,51.5z"/>
							<path fill="#44ABF1" d="M101.7,91.2l1.2-1C102.9,90.1,102.3,90.7,101.7,91.2z"/>
							<path fill="#44ABF1" d="M49.4,151.3c-0.2,0.3-0.3,0.5-0.4,0.7C49.1,151.8,49.2,151.5,49.4,151.3         C49.4,151.3,49.4,151.3,49.4,151.3z"/>
							<path fill="#44ABF1" d="M83.8,109l-0.3,0.3c-0.1,0.1-0.2,0.2-0.2,0.3L83.8,109z"/>
							<path fill="#44ABF1" d="M70.9,123.5c0.3-0.3,0.3-0.5,0.3-0.7c-0.1,0.2-0.3,0.5-0.5,0.8C70.8,123.7,70.8,123.6,70.9,123.5z"/>
							<path fill="#44ABF1" d="M52.2,148l-0.3,0.5C52,148.3,52.2,148.1,52.2,148z"/>
							<path fill="#44ABF1" d="M93.5,99.1c0,0,0.1,0,0.2-0.1C93.7,99,93.6,99.1,93.5,99.1z"/>
							<path fill="#44ABF1" d="M41.2,152.3C41.2,152.3,41.2,152.3,41.2,152.3C41.1,152.4,41.1,152.4,41.2,152.3z"/>
							<path fill="#44ABF1" d="M39.6,167.8l-0.3-0.1c0,0-0.1,0-0.1,0.1L39.6,167.8z"/>
							<path fill="#44ABF1" d="M171.3,42.8C171.3,42.8,171.3,42.8,171.3,42.8C170.8,43.1,171.1,42.9,171.3,42.8z"/>
							<path fill="#44ABF1" d="M268.8,2.3c1.9-0.1-3,0.5-0.2,0.3C268.3,2.6,271.1,2.1,268.8,2.3z"/>
							<path fill="#44ABF1" d="M49.7,150.9c0.1-0.2,0.3-0.4,0.4-0.7C49.9,150.5,49.8,150.7,49.7,150.9z"/>
							<path fill="#44ABF1" d="M268.6,2.6L268.6,2.6l0.3,0C268.8,2.6,268.7,2.6,268.6,2.6z"/>
							<path fill="#44ABF1" d="M208.6,25.2c-0.1,0-0.2,0.1-0.4,0.1C208.2,25.3,208.3,25.3,208.6,25.2z"/>
							<path fill="#44ABF1" d="M180.5,37.7l0.7-0.3C180.9,37.5,180.7,37.6,180.5,37.7z"/>
							<path fill="#44ABF1" d="M223.5,19.4c0.4-0.1,0.5-0.2,1.1-0.4c-0.1,0-0.1,0-0.2,0C224.2,19.1,223.9,19.2,223.5,19.4z"/>
							<path fill="#44ABF1" d="M239.2,14.1c-0.1,0-0.2,0-0.3,0.1c-0.2,0.1-0.3,0.1-0.5,0.2L239.2,14.1z"/>
							<path fill="#44ABF1" d="M71.7,112.1c-0.3,0.3-0.4,0.4-0.6,0.5C71.4,112.5,69.9,114.4,71.7,112.1z"/>
							<path fill="#44ABF1" d="M49.4,151.3c0-0.1,0.1-0.2,0.2-0.4C49.5,151,49.4,151.2,49.4,151.3C49.3,151.4,49.4,151.4,49.4,151.3         z"/>
							<path fill="#44ABF1" d="M223.7,18.1l2.5-0.9C225.5,17.5,224.6,17.8,223.7,18.1z"/>
							<path fill="#44ABF1" d="M162.8,36.4l-0.5,0.3C162.5,36.6,162.7,36.5,162.8,36.4z"/>
							<path fill="#44ABF1" d="M233.7,14.7c0.5-0.1,0.9-0.2,1.4-0.4c0.1,0,0.2-0.1,0.3-0.1L233.7,14.7z"/>
							<path fill="#44ABF1" d="M71.1,112.6C71.2,112.6,71.2,112.6,71.1,112.6C71.2,112.6,71.2,112.6,71.1,112.6z"/>
							<path fill="#44ABF1" d="M60.4,126.3c1.6-2,0.6-1,0.8-1.5c1.8-2.4,1-1,1.7-1.7c1.1-1.5,1.9-2.7,2.8-3.8c0.1-0.1,0.3-0.3,0.1,0         c1.1-1.6,3.8-4.5,5.1-6.4c0.1-0.1,0.2-0.2,0.2-0.2c-0.3,0.2-0.4,0.2-0.4,0.1c0.7-0.9,1.3-1.7,1.6-1.9         c-0.5,0.5-0.4,0.6-0.6,0.9l0.7-0.9c0.8-0.7-1,1.3-0.9,1.4c1.4-1.8,3.1-3.9,4.3-5.2c0.4-0.2-2.7,3.1-1,1.5l-1.8,2         c1.6-1.4-1.1,1.2,0.4,0c2.4-2.7,2.6-3.1,5-5.7c0.5-0.7-0.3,0.1,0.2-0.6c3.3-3.9,3-2.7,5.4-5.6c0.6-0.8,0.7-1.2,2.6-3.1         L86,96.2c2.4-2.5,1.2-1.6,3.8-4.1c-0.4,0.5-1.9,2-1.5,1.6c1.8-1.6,1.1-1.3,2.3-2.6l0.4-0.2c1.3-1.3,2.7-2.7,4.1-4.1         c1.4-1.4,2.8-2.9,4.3-4.3c-0.1,0.2-0.6,0.7,0.1,0.1c1.9-1.8,3.9-3.7,5.9-5.5c2.1-1.8,4.2-3.5,6.1-5.1c0,0,0.3-0.3,0.7-0.7         c0.3-0.3,0.7-0.7,0.7-0.7c0.3-0.3,0.7-0.5,0.3-0.1c1.5-1.2,0-0.1,0.7-0.8c0.8-0.7,1.2-0.9,0.7-0.4c1.3-1.1,3.1-2.7,5-4.3         c1.9-1.6,3.9-3.1,5.4-4.1l-0.5,0.5c2.3-1.7,2.3-2.2,4.5-3.6l-0.4,0.3c2.5-1.8,5.1-3.7,7.6-5.4c2.5-1.7,4.9-3.3,6.9-4.5         c0.6-0.7,5.2-3.1,5.3-3.6c3.1-1.7,2.2-1.2,6.5-3.6c1.1-0.6,1.6-1.1,3-2l0.1,0.1l1.8-1.2l1.1-0.4l1.3-0.7         c-0.5,0.3-1.2,0.5-1.1,0.5c1-0.6,2.3-1.2,3.4-1.7c1-0.5,1.8-0.9,1.9-0.8c0,0,1.2-0.7,2.5-1.4c0.6-0.4,1.2-0.7,1.7-0.9         c0.5-0.2,0.8-0.4,0.8-0.4c-0.1,0.1-0.9,0.5-1.6,0.9c2.6-1.4,0.6-0.1,3-1.4c-0.3,0.1,0.1-0.2,0.2-0.2c1.3-0.5,4.1-1.9,6.1-2.9         l-0.4,0.3c1.9-0.8,3.9-1.7,6-2.7c1-0.5,2.1-0.9,3.1-1.4c1.1-0.5,2.2-0.9,3.2-1.3c-1.6,0.6-1.3,0.3,0-0.3l0.6-0.1         c0.8-0.4-1.4,0.5,0.3-0.3c1.6-0.6,1.2-0.3,0.2,0.2l2-0.8c0.1,0-0.3,0.2-0.4,0.3c0.8-0.4,3.5-1.2,4.6-1.8l0.1,0         c4.4-1.5,6.4-2.3,10-3.6c0-0.2,1.5-0.6,2.5-1c1.3-0.4,2.8-0.8,4.3-1.2c1.5-0.4,3-0.9,4.7-1.3c2.3-0.7,0.6-0.3,1.6-0.7         c0.2,0.1,3.5-0.8,1.8-0.3c3.9-1.1,5-1.4,9.9-2.7c-0.6,0.1-1.2,0.2-0.9,0.1c0.9-0.2,2.1-0.4,2-0.3l-0.2,0.1         c1.4-0.4,2.9-0.7,4.4-1.1c1.5-0.3,3.2-0.6,4.7-0.8c3.1-0.5,6.1-1.1,8.3-1.6L251.4,6l4.7-0.9c2.2-0.3-1.3,0.3,0.3,0.1         c2.5-0.5,4.5-0.8,6.4-1.1c1.9-0.2,3.7-0.4,5.8-0.7c0.8,0,2-0.1,3.3-0.2c0.6-0.1,1.3-0.2,2.1-0.2c0.7-0.1,1.5-0.1,2.2-0.2         c3-0.3,6.2-0.6,8.4-0.7l-0.3-0.1c1.1-0.2,1.4-0.1,2.2-0.1c-0.1-0.1-1.2,0-0.5-0.1c4.1-0.3,8.4-0.5,12.7-0.6l0.1,0         c0,0,0,0,0,0l0,0l0.1,0c0,0,0.1,0,0.3-0.2c0.4-0.4-0.3-1.1-0.3-0.9c-0.1,0-0.1,0-0.2,0c-0.2,0-0.1,0-0.2,0l-0.1,0l-0.3,0         l-0.5,0.1l-1.1,0.1l-2.1,0.2L289.9,1c-2.9,0.4-5.7,0.8-8.5,1.3c-3.6,0.6-1.9,0.8-6.5,1.5l1.2-0.4c-7.1,1.6-14.6,3.2-21.5,5.2         c0.4-0.1,0.4-0.2,1.1-0.4c-0.7,0.1-2.1,0.5-3.3,0.8c-1.2,0.3-2.1,0.7-2.1,0.7c-1.1,0.3-0.3,0-0.9,0.1         c-1.5,0.3-3.6,1.2-4.4,1.3c-0.1,0,0.4-0.2,0.7-0.2c-0.9,0.3-4.4,1.3-3.5,1.2c-2.6,0.7-4.9,1.6-7,2.1         c-1.3,0.6-4.4,1.4-4.8,1.7c0.1-0.3-4.5,1.3-6.1,2c0.5-0.3-1.4,0.4-0.8,0.1c-1.8,0.6-3.5,1.3-3.1,1.3c-3.5,1-6.7,2.7-8.7,3.1         c-5.3,2.2-10.2,4.4-14.9,6.5c0.1-0.3,5.3-2.3,5-2.4c-4.5,2-7,3.4-11.5,5.4c-1.2,0.5,0.6-0.4,1-0.6c-4.4,2.2-8.6,4-12.5,6.1         c0,0,0.4-0.3,0.8-0.5c-0.8,0.4-1.8,0.9-1.7,0.9l0.7-0.4c1.3-0.5-2.9,1.8-3,2c1.2-0.9-3.9,1.9-2,0.5c-0.5,0.3-1.1,0.7-1,0.7         c-0.8,0.4-1,0.5-0.3,0c-2.7,1.5-1.7,1.1-4.1,2.4c0,0,0.5-0.3,0.7-0.5c-1.2,0.8-2.4,1.5-4.5,2.6c0.1-0.1-0.1,0,0.5-0.3         c-1.8,1-3.2,1.9-4.8,2.8c-1.5,0.9-3.1,1.9-5,3c1-0.9-1.3,0.7-1.6,0.7l-2,1.3l0.9-0.4c-1.8,1.1-3.3,2.2-4.8,3.1l1.3-0.9         l-3.3,2.2l1.9-1.1c-1.7,1.2,0.3,0.1-2.1,1.5c0.5-0.3-1.8,1.1-2.7,1.7l0,0c-0.8,0.6-1.7,1.3-3,2.1c-0.4,0.2,0.2-0.4-0.1-0.2         c-0.8,0.7-4,2.8-5,3.7c0.3-0.3,0.3-0.4,0.2-0.3l-0.6,0.6c-0.8,0.5-0.9,0.6-0.9,0.4c-2.4,1.7,0.9-0.4-2,1.6         c0.2-0.2,0.1-0.1,0.5-0.5c-1.4,1-2.8,2-4.1,3c-1.3,1-2.6,2-3.9,2.9c-0.9,0.4,2.2-1.7,1.2-1.2c-0.9,0.7-1.8,1.4-2.8,2.2         c-0.9,0.7-1.8,1.5-2.8,2.3c-1.8,1.5-3.7,3-5.4,4.4l0.7-0.5c-0.3,0.6-2.7,2-4.3,3.6c0.4-0.4,0.5-0.6,0.4-0.5         c-2.4,2-4.7,4.1-8.1,7.3l0.4-0.4c-1.4,1.1-3.5,3.2-5,4.5c-0.4,0.4-1.2,1.2-0.6,0.8c-2.3,1.9-4.3,4-6.3,5.9         c-1.9,2-3.8,4-5.7,5.8c0.4-0.5,1-1.1,0.7-0.8c0,0-0.8,0.8-1.5,1.7c-0.8,0.8-1.5,1.7-1.5,1.7c0.3-0.2,0.5-0.4,1.2-1         c-0.3,0.5-1.2,1.4-2,2.3c1.3-1.5-0.1-0.1-0.8,0.5c0.1-0.1-0.1,0.2,0,0.1c-1.8,1.6-0.1,0.4-2.4,2.8l0.1-0.2         c-0.8,0.9-1.5,1.8-2.4,2.8c-0.5,0.3,0.8-1,0.8-1.1c-1.2,1.4-2.2,2.9-3.4,4c0.5-0.6,1.2-1.5,1.7-2.1c-1.3,1.3-1.4,1.5-2.3,2.5         l0.1-0.1l-2.1,2.3l0.5-0.6c-1.2,2-2.9,3.6-4.7,6.2c1.7-2.5,0.2-0.5,0.2-0.7c-0.5,0.6-1.3,1.5-1.1,1.2         c-0.8,1.2-1.6,1.9-2.7,3.6c-0.1,0-1,1.2-0.9,0.9c-1.1,1.5,0.3-0.3,0.3-0.1c-1.7,2.4-4.3,5.4-6.6,8.9c-2,3-2.3,3.7-4.1,6.5         c-0.3,0.5-0.3,0.2-0.1-0.1c0.2-0.3,0.5-0.8,0.5-0.8c-1.1,1.5-1.8,2.6-2.8,4.1c0.2-0.3-0.1,0-0.4,0.4         c-0.8,1.2-0.4,0.9-1.4,2.4c0.1-0.3,0.3-0.7,0.6-1.3c-0.9,1.4-1.7,2.8-2.5,4.3c-0.3,0.3,0.4-0.9,0.7-1.5         c-1,1.6-2.6,4.2-2.8,4.8l0.7-1c-0.4,0.6-0.3,0.2,0-0.2c0.8-1.4,1.3-2,1.4-2l-0.6,1c0.9-0.9,2.5-4.1,3.9-6.1l-0.4,1l1.2-2.2         c0.3-0.4,0.6-0.6,0,0.4c1-1.4,0.8-1.3,1.7-2.5c0.1-0.1,0.1-0.1,0,0.1c0,0,0.2-0.4,0.4-0.7c0.2-0.4,0.5-0.7,0.5-0.7         c-0.2,0.3,0.3-0.1-0.3,0.7c1.9-2.4,2.7-4.1,3.5-5l-0.1,0.2c2.4-3.5,0.1-0.4,1.8-3.1l1.6-1.5l0.1-0.4c0.3-0.3,0.8-1,0.7-0.9         c0.9-1.4-0.2,0.2,0.3-0.6c1.3-1.6,3.5-4.6,4-4.9c0.4-0.7-1.3,1.5,0-0.3c0.6-0.3,1.5-2.1,2.9-3.5c-0.3,0.5-1.5,1.9-0.2,0.5         c0.6-1,2.4-2.9,3.4-4.1c-0.1-0.2,2.2-2.7,3.9-4.8c0,0.1,0.8-0.9,1.9-2.1c1.1-1.2,2.4-2.6,3.3-3.5l0,0.1         c0.1-0.2,0.6-0.8,1.2-1.6c0.6-0.7,1.4-1.5,2-2.2c0,0.1-0.2,0.4-0.8,1.2l1.2-1.3c0.2-0.3,0.6-0.8,1.4-1.6l-0.2,0.4         c1.6-1.8,3.2-3.6,5.4-5.7c0-0.2-2,1.5,0.2-0.9c0.1,0,0.3,0-0.3,0.6c0.2-0.2,0.7-0.7,1.1-1.1l-0.8,1c1-1,0.4-0.6,1.2-1.4         c0.1,0.1,0.6-0.5,0.6-0.4c-0.2,0.2-0.7,0.6-1,1c0.9-0.9,2-1.9,2.4-2.2c-0.1,0-0.1-0.1,0.6-0.7c1.7-1.7,0.7-0.5,1.7-1.4         c0.4-0.5,1.5-1.4,1.4-1.6c0.5-0.5,0.7-0.5,0.9-0.7c0.9-0.9,4.2-3.9,3.1-3.1l-0.2,0.2c0,0,0.1-0.1,0.1-0.1c0,0,0,0,0,0l0,0         c2.9-2.8,6.3-5.5,9.3-8.1l0,0c1.8-1.6,4.1-3.4,5.3-4.6c0.5-0.4,1.3-1,1.1-0.7c1.4-1.2,1.5-1.3,3.7-2.9         c-1.4,1.2,0.5-0.3-1.4,1.2c1.9-1.4,2.4-1.7,4.3-3.4c-0.6,0.6,1.5-0.9,2.4-1.7l-1.4,0.9c1-0.8,1.9-1.4,2.8-2.1l-0.4,0.5         c4-2.7,6.9-5.4,10.1-7.3c1-0.8-2.2,1.4-1.3,0.7c1.8-1.3,3.9-2.4,4.5-2.8c2.6-1.6,2.2-1.8,4.9-3.5c-0.4,0.2-0.8,0.2,1.2-1.1         c1.9-1.2,2.4-1.3,1.3-0.5c-0.4,0.3-0.7,0.4-0.7,0.4c-0.6,0.4-1.4,0.9-0.6,0.5l0.2-0.2c1-0.5,3.5-2.2,3-1.7         c1.4-0.9,0.6-0.5-0.5,0.2c2.4-1.5,3.8-2.3,6.3-3.9c-0.4,0.2-0.8,0.4-0.4,0.1c3.7-2.2,1.6-1.1,4.1-2.6         c1.5-0.8-0.4,0.5,2.1-1.1c1.6-0.8,0.4-0.1-0.2,0.3c2.3-1.4,4.4-2.4,5.7-3.1l-1.2,0.7c0.7-0.4,1.3-0.8,1.9-1.1l-0.8,0.3         c0.7-0.4,1.4-0.7,1.4-0.7c0.7-0.5-0.7,0.1,0.8-0.8c1-0.5,2.9-1.7,3.3-1.7c-3.1,1.6,0.4-0.1-2.2,1.4c0.5-0.3,1.1-0.6,1.8-1         c0.1,0-0.1,0.1-0.3,0.2c3-1.4,1.3-0.9,4.3-2.5c-0.3,0.3,0.8-0.2,1.3-0.5c-1.2,0.6-0.7,0.2,0.4-0.5c2-0.9,2.1-1.1,3.2-1.6         l-1.2,0.6c0.4-0.3,1.4-0.8,2.7-1.5c0.1,0-1.2,0.7-0.7,0.4c1.5-0.9,3.6-1.6,5.7-2.7c1-0.4,0.2,0.1,1.1-0.3         c2.4-1.2,2.7-1.1,5.2-2.4c-0.8,0.2-0.9,0.3,0.9-0.6c0,0-1,0.5-2.1,1c-1,0.5-2.1,1-2.1,1l2.6-1.4c-1.3,0.6-2.6,1.3-3.4,1.6         c1.2-0.7,1.1-0.6,0.5-0.4c1.8-0.7,3.4-1.7,5.5-2.5l0.1,0.3c1.5-0.6,2.9-1.3,4.3-1.9c1.4-0.7,3-1.4,5-2.2l-1.3,0.5         c0.5-0.3,2.5-1,3.7-1.6c-0.1,0.1,0.7-0.2,1.3-0.3c-0.1,0,2.9-1.2,3.2-1.5l1.8-0.6c3.3-1.2,3.6-1.7,6.8-2.8         c-0.9,0.5,0.5,0-1.5,0.8c1-0.4,2-0.7,2-0.8c0.6-0.2,2.9-1.2,3.9-1.4c0.4-0.2,0.5-0.3,1.7-0.8c0.1,0,0,0,0,0         c0-0.1,1.8-0.7,0.8-0.5c3.4-0.8,9.1-3.1,12.1-3.7c2.3-0.8,5.1-1.6,7.3-2.3c-0.1,0.1,0,0-0.4,0.2c3-0.8,1.7-0.8,5.1-1.6         c1.8-0.3-1.8,0.6-0.7,0.3c0.5,0.2,4-1.2,6.3-1.6L256,9.3c1.8-0.3,4.2-1.2,7-1.9c0,0-0.1,0.1,0,0.1c1.9-0.6,5.6-1.5,8.3-2.2         c-0.8,0.3-1.2,0.3-0.7,0.3c1.2-0.3-0.4-0.1,2-0.7c0.8-0.1,2.6-0.4,2.9-0.3l-2.3,0.5c1.2-0.1,3-0.6,4.2-0.8l-0.1,0.1         c3.6-0.7,3.6-0.9,7.4-1.6l-0.4,0c2.1-0.5,1.8-0.2,3.9-0.7l0.7,0.1c1.4-0.3,4.8-0.9,7.4-1.3c-1.4,0.3-4.3,0.8-6.1,1.2         c1.4-0.2,4.7-0.7,5.4-0.9c-0.6,0.1-1.3,0.2-1.8,0.3c0.6-0.1,1.4-0.3,2.2-0.4c0.4-0.1,0.8-0.1,1.3-0.2c0.2,0,0.4-0.1,0.7-0.1         l0.3,0l0.2,0l0.1,0c0,0,0,0,0,0c0,0,0,0-0.1,0c0,0-0.1-0.1-0.1-0.2c0-0.1,0.1-0.1,0.1-0.1c0.1,0,0,0,0.1,0l0,0l0,0l0,0l0,0         l0,0c0,0,0,0,0,0.1c0,0,0-0.1,0-0.1c-0.6,0-1.2,0.1-1.9,0.1c0.5-0.4-7.3,0.3-9.3,0.1c-2.5,0.2-4.9,0.4-7.4,0.6         c-1.3,0.1-2.6,0.2-3.9,0.3c-1.3,0.1-2.7,0.2-4.1,0.4c2.1,0.1-1.7,0.2-1.3,0.5c-1.3,0.2-1.8,0.2-2,0.2l-4.1,0.3         c-1,0,1.3-0.2,1.1-0.3c-2.9,0.3-1.2,0-3.2,0.2c0.4,0.1-1,0.3-2.6,0.5c0,0,0.6-0.1,1.2-0.1c0.6-0.1,1.2-0.1,1.2-0.1         c-4,0.8-3.5,0.3-7.6,1.1l1.3-0.3c-1,0.2-3,0.5-4.9,0.8c-1.9,0.4-3.8,0.8-4.8,1.1c-0.4,0-0.9,0,0-0.2c-2.5,0.5-5.3,1-7.9,1.7         c-2.6,0.7-5.1,1.3-7,1.6l0.4-0.2c-0.9,0.2-1.6,0.5-2.7,0.7c0.1,0,0.4-0.2-0.1-0.1c-0.5,0.1-2.4,0.8-3.6,1.1l1-0.4         c-2.4,0.6-4.2,1.1-5.9,1.7c-0.9,0.3-1.7,0.5-2.6,0.8c-0.9,0.3-1.8,0.6-2.7,0.9c-0.1-0.2-3.8,0.9-5.7,1.4l0.1,0         c-0.7,0.2-1.3,0.4-2,0.6c-0.6,0.2-1.2,0.5-1.8,0.7c-1.2,0.4-2.3,0.9-3.4,1.3c-2.2,0.9-4.4,1.7-6.9,2.7         c-1.6,0.5-4.2,1.5-7,2.6c-2.8,1.2-5.8,2.5-8.3,3.5c0.8-0.3-0.1,0.2-0.9,0.6c-1.2,0.4-3,1.6-3,1.3l0.4-0.2         c-0.9,0.2-3.2,1.4-5,2.3l-0.2,0.4c-2.5,0.9-5.4,2.6-8.2,4.1c-2.8,1.5-5.2,3-6.5,3.5c-1.1,0.7-2.4,1.5-3.5,2.2l0-0.2         c-1.5,0.8-2.6,1.5-3.9,2.3c-1.2,0.8-2.5,1.6-4.3,2.7l0.7-0.6c-2.1,1.3-2.4,2-4.3,3.2l-0.7,0.2c-1.8,1.2-3.6,2.3-5.4,3.5         c-1.8,1.2-3.5,2.5-5.1,3.8c0-0.1,0.1-0.2,0.7-0.6c-0.8,0.6-2.4,1.7-3.7,2.6c-1.3,1-2.2,1.8-1.9,1.7c-0.2-0.1-3.5,2.7-5.3,4.1         l0.2-0.3c-1.4,1.3-1.4,1.4-3.5,3.2c-0.5,0.4-0.5,0.3,0.2-0.2c-1.7,1.3-1.2,1.2-3.3,2.8l0.7-0.7c-1.7,1.4-1.5,1.3-2.4,2.2         c-1,1-3.2,2.7-3.5,2.8c-0.2,0.3-1,1.1-2,2c-0.2,0.1,0.2-0.3,0.3-0.4c-1.4,1.2-2.4,2.1-3.3,3c-0.9,0.9-1.6,1.6-2.6,2.4         c-0.1,0-0.2,0.1-0.4,0.2c2.1-2,3.9-3.6,3.7-3.4c-0.1-0.1-1.8,1.5-0.6,0.1c-1.3,1.4-3.6,3.7-5.3,5.2c-0.1,0.1-0.2,0.1-0.3,0.2         l0.2-0.2c-0.4,0.3-0.7,0.7-1,1c-0.5,0.5-0.9,0.8-1.4,1.3c-0.3,0.1-2,1.9-2.8,2.7c0.2,0-0.9,1.1,0.2,0.2         c-0.1,0.1,0.1-0.2,0.7-0.7c0.1-0.1,0.3-0.3,0.3-0.4c0,0,0,0,0,0.1c0.6-0.5,1.3-1.3,2.1-2.1c-0.6,0.7-1.3,1.4-2.3,2.3         c-0.4,0.5-0.8,1-1,1.3c-1.3,1-3.5,3.1-3.9,3.4c-1.2,1.3-2.7,2.9-4,4.3c-1.3,1.4-2.5,2.8-3.1,3.7c-0.7,0.8-0.9,0.8-1.1,1.1         c0.4-0.5,0.9-1,1-1.2c-1.3,1.6-4.1,4.5-4.3,5c-1.8,1.9,0.8-1.2-1.5,1.5l0.3-0.4c-4.8,5-7.1,8.8-12.2,14.6         c0.4-0.4,0.5-0.6,0.6-0.7c-5.7,6.7-11.1,14.4-16.4,21.2c-1.5,2-1.5,2.3-2.3,3.5l-0.4,0.3l-1.4,2.2c-2,3-3.9,5-6.3,8.9         l0.4-0.4c-1,1.4-2.9,4.4-2.8,4.1c-0.1,0.2-0.2,0.5-0.6,1l-0.1,0l-2.2,3.5c-0.1,0.1-0.1,0.2-0.2,0.3c-0.1,0.1,0,0.2,0,0.3         c0.1,0.1,0.2,0.3,0.3,0.3c0.2,0.2,0.3,0.3,0.4,0.3c0.1,0.1,0.1,0.2,0.1,0.2c0,0.1,0.2,0.4,2.2,1.5c0.8,0.4,1.9,0.9,2.8,1.2         c0.9,0.3,1.5,0.4,1.2,0.3c-0.7-0.2-1.6-0.7-1.7-0.8c0,0,0.4,0.1,0.7,0.3c0.4,0.1,0.7,0.3,0.7,0.3c0.2-0.1,0.6-0.1,0.5-0.2         c-0.1-0.2-0.7-0.4-2.4-1.3c0,0-0.6-0.3-1.2-0.5c-0.6-0.3-1.2-0.6-1.2-0.6l-0.7-0.5c0,0,0.5,0.3,1,0.6c0.5,0.3,1,0.5,1,0.5         c-1.1-0.7-1.8-1-2.6-1.4c0,0-0.1-0.1-0.1-0.1c0-0.1-0.1-0.1-0.1-0.1c0,0-0.1-0.1-0.1-0.1c0,0,0,0,0-0.1c0,0,0,0,0-0.1         c0-0.1,0.1-0.1,0.1-0.2c0.1-0.1,0.2-0.3,0.2-0.4c0.3-0.6,0.6-1.2,0.6-1.2c0.3-0.2-0.5,1.1,0.5-0.4c0.6-1.1-0.8,0.9,0.2-0.9         c0.8-1,0.7-0.6,1.4-2c0.2-0.1,0,0.1-0.3,0.7c0.7-1.2,1.9-3,2.2-3.6c0.9-1,2.5-3.7,2.6-3.5c0.2-0.4,1.2-2,1.9-3.1         c-1.1,2,2.7-3.8,2.6-3.1c0.8-1.5,3.4-5,5-7.4c-0.1,0.1-0.2,0.4-0.4,0.6c1-1.3,1.3-1.7,2-2.5c0-0.3,1.5-2.4,2.2-3.6         c1.4-1.5-0.6,1.1,0,0.7c-0.2,0,2-2.9,1.5-2.4c1-1.2,0.9-1,1.5-1.6c0-0.4,0.8-1.2,1.5-2.3c1.5-1.7,0.5-0.3,2-2.3         c0.4-0.4,0.3-0.2,0,0.1C60.7,125.8,60.4,126.3,60.4,126.3z M99.5,82.5L99.5,82.5c-0.4,0.3-0.7,0.6-0.9,0.8         C98.8,83.1,99,82.9,99.5,82.5z M103.1,79.1c-0.4,0.4-1,0.9-1.6,1.5c-0.2,0.1-0.1-0.1,0.3-0.4         C101.6,80.4,102.5,79.6,103.1,79.1z M94.8,85.6c0.5-0.6,0.8-0.7,0.8-0.8c-0.3,0.3-0.6,0.6-1,1c0,0,0,0.1-0.1,0.1         C94.7,85.8,94.7,85.7,94.8,85.6z"/>
							<path fill="#44ABF1" d="M93.9,86.7c-0.1,0.1-0.1,0.1-0.2,0.2c0.1-0.1,0.2-0.2,0.4-0.3c0.1-0.1,0.1-0.2,0.2-0.2         C94.1,86.5,94,86.6,93.9,86.7z"/>
							<path fill="#44ABF1" d="M101.2,91.6L101.2,91.6C101.2,91.6,101.1,91.7,101.2,91.6C101.1,91.7,101.1,91.7,101.2,91.6z"/>
							<polygon fill="#44ABF1" points="158,39.1 158,39.1 157.7,39.3        "/>
							<path fill="#44ABF1" d="M81.5,110.5c0,0-0.1,0.1-0.3,0.2C81.3,110.7,81.4,110.6,81.5,110.5z"/>
							<path fill="#44ABF1" d="M73.7,119.3l-1.1,1.2C73,120,73.4,119.6,73.7,119.3z"/>
							<path fill="#44ABF1" d="M67.8,126.2c-0.1,0.1-0.1,0.1-0.1,0.2l0,0L67.8,126.2z"/>
							<path fill="#44ABF1" d="M179.5,37.1c0.1-0.1,0.2-0.1,0.3-0.2C180.6,36.6,180.1,36.8,179.5,37.1z"/>
							<path fill="#44ABF1" d="M142.7,58.8c0.4-0.3,0.7-0.5,1.1-0.8C143.1,58.4,142.6,58.8,142.7,58.8z"/>
							<path fill="#44ABF1" d="M223.5,18.2C223.5,18.2,223.5,18.2,223.5,18.2c0.1,0,0.2-0.1,0.3-0.1L223.5,18.2z"/>
							<path fill="#44ABF1" d="M145.4,56.9c-0.7,0.4-1.2,0.7-1.7,1.1C144.3,57.7,144.9,57.3,145.4,56.9z"/>
							<path fill="#44ABF1" d="M45,158l-0.2,0.4c0,0,0,0,0,0.1L45,158z"/>
							<path fill="#44ABF1" d="M44.7,158.5l-0.2,0.4C44.6,158.7,44.7,158.5,44.7,158.5z"/>
							<path fill="#44ABF1" d="M44,159.8l0.5-0.9C44.3,159.2,44.1,159.5,44,159.8z"/>
							<path fill="#44ABF1" d="M51.6,148l0-0.1C51.6,148,51.6,148,51.6,148z"/>
							<path fill="#44ABF1" d="M53.6,145c-0.5,0.7-1.4,1.7-2,2.7l0,0.1C51.8,147.4,53.2,145.8,53.6,145z"/>
							<path fill="#44ABF1" d="M63.1,133.1c0,0-0.5,0.6-1,1.2c-0.5,0.6-0.9,1.2-0.9,1.2c0.4-0.4,0.8-0.9,0,0.2         C63.7,132.8,60.6,136.3,63.1,133.1z"/>
							<path fill="#44ABF1" d="M69,125.8c-1,1.3,0.1,0,0,0.1C69.7,125.1,69.8,124.9,69,125.8z"/>
							<path fill="#44ABF1" d="M117.4,77.9l0,0.2C118.3,77.3,117.3,78,117.4,77.9z"/>
							<polygon fill="#44ABF1" points="127.3,69.4 126.3,70.1 125.9,70.5        "/>
							<polygon fill="#44ABF1" points="134.1,65.6 133.7,65.9 135.4,64.7        "/>
							<path fill="#44ABF1" d="M236.4,15.1l-0.4,0C235.2,15.3,235.1,15.6,236.4,15.1z"/>
							<path fill="#44ABF1" d="M284.4,3c0.5,0,1.9-0.2,2.8-0.4C286,2.8,284.9,2.9,284.4,3z"/>
							<path fill="#44ABF1" d="M169,31.7l0.9-0.5C169.9,31.3,169.5,31.5,169,31.7c-0.4,0.2-0.8,0.4-0.8,0.4L169,31.7z"/>
						</g>
					</g>
				</g>
			</g>
		</g>
		<g>
			<g>
				<g>
					<g>
						<g>
							<path fill="#44B6E6" d="M13.6,215.8c0-0.2-0.1-0.1-0.3,0.3l-0.1,0.4C13.2,216.5,13.6,215.9,13.6,215.8z"/>
							<path fill="#44B6E6" d="M11.5,217.9c-0.3,0.4-0.6,0.9-0.3,0.8c0.3-0.5,0.4-0.5,0.6-1c0.3-0.3,0.6-0.5,0.6-0.4         c0.1-0.1,0.5-0.5,0.5-0.7c-0.5,0.4-0.9,0.9-1.4,1.5C11.4,218.1,11.5,217.9,11.5,217.9z"/>
							<path fill="#44B6E6" d="M6.9,198.2c0,0,0.2,0.1,0.2,0.1C7.1,198.2,7,198.2,6.9,198.2z"/>
							<path fill="#44B6E6" d="M2.8,175c0.1,0.2,0.1,0.3,0.1,0.3C2.8,175.1,2.8,175,2.8,175z"/>
							<path fill="#44B6E6" d="M1.3,170.9c0,0.1,0.1,0.2,0.1,0.2C1.4,171,1.3,170.9,1.3,170.9z"/>
							<path fill="#44B6E6" d="M6.9,198.2c0,0-0.2-0.1-0.3-0.2c-0.1-0.1-0.2-0.2-0.2-0.2C6.4,197.8,6.6,198,6.9,198.2z"/>
							<path fill="#44B6E6" d="M7,221.7c0.1-0.1,0.3-0.1,0.4-0.2C7.2,221.5,7.1,221.6,7,221.7C7,221.6,7,221.6,7,221.7z"/>
							<path fill="#44B6E6" d="M13,200.2l0.1,0.2c0,0.1,0.1,0.1,0.1,0.1L13,200.2z"/>
							<path fill="#44B6E6" d="M9.3,208.1c0.1-0.2,0-0.3,0-0.4c0,0.1-0.1,0.3-0.1,0.4C9.2,208.1,9.3,208.1,9.3,208.1z"/>
							<path fill="#44B6E6" d="M5.4,220.7l0.1,0.2C5.5,220.9,5.4,220.8,5.4,220.7z"/>
							<path fill="#44B6E6" d="M10.2,194.7C10.2,194.7,10.1,194.7,10.2,194.7C10.1,194.7,10.1,194.7,10.2,194.7z"/>
							<path fill="#44B6E6" d="M18.4,206.9C18.4,206.9,18.4,206.9,18.4,206.9C18.4,207,18.4,207,18.4,206.9z"/>
							<path fill="#44B6E6" d="M13.3,215.7l0.1-0.1c0,0,0-0.1-0.1-0.1L13.3,215.7z"/>
							<path fill="#44B6E6" d="M3.2,170.3C3.2,170.2,3.2,170.2,3.2,170.3C3.1,170.1,3.1,170.2,3.2,170.3z"/>
							<path fill="#44B6E6" d="M35.2,168.6C35.3,168.5,35.3,168.5,35.2,168.6L35.2,168.6c0,0.1,0,0.2-0.1,0.2c0,0.1-0.1,0.1-0.1,0.1         c0,0.1,0,0.1,0,0.1l-0.1-0.2c0.1-0.1,0.1-0.1,0,0l0.2,0.2c0,0,0,0,0,0c0,0,0-0.1,0.1-0.1C35.2,168.7,35.3,168.6,35.2,168.6         L35.2,168.6C35.3,168.5,35.3,168.5,35.2,168.6L35.2,168.6L35.2,168.6l-0.4,0l0,0c0,0,0,0,0,0c0.1,0.3,0.2,0.4,0.2,0.4         c0,0,0,0,0,0c0-0.1,0-0.1,0-0.3c0,0,0,0-0.1-0.1l0,0l0,0l0,0L35.2,168.6L35.2,168.6C35.3,168.5,35.3,168.5,35.2,168.6         L35.2,168.6c0,0,0,0.1-0.1,0.2c0,0,0,0,0,0.1l0,0l-0.2-0.1c0,0,0,0,0,0l0,0l0,0l0.1-0.2l0,0L35.2,168.6         c-0.1,0,0.2,0.3,0.1,0.2l-0.1-0.1l-0.2,0.2c0,0,0,0.1,0,0.1l0.2,0.1l0.1-0.2c0,0,0,0,0,0c0,0-0.1-0.1-0.1-0.1         C35.3,168.7,35.2,168.6,35.2,168.6c-0.1-0.1-0.1-0.1-0.1-0.1l0,0l0,0l0,0l-0.1,0.2l0,0l0,0l0,0l0,0c0,0,0,0.1-0.1,0.1         l0.1,0.3c0,0,0,0,0-0.1c0,0,0-0.1,0.1-0.1C35.2,168.7,35.3,168.6,35.2,168.6L35.2,168.6C35.3,168.5,35.3,168.5,35.2,168.6z"/>
							<path fill="#44B6E6" d="M6.8,221.7c-0.1,0-0.3,0.1-0.4,0.1C6.5,221.8,6.7,221.8,6.8,221.7z"/>
							<path fill="#44B6E6" d="M35.1,168.7L35.1,168.7C35.1,168.7,35.1,168.6,35.1,168.7l0-0.1l0,0l0.2,0l0,0c0,0,0,0,0,0s0,0,0,0         l0,0l-0.2,0l0,0L35.1,168.7C35.1,168.6,35.1,168.7,35.1,168.7z"/>
							<path fill="#44B6E6" d="M13.9,185.4c0,0,0-0.1-0.1-0.2C13.9,185.3,13.9,185.3,13.9,185.4z"/>
							<path fill="#44B6E6" d="M6.2,174l0.2,0.3C6.3,174.2,6.2,174.1,6.2,174z"/>
							<path fill="#44B6E6" d="M20.4,187.9c0.1-0.2,0.1-0.2,0.2-0.4c0,0,0,0-0.1,0.1C20.5,187.6,20.5,187.7,20.4,187.9z"/>
							<path fill="#44B6E6" d="M24.1,181.5c0,0-0.1,0.1-0.1,0.1c0,0.1-0.1,0.1-0.1,0.2L24.1,181.5z"/>
							<path fill="#44B6E6" d="M30.1,203.4c0,0-0.1,0.1-0.1,0.2c0,0.1-0.1,0.1-0.1,0.1c0.1,0,0,0.3-0.1,0.3c0,0,0,0.1,0,0         c0,0,0-0.1,0.1-0.2c0-0.1,0.1-0.1,0.1-0.2C30.1,203.6,30.1,203.4,30.1,203.4z"/>
							<path fill="#44B6E6" d="M7,221.6c0,0.1-0.1,0.1-0.2,0.1C6.8,221.7,6.9,221.7,7,221.6C7,221.6,7,221.6,7,221.6z"/>
							<path fill="#44B6E6" d="M19.5,187.1l0.6-1C19.9,186.3,19.7,186.7,19.5,187.1z"/>
							<path fill="#44B6E6" d="M27.9,192.5l0.2,0.1C28.1,192.6,28,192.5,27.9,192.5z"/>
							<path fill="#44B6E6" d="M21.8,182.9c0.2-0.2,0.3-0.3,0.4-0.5c0,0,0-0.1,0-0.1L21.8,182.9z"/>
							<path fill="#44B6E6" d="M29.8,203.8L29.8,203.8L29.8,203.8z"/>
							<path fill="#44B6E6" d="M24,208.9c0.6,0.4,0.9,0.4,0.9,0.4c0,0,0-0.2,0.1-0.2c0.4,0.1,0.7,0.1,0.9,0.1c0.2,0,0.2,0,0.3,0         c0.1,0,0,0.1,0.3,0.1c0.6-0.2,0.9-0.8,1.1-1.1c0.1-0.3,0.2-0.6,0.4-0.9c0,0,0.1-0.1,0.1,0c0.3-0.9,1.3-2.3,1.6-3.3         c0.1-0.1,0.1-0.1,0.1-0.1c-0.2,0.2-0.3,0.1-0.3,0c0.1-0.2,0.2-0.4,0.2-0.5c0-0.1,0-0.2,0-0.3c0-0.1,0.1,0,0.2,0         c-0.1,0-0.2,0-0.1,0.1c0,0.1,0,0.1,0.1,0.2c0-0.1,0-0.1,0-0.2c0-0.1,0.1-0.1,0.1-0.1c0.2,0.1,0,0.1-0.1,0.2         c0,0.1,0,0.2,0,0.3c0-0.1,0-0.1,0-0.2c0-0.1,0.2-0.1,0.3-0.1c0.2-0.1,0.5-0.1,0.7-0.2c0.4-0.1,0.8-0.2,1.2-0.2         c0.2,0.1-1.8,0.4-0.8,0.3l-1.2,0.1c0.4,0.1,0.3,0.1,0.1,0.1c-0.1,0-0.1,0,0,0.1c1.6-0.2,1.8-0.4,3.4-0.6         c0.3-0.2-0.1-0.1,0.2-0.3c2.2-0.6,1.9,0.1,3.5-0.4c0.4-0.2,0.5-0.4,1.7-0.5l-0.4,0.3c1.5-0.2,0.8-0.4,2.5-0.6         c-0.3,0.1-1.2,0.3-1,0.3c1.1,0,0.7-0.2,1.5-0.4l0.2,0.1c1.6-0.3,3.4-0.7,5.2-1.1c-0.1,0.1-0.4,0.2,0,0.2         c0.8-0.2,1.7-0.3,2.6-0.5c1-0.1,2-0.3,3-0.4c0.2-0.4,0.4-0.7,0.6-1c0.2-0.3,0.3-0.5,0.5-0.8l0.6-1.3c0.2-0.3,0.4-0.6,0.3-0.3         c0.1-0.2,0.2-0.3,0.3-0.4c-0.7,0,0.1,0.1-0.6,0.1c-0.8,0-1-0.1-0.4-0.2c-0.9,0-2.2,0-3.6,0c-1.1,0-2.2-0.1-3-0.2l0.3,0         c-1.3-0.1-1.4,0.2-2.6,0l0.2,0c-2.7-0.2-5.8-0.3-7.9-0.6c-0.4,0.2-2.7-0.3-2.9,0c-1.6-0.2-1.1-0.3-3.3-0.5         c-0.1,0-0.1,0-0.1,0c0,0-0.3-0.1-0.4-0.1c-0.2-0.1-0.4-0.1-0.7-0.3l0.1-0.1l-0.9-0.3l-0.4-0.4l-0.6-0.3         c0.2,0.1,0.5,0.3,0.4,0.4c-0.3-0.2-0.7-0.4-1.1-0.6c-0.2-0.1-0.2-0.2-0.3-0.2c0,0-0.1-0.1-0.1-0.1c0.1-0.1,0.1-0.1,0.1-0.1         c0,0,0,0,0-0.1c0.1-0.2,0.2-0.5,0.4-0.7c0.3-0.6,0.6-1.1,0.6-1.1c0,0.1-0.2,0.5-0.3,0.8c0.6-1.3,0.3-0.1,0.8-1.3         c-0.1,0.1,0-0.1,0-0.2c0.4-0.5,1.1-1.7,1.5-2.7l0,0.2c0.2-0.4,0.4-0.9,0.6-1.3c0.2-0.5,0.4-1,0.5-1.5         c0.3-0.9,0.6-1.8,0.8-2.7c0,0,0,0-0.1,0.1c0,0.1-0.1,0.1-0.1,0.1c0,0,0-0.1,0-0.2c0,0,0-0.1,0-0.2c0,0,0,0,0.1,0         c0,0,0.1,0.1,0.1,0.1c0.1-0.1-0.1-0.1-0.1-0.1c0,0,0,0,0,0c0,0,0,0,0.1-0.1c0.1,0,0.2,0,0.3,0c0.1,0,0.1,0,0.1,0.1         c0,0-0.1,0.1-0.1,0.1c-0.1,0-0.2,0.1-0.2,0.1c0,0,0,0,0,0c0.1,0,0.2,0,0.3-0.1c0.2,0,0.5-0.1,0.5-0.1c0.1,0-0.2,0.1-0.2,0.2         c0.4-0.1,1.7,0,2.2-0.3l0.1,0c2.1-0.2,3-0.4,4.7-0.6c0-0.1,0.7-0.2,1.2-0.4c1.3-0.1,2.7-0.1,4.2-0.3c0.3,0,0.4-0.1,0.5-0.1         c0.1,0,0.2-0.1,0.2-0.1c0,0-0.1-0.1,0.2-0.1c0,0,0.1,0,0.2,0c0.1-0.1,0.2-0.3,0.3-0.5c0.1-0.1,0.2-0.2,0.2-0.3         c0.1-0.2,0.2-0.2,0,0.1c0.8-1.4,1.1-2.1,1.9-3.5c-0.3-0.1-1.1-0.2-2-0.4c0.2,0.1,0.6,0.2,0.4,0.2c-0.5-0.1-0.9-0.3-0.9-0.3         l0.1,0c-2.6-0.4-5.7-1.8-7.8-2l0.1,0l-2.1-0.4c-1-0.3,0.6,0-0.1-0.2c-0.3-0.1-0.6-0.1-0.9-0.1c-0.1,0-0.2,0-0.3,0         c0-0.1,0.1-0.3,0.1-0.4c0.1-0.3,0.2-0.6,0.2-0.9c0.1-0.6,0.3-1.3,0-2.1c0,0,0-0.1,0-0.1l0,0c0,0,0-0.1,0-0.1         c0,0,0-0.2-0.3-0.4l0,0c0,0,0,0,0,0c0,0-0.1,0-0.1-0.1c0,0-0.1,0-0.1-0.1c0.1,0,0.2,0.1,0.3,0.2c-0.1-0.1-0.1-0.1-0.2-0.2         c-0.1,0,0,0-0.1,0c-0.1,0-0.2,0-0.2,0c-0.1,0-0.2,0-0.2,0c-0.1,0-0.1,0.1-0.2,0.1c-0.1,0-0.1,0.1-0.1,0.1         c0.1,0,0.2-0.1,0.3-0.2c-0.8,0.1-1.3,0.5-1.9,1c-0.3,0.2-0.5,0.5-0.8,0.8l-0.2,0.2l0,0l-0.1,0.1c0,0-0.1-0.1-0.1-0.1         c-0.2-0.2-0.3-0.3-0.5-0.5c-0.3-0.3-0.6-0.7-0.9-1l0,0.1c-0.4-0.3-0.4-0.5-0.7-0.8c0,0.1,0.3,0.4,0.1,0.3         c-1.2-1.1-2.4-2.3-3.6-3.6c-0.6-0.6-1.2-1.2-1.8-1.9l-0.9-0.9l-1.6-1.6c-0.7,1.2-1.4,2.4-2.1,3.6c0,0.1-0.1,0.2-0.1,0.2         c-0.1,0.1-0.1,0.2-0.1,0.3c-0.1,0.2-0.2,0.4-0.3,0.6c0.2,0.3,0.3,0.5,0.4,0.6c0.1,0.1,0.2,0.2,0.2,0.3         c0.2,0.2,0.3,0.6,0.6,1.3l-0.4-0.5c1.6,2.9,2.8,6.1,4.4,8.9c-0.1-0.2-0.2-0.1-0.3-0.4c0.2,0.7,1.1,2.3,1.2,2.3         c0.2,0.5,0,0.1,0.1,0.4c0,0,0,0,0,0.1l0,0.1c0,0-0.2,0.2-0.2,0.3c-0.2,0.2-0.3,0.4-0.4,0.5c-0.1,0,0.1-0.2,0.2-0.3         c-0.2,0.4-1.4,1.6-1,1.3c-0.4,0.5-0.8,0.9-1.1,1.4c-0.3,0.5-0.6,0.9-0.9,1.3c-0.2,0.6-1.1,1.8-1,2.1         c-0.2-0.2-1.2,1.8-1.4,2.5c0.1-0.3-0.4,0.6-0.3,0.2l-0.1,0.2l0,0c0,0,0,0.1,0,0.1c0,0-0.1,0-0.1,0.1c0-0.1-0.4-0.3-0.8-0.5         c-0.3-0.2-0.7-0.4-1-0.5c-0.6-0.3-1.2-0.6-1.5-1c-0.1-0.1-0.2-0.1-0.3-0.2l-0.1-0.1l0,0c0,0,0,0,0-0.1l-0.1-0.2l-0.3-0.3         c-0.2-0.2-0.3-0.5-0.5-0.7c-0.3-0.5-0.7-0.9-1-1.3c-0.7-0.9-1.3-1.7-1.9-2.6c0.2-0.1,1.5,2.1,1.6,1.9         c-1.3-1.8-2.2-2.7-3.4-4.5c-0.3-0.5,0.3,0.2,0.4,0.3c-1.3-1.8-2.4-3.5-3.6-5.1c0,0,0.2,0.2,0.3,0.3c-0.2-0.3-0.5-0.8-0.5-0.7         l0.2,0.3c0.2,0.6-1.1-1.1-1.2-1.1c0.6,0.4-1-1.6-0.1-1c-0.2-0.2-0.4-0.4-0.4-0.3c-0.2-0.3-0.2-0.4,0-0.2         c-0.8-1.1-0.6-0.6-1.4-1.7c0,0,0.2,0.2,0.3,0.2c-0.2-0.2-0.4-0.5-0.7-0.8c-0.1-0.1-0.1-0.2-0.2-0.2c-0.1-0.1-0.2-0.2-0.3-0.4         c-0.2-0.3-0.4-0.5-0.6-0.9c0.1,0,0-0.2,0.2,0.2c-0.1-0.2-0.3-0.4-0.4-0.6c-0.2,0.4-0.4,0.7-0.6,1.1c-0.2,0.3-0.3,0.6-0.4,0.9         c-0.1,0.2-0.2,0.5-0.3,0.7l-0.2,0.3c-0.1,0.2-0.2,0.3-0.2,0.5c0.1,0.3,0.2,0.5,0.3,0.8c0.1,0.2,0.2,0.5,0.3,0.7         c-0.4-0.5,0.2,0.7,0.1,0.8l0.5,1L1,172.6c0.3,0.9,0.8,1.6,1,2.4l-0.3-0.6l0.7,1.6l-0.3-1c0.4,0.8,0.2-0.2,0.6,1         c-0.1-0.2,0.3,0.9,0.4,1.4l0,0c0.2,0.4,0.5,0.8,0.7,1.5c0,0.2-0.2-0.1-0.2,0.1c0.3,0.4,0.9,2,1.2,2.5         c-0.1-0.2-0.2-0.1-0.2-0.1l0.3,0.3c0.1,0.4,0.1,0.5,0,0.5c0.5,1.2,0.1-0.5,0.6,1c-0.1-0.1-0.1,0-0.2-0.3         c0.5,1.5,1.2,2.8,1.7,4.1c0,0.5-0.5-1.1-0.5-0.6c0.4,0.8,0.7,1.7,1.1,2.5c0.2,0.4,0.4,0.8,0.6,1.3l0.3,0.6         c0,0.1,0.2,0.3,0.1,0.4c-0.1,0-0.2,0.1-0.2,0.2c-0.1,0.1-0.2,0.2-0.3,0.3c0,0,0.3-0.3,0.3-0.3c-0.1,0.4-0.9,1.3-1.3,2.2         c0.1-0.2,0-0.4,0-0.3c-0.4,0.6-0.7,1.2-1,1.9c-0.2,0.4-0.4,0.7-0.5,1.2c-0.1,0.5,0,1.1,0.4,1.6c0,0-0.2-0.2-0.2-0.2         c0.1,0.2,0.3,0.4,0.5,0.6c0.1,0.1,0.2,0.2,0.4,0.2c0.1,0.1,0.3,0.1,0.4,0.2c0.6,0.2,1.3-0.1,1.7-0.4c0.2-0.2,0.5-0.8,0.2-0.5         c0.3-0.4,0.7-0.9,0.9-1.3c0.2-0.3,0.3-0.5,0.5-0.9c0.1,0.2,0.2,0.4,0.3,0.6l0.2,0.3l0.2,0.5c0.3,0.7,0.5,1.3,0.7,2         c-0.1-0.3-0.3-0.6-0.2-0.4l0.8,1.9c0-0.2,0-0.3-0.1-0.7c0.2,0.2,0.4,0.7,0.6,1.2c-0.2-0.4-0.2-0.4-0.2-0.2         c0,0.1,0.1,0.3,0.1,0.5c0,0,0,0,0,0c0.1,0,0.1,0.1,0.1,0c-0.7,0.7,0.1,0.2-0.8,1.4l0-0.1c-0.3,0.5-0.5,0.9-0.8,1.4         c-0.2,0.1,0.3-0.5,0.2-0.6c-0.4,0.7-0.6,1.5-1.1,2.1c0.2-0.3,0.4-0.7,0.6-1.1c-0.6,0.6-0.6,0.7-0.9,1.2l0,0l-0.8,1.1l0.2-0.3         c-0.2,1.1-1.1,1.8-1.6,3.1c0.5-1.3,0-0.3-0.1-0.4c-0.2,0.3-0.5,0.7-0.5,0.6c-0.2,0.6-0.7,0.9-1,1.8c-0.1,0-0.4,0.7-0.4,0.5         C5.5,213,6,211.9,6,212c-0.4,1.3-1.1,3-1.2,4.9c-0.1,0.8,0,1.3,0,1.8c0.1,0.5,0.1,0.9,0.3,1.7c0,0.5-0.3-0.4-0.2-0.4         c0,0.4,0.1,0.8,0.3,1.2c0.1,0.2,0.3,0.3,0.5,0.4c0.2,0,0.5,0,0.6,0c-0.2,0.1,0,0.1,0.3,0.1c0.6-0.3,0.4-0.3,1.1-0.6         c-0.1,0.1-0.2,0.3-0.5,0.5c0.7-0.4,1.2-0.9,1.8-1.4c0.2-0.1-0.3,0.4-0.5,0.6c0.7-0.5,1.7-1.4,1.8-1.7l-0.5,0.3         c0.2-0.2,0.2,0,0,0.2C9.6,220,9.2,220,9.2,220l0.4-0.4c-0.6,0.1-1.7,1.4-2.8,1.8c0,0,0.3-0.4,0.3-0.4s-0.2,0.2-0.5,0.3         c-0.3,0.1-0.6,0.2-0.6,0.2c-0.1,0-0.2-0.1-0.2-0.1c0,0,0.1,0,0.4-0.1c-0.4,0-0.5-0.1-0.6-0.1c-0.1-0.1-0.2-0.2-0.3-0.5         c0-0.1,0,0,0,0c0,0-0.2-0.7-0.2-0.7c0.1,0.1,0.1-0.1,0.2,0.3c-0.1-1.3-0.2-2.2,0-2.7l0,0.1c0.1-1.9-0.1-0.2-0.1-1.6         c0,0,0.1-0.2,0.3-0.4c0.1-0.2,0.3-0.4,0.3-0.4l-0.1-0.2c0-0.2,0.1-0.6,0.2-0.5c0.1-0.7-0.1,0.1-0.1-0.3         c0.2-0.4,0.3-1.1,0.5-1.6c0.2-0.5,0.5-0.9,0.6-0.9c0.1-0.3-0.6,0.7-0.1-0.2c0.4-0.1,0.6-1,1.1-1.7c0,0.3-0.5,1,0,0.3         c0.1-0.6,0.9-1.4,1.3-2c-0.1-0.1,0.8-1.4,1.4-2.5c0,0.1,1.3-1.9,2-2.8l0,0c0-0.1,0.1-0.3,0.2-0.5c0.1-0.2,0.3-0.5,0.5-0.9         c-0.1-0.3-0.2-0.5-0.3-0.8c0.1,0,0.1,0,0.2,0.1c0.1,0.1,0.2,0.2,0.3,0.6l-0.4-0.9c-0.1-0.2-0.2-0.4-0.5-0.8l0.2,0.1         c-0.4-1-1-1.9-1.4-3.2c-0.1,0,0.1,1.1-0.5-0.1c0-0.1,0.1-0.3,0.3,0.1c-0.1-0.1-0.2-0.4-0.3-0.7c0,0,0.3,0.5,0.3,0.5         c-0.3-0.8-0.2-0.3-0.4-0.8c0.1-0.1-0.1-0.5-0.1-0.6c0.1,0.1,0.2,0.6,0.3,0.8c-0.2-0.4-0.3-0.9-0.5-1.4         c-0.1,0.2-0.3,0.4-0.3,0.4c0,0,0,0.3-0.2,0.7c-0.7,1.2-0.4,0.4-0.8,1c-0.1,0.3-0.5,0.8-0.3,0.9c-0.2,0.3-0.2,0.3-0.3,0.3         c-0.1,0.2-0.5,0.5-0.9,0.5c-0.4,0-0.7-0.1-0.5,0.1l0.1,0c0,0,0,0-0.1,0l0,0l0,0c-0.4-0.1-0.8-0.3-1-0.7         c-0.2-0.4-0.3-0.8-0.1-1.2c0.4-0.8,1-1.6,1.3-2.4l0,0c0.2-0.5,0.5-1,0.8-1.5c0.3-0.5,0.4-0.9,0.9-1.2l0,0         c0-0.3-0.2-0.8,0-0.6c-0.4-0.8-0.4-0.8-0.8-2c0.4,0.7,0-0.3,0.4,0.8c-0.4-1-0.4-1.3-0.9-2.3c0.3,0.3-0.2-0.8-0.4-1.3l0.2,0.7         c-0.2-0.5-0.4-1-0.6-1.5l0.3,0.2c-0.6-2.1-1.8-3.5-2.1-5.2c-0.3-0.5,0.4,1.1,0,0.7c-0.4-0.9-0.5-2-0.6-2.3         c-0.4-1.3-0.7-1.1-1.2-2.5c0,0.2-0.1,0.4-0.5-0.6c-0.4-0.9-0.2-1.2,0.1-0.7c0.1,0.2,0.1,0.3,0.1,0.3c0.1,0.3,0.3,0.7,0.2,0.3         l-0.1-0.1c-0.1-0.5-0.7-1.8-0.4-1.5c-0.3-0.7-0.2-0.3,0,0.3c-0.4-1.2-0.7-1.9-1.2-3.1c0,0.2,0.1,0.4,0,0.2         c-0.3-0.8-0.4-1.1-0.5-1.2c-0.1-0.1-0.2-0.2-0.3-0.4c0,0,0-0.1,0.1-0.1c0.4-0.5,0,0.4,0.6-0.8c0.4-0.7,0.2-0.1,0.1,0.2         c0.1-0.2,0.1-0.3,0.2-0.5l0.1-0.1l0-0.1c0.1-0.1,0.1-0.1,0.1-0.1c0.1,0.1,0.1,0.2,0.1,0.3c0,0-0.1,0-0.1,0c0,0,0,0,0,0l0,0         l0.1,0.1c0-0.1,0-0.2,0-0.2l0,0.1c0,0.1,0.1,0.1,0.1,0.2c0.1,0.1,0.1,0.2,0.1,0.2c0.3,0.3,0-0.4,0.5,0.2         c0.2,0.4,0.9,1.2,0.9,1.4c-0.9-1.3,0,0.2-0.8-0.8c0.2,0.2,0.3,0.5,0.5,0.8c0,0.1-0.1,0-0.1-0.1c0.7,1.3,0.5,0.5,1.4,1.7         c-0.2-0.1,0.1,0.4,0.2,0.6c-0.4-0.5,0-0.3,0.3,0.1c0.5,0.9,0.7,0.9,1,1.3l-0.3-0.5c0.2,0.1,0.5,0.5,0.9,1.1         c0,0.1-0.4-0.5-0.3-0.3c0.6,0.5,0.9,1.5,1.6,2.3c0.2,0.4-0.1,0.1,0.1,0.5c0.8,0.9,0.6,1.1,1.4,2.1c-0.1-0.4-0.2-0.4,0.4,0.3         l-1.3-1.7l0.9,1c-0.4-0.5-0.8-1-1-1.4c0.4,0.5,0.4,0.4,0.3,0.1c0.3,0.8,1.1,1.3,1.5,2.2l-0.3,0.1c0.7,1.3,1.6,2.1,2.7,3.7         l-0.3-0.5c0.2,0.1,0.7,1,1.1,1.5c-0.1,0,0.1,0.4,0.2,0.6c0,0,0.1,0.1,0.3,0.3c0.1,0.1,0.2,0.2,0.2,0.3         c0.1,0.1,0.2,0.3,0.3,0.4c0.3,0.2,0.4,0.2,0.5,0.2l0.7,0.5c1.4,0.8,1.7,0.6,3,1.4c-0.5-0.2,0.1,0.3-0.8-0.2         c0.2,0.1,0.4,0.2,0.6,0.3c0.2,0.1,0.4,0.2,0.4,0.2c0.1,0.1,0.4,0.2,0.7,0.4c0.1-0.3,0.3-0.7,0.5-1c0.1-0.3,0.2-0.4,0.3-0.6         c0.1-0.2,0-0.3,0.3-0.8c0,0,0,0,0,0c0,0,0.4-0.8,0-0.4c1-1.2,2.1-3.8,3.1-4.7c0.6-0.8,1.5-1.9,2.1-2.6c0,0.1,0,0-0.1,0.2         c0.3-0.3,0.4-0.5,0.5-0.7c0.1-0.2,0.2-0.3,0.3-0.5c-0.2-0.2-0.4-0.6-0.6-1.1c-0.2-0.8,0.4,0.7,0.3,0.2         c0.2-0.3-0.8-1.7-1.1-2.7l0.1,0.2c-0.2-0.8-0.9-1.7-1.5-2.9c0,0,0.1,0,0,0c-0.5-0.7-1.3-2.3-1.9-3.4c0.3,0.3,0.3,0.5,0.3,0.2         c-0.3-0.5-0.1,0.2-0.6-0.8c-0.1-0.4-0.4-1.1-0.3-1.3l0.5,1c-0.1-0.6-0.6-1.2-0.8-1.8l0.1,0c-0.1-0.2-0.2-0.4-0.3-0.6         c-0.1-0.1-0.1-0.2-0.2-0.2c0-0.1,0-0.1,0.1-0.2c0.1-0.1,0.1-0.3,0.2-0.4c0.1-0.3,0.3-0.7,0.6-1.2l-0.1,0.1         c0.1-0.5,0.3-0.6,0.4-0.8c0.1-0.1,0.2-0.2,0.3-0.6c0,0,0.1,0,0.1,0.1l0.1,0.2c0.1,0.1,0.3,0.2,0.8,0.7c0.5,0.4,1,0.9,1.4,1.2         c-0.3-0.2-0.7-0.5-1.1-0.8c-0.2-0.2-0.4-0.3-0.6-0.5c-0.1-0.1-0.2-0.2-0.3-0.2c0,0-0.1-0.1-0.1-0.1c0.2,0.2,0.5,0.5,0.8,0.8         c0.4,0.3,0.7,0.6,0.9,0.7c-0.2-0.2-0.5-0.4-0.6-0.6c0.7,0.4,1.4,1.1,2.3,2c-0.4,0.1,2.2,2.4,2.7,3.2c0.5,0.4,1,0.9,1.5,1.4         c0.6,0.6,1.2,1.2,1.8,1.9c0.3-0.3,0.5-0.6,0.8-0.8l0.3-0.3l0.2-0.2c0.3-0.3,0.7-0.6,1.1-0.9c-0.4,0.1-0.3,0-0.1-0.1         c0.2-0.2,0.5-0.3,0.4-0.4c0.1-0.1,0.2-0.1,0.3-0.1l0.1,0l0,0l0,0l0,0l0-0.1c0,0,0-0.1-0.1-0.1c0,0,0,0,0,0l0,0l-0.1,0.2l0,0         c0,0,0,0,0,0l0,0l0.1,0.1c0,0,0,0,0,0c0,0,0,0,0,0c0.1-0.1,0.1-0.2,0.1-0.2v0c0,0,0,0-0.1,0l0,0l-0.2,0c0,0,0,0,0,0         c0,0,0,0,0,0c0,0,0,0.1,0,0.1c0,0.1,0.1,0.4,0,0.8c-0.1,0.4-0.2,0.8-0.2,0.8c-0.2,0.4,0-0.5-0.1-0.5         c-0.2,1.2-0.2,0.5-0.5,1.3c0.1-0.1,0.1,0,0.1,0.3c0,0.1-0.1,0.4-0.2,0.6c-0.1,0.3-0.2,0.6-0.3,0.9c0,0,0.1,0,0.1,0l-0.1,0         l0.6-1.6c0,0.2-0.1,0.6-0.2,0.8c-0.1,0.3-0.1,0.5-0.2,0.7c0.3,0.1,0.6,0.2,0.8,0.3c0.2,0.1,0.5,0.2,0.7,0.2         c0.3,0.1,0.7,0.2,1.4,0.3l-0.6,0c0.9,0.2,3.4,0.8,4.4,0.8c0.2,0.1,0.4,0.2-0.1,0.1c1.1,0.3,2.3,0.5,3.5,0.8         c0.6,0.1,1.2,0.2,1.7,0.4c0.3,0.1,0.5,0.1,0.8,0.2l0.2,0l0.1,0c0,0,0.1,0,0.1,0L47,176c0.1,0,0.2,0,0.3,0c0,0,0,0.1-0.1,0.2         c0,0-0.1,0-0.1,0c0,0,0,0,0,0.1l0,0.1c0,0.1-0.1,0.1-0.1,0.2c-0.1,0.3-0.3,0.6-0.5,0.9l0.2-0.5c-0.2,0.4-0.4,0.7-0.6,1         c-0.1,0.2-0.2,0.3-0.2,0.5c-0.1,0.1,0,0.1-0.1,0.1l0,0.1l-0.1,0l-0.3,0.1l-0.7,0.2c-0.5,0.1-1,0.2-1.5,0.3         c0-0.2-1.8-0.1-2.6,0l0,0c-2.6,0.3-4.3,0.7-6.7,1c-0.3,0-0.6,0-0.9,0c-0.2,0-0.4,0-0.6,0c-0.3,0-0.6,0.1-1,0.1         c-0.3,0.9-0.6,1.9-1,2.9c-0.2,0.4-0.3,0.9-0.4,1.3c-0.1,0.4-0.3,0.7-0.5,1.1c0.2-0.3,0.1,0.1,0,0.5c-0.3,0.5-0.6,1.4-0.7,1.3         l0.1-0.2c-0.4,0.3-0.9,1.3-1.3,2.1l0.2,0.3c-0.3,0.3-0.6,0.8-0.9,1.2c-0.1,0.2-0.3,0.5-0.4,0.7c-0.2,0.4-0.5,0.8-0.7,1.2         c1,0.5,1.9,1,2.8,1.5c0.7,0.4,1.2,0.7,1.5,1c0.1,0.1,0.3,0.1,0.4,0.2c0.2,0.1,0.4,0.2,0.5,0.3c0.2,0,0.4,0,0.6,0         c0.2,0,0.3,0,0.4,0l0,0.1c1.6,0.1,2.3,0.2,4.3,0.3l-0.4,0.1c1.1,0.1,1.4-0.3,2.4-0.3l0.3,0.2c1.9,0.1,3.8,0.4,5.7,0.3         c0,0-0.1,0.1-0.4,0.1c0.9,0.1,3.5,0.3,3.2,0c0,0.2,2,0.1,3,0.1l-0.2,0.1c0.9-0.1,0.9-0.2,2.1-0.2c0.3,0,0.2,0.1-0.1,0.1         c0.5,0.1,0.7,0,0.9,0c0.2,0,0.3,0,0.7,0c0,0-0.3,0.1-0.3,0.1c0.2,0,0.3,0,0.4,0c0,0.1,0,0.1,0,0.3c0,0.1-0.1,0.2-0.2,0.3         c-0.1,0.2-0.2,0.4-0.3,0.5c-0.2,0.3-0.4,0.6-0.5,0.7c0,0,0,0.1,0,0.3c-0.1,0-0.1,0.1-0.2,0.1c-0.1,0-0.3,0.1-0.5,0.1         c-0.1,0,0.1-0.1,0.2-0.1c-1.6,0.2-2.4,0.6-3.5,0.6c0,0-0.1-0.1-0.2,0c1.3-0.2,2.3-0.4,2.2-0.4c0-0.1-1.1,0-0.3-0.3         c-0.8,0.2-2.2,0.7-3.3,0.8c-0.1,0-0.1,0-0.1,0l0.1,0c-0.2,0-0.4,0.1-0.6,0.1c-0.3,0-0.5,0.1-0.9,0.1         c-0.1-0.1-1.2,0.1-1.7,0.2c0.1,0.1-0.6,0.2,0,0.2c-0.1,0,0.1,0,0.4-0.1c0.1,0,0.2,0,0.2-0.1l0,0c0.3-0.1,0.8-0.1,1.3-0.2         c-0.4,0.1-0.8,0.3-1.4,0.3c-0.3,0.1-0.5,0.3-0.7,0.3c-0.7-0.1-2.1,0.1-2.4,0c-1.6,0.3-3.7,0.7-4.7,1.1c-0.4,0.1-0.5,0-0.7,0         c0.3-0.1,0.6-0.1,0.7-0.2c-0.9,0.2-2.7,0.5-2.9,0.7c-1.2,0.1,0.6-0.3-0.9,0l0.2-0.1c-0.6,0-1.2,0.1-1.7,0.2         c-0.3,0.1-0.5,0.1-0.8,0.2c-0.3,0.1-0.8,0.1-1.1,0.3c0,0.2,0,0.3,0,0.5c0,0.1,0,0.2,0,0.2l0,0.1c0,0.1-0.1,0.3-0.2,0.5         c-0.2,0.4-0.3,0.7-0.5,1.1c-0.4,0.8-0.8,1.5-1.4,2.4c0.1-0.2,0.2-0.3,0.3-0.3c-0.2,0.3-0.4,0.7-0.6,0.9         c-0.2,0.2-0.5,0.4-0.8,0.4c-0.3,0-0.6,0-0.9-0.2c-0.3-0.2-0.5-0.4-0.7-0.7c-0.1-0.3-0.2-0.6-0.1-0.9c0.1-0.3,0.3-0.6,0.5-1         c0.5-0.8,0.9-1.7,1.4-2.5c-0.6,0.1-1.3,0.2-1.9,0.3l-0.8,0.1l-0.7,0.1c-1.1,0.1-1.2,0.3-1.9,0.5l-0.3-0.1l-1.1,0.4         c-0.2,0.1-0.5,0.1-0.8,0.1c-0.2,0.4-0.4,0.7-0.5,0.9c-0.2,0.3-0.3,0.5-0.5,0.8c-0.4,0.6-0.7,1.2-1,2.1l0.2-0.2         c-0.4,0.7-1,2.1-1.1,2c0,0.1,0,0.3-0.2,0.5l-0.1,0l-0.7,1.7c-0.7,1.2-0.2-0.3-1.1,1.5c-0.3,0.7-0.8,2.1-0.6,1.8         c0.1-0.3,0.4-0.7,0.5-0.7l-0.3,0.6c0.2,0.2,0.1,0.8,1-0.7l0.4-1.1l0.3-0.3l-0.4,0.9c0.4-0.5,0.4-0.8,0.6-1.2         c0.1-0.1,0.2-0.2,0.3-0.4l0.3-1.2c0.1-0.1-0.1,0.6,0.3-0.1c0.2-0.5-0.4,0.4-0.1-0.5c0.4-0.5,0.4-0.3,0.6-0.9         c0.1-0.1,0.1,0.1,0,0.3c0.2-0.6,0.7-1.4,0.7-1.8c0.4-0.5,0.9-1.8,1.1-1.7c0-0.2,0.3-1,0.6-1.5c-0.1,0.3,0,0.3,0.1,0.1         c0-0.1,0.1-0.2,0.2-0.3c0,0,0-0.1,0.1-0.1c0.2,0,0.4,0,0.5-0.1c0.2,0,0.4,0,0.3,0.1c0.7-0.4,2.6-0.6,3.9-0.9         c-0.1,0-0.2,0.1-0.3,0.1c0.5-0.1,0.4,0,0.5,0c0,0,0,0,0.1,0.1c0.1-0.1,0.2-0.2,0.4-0.3c0,0,0,0.2,0,0.4         c-0.2,0.2-0.2,0.1-0.2,0c0-0.1-0.1-0.1-0.2-0.1c0.1,0,0.1,0,0.1,0.2c-0.1,0.3-0.3,0.6-0.1,0.5c-0.2,0.3-0.3,0.4-0.4,0.5         c-0.1,0.1-0.1,0.1-0.3,0.3c0.1,0.1,0,0.3,0,0.6c0,0.3,0,0.7,0.2,1c0.2,0.6,0.3,0.7,0.3,0.8c0,0,0.1,0.1,0.2,0.2         c0.1,0.1,0.3,0.2,0.6,0.3c0.3,0.2,0.2,0.2-0.1,0.1C24.4,209.1,24,208.9,24,208.9z M47.2,200.2L47.2,200.2         c-0.2,0-0.4,0.1-0.5,0.1C46.8,200.3,46.9,200.2,47.2,200.2z M49.4,199.8c-0.3,0-0.6,0.1-1,0.2c-0.1,0,0-0.1,0.2-0.1         C48.5,199.9,49.1,199.8,49.4,199.8z M44.6,199.6c0.3-0.1,0.5-0.1,0.5-0.1C45,199.6,44.8,199.6,44.6,199.6         c-0.1,0.1-0.1,0.1-0.1,0.1C44.5,199.7,44.5,199.7,44.6,199.6z"/>
							<path fill="#44B6E6" d="M44,199.9c0,0-0.1,0-0.1,0C43.9,200,44,199.9,44,199.9c0.1,0,0.2,0,0.2,0         C44.1,199.9,44.1,199.9,44,199.9z"/>
							<path fill="#44B6E6" d="M7.2,198.3L7.2,198.3C7.1,198.3,7.2,198.3,7.2,198.3C7.2,198.3,7.2,198.3,7.2,198.3z"/>
							<polygon fill="#44B6E6" points="30.1,193.7 30.1,193.7 30.3,193.8        "/>
							<path fill="#44B6E6" d="M12.7,201.4C12.7,201.4,12.6,201.4,12.7,201.4C12.6,201.5,12.7,201.4,12.7,201.4z"/>
							<path fill="#44B6E6" d="M9.9,205.8l-0.4,0.6C9.7,206.1,9.8,205.9,9.9,205.8z"/>
							<path fill="#44B6E6" d="M7.7,209.2C7.7,209.3,7.7,209.3,7.7,209.2L7.7,209.2L7.7,209.2z"/>
							<path fill="#44B6E6" d="M6.8,173.2c0,0,0.1,0.1,0.1,0.1C7.1,173.6,7,173.4,6.8,173.2z"/>
							<path fill="#44B6E6" d="M3.2,177.4c-0.1-0.2-0.2-0.4-0.3-0.5C3,177.2,3.1,177.4,3.2,177.4z"/>
							<polygon fill="#44B6E6" points="19.5,187.2 19.5,187.2 19.5,187.1        "/>
							<path fill="#44B6E6" d="M2.5,176c0.1,0.3,0.2,0.6,0.3,0.8C2.8,176.6,2.7,176.3,2.5,176z"/>
							<path fill="#44B6E6" d="M10.1,219.6l0.2-0.1c0,0,0,0,0,0L10.1,219.6z"/>
							<path fill="#44B6E6" d="M10.3,219.5l0.2-0.2C10.4,219.4,10.3,219.4,10.3,219.5z"/>
							<path fill="#44B6E6" d="M10.8,219l-0.3,0.3C10.6,219.2,10.7,219.1,10.8,219z"/>
							<path fill="#44B6E6" d="M5,221.1L5,221.1C4.9,221.1,5,221.1,5,221.1z"/>
							<path fill="#44B6E6" d="M4.7,219.4c0,0.4-0.1,1,0.2,1.7l0.1,0C4.7,220.8,4.7,219.7,4.7,219.4z"/>
							<path fill="#44B6E6" d="M6.4,212.7c0,0-0.1,0.3-0.2,0.6C6.1,213.7,6,214,6,214c0.1-0.2,0.3-0.5,0.1,0.1         C6.7,212.5,5.8,214.4,6.4,212.7z"/>
							<path fill="#44B6E6" d="M8.6,209.2C8.2,209.8,8.6,209.2,8.6,209.2C8.9,208.8,8.9,208.7,8.6,209.2z"/>
							<path fill="#44B6E6" d="M9,190.4l0.1,0C8.9,189.9,9,190.4,9,190.4z"/>
							<polygon fill="#44B6E6" points="6.1,185.2 6.3,185.7 6.5,185.9        "/>
							<polygon fill="#44B6E6" points="5.7,181.6 5.8,181.8 5.4,181        "/>
							<path fill="#44B6E6" d="M23.4,182.6l-0.2,0.1C23,183,23.1,183.1,23.4,182.6z"/>
							<path fill="#44B6E6" d="M21.8,163.1c0.2-0.1,0.6-0.8,0.6-0.9c-0.1,0.1-0.2,0.3-0.3,0.4C21.9,162.8,21.8,163,21.8,163.1z"/>
							<polygon fill="#44B6E6" points="26.9,190.3 27,189.9 26.6,190.6        "/>
						</g>
					</g>
				</g>
			</g>
		</g>
	</g>
</g>
</svg>