<svg version="1.1" xmlns="http://www.w3.org/2000/svg" xmlns:xlink="http://www.w3.org/1999/xlink" width="672.2998046875" height="839"><defs/><g><g transform="translate(-10,-10) scale(1,1)"><rect fill="#C0C0C0" stroke="none" x="260.880859375" y="557" width="123.13720703125" height="39" opacity="0.2"/></g><g transform="translate(-10,-10) scale(1,1)"><rect fill="#ffffff" stroke="none" x="253.880859375" y="550" width="123.13720703125" height="39"/></g><g transform="translate(-10,-10) scale(1,1)"><path fill="none" stroke="#000000" d="M 253.880859375 550 L 377.01806640625 550 L 377.01806640625 589 L 253.880859375 589 L 253.880859375 550 Z Z" stroke-miterlimit="10"/></g><g transform="translate(-10,-10) scale(1,1)"><g><path fill="none" stroke="none"/><text fill="#000000" stroke="none" font-family="Arial" font-size="13px" font-style="normal" font-weight="bold" text-decoration="none" x="282.568603515625" y="569.5">AddBookUI</text></g></g><g transform="translate(-10,-10) scale(1,1)"><g><path fill="none" stroke="none"/><text fill="#000000" stroke="none" font-family="Arial" font-size="13px" font-style="normal" font-weight="normal" text-decoration="none" x="258.380859375" y="584.5">(from JavaReverse)</text></g></g><g transform="translate(-10,-10) scale(1,1)"><rect fill="#C0C0C0" stroke="none" x="260.880859375" y="607" width="123.13720703125" height="39" opacity="0.2"/></g><g transform="translate(-10,-10) scale(1,1)"><rect fill="#ffffff" stroke="none" x="253.880859375" y="600" width="123.13720703125" height="39"/></g><g transform="translate(-10,-10) scale(1,1)"><path fill="none" stroke="#000000" d="M 253.880859375 600 L 377.01806640625 600 L 377.01806640625 639 L 253.880859375 639 L 253.880859375 600 Z Z" stroke-miterlimit="10"/></g><g transform="translate(-10,-10) scale(1,1)"><g><path fill="none" stroke="none"/><text fill="#000000" stroke="none" font-family="Arial" font-size="13px" font-style="normal" font-weight="bold" text-decoration="none" x="297.7490234375" y="619.5">BuyUI</text></g></g><g transform="translate(-10,-10) scale(1,1)"><g><path fill="none" stroke="none"/><text fill="#000000" stroke="none" font-family="Arial" font-size="13px" font-style="normal" font-weight="normal" text-decoration="none" x="258.380859375" y="634.5">(from JavaReverse)</text></g></g><g transform="translate(-10,-10) scale(1,1)"><rect fill="#C0C0C0" stroke="none" x="493.33349609375" y="27" width="185.96630859375" height="39" opacity="0.2"/></g><g transform="translate(-10,-10) scale(1,1)"><rect fill="#ffffff" stroke="none" x="486.33349609375" y="20" width="185.96630859375" height="39"/></g><g transform="translate(-10,-10) scale(1,1)"><path fill="none" stroke="#000000" d="M 486.33349609375 20 L 672.2998046875 20 L 672.2998046875 59 L 486.33349609375 59 L 486.33349609375 20 Z Z" stroke-miterlimit="10"/></g><g transform="translate(-10,-10) scale(1,1)"><g><path fill="none" stroke="none"/><text fill="#000000" stroke="none" font-family="Arial" font-size="13px" font-style="normal" font-weight="bold" text-decoration="none" x="497.317626953125" y="39.5">CompositeBestForCustomer</text></g></g><g transform="translate(-10,-10) scale(1,1)"><g><path fill="none" stroke="none"/><text fill="#000000" stroke="none" font-family="Arial" font-size="13px" font-style="normal" font-weight="normal" text-decoration="none" x="522.248046875" y="54.5">(from JavaReverse)</text></g></g><g transform="translate(-10,-10) scale(1,1)"><rect fill="#C0C0C0" stroke="none" x="258.3544921875" y="27" width="128.18994140625" height="39" opacity="0.2"/></g><g transform="translate(-10,-10) scale(1,1)"><rect fill="#ffffff" stroke="none" x="251.3544921875" y="20" width="128.18994140625" height="39"/></g><g transform="translate(-10,-10) scale(1,1)"><path fill="none" stroke="#000000" d="M 251.3544921875 20 L 379.54443359375 20 L 379.54443359375 59 L 251.3544921875 59 L 251.3544921875 20 Z Z" stroke-miterlimit="10"/></g><g transform="translate(-10,-10) scale(1,1)"><g><path fill="none" stroke="none"/><text fill="#000000" stroke="none" font-family="Arial" font-size="13px" font-style="italic" font-weight="bold" text-decoration="none" x="260.174072265625" y="39.5">CompositeStrategy</text></g></g><g transform="translate(-10,-10) scale(1,1)"><g><path fill="none" stroke="none"/><text fill="#000000" stroke="none" font-family="Arial" font-size="13px" font-style="normal" font-weight="normal" text-decoration="none" x="258.380859375" y="54.5">(from JavaReverse)</text></g></g><g transform="translate(-10,-10) scale(1,1)"><path fill="none" stroke="#000000" d="M 485 40 Q 436 40 381 40" stroke-miterlimit="10"/></g><g transform="translate(-10,-10) scale(1,1)"><path fill="#FFFFFF" stroke="none" d="M 401.3253497152483 31.580964487968025 L 381 40 L 401.3253497152483 48.419035512031975"/></g><g transform="translate(-10,-10) scale(1,1)"><path fill="none" stroke="#000000" d="M 401.3253497152483 31.580964487968025 L 381 40 L 401.3253497152483 48.419035512031975 L 401.3253497152483 31.580964487968025" stroke-miterlimit="10"/></g><g transform="translate(-10,-10) scale(1,1)"><rect fill="#C0C0C0" stroke="none" x="260.880859375" y="313" width="123.13720703125" height="39" opacity="0.2"/></g><g transform="translate(-10,-10) scale(1,1)"><rect fill="#ffffff" stroke="none" x="253.880859375" y="306" width="123.13720703125" height="39"/></g><g transform="translate(-10,-10) scale(1,1)"><path fill="none" stroke="#000000" d="M 253.880859375 306 L 377.01806640625 306 L 377.01806640625 345 L 253.880859375 345 L 253.880859375 306 Z Z" stroke-miterlimit="10"/></g><g transform="translate(-10,-10) scale(1,1)"><g><path fill="none" stroke="none"/><text fill="#000000" stroke="none" font-family="Arial" font-size="13px" font-style="normal" font-weight="bold" text-decoration="none" x="287.272216796875" y="325.5">Controller</text></g></g><g transform="translate(-10,-10) scale(1,1)"><g><path fill="none" stroke="none"/><text fill="#000000" stroke="none" font-family="Arial" font-size="13px" font-style="normal" font-weight="normal" text-decoration="none" x="258.380859375" y="340.5">(from JavaReverse)</text></g></g><g transform="translate(-10,-10) scale(1,1)"><rect fill="#C0C0C0" stroke="none" x="260.880859375" y="77" width="123.13720703125" height="39" opacity="0.2"/></g><g transform="translate(-10,-10) scale(1,1)"><rect fill="#ffffff" stroke="none" x="253.880859375" y="70" width="123.13720703125" height="39"/></g><g transform="translate(-10,-10) scale(1,1)"><path fill="none" stroke="#000000" d="M 253.880859375 70 L 377.01806640625 70 L 377.01806640625 109 L 253.880859375 109 L 253.880859375 70 Z Z" stroke-miterlimit="10"/></g><g transform="translate(-10,-10) scale(1,1)"><g><path fill="none" stroke="none"/><text fill="#000000" stroke="none" font-family="Arial" font-size="13px" font-style="normal" font-weight="bold" text-decoration="none" x="266.67724609375" y="89.5">FlatRateStrategy</text></g></g><g transform="translate(-10,-10) scale(1,1)"><g><path fill="none" stroke="none"/><text fill="#000000" stroke="none" font-family="Arial" font-size="13px" font-style="normal" font-weight="normal" text-decoration="none" x="258.380859375" y="104.5">(from JavaReverse)</text></g></g><g transform="translate(-10,-10) scale(1,1)"><path fill="#C0C0C0" stroke="none" d="M 77.78271484375 87.5 C 77.78271484375 81.1487248 82.93143964375 76 89.28271484375 76 C 95.63399004375 76 100.78271484375 81.1487248 100.78271484375 87.5 C 100.78271484375 93.8512752 95.63399004375 99 89.28271484375 99 C 82.93143964375 99 77.78271484375 93.8512752 77.78271484375 87.5 Z" opacity="0.2"/></g><g transform="translate(-10,-10) scale(1,1)"><path fill="#ffffff" stroke="none" d="M 70.78271484375 80.5 C 70.78271484375 74.1487248 75.93143964375 69 82.28271484375 69 C 88.63399004375 69 93.78271484375 74.1487248 93.78271484375 80.5 C 93.78271484375 86.8512752 88.63399004375 92 82.28271484375 92 C 75.93143964375 92 70.78271484375 86.8512752 70.78271484375 80.5 Z"/></g><g transform="translate(-10,-10) scale(1,1)"><path fill="none" stroke="#000000" d="M 70.78271484375 80.5 C 70.78271484375 74.1487248 75.93143964375 69 82.28271484375 69 C 88.63399004375 69 93.78271484375 74.1487248 93.78271484375 80.5 C 93.78271484375 86.8512752 88.63399004375 92 82.28271484375 92 C 75.93143964375 92 70.78271484375 86.8512752 70.78271484375 80.5 Z" stroke-miterlimit="10"/></g><g transform="translate(-10,-10) scale(1,1)"><g><path fill="none" stroke="none"/><text fill="#000000" stroke="none" font-family="Arial" font-size="13px" font-style="normal" font-weight="bold" text-decoration="none" x="36.40185546875" y="111.5">IPricingStrategy</text></g></g><g transform="translate(-10,-10) scale(1,1)"><g><path fill="none" stroke="none"/><text fill="#000000" stroke="none" font-family="Arial" font-size="13px" font-style="normal" font-weight="normal" text-decoration="none" x="25.214111328125" y="126.5">(from JavaReverse)</text></g></g><g transform="translate(-10,-10) scale(1,1)"><path fill="none" stroke="#000000" d="M 250 40 Q 196 40 93.78271484375 77.68208888319673" stroke-miterlimit="10"/></g><g transform="translate(-10,-10) scale(1,1)"><path fill="none" stroke="#000000" d="M 253 90 Q 196 90 93.78271484375 82.61838107638889" stroke-miterlimit="10"/></g><g transform="translate(-10,-10) scale(1,1)"><rect fill="#C0C0C0" stroke="none" x="260.880859375" y="452" width="123.13720703125" height="39" opacity="0.2"/></g><g transform="translate(-10,-10) scale(1,1)"><rect fill="#ffffff" stroke="none" x="253.880859375" y="445" width="123.13720703125" height="39"/></g><g transform="translate(-10,-10) scale(1,1)"><path fill="none" stroke="#000000" d="M 253.880859375 445 L 377.01806640625 445 L 377.01806640625 484 L 253.880859375 484 L 253.880859375 445 Z Z" stroke-miterlimit="10"/></g><g transform="translate(-10,-10) scale(1,1)"><g><path fill="none" stroke="none"/><text fill="#000000" stroke="none" font-family="Arial" font-size="13px" font-style="normal" font-weight="bold" text-decoration="none" x="294.86083984375" y="464.5">MainUI</text></g></g><g transform="translate(-10,-10) scale(1,1)"><g><path fill="none" stroke="none"/><text fill="#000000" stroke="none" font-family="Arial" font-size="13px" font-style="normal" font-weight="normal" text-decoration="none" x="258.380859375" y="479.5">(from JavaReverse)</text></g></g><g transform="translate(-10,-10) scale(1,1)"><rect fill="#C0C0C0" stroke="none" x="278.225830078125" y="707" width="88.447265625" height="39" opacity="0.2"/></g><g transform="translate(-10,-10) scale(1,1)"><rect fill="#ffffff" stroke="none" x="271.225830078125" y="700" width="88.447265625" height="39"/></g><g transform="translate(-10,-10) scale(1,1)"><path fill="none" stroke="#000000" d="M 271.225830078125 700 L 359.673095703125 700 L 359.673095703125 739 L 271.225830078125 739 L 271.225830078125 700 Z Z" stroke-miterlimit="10"/></g><g transform="translate(-10,-10) scale(1,1)"><g><path fill="none" stroke="none"/><text fill="#000000" stroke="none" font-family="Arial" font-size="13px" font-style="normal" font-weight="bold" text-decoration="none" x="281.486328125" y="719.5">TableModel</text></g></g><g transform="translate(-10,-10) scale(1,1)"><g><path fill="none" stroke="none"/><text fill="#000000" stroke="none" font-family="Arial" font-size="13px" font-style="normal" font-weight="normal" text-decoration="none" x="275.725830078125" y="734.5">(from MainUI)</text></g></g><g transform="translate(-10,-10) scale(1,1)"><rect fill="#C0C0C0" stroke="none" x="255.469482421875" y="127" width="133.9599609375" height="39" opacity="0.2"/></g><g transform="translate(-10,-10) scale(1,1)"><rect fill="#ffffff" stroke="none" x="248.469482421875" y="120" width="133.9599609375" height="39"/></g><g transform="translate(-10,-10) scale(1,1)"><path fill="none" stroke="#000000" d="M 248.469482421875 120 L 382.429443359375 120 L 382.429443359375 159 L 248.469482421875 159 L 248.469482421875 120 Z Z" stroke-miterlimit="10"/></g><g transform="translate(-10,-10) scale(1,1)"><g><path fill="none" stroke="none"/><text fill="#000000" stroke="none" font-family="Arial" font-size="13px" font-style="normal" font-weight="bold" text-decoration="none" x="257.64453125" y="139.5">NoDiscountStrategy</text></g></g><g transform="translate(-10,-10) scale(1,1)"><g><path fill="none" stroke="none"/><text fill="#000000" stroke="none" font-family="Arial" font-size="13px" font-style="normal" font-weight="normal" text-decoration="none" x="258.380859375" y="154.5">(from JavaReverse)</text></g></g><g transform="translate(-10,-10) scale(1,1)"><path fill="none" stroke="#000000" d="M 247 140 Q 196 140 93.78271484375 87.85514322916667" stroke-miterlimit="10"/></g><g transform="translate(-10,-10) scale(1,1)"><path fill="#C0C0C0" stroke="none" d="M 77.78271484375 460.5 C 77.78271484375 454.1487248 82.93143964375 449 89.28271484375 449 C 95.63399004375 449 100.78271484375 454.1487248 100.78271484375 460.5 C 100.78271484375 466.8512752 95.63399004375 472 89.28271484375 472 C 82.93143964375 472 77.78271484375 466.8512752 77.78271484375 460.5 Z" opacity="0.2"/></g><g transform="translate(-10,-10) scale(1,1)"><path fill="#ffffff" stroke="none" d="M 70.78271484375 453.5 C 70.78271484375 447.1487248 75.93143964375 442 82.28271484375 442 C 88.63399004375 442 93.78271484375 447.1487248 93.78271484375 453.5 C 93.78271484375 459.8512752 88.63399004375 465 82.28271484375 465 C 75.93143964375 465 70.78271484375 459.8512752 70.78271484375 453.5 Z"/></g><g transform="translate(-10,-10) scale(1,1)"><path fill="none" stroke="#000000" d="M 70.78271484375 453.5 C 70.78271484375 447.1487248 75.93143964375 442 82.28271484375 442 C 88.63399004375 442 93.78271484375 447.1487248 93.78271484375 453.5 C 93.78271484375 459.8512752 88.63399004375 465 82.28271484375 465 C 75.93143964375 465 70.78271484375 459.8512752 70.78271484375 453.5 Z" stroke-miterlimit="10"/></g><g transform="translate(-10,-10) scale(1,1)"><g><path fill="none" stroke="none"/><text fill="#000000" stroke="none" font-family="Arial" font-size="13px" font-style="normal" font-weight="bold" text-decoration="none" x="55.552734375" y="484.5">Observer</text></g></g><g transform="translate(-10,-10) scale(1,1)"><g><path fill="none" stroke="none"/><text fill="#000000" stroke="none" font-family="Arial" font-size="13px" font-style="normal" font-weight="normal" text-decoration="none" x="25.214111328125" y="499.5">(from JavaReverse)</text></g></g><g transform="translate(-10,-10) scale(1,1)"><path fill="#C0C0C0" stroke="none" d="M 77.78271484375 386.5 C 77.78271484375 380.1487248 82.93143964375 375 89.28271484375 375 C 95.63399004375 375 100.78271484375 380.1487248 100.78271484375 386.5 C 100.78271484375 392.8512752 95.63399004375 398 89.28271484375 398 C 82.93143964375 398 77.78271484375 392.8512752 77.78271484375 386.5 Z" opacity="0.2"/></g><g transform="translate(-10,-10) scale(1,1)"><path fill="#ffffff" stroke="none" d="M 70.78271484375 379.5 C 70.78271484375 373.1487248 75.93143964375 368 82.28271484375 368 C 88.63399004375 368 93.78271484375 373.1487248 93.78271484375 379.5 C 93.78271484375 385.8512752 88.63399004375 391 82.28271484375 391 C 75.93143964375 391 70.78271484375 385.8512752 70.78271484375 379.5 Z"/></g><g transform="translate(-10,-10) scale(1,1)"><path fill="none" stroke="#000000" d="M 70.78271484375 379.5 C 70.78271484375 373.1487248 75.93143964375 368 82.28271484375 368 C 88.63399004375 368 93.78271484375 373.1487248 93.78271484375 379.5 C 93.78271484375 385.8512752 88.63399004375 391 82.28271484375 391 C 75.93143964375 391 70.78271484375 385.8512752 70.78271484375 379.5 Z" stroke-miterlimit="10"/></g><g transform="translate(-10,-10) scale(1,1)"><g><path fill="none" stroke="none"/><text fill="#000000" stroke="none" font-family="Arial" font-size="13px" font-style="normal" font-weight="bold" text-decoration="none" x="31.714111328125" y="410.5">ObserverForMain</text></g></g><g transform="translate(-10,-10) scale(1,1)"><g><path fill="none" stroke="none"/><text fill="#000000" stroke="none" font-family="Arial" font-size="13px" font-style="normal" font-weight="normal" text-decoration="none" x="25.214111328125" y="425.5">(from JavaReverse)</text></g></g><g transform="translate(-10,-10) scale(1,1)"><path fill="none" stroke="#000000" d="M 278 444 Q 196 400 93.78271484375 382.9275716145833" stroke-miterlimit="10"/></g><g transform="translate(-10,-10) scale(1,1)"><rect fill="#C0C0C0" stroke="none" x="256.89453125" y="177" width="131.10986328125" height="39" opacity="0.2"/></g><g transform="translate(-10,-10) scale(1,1)"><rect fill="#ffffff" stroke="none" x="249.89453125" y="170" width="131.10986328125" height="39"/></g><g transform="translate(-10,-10) scale(1,1)"><path fill="none" stroke="#000000" d="M 249.89453125 170 L 381.00439453125 170 L 381.00439453125 209 L 249.89453125 209 L 249.89453125 170 Z Z" stroke-miterlimit="10"/></g><g transform="translate(-10,-10) scale(1,1)"><g><path fill="none" stroke="none"/><text fill="#000000" stroke="none" font-family="Arial" font-size="13px" font-style="normal" font-weight="bold" text-decoration="none" x="257.996826171875" y="189.5">PercentageStrategy</text></g></g><g transform="translate(-10,-10) scale(1,1)"><g><path fill="none" stroke="none"/><text fill="#000000" stroke="none" font-family="Arial" font-size="13px" font-style="normal" font-weight="normal" text-decoration="none" x="258.380859375" y="204.5">(from JavaReverse)</text></g></g><g transform="translate(-10,-10) scale(1,1)"><path fill="none" stroke="#000000" d="M 249 190 Q 196 190 91.50943396226415 92" stroke-miterlimit="10"/></g><g transform="translate(-10,-10) scale(1,1)"><rect fill="#C0C0C0" stroke="none" x="260.880859375" y="239" width="123.13720703125" height="39" opacity="0.2"/></g><g transform="translate(-10,-10) scale(1,1)"><rect fill="#ffffff" stroke="none" x="253.880859375" y="232" width="123.13720703125" height="39"/></g><g transform="translate(-10,-10) scale(1,1)"><path fill="none" stroke="#000000" d="M 253.880859375 232 L 377.01806640625 232 L 377.01806640625 271 L 253.880859375 271 L 253.880859375 232 Z Z" stroke-miterlimit="10"/></g><g transform="translate(-10,-10) scale(1,1)"><g><path fill="none" stroke="none"/><text fill="#000000" stroke="none" font-family="Arial" font-size="13px" font-style="normal" font-weight="bold" text-decoration="none" x="302.43994140625" y="251.5">Sale</text></g></g><g transform="translate(-10,-10) scale(1,1)"><g><path fill="none" stroke="none"/><text fill="#000000" stroke="none" font-family="Arial" font-size="13px" font-style="normal" font-weight="normal" text-decoration="none" x="258.380859375" y="266.5">(from JavaReverse)</text></g></g><g transform="translate(-10,-10) scale(1,1)"><rect fill="#C0C0C0" stroke="none" x="260.880859375" y="502" width="123.13720703125" height="39" opacity="0.2"/></g><g transform="translate(-10,-10) scale(1,1)"><rect fill="#ffffff" stroke="none" x="253.880859375" y="495" width="123.13720703125" height="39"/></g><g transform="translate(-10,-10) scale(1,1)"><path fill="none" stroke="#000000" d="M 253.880859375 495 L 377.01806640625 495 L 377.01806640625 534 L 253.880859375 534 L 253.880859375 495 Z Z" stroke-miterlimit="10"/></g><g transform="translate(-10,-10) scale(1,1)"><g><path fill="none" stroke="none"/><text fill="#000000" stroke="none" font-family="Arial" font-size="13px" font-style="normal" font-weight="bold" text-decoration="none" x="269.200439453125" y="514.5">ShoppingCartUI</text></g></g><g transform="translate(-10,-10) scale(1,1)"><g><path fill="none" stroke="none"/><text fill="#000000" stroke="none" font-family="Arial" font-size="13px" font-style="normal" font-weight="normal" text-decoration="none" x="258.380859375" y="529.5">(from JavaReverse)</text></g></g><g transform="translate(-10,-10) scale(1,1)"><path fill="none" stroke="#000000" d="M 256 494 Q 196 474 93.78271484375 456.9275716145833" stroke-miterlimit="10"/></g><g transform="translate(-10,-10) scale(1,1)"><rect fill="#C0C0C0" stroke="none" x="252.5654296875" y="757" width="139.76806640625" height="39" opacity="0.2"/></g><g transform="translate(-10,-10) scale(1,1)"><rect fill="#ffffff" stroke="none" x="245.5654296875" y="750" width="139.76806640625" height="39"/></g><g transform="translate(-10,-10) scale(1,1)"><path fill="none" stroke="#000000" d="M 245.5654296875 750 L 385.33349609375 750 L 385.33349609375 789 L 245.5654296875 789 L 245.5654296875 750 Z Z" stroke-miterlimit="10"/></g><g transform="translate(-10,-10) scale(1,1)"><g><path fill="none" stroke="none"/><text fill="#000000" stroke="none" font-family="Arial" font-size="13px" font-style="normal" font-weight="bold" text-decoration="none" x="281.486328125" y="769.5">TableModel</text></g></g><g transform="translate(-10,-10) scale(1,1)"><g><path fill="none" stroke="none"/><text fill="#000000" stroke="none" font-family="Arial" font-size="13px" font-style="normal" font-weight="normal" text-decoration="none" x="250.0654296875" y="784.5">(from ShoppingCartUI)</text></g></g><g transform="translate(-10,-10) scale(1,1)"><rect fill="#C0C0C0" stroke="none" x="260.880859375" y="657" width="123.13720703125" height="39" opacity="0.2"/></g><g transform="translate(-10,-10) scale(1,1)"><rect fill="#ffffff" stroke="none" x="253.880859375" y="650" width="123.13720703125" height="39"/></g><g transform="translate(-10,-10) scale(1,1)"><path fill="none" stroke="#000000" d="M 253.880859375 650 L 377.01806640625 650 L 377.01806640625 689 L 253.880859375 689 L 253.880859375 650 Z Z" stroke-miterlimit="10"/></g><g transform="translate(-10,-10) scale(1,1)"><g><path fill="none" stroke="none"/><text fill="#000000" stroke="none" font-family="Arial" font-size="13px" font-style="normal" font-weight="bold" text-decoration="none" x="279.68359375" y="669.5">StrategiesUI</text></g></g><g transform="translate(-10,-10) scale(1,1)"><g><path fill="none" stroke="none"/><text fill="#000000" stroke="none" font-family="Arial" font-size="13px" font-style="normal" font-weight="normal" text-decoration="none" x="258.380859375" y="684.5">(from JavaReverse)</text></g></g><g transform="translate(-10,-10) scale(1,1)"><rect fill="#C0C0C0" stroke="none" x="263.048583984375" y="807" width="118.8017578125" height="39" opacity="0.2"/></g><g transform="translate(-10,-10) scale(1,1)"><rect fill="#ffffff" stroke="none" x="256.048583984375" y="800" width="118.8017578125" height="39"/></g><g transform="translate(-10,-10) scale(1,1)"><path fill="none" stroke="#000000" d="M 256.048583984375 800 L 374.850341796875 800 L 374.850341796875 839 L 256.048583984375 839 L 256.048583984375 800 Z Z" stroke-miterlimit="10"/></g><g transform="translate(-10,-10) scale(1,1)"><g><path fill="none" stroke="none"/><text fill="#000000" stroke="none" font-family="Arial" font-size="13px" font-style="normal" font-weight="bold" text-decoration="none" x="281.486328125" y="819.5">TableModel</text></g></g><g transform="translate(-10,-10) scale(1,1)"><g><path fill="none" stroke="none"/><text fill="#000000" stroke="none" font-family="Arial" font-size="13px" font-style="normal" font-weight="normal" text-decoration="none" x="260.548583984375" y="834.5">(from StrategiesUI)</text></g></g><g transform="translate(-10,-10) scale(1,1)"><path fill="#C0C0C0" stroke="none" d="M 77.78271484375 238.5 C 77.78271484375 232.1487248 82.93143964375 227 89.28271484375 227 C 95.63399004375 227 100.78271484375 232.1487248 100.78271484375 238.5 C 100.78271484375 244.8512752 95.63399004375 250 89.28271484375 250 C 82.93143964375 250 77.78271484375 244.8512752 77.78271484375 238.5 Z" opacity="0.2"/></g><g transform="translate(-10,-10) scale(1,1)"><path fill="#ffffff" stroke="none" d="M 70.78271484375 231.5 C 70.78271484375 225.1487248 75.93143964375 220 82.28271484375 220 C 88.63399004375 220 93.78271484375 225.1487248 93.78271484375 231.5 C 93.78271484375 237.8512752 88.63399004375 243 82.28271484375 243 C 75.93143964375 243 70.78271484375 237.8512752 70.78271484375 231.5 Z"/></g><g transform="translate(-10,-10) scale(1,1)"><path fill="none" stroke="#000000" d="M 70.78271484375 231.5 C 70.78271484375 225.1487248 75.93143964375 220 82.28271484375 220 C 88.63399004375 220 93.78271484375 225.1487248 93.78271484375 231.5 C 93.78271484375 237.8512752 88.63399004375 243 82.28271484375 243 C 75.93143964375 243 70.78271484375 237.8512752 70.78271484375 231.5 Z" stroke-miterlimit="10"/></g><g transform="translate(-10,-10) scale(1,1)"><g><path fill="none" stroke="none"/><text fill="#000000" stroke="none" font-family="Arial" font-size="13px" font-style="normal" font-weight="bold" text-decoration="none" x="60.602294921875" y="262.5">Subject</text></g></g><g transform="translate(-10,-10) scale(1,1)"><g><path fill="none" stroke="none"/><text fill="#000000" stroke="none" font-family="Arial" font-size="13px" font-style="normal" font-weight="normal" text-decoration="none" x="25.214111328125" y="277.5">(from JavaReverse)</text></g></g><g transform="translate(-10,-10) scale(1,1)"><path fill="none" stroke="#000000" d="M 253 252 Q 196 252 93.78271484375 234.92757161458334" stroke-miterlimit="10"/></g><g transform="translate(-10,-10) scale(1,1)"><path fill="#C0C0C0" stroke="none" d="M 77.78271484375 312.5 C 77.78271484375 306.1487248 82.93143964375 301 89.28271484375 301 C 95.63399004375 301 100.78271484375 306.1487248 100.78271484375 312.5 C 100.78271484375 318.8512752 95.63399004375 324 89.28271484375 324 C 82.93143964375 324 77.78271484375 318.8512752 77.78271484375 312.5 Z" opacity="0.2"/></g><g transform="translate(-10,-10) scale(1,1)"><path fill="#ffffff" stroke="none" d="M 70.78271484375 305.5 C 70.78271484375 299.1487248 75.93143964375 294 82.28271484375 294 C 88.63399004375 294 93.78271484375 299.1487248 93.78271484375 305.5 C 93.78271484375 311.8512752 88.63399004375 317 82.28271484375 317 C 75.93143964375 317 70.78271484375 311.8512752 70.78271484375 305.5 Z"/></g><g transform="translate(-10,-10) scale(1,1)"><path fill="none" stroke="#000000" d="M 70.78271484375 305.5 C 70.78271484375 299.1487248 75.93143964375 294 82.28271484375 294 C 88.63399004375 294 93.78271484375 299.1487248 93.78271484375 305.5 C 93.78271484375 311.8512752 88.63399004375 317 82.28271484375 317 C 75.93143964375 317 70.78271484375 311.8512752 70.78271484375 305.5 Z" stroke-miterlimit="10"/></g><g transform="translate(-10,-10) scale(1,1)"><g><path fill="none" stroke="none"/><text fill="#000000" stroke="none" font-family="Arial" font-size="13px" font-style="normal" font-weight="bold" text-decoration="none" x="36.763671875" y="336.5">SubjectForMain</text></g></g><g transform="translate(-10,-10) scale(1,1)"><g><path fill="none" stroke="none"/><text fill="#000000" stroke="none" font-family="Arial" font-size="13px" font-style="normal" font-weight="normal" text-decoration="none" x="25.214111328125" y="351.5">(from JavaReverse)</text></g></g><g transform="translate(-10,-10) scale(1,1)"><path fill="none" stroke="#000000" d="M 253 326 Q 196 326 93.78271484375 308.9275716145833" stroke-miterlimit="10"/></g><g transform="translate(-10,-10) scale(1,1)"><rect fill="#C0C0C0" stroke="none" x="27.714111328125" y="537" width="123.13720703125" height="39" opacity="0.2"/></g><g transform="translate(-10,-10) scale(1,1)"><rect fill="#ffffff" stroke="none" x="20.714111328125" y="530" width="123.13720703125" height="39"/></g><g transform="translate(-10,-10) scale(1,1)"><path fill="none" stroke="#000000" d="M 20.714111328125 530 L 143.851318359375 530 L 143.851318359375 569 L 20.714111328125 569 L 20.714111328125 530 Z Z" stroke-miterlimit="10"/></g><g transform="translate(-10,-10) scale(1,1)"><g><path fill="none" stroke="none"/><text fill="#000000" stroke="none" font-family="Arial" font-size="13px" font-style="normal" font-weight="bold" text-decoration="none" x="60.253173828125" y="549.5">JFrame</text></g></g><g transform="translate(-10,-10) scale(1,1)"><g><path fill="none" stroke="none"/><text fill="#000000" stroke="none" font-family="Arial" font-size="13px" font-style="normal" font-weight="normal" text-decoration="none" x="25.214111328125" y="564.5">(from JavaReverse)</text></g></g><g transform="translate(-10,-10) scale(1,1)"><path fill="none" stroke="#000000" d="M 253 554 Q 196 540 145 544" stroke-miterlimit="10"/></g><g transform="translate(-10,-10) scale(1,1)"><path fill="#FFFFFF" stroke="none" d="M 164.60482630252488 534.0174759881166 L 145 544 L 165.92141604466002 550.8039952003395"/></g><g transform="translate(-10,-10) scale(1,1)"><path fill="none" stroke="#000000" d="M 164.60482630252488 534.0174759881166 L 145 544 L 165.92141604466002 550.8039952003395 L 164.60482630252488 534.0174759881166" stroke-miterlimit="10"/></g><g transform="translate(-10,-10) scale(1,1)"><path fill="none" stroke="#000000" d="M 266 599 Q 196 570 145 561" stroke-miterlimit="10"/></g><g transform="translate(-10,-10) scale(1,1)"><path fill="#FFFFFF" stroke="none" d="M 166.47917512445198 556.2413199337292 L 145 561 L 163.55296532915077 572.823175440436"/></g><g transform="translate(-10,-10) scale(1,1)"><path fill="none" stroke="#000000" d="M 166.47917512445198 556.2413199337292 L 145 561 L 163.55296532915077 572.823175440436 L 166.47917512445198 556.2413199337292" stroke-miterlimit="10"/></g><g transform="translate(-10,-10) scale(1,1)"><path fill="none" stroke="#000000" d="M 253 474 Q 196 484 117 529" stroke-miterlimit="10"/></g><g transform="translate(-10,-10) scale(1,1)"><path fill="#FFFFFF" stroke="none" d="M 130.49405143566102 511.6244258842554 L 117 529 L 138.82812156008845 526.2553489915836"/></g><g transform="translate(-10,-10) scale(1,1)"><path fill="none" stroke="#000000" d="M 130.49405143566102 511.6244258842554 L 117 529 L 138.82812156008845 526.2553489915836 L 130.49405143566102 511.6244258842554" stroke-miterlimit="10"/></g><g transform="translate(-10,-10) scale(1,1)"><path fill="none" stroke="#000000" d="M 253 514 Q 196 514 145 530" stroke-miterlimit="10"/></g><g transform="translate(-10,-10) scale(1,1)"><path fill="#FFFFFF" stroke="none" d="M 161.87320632209227 515.8828151385587 L 145 530 L 166.91351575750033 531.948801463922"/></g><g transform="translate(-10,-10) scale(1,1)"><path fill="none" stroke="#000000" d="M 161.87320632209227 515.8828151385587 L 145 530 L 166.91351575750033 531.948801463922 L 161.87320632209227 515.8828151385587" stroke-miterlimit="10"/></g><g transform="translate(-10,-10) scale(1,1)"><path fill="none" stroke="#000000" d="M 281 649 Q 196 600 129 570" stroke-miterlimit="10"/></g><g transform="translate(-10,-10) scale(1,1)"><path fill="#FFFFFF" stroke="none" d="M 150.99119609319038 570.6223298087409 L 129 570 L 144.11007025600279 585.9901775117933"/></g><g transform="translate(-10,-10) scale(1,1)"><path fill="none" stroke="#000000" d="M 150.99119609319038 570.6223298087409 L 129 570 L 144.11007025600279 585.9901775117933 L 150.99119609319038 570.6223298087409" stroke-miterlimit="10"/></g><g transform="translate(-10,-10) scale(1,1)"><rect fill="#C0C0C0" stroke="none" x="27" y="782" width="124.5654296875" height="39" opacity="0.2"/></g><g transform="translate(-10,-10) scale(1,1)"><rect fill="#ffffff" stroke="none" x="20" y="775" width="124.5654296875" height="39"/></g><g transform="translate(-10,-10) scale(1,1)"><path fill="none" stroke="#000000" d="M 20 775 L 144.5654296875 775 L 144.5654296875 814 L 20 814 L 20 775 Z Z" stroke-miterlimit="10"/></g><g transform="translate(-10,-10) scale(1,1)"><g><path fill="none" stroke="none"/><text fill="#000000" stroke="none" font-family="Arial" font-size="13px" font-style="normal" font-weight="bold" text-decoration="none" x="27.724609375" y="794.5">DefaultTableModel</text></g></g><g transform="translate(-10,-10) scale(1,1)"><g><path fill="none" stroke="none"/><text fill="#000000" stroke="none" font-family="Arial" font-size="13px" font-style="normal" font-weight="normal" text-decoration="none" x="25.214111328125" y="809.5">(from JavaReverse)</text></g></g><g transform="translate(-10,-10) scale(1,1)"><path fill="none" stroke="#000000" d="M 270 719 Q 196 720 113 774" stroke-miterlimit="10"/></g><g transform="translate(-10,-10) scale(1,1)"><path fill="#FFFFFF" stroke="none" d="M 125.44570410099304 755.858763839514 L 113 774 L 134.62823287463965 769.9726506582672"/></g><g transform="translate(-10,-10) scale(1,1)"><path fill="none" stroke="#000000" d="M 125.44570410099304 755.858763839514 L 113 774 L 134.62823287463965 769.9726506582672 L 125.44570410099304 755.858763839514" stroke-miterlimit="10"/></g><g transform="translate(-10,-10) scale(1,1)"><path fill="none" stroke="#000000" d="M 245 770 Q 196 770 146 781" stroke-miterlimit="10"/></g><g transform="translate(-10,-10) scale(1,1)"><path fill="#FFFFFF" stroke="none" d="M 164.0417113547228 768.4104546788668 L 146 781 L 167.65956931176348 784.8552635745062"/></g><g transform="translate(-10,-10) scale(1,1)"><path fill="none" stroke="#000000" d="M 164.0417113547228 768.4104546788668 L 146 781 L 167.65956931176348 784.8552635745062 L 164.0417113547228 768.4104546788668" stroke-miterlimit="10"/></g><g transform="translate(-10,-10) scale(1,1)"><path fill="none" stroke="#000000" d="M 255 820 Q 196 820 146 808" stroke-miterlimit="10"/></g><g transform="translate(-10,-10) scale(1,1)"><path fill="#FFFFFF" stroke="none" d="M 167.7288871458583 804.5568236463181 L 146 808 L 163.79933679698328 820.9299500999639"/></g><g transform="translate(-10,-10) scale(1,1)"><path fill="none" stroke="#000000" d="M 167.7288871458583 804.5568236463181 L 146 808 L 163.79933679698328 820.9299500999639 L 167.7288871458583 804.5568236463181" stroke-miterlimit="10"/></g><g transform="translate(-10,-10) scale(1,1)"><path fill="#C0C0C0" stroke="none" d="M 77.78271484375 666.5 C 77.78271484375 660.1487248 82.93143964375 655 89.28271484375 655 C 95.63399004375 655 100.78271484375 660.1487248 100.78271484375 666.5 C 100.78271484375 672.8512752 95.63399004375 678 89.28271484375 678 C 82.93143964375 678 77.78271484375 672.8512752 77.78271484375 666.5 Z" opacity="0.2"/></g><g transform="translate(-10,-10) scale(1,1)"><path fill="#ffffff" stroke="none" d="M 70.78271484375 659.5 C 70.78271484375 653.1487248 75.93143964375 648 82.28271484375 648 C 88.63399004375 648 93.78271484375 653.1487248 93.78271484375 659.5 C 93.78271484375 665.8512752 88.63399004375 671 82.28271484375 671 C 75.93143964375 671 70.78271484375 665.8512752 70.78271484375 659.5 Z"/></g><g transform="translate(-10,-10) scale(1,1)"><path fill="none" stroke="#000000" d="M 70.78271484375 659.5 C 70.78271484375 653.1487248 75.93143964375 648 82.28271484375 648 C 88.63399004375 648 93.78271484375 653.1487248 93.78271484375 659.5 C 93.78271484375 665.8512752 88.63399004375 671 82.28271484375 671 C 75.93143964375 671 70.78271484375 665.8512752 70.78271484375 659.5 Z" stroke-miterlimit="10"/></g><g transform="translate(-10,-10) scale(1,1)"><g><path fill="none" stroke="none"/><text fill="#000000" stroke="none" font-family="Arial" font-size="13px" font-style="normal" font-weight="bold" text-decoration="none" x="41.0927734375" y="690.5">ActionListener</text></g></g><g transform="translate(-10,-10) scale(1,1)"><g><path fill="none" stroke="none"/><text fill="#000000" stroke="none" font-family="Arial" font-size="13px" font-style="normal" font-weight="normal" text-decoration="none" x="25.214111328125" y="705.5">(from JavaReverse)</text></g></g><g transform="translate(-10,-10) scale(1,1)"><path fill="none" stroke="#000000" d="M 274 590 Q 196 630 93.78271484375 657.6908094618055" stroke-miterlimit="10"/></g><g transform="translate(-10,-10) scale(1,1)"><path fill="none" stroke="#000000" d="M 254 640 Q 196 660 93.78271484375 660.8702721974206" stroke-miterlimit="10"/></g><g transform="translate(-10,-10) scale(1,1)"><path fill="none" stroke="#000000" d="M 298 485 Q 196 610 93.78271484375 656.3322155070755" stroke-miterlimit="10"/></g><g transform="translate(-10,-10) scale(1,1)"><path fill="none" stroke="#000000" d="M 291 535 Q 196 620 93.78271484375 656.719474546371" stroke-miterlimit="10"/></g><g transform="translate(-10,-10) scale(1,1)"><path fill="none" stroke="#000000" d="M 253 680 Q 196 690 93.78271484375 663.8627077132936" stroke-miterlimit="10"/></g></g></svg>